<svg width="22" height="17" viewBox="0 0 22 17" fill="none" xmlns="http://www.w3.org/2000/svg">
<path d="M18.9998 12V3C18.9998 2.46957 18.7891 1.96086 18.414 1.58579C18.0389 1.21071 17.5302 1 16.9998 1H4.99978C4.46934 1 3.96064 1.21071 3.58556 1.58579C3.21049 1.96086 2.99978 2.46957 2.99978 3V12M18.9998 12H2.99978M18.9998 12L20.2798 14.55C20.3569 14.703 20.3934 14.8732 20.3858 15.0444C20.3782 15.2155 20.3267 15.3818 20.2364 15.5274C20.1461 15.6729 20.0198 15.7928 19.8698 15.8756C19.7198 15.9584 19.5511 16.0012 19.3798 16H2.61978C2.44847 16.0012 2.27972 15.9584 2.12972 15.8756C1.97972 15.7928 1.8535 15.6729 1.76315 15.5274C1.67281 15.3818 1.62137 15.2155 1.61378 15.0444C1.60618 14.8732 1.64268 14.703 1.71978 14.55L2.99978 12" stroke="#FF7F38" stroke-width="1.5" stroke-linecap="round" stroke-linejoin="round"/>
</svg>
