<svg width="25" height="24" viewBox="0 0 25 24" fill="none" xmlns="http://www.w3.org/2000/svg">
<path d="M20.1665 16V7C20.1665 6.46957 19.9558 5.96086 19.5807 5.58579C19.2057 5.21071 18.697 5 18.1665 5H6.16652C5.63609 5 5.12738 5.21071 4.75231 5.58579C4.37724 5.96086 4.16652 6.46957 4.16652 7V16M20.1665 16H4.16652M20.1665 16L21.4465 18.55C21.5236 18.703 21.5601 18.8732 21.5525 19.0444C21.5449 19.2155 21.4935 19.3818 21.4031 19.5274C21.3128 19.6729 21.1866 19.7928 21.0366 19.8756C20.8866 19.9584 20.7178 20.0012 20.5465 20H3.78652C3.61521 20.0012 3.44647 19.9584 3.29647 19.8756C3.14647 19.7928 3.02025 19.6729 2.9299 19.5274C2.83956 19.3818 2.78812 19.2155 2.78052 19.0444C2.77293 18.8732 2.80943 18.703 2.88652 18.55L4.16652 16" stroke="white" stroke-width="1.5" stroke-linecap="round" stroke-linejoin="round"/>
</svg>
