<svg width="25" height="24" viewBox="0 0 25 24" fill="none" xmlns="http://www.w3.org/2000/svg">
<path d="M12.5 12H12.51" stroke="#646464" stroke-width="1.5" stroke-linecap="round" stroke-linejoin="round"/>
<path d="M16.5 5.99951V3.99951C16.5 3.46908 16.2893 2.96037 15.9142 2.5853C15.5391 2.21023 15.0304 1.99951 14.5 1.99951H10.5C9.96957 1.99951 9.46086 2.21023 9.08579 2.5853C8.71071 2.96037 8.5 3.46908 8.5 3.99951V5.99951" stroke="#646464" stroke-width="1.5" stroke-linecap="round" stroke-linejoin="round"/>
<path d="M22.5 13.0005C19.5328 14.9595 16.0555 16.0038 12.5 16.0038C8.94445 16.0038 5.46721 14.9595 2.5 13.0005" stroke="#646464" stroke-width="1.5" stroke-linecap="round" stroke-linejoin="round"/>
<path d="M20.5 6H4.5C3.39543 6 2.5 6.89543 2.5 8V18C2.5 19.1046 3.39543 20 4.5 20H20.5C21.6046 20 22.5 19.1046 22.5 18V8C22.5 6.89543 21.6046 6 20.5 6Z" stroke="#646464" stroke-width="1.5" stroke-linecap="round" stroke-linejoin="round"/>
</svg>
