<svg width="25" height="24" viewBox="0 0 25 24" fill="none" xmlns="http://www.w3.org/2000/svg">
<path d="M11.3333 14H13.3333C13.8637 14 14.3724 13.7893 14.7475 13.4142C15.1225 13.0391 15.3333 12.5304 15.3333 12C15.3333 11.4696 15.1225 10.9609 14.7475 10.5858C14.3724 10.2107 13.8637 10 13.3333 10H10.3333C9.73325 10 9.23325 10.2 8.93325 10.6L3.33325 16" stroke="#242424" stroke-width="1.5" stroke-linecap="round" stroke-linejoin="round"/>
<path d="M7.33325 20L8.93325 18.6C9.23325 18.2 9.73325 18 10.3333 18H14.3333C15.4333 18 16.4333 17.6 17.1333 16.8L21.7333 12.4C22.1191 12.0354 22.3444 11.5323 22.3594 11.0016C22.3744 10.4709 22.1779 9.95592 21.8133 9.57003C21.4486 9.18414 20.9455 8.95892 20.4148 8.94392C19.8841 8.92891 19.3691 9.12535 18.9833 9.49003L14.7833 13.39" stroke="#242424" stroke-width="1.5" stroke-linecap="round" stroke-linejoin="round"/>
<path d="M2.33325 15L8.33325 21" stroke="#242424" stroke-width="1.5" stroke-linecap="round" stroke-linejoin="round"/>
<path d="M19.8332 8.5C20.5332 7.8 21.3332 6.9 21.3332 5.8C21.4031 5.18893 21.2645 4.57216 20.9401 4.04964C20.6156 3.52712 20.1242 3.12947 19.5455 2.92114C18.9668 2.71281 18.3348 2.706 17.7517 2.90182C17.1686 3.09763 16.6688 3.4846 16.3332 4C15.9762 3.52458 15.4762 3.17613 14.9066 3.00578C14.337 2.83544 13.7278 2.85219 13.1684 3.05356C12.6091 3.25494 12.129 3.63034 11.7987 4.12465C11.4683 4.61896 11.3052 5.20614 11.3332 5.8C11.3332 7 12.1332 7.8 12.8332 8.6L16.3332 12L19.8332 8.5Z" stroke="#242424" stroke-width="1.5" stroke-linecap="round" stroke-linejoin="round"/>
</svg>
