<svg width="33" height="33" viewBox="0 0 33 33" fill="none" xmlns="http://www.w3.org/2000/svg">
<path d="M4.625 16.5C4.625 13.3174 5.88928 10.2652 8.13972 8.01472C10.3902 5.76428 13.4424 4.5 16.625 4.5C19.9797 4.51262 23.1997 5.82163 25.6117 8.15333L28.625 11.1667" stroke="url(#paint0_linear_1869_10743)" stroke-width="1.5" stroke-linecap="round" stroke-linejoin="round"/>
<path d="M28.6247 4.5V11.1667H21.958" stroke="url(#paint1_linear_1869_10743)" stroke-width="1.5" stroke-linecap="round" stroke-linejoin="round"/>
<path d="M28.625 16.5C28.625 19.6826 27.3607 22.7348 25.1103 24.9853C22.8598 27.2357 19.8076 28.5 16.625 28.5C13.2703 28.4874 10.0503 27.1784 7.63833 24.8467L4.625 21.8333" stroke="url(#paint2_linear_1869_10743)" stroke-width="1.5" stroke-linecap="round" stroke-linejoin="round"/>
<path d="M11.2917 21.833H7.95833H4.625V28.4997" stroke="url(#paint3_linear_1869_10743)" stroke-width="1.5" stroke-linecap="round" stroke-linejoin="round"/>
<defs>
<linearGradient id="paint0_linear_1869_10743" x1="16.625" y1="4.5" x2="16.625" y2="16.5" gradientUnits="userSpaceOnUse">
<stop stop-color="#FF7F38"/>
<stop offset="0.49" stop-color="#FFBA08"/>
<stop offset="1" stop-color="#FFA500"/>
</linearGradient>
<linearGradient id="paint1_linear_1869_10743" x1="25.2913" y1="4.5" x2="25.2913" y2="11.1667" gradientUnits="userSpaceOnUse">
<stop stop-color="#FF7F38"/>
<stop offset="0.49" stop-color="#FFBA08"/>
<stop offset="1" stop-color="#FFA500"/>
</linearGradient>
<linearGradient id="paint2_linear_1869_10743" x1="16.625" y1="16.5" x2="16.625" y2="28.5" gradientUnits="userSpaceOnUse">
<stop stop-color="#FF7F38"/>
<stop offset="0.49" stop-color="#FFBA08"/>
<stop offset="1" stop-color="#FFA500"/>
</linearGradient>
<linearGradient id="paint3_linear_1869_10743" x1="7.95833" y1="21.833" x2="7.95833" y2="28.4997" gradientUnits="userSpaceOnUse">
<stop stop-color="#FF7F38"/>
<stop offset="0.49" stop-color="#FFBA08"/>
<stop offset="1" stop-color="#FFA500"/>
</linearGradient>
</defs>
</svg>
