<svg width="25" height="24" viewBox="0 0 25 24" fill="none" xmlns="http://www.w3.org/2000/svg">
<path d="M6.16675 9H4.66675C4.00371 9 3.36782 8.73661 2.89898 8.26777C2.43014 7.79893 2.16675 7.16304 2.16675 6.5C2.16675 5.83696 2.43014 5.20107 2.89898 4.73223C3.36782 4.26339 4.00371 4 4.66675 4H6.16675" stroke="#646464" stroke-width="1.5" stroke-linecap="round" stroke-linejoin="round"/>
<path d="M18.1667 9H19.6667C20.3298 9 20.9657 8.73661 21.4345 8.26777C21.9034 7.79893 22.1667 7.16304 22.1667 6.5C22.1667 5.83696 21.9034 5.20107 21.4345 4.73223C20.9657 4.26339 20.3298 4 19.6667 4H18.1667" stroke="#646464" stroke-width="1.5" stroke-linecap="round" stroke-linejoin="round"/>
<path d="M4.16675 22H20.1667" stroke="#646464" stroke-width="1.5" stroke-linecap="round" stroke-linejoin="round"/>
<path d="M10.1667 14.66V17C10.1667 17.55 9.69675 17.98 9.19675 18.21C8.01675 18.75 7.16675 20.24 7.16675 22" stroke="#646464" stroke-width="1.5" stroke-linecap="round" stroke-linejoin="round"/>
<path d="M14.1667 14.66V17C14.1667 17.55 14.6367 17.98 15.1367 18.21C16.3167 18.75 17.1667 20.24 17.1667 22" stroke="#646464" stroke-width="1.5" stroke-linecap="round" stroke-linejoin="round"/>
<path d="M18.1667 2H6.16675V9C6.16675 10.5913 6.79889 12.1174 7.92411 13.2426C9.04933 14.3679 10.5754 15 12.1667 15C13.758 15 15.2842 14.3679 16.4094 13.2426C17.5346 12.1174 18.1667 10.5913 18.1667 9V2Z" stroke="#646464" stroke-width="1.5" stroke-linecap="round" stroke-linejoin="round"/>
</svg>
