<svg width="33" height="33" viewBox="0 0 33 33" fill="none" xmlns="http://www.w3.org/2000/svg">
<rect x="1.29167" y="1.16667" width="30.6667" height="30.6667" rx="2" stroke="url(#paint0_linear_1869_10763)" stroke-width="1.33334"/>
<path d="M18.2917 10.584L16.625 12.1673" stroke="url(#paint1_linear_1869_10763)" stroke-width="1.5" stroke-linecap="round" stroke-linejoin="round"/>
<path d="M10.8747 13.8337L8.45801 13.167" stroke="url(#paint2_linear_1869_10763)" stroke-width="1.5" stroke-linecap="round" stroke-linejoin="round"/>
<path d="M11.6253 17.167L10.042 18.8337" stroke="url(#paint3_linear_1869_10763)" stroke-width="1.5" stroke-linecap="round" stroke-linejoin="round"/>
<path d="M12.625 9L13.2917 11.4167" stroke="url(#paint4_linear_1869_10763)" stroke-width="1.5" stroke-linecap="round" stroke-linejoin="round"/>
<path d="M14.156 15.2422C14.1237 15.1661 14.1149 15.082 14.1307 15.0009C14.1464 14.9197 14.1861 14.8451 14.2446 14.7866C14.3031 14.7281 14.3777 14.6884 14.4589 14.6727C14.54 14.6569 14.6241 14.6657 14.7002 14.698L23.8669 18.448C23.9485 18.4815 24.0173 18.54 24.0636 18.6151C24.1098 18.6902 24.131 18.778 24.1242 18.8659C24.1173 18.9538 24.0827 19.0373 24.0254 19.1043C23.9681 19.1713 23.891 19.2185 23.8052 19.2389L20.1811 20.1064C20.0314 20.1421 19.8946 20.2186 19.7858 20.3273C19.677 20.4359 19.6003 20.5726 19.5644 20.7222L18.6977 24.3472C18.6775 24.4333 18.6305 24.5107 18.5634 24.5683C18.4963 24.6258 18.4126 24.6606 18.3244 24.6674C18.2363 24.6743 18.1482 24.653 18.073 24.6065C17.9978 24.56 17.9393 24.4908 17.906 24.4089L14.156 15.2422Z" stroke="url(#paint5_linear_1869_10763)" stroke-width="1.5" stroke-linecap="round" stroke-linejoin="round"/>
<defs>
<linearGradient id="paint0_linear_1869_10763" x1="16.625" y1="0.5" x2="16.625" y2="32.5001" gradientUnits="userSpaceOnUse">
<stop stop-color="#FF7F38"/>
<stop offset="0.49" stop-color="#FFBA08"/>
<stop offset="1" stop-color="#FFA500"/>
</linearGradient>
<linearGradient id="paint1_linear_1869_10763" x1="17.4583" y1="10.584" x2="17.4583" y2="12.1673" gradientUnits="userSpaceOnUse">
<stop stop-color="#FF7F38"/>
<stop offset="0.49" stop-color="#FFBA08"/>
<stop offset="1" stop-color="#FFA500"/>
</linearGradient>
<linearGradient id="paint2_linear_1869_10763" x1="9.66634" y1="13.167" x2="9.66634" y2="13.8337" gradientUnits="userSpaceOnUse">
<stop stop-color="#FF7F38"/>
<stop offset="0.49" stop-color="#FFBA08"/>
<stop offset="1" stop-color="#FFA500"/>
</linearGradient>
<linearGradient id="paint3_linear_1869_10763" x1="10.8337" y1="17.167" x2="10.8337" y2="18.8337" gradientUnits="userSpaceOnUse">
<stop stop-color="#FF7F38"/>
<stop offset="0.49" stop-color="#FFBA08"/>
<stop offset="1" stop-color="#FFA500"/>
</linearGradient>
<linearGradient id="paint4_linear_1869_10763" x1="12.9583" y1="9" x2="12.9583" y2="11.4167" gradientUnits="userSpaceOnUse">
<stop stop-color="#FF7F38"/>
<stop offset="0.49" stop-color="#FFBA08"/>
<stop offset="1" stop-color="#FFA500"/>
</linearGradient>
<linearGradient id="paint5_linear_1869_10763" x1="19.1242" y1="14.665" x2="19.1242" y2="24.6687" gradientUnits="userSpaceOnUse">
<stop stop-color="#FF7F38"/>
<stop offset="0.49" stop-color="#FFBA08"/>
<stop offset="1" stop-color="#FFA500"/>
</linearGradient>
</defs>
</svg>
