<svg width="33" height="33" viewBox="0 0 33 33" fill="none" xmlns="http://www.w3.org/2000/svg">
<rect x="1.54167" y="1.16667" width="30.6667" height="30.6667" rx="4.13334" stroke="url(#paint0_linear_1869_10775)" stroke-width="1.33334"/>
<path d="M24.3242 16.584C24.3242 20.7261 20.9664 24.084 16.8242 24.084C15.2443 24.084 13.7785 23.5955 12.5696 22.7613L10.006 23.4022L10.6778 20.883C9.8248 19.6657 9.32422 18.1833 9.32422 16.584C9.32422 12.4419 12.6821 9.08398 16.8242 9.08398C20.9664 9.08398 24.3242 12.4419 24.3242 16.584Z" fill="white"/>
<path fill-rule="evenodd" clip-rule="evenodd" d="M16.8242 25.334C21.6567 25.334 25.5743 21.4165 25.5743 16.584C25.5743 11.7515 21.6567 7.83398 16.8242 7.83398C11.9917 7.83398 8.07422 11.7515 8.07422 16.584C8.07422 18.1533 8.48734 19.6261 9.21077 20.8996L8.07422 25.334L12.646 24.2739C13.8876 24.9499 15.3111 25.334 16.8242 25.334ZM16.8242 23.9879C20.9133 23.9879 24.2281 20.673 24.2281 16.584C24.2281 12.495 20.9133 9.18014 16.8242 9.18014C12.7352 9.18014 9.42038 12.495 9.42038 16.584C9.42038 18.1628 9.91454 19.6262 10.7566 20.8279L10.0935 23.3148L12.6242 22.6821C13.8176 23.5056 15.2646 23.9879 16.8242 23.9879Z" fill="url(#paint1_linear_1869_10775)"/>
<path d="M14.6367 12.5214C14.4287 12.1035 14.1096 12.1405 13.7871 12.1405C13.2109 12.1405 12.3125 12.8307 12.3125 14.1151C12.3125 15.1679 12.7764 16.3202 14.3395 18.044C15.848 19.7076 17.8301 20.5682 19.4756 20.5389C21.1211 20.5096 21.4597 19.0936 21.4597 18.6154C21.4597 18.4034 21.3281 18.2977 21.2375 18.2689C20.6768 17.9998 19.6426 17.4984 19.4072 17.4042C19.1719 17.31 19.0491 17.4374 18.9727 17.5067C18.7593 17.7101 18.3363 18.3094 18.1914 18.4442C18.0466 18.579 17.8307 18.5108 17.7408 18.4598C17.4101 18.3272 16.5136 17.9284 15.7989 17.2356C14.9151 16.3788 14.8632 16.084 14.6967 15.8216C14.5634 15.6117 14.6612 15.4829 14.71 15.4266C14.9004 15.2069 15.1634 14.8677 15.2813 14.6991C15.3992 14.5305 15.3056 14.2746 15.2494 14.1152C15.0078 13.4296 14.8032 12.8556 14.6367 12.5214Z" fill="url(#paint2_linear_1869_10775)"/>
<defs>
<linearGradient id="paint0_linear_1869_10775" x1="16.875" y1="0.5" x2="16.875" y2="32.5001" gradientUnits="userSpaceOnUse">
<stop stop-color="#FF7F38"/>
<stop offset="0.49" stop-color="#FFBA08"/>
<stop offset="1" stop-color="#FFA500"/>
</linearGradient>
<linearGradient id="paint1_linear_1869_10775" x1="16.8242" y1="7.83398" x2="16.8242" y2="25.334" gradientUnits="userSpaceOnUse">
<stop stop-color="#FF7F38"/>
<stop offset="0.49" stop-color="#FFBA08"/>
<stop offset="1" stop-color="#FFA500"/>
</linearGradient>
<linearGradient id="paint2_linear_1869_10775" x1="16.8861" y1="12.1396" x2="16.8861" y2="20.5396" gradientUnits="userSpaceOnUse">
<stop stop-color="#FF7F38"/>
<stop offset="0.49" stop-color="#FFBA08"/>
<stop offset="1" stop-color="#FFA500"/>
</linearGradient>
</defs>
</svg>
