<svg width="300" height="350" viewBox="0 0 300 350" fill="none" xmlns="http://www.w3.org/2000/svg">
<mask id="path-1-inside-1_1_23" fill="white">
<path d="M0 0H300V350H0V0Z"/>
</mask>
<path d="M0 0H300V350H0V0Z" fill="#F0F0F0"/>
<path d="M0 0V-1H-1V0H0ZM300 0H301V-1H300V0ZM300 350V351H301V350H300ZM0 350H-1V351H0V350ZM0 0V1H300V0V-1H0V0ZM300 0H299V350H300H301V0H300ZM300 350V349H0V350V351H300V350ZM0 350H1V0H0H-1V350H0Z" fill="#646464" mask="url(#path-1-inside-1_1_23)"/>
<rect x="15" y="15" width="270" height="320" rx="13" stroke="#646464" stroke-width="2" stroke-dasharray="4 4"/>
<rect width="252" height="76" transform="translate(24 137)" fill="#F0F0F0"/>
<path d="M101.18 171L106.37 156.54H109.01L114.2 171H111.76L110.47 167.37H104.93L103.63 171H101.18ZM105.51 165.21H109.86L107.69 158.9L105.51 165.21ZM119.802 171.2C118.435 171.2 117.362 170.73 116.582 169.79C115.802 168.85 115.412 167.513 115.412 165.78C115.412 164.7 115.569 163.763 115.882 162.97C116.202 162.17 116.672 161.553 117.292 161.12C117.912 160.68 118.675 160.46 119.582 160.46C120.009 160.46 120.395 160.513 120.742 160.62C121.095 160.72 121.409 160.853 121.682 161.02C121.955 161.187 122.185 161.37 122.372 161.57C122.565 161.77 122.715 161.97 122.822 162.17V156.14H125.272V171H123.472L123.202 168.88C123.115 169.127 122.992 169.387 122.832 169.66C122.679 169.927 122.469 170.177 122.202 170.41C121.942 170.643 121.615 170.833 121.222 170.98C120.829 171.127 120.355 171.2 119.802 171.2ZM120.302 169.41C121.175 169.41 121.812 169.127 122.212 168.56C122.619 167.987 122.822 167.04 122.822 165.72C122.815 164.967 122.722 164.333 122.542 163.82C122.369 163.307 122.102 162.92 121.742 162.66C121.382 162.4 120.912 162.27 120.332 162.27C119.599 162.27 118.995 162.54 118.522 163.08C118.055 163.62 117.822 164.5 117.822 165.72C117.822 166.933 118.039 167.853 118.472 168.48C118.905 169.1 119.515 169.41 120.302 169.41ZM133.051 171V156.54H138.021C139.854 156.54 141.224 156.867 142.131 157.52C143.044 158.167 143.501 159.1 143.501 160.32C143.501 161.06 143.311 161.7 142.931 162.24C142.551 162.78 141.881 163.237 140.921 163.61C141.507 163.75 141.991 163.943 142.371 164.19C142.757 164.43 143.057 164.707 143.271 165.02C143.484 165.327 143.634 165.657 143.721 166.01C143.807 166.363 143.851 166.727 143.851 167.1C143.851 168.42 143.391 169.4 142.471 170.04C141.557 170.68 140.141 171 138.221 171H133.051ZM135.481 169.06H138.251C139.277 169.06 140.054 168.877 140.581 168.51C141.114 168.137 141.381 167.6 141.381 166.9C141.381 166.393 141.251 165.977 140.991 165.65C140.731 165.317 140.377 165.07 139.931 164.91C139.484 164.75 138.984 164.67 138.431 164.67H135.481V169.06ZM135.481 162.7H138.431C138.771 162.7 139.101 162.663 139.421 162.59C139.741 162.517 140.031 162.4 140.291 162.24C140.551 162.08 140.757 161.867 140.911 161.6C141.071 161.333 141.151 161.01 141.151 160.63C141.151 159.903 140.874 159.363 140.321 159.01C139.774 158.65 139.071 158.47 138.211 158.47H135.481V162.7ZM149.225 171.2C148.565 171.2 147.972 171.08 147.445 170.84C146.925 170.593 146.515 170.243 146.215 169.79C145.922 169.33 145.775 168.773 145.775 168.12C145.775 166.98 146.185 166.12 147.005 165.54C147.832 164.96 149.145 164.657 150.945 164.63L152.495 164.59V163.89C152.495 163.343 152.332 162.917 152.005 162.61C151.685 162.297 151.185 162.143 150.505 162.15C149.999 162.157 149.539 162.277 149.125 162.51C148.712 162.737 148.439 163.12 148.305 163.66H146.235C146.275 162.953 146.479 162.363 146.845 161.89C147.219 161.41 147.729 161.053 148.375 160.82C149.022 160.58 149.769 160.46 150.615 160.46C151.602 160.46 152.405 160.59 153.025 160.85C153.645 161.11 154.102 161.487 154.395 161.98C154.689 162.467 154.835 163.057 154.835 163.75V171H152.785L152.585 169.14C152.219 169.92 151.749 170.46 151.175 170.76C150.609 171.053 149.959 171.2 149.225 171.2ZM150.015 169.55C150.315 169.55 150.612 169.497 150.905 169.39C151.199 169.277 151.462 169.127 151.695 168.94C151.935 168.747 152.125 168.533 152.265 168.3C152.412 168.067 152.489 167.823 152.495 167.57V165.94L151.225 165.96C150.599 165.967 150.049 166.033 149.575 166.16C149.109 166.287 148.745 166.49 148.485 166.77C148.225 167.043 148.095 167.41 148.095 167.87C148.095 168.397 148.279 168.81 148.645 169.11C149.012 169.403 149.469 169.55 150.015 169.55ZM157.427 171V160.66H159.807V162.14C159.967 161.873 160.184 161.617 160.457 161.37C160.737 161.123 161.08 160.923 161.487 160.77C161.894 160.617 162.37 160.54 162.917 160.54C163.557 160.54 164.15 160.667 164.697 160.92C165.25 161.173 165.694 161.57 166.027 162.11C166.367 162.65 166.537 163.347 166.537 164.2V171H164.097V164.49C164.097 163.81 163.91 163.307 163.537 162.98C163.164 162.647 162.694 162.48 162.127 162.48C161.74 162.48 161.374 162.547 161.027 162.68C160.68 162.807 160.397 163.003 160.177 163.27C159.964 163.53 159.857 163.857 159.857 164.25V171H157.427ZM169.146 171V160.66H171.526V162.14C171.686 161.873 171.902 161.617 172.176 161.37C172.456 161.123 172.799 160.923 173.206 160.77C173.612 160.617 174.089 160.54 174.636 160.54C175.276 160.54 175.869 160.667 176.416 160.92C176.969 161.173 177.412 161.57 177.746 162.11C178.086 162.65 178.256 163.347 178.256 164.2V171H175.816V164.49C175.816 163.81 175.629 163.307 175.256 162.98C174.882 162.647 174.412 162.48 173.846 162.48C173.459 162.48 173.092 162.547 172.746 162.68C172.399 162.807 172.116 163.003 171.896 163.27C171.682 163.53 171.576 163.857 171.576 164.25V171H169.146ZM185.434 171.2C184.441 171.2 183.564 170.99 182.804 170.57C182.051 170.143 181.461 169.537 181.034 168.75C180.614 167.963 180.404 167.027 180.404 165.94C180.404 164.88 180.594 163.94 180.974 163.12C181.361 162.293 181.918 161.643 182.644 161.17C183.378 160.697 184.261 160.46 185.294 160.46C186.314 160.46 187.171 160.677 187.864 161.11C188.558 161.543 189.084 162.15 189.444 162.93C189.804 163.703 189.984 164.61 189.984 165.65V166.39H182.834C182.828 166.977 182.921 167.497 183.114 167.95C183.308 168.403 183.594 168.76 183.974 169.02C184.354 169.273 184.824 169.4 185.384 169.4C185.958 169.4 186.454 169.273 186.874 169.02C187.301 168.76 187.584 168.367 187.724 167.84H189.944C189.824 168.56 189.538 169.17 189.084 169.67C188.638 170.17 188.091 170.55 187.444 170.81C186.804 171.07 186.134 171.2 185.434 171.2ZM182.824 164.88H187.684C187.684 164.38 187.594 163.93 187.414 163.53C187.241 163.123 186.978 162.803 186.624 162.57C186.271 162.33 185.824 162.21 185.284 162.21C184.751 162.21 184.301 162.34 183.934 162.6C183.568 162.86 183.291 163.197 183.104 163.61C182.918 164.017 182.824 164.44 182.824 164.88ZM192.31 171V160.66H194.64V162.9C194.806 162.387 195.043 161.95 195.35 161.59C195.663 161.223 196.03 160.943 196.45 160.75C196.87 160.557 197.326 160.46 197.82 160.46C197.94 160.46 198.056 160.467 198.17 160.48C198.283 160.493 198.366 160.517 198.42 160.55V162.88C198.346 162.847 198.25 162.823 198.13 162.81C198.016 162.797 197.916 162.79 197.83 162.79C197.33 162.75 196.886 162.77 196.5 162.85C196.12 162.93 195.796 163.067 195.53 163.26C195.27 163.447 195.073 163.687 194.94 163.98C194.806 164.267 194.74 164.603 194.74 164.99V171H192.31Z" fill="#646464"/>
<path d="M124.25 197.132C123.598 197.128 123.036 197.016 122.564 196.796C122.092 196.576 121.724 196.262 121.46 195.854C121.2 195.446 121.064 194.962 121.052 194.402H122.474C122.558 194.918 122.762 195.302 123.086 195.554C123.414 195.802 123.812 195.926 124.28 195.926C124.668 195.926 125.004 195.868 125.288 195.752C125.572 195.632 125.79 195.468 125.942 195.26C126.098 195.052 126.176 194.81 126.176 194.534C126.176 194.242 126.092 193.992 125.924 193.784C125.76 193.576 125.534 193.416 125.246 193.304C124.958 193.192 124.634 193.132 124.274 193.124L123.47 193.1V191.912L124.214 191.882C124.558 191.87 124.86 191.804 125.12 191.684C125.384 191.564 125.59 191.406 125.738 191.21C125.886 191.014 125.96 190.794 125.96 190.55C125.96 190.326 125.89 190.124 125.75 189.944C125.614 189.764 125.42 189.624 125.168 189.524C124.916 189.42 124.618 189.368 124.274 189.368C123.982 189.368 123.708 189.42 123.452 189.524C123.196 189.628 122.984 189.796 122.816 190.028C122.652 190.256 122.562 190.556 122.546 190.928H121.13C121.13 190.336 121.272 189.838 121.556 189.434C121.84 189.026 122.22 188.72 122.696 188.516C123.176 188.308 123.708 188.204 124.292 188.204C124.92 188.204 125.476 188.29 125.96 188.462C126.448 188.63 126.83 188.884 127.106 189.224C127.386 189.564 127.526 189.986 127.526 190.49C127.526 190.918 127.396 191.3 127.136 191.636C126.876 191.972 126.466 192.236 125.906 192.428C126.254 192.524 126.566 192.668 126.842 192.86C127.118 193.048 127.336 193.284 127.496 193.568C127.66 193.852 127.742 194.186 127.742 194.57C127.742 194.982 127.652 195.348 127.472 195.668C127.296 195.988 127.048 196.258 126.728 196.478C126.412 196.694 126.042 196.858 125.618 196.97C125.194 197.078 124.738 197.132 124.25 197.132ZM132.014 197.132C131.01 197.132 130.22 196.754 129.644 195.998C129.072 195.242 128.786 194.14 128.786 192.692C128.786 191.716 128.918 190.896 129.182 190.232C129.446 189.564 129.82 189.06 130.304 188.72C130.788 188.376 131.36 188.204 132.02 188.204C133.012 188.204 133.796 188.586 134.372 189.35C134.952 190.11 135.242 191.22 135.242 192.68C135.242 194.132 134.954 195.238 134.378 195.998C133.806 196.754 133.018 197.132 132.014 197.132ZM132.02 195.914C132.584 195.914 133.004 195.664 133.28 195.164C133.556 194.664 133.694 193.838 133.694 192.686C133.694 191.51 133.554 190.666 133.274 190.154C132.994 189.642 132.574 189.386 132.014 189.386C131.454 189.386 131.03 189.644 130.742 190.16C130.458 190.676 130.316 191.518 130.316 192.686C130.316 193.834 130.458 194.66 130.742 195.164C131.03 195.664 131.456 195.914 132.02 195.914ZM139.514 197.132C138.51 197.132 137.72 196.754 137.144 195.998C136.572 195.242 136.286 194.14 136.286 192.692C136.286 191.716 136.418 190.896 136.682 190.232C136.946 189.564 137.32 189.06 137.804 188.72C138.288 188.376 138.86 188.204 139.52 188.204C140.512 188.204 141.296 188.586 141.872 189.35C142.452 190.11 142.742 191.22 142.742 192.68C142.742 194.132 142.454 195.238 141.878 195.998C141.306 196.754 140.518 197.132 139.514 197.132ZM139.52 195.914C140.084 195.914 140.504 195.664 140.78 195.164C141.056 194.664 141.194 193.838 141.194 192.686C141.194 191.51 141.054 190.666 140.774 190.154C140.494 189.642 140.074 189.386 139.514 189.386C138.954 189.386 138.53 189.644 138.242 190.16C137.958 190.676 137.816 191.518 137.816 192.686C137.816 193.834 137.958 194.66 138.242 195.164C138.53 195.664 138.956 195.914 139.52 195.914ZM146.382 197L148.764 193.772L146.58 190.796H148.128L149.562 192.734L150.996 190.796H152.55L150.348 193.772L152.736 197H151.188L149.556 194.792L147.93 197H146.382ZM159.57 197.132C158.918 197.128 158.356 197.016 157.884 196.796C157.412 196.576 157.044 196.262 156.78 195.854C156.52 195.446 156.384 194.962 156.372 194.402H157.794C157.878 194.918 158.082 195.302 158.406 195.554C158.734 195.802 159.132 195.926 159.6 195.926C159.988 195.926 160.324 195.868 160.608 195.752C160.892 195.632 161.11 195.468 161.262 195.26C161.418 195.052 161.496 194.81 161.496 194.534C161.496 194.242 161.412 193.992 161.244 193.784C161.08 193.576 160.854 193.416 160.566 193.304C160.278 193.192 159.954 193.132 159.594 193.124L158.79 193.1V191.912L159.534 191.882C159.878 191.87 160.18 191.804 160.44 191.684C160.704 191.564 160.91 191.406 161.058 191.21C161.206 191.014 161.28 190.794 161.28 190.55C161.28 190.326 161.21 190.124 161.07 189.944C160.934 189.764 160.74 189.624 160.488 189.524C160.236 189.42 159.938 189.368 159.594 189.368C159.302 189.368 159.028 189.42 158.772 189.524C158.516 189.628 158.304 189.796 158.136 190.028C157.972 190.256 157.882 190.556 157.866 190.928H156.45C156.45 190.336 156.592 189.838 156.876 189.434C157.16 189.026 157.54 188.72 158.016 188.516C158.496 188.308 159.028 188.204 159.612 188.204C160.24 188.204 160.796 188.29 161.28 188.462C161.768 188.63 162.15 188.884 162.426 189.224C162.706 189.564 162.846 189.986 162.846 190.49C162.846 190.918 162.716 191.3 162.456 191.636C162.196 191.972 161.786 192.236 161.226 192.428C161.574 192.524 161.886 192.668 162.162 192.86C162.438 193.048 162.656 193.284 162.816 193.568C162.98 193.852 163.062 194.186 163.062 194.57C163.062 194.982 162.972 195.348 162.792 195.668C162.616 195.988 162.368 196.258 162.048 196.478C161.732 196.694 161.362 196.858 160.938 196.97C160.514 197.078 160.058 197.132 159.57 197.132ZM167.693 197.132C167.141 197.132 166.627 197.042 166.151 196.862C165.679 196.678 165.271 196.426 164.927 196.106C164.587 195.786 164.333 195.42 164.165 195.008L165.347 194.384C165.495 194.68 165.671 194.946 165.875 195.182C166.083 195.418 166.325 195.604 166.601 195.74C166.881 195.872 167.201 195.938 167.561 195.938C168.125 195.938 168.577 195.782 168.917 195.47C169.261 195.154 169.433 194.734 169.433 194.21C169.433 193.886 169.353 193.598 169.193 193.346C169.037 193.094 168.823 192.898 168.551 192.758C168.283 192.614 167.977 192.542 167.633 192.542C167.429 192.542 167.237 192.56 167.057 192.596C166.881 192.632 166.703 192.7 166.523 192.8C166.343 192.896 166.149 193.042 165.941 193.238C165.901 193.258 165.871 193.268 165.851 193.268C165.835 193.264 165.805 193.252 165.761 193.232L164.639 192.776L165.035 188.324H170.429L170.375 189.542H166.223L166.025 191.954C166.333 191.738 166.643 191.582 166.955 191.486C167.267 191.39 167.611 191.342 167.987 191.342C168.539 191.342 169.041 191.45 169.493 191.666C169.945 191.882 170.305 192.2 170.573 192.62C170.841 193.04 170.975 193.554 170.975 194.162C170.975 194.77 170.839 195.296 170.567 195.74C170.299 196.184 169.919 196.528 169.427 196.772C168.939 197.012 168.361 197.132 167.693 197.132ZM175.303 197.132C174.299 197.132 173.509 196.754 172.933 195.998C172.361 195.242 172.075 194.14 172.075 192.692C172.075 191.716 172.207 190.896 172.471 190.232C172.735 189.564 173.109 189.06 173.593 188.72C174.077 188.376 174.649 188.204 175.309 188.204C176.301 188.204 177.085 188.586 177.661 189.35C178.241 190.11 178.531 191.22 178.531 192.68C178.531 194.132 178.243 195.238 177.667 195.998C177.095 196.754 176.307 197.132 175.303 197.132ZM175.309 195.914C175.873 195.914 176.293 195.664 176.569 195.164C176.845 194.664 176.983 193.838 176.983 192.686C176.983 191.51 176.843 190.666 176.563 190.154C176.283 189.642 175.863 189.386 175.303 189.386C174.743 189.386 174.319 189.644 174.031 190.16C173.747 190.676 173.605 191.518 173.605 192.686C173.605 193.834 173.747 194.66 174.031 195.164C174.319 195.664 174.745 195.914 175.309 195.914Z" fill="#646464"/>
</svg>
