<svg width="25" height="25" viewBox="0 0 25 25" fill="none" xmlns="http://www.w3.org/2000/svg">
<path d="M12.5 12.875H12.51" stroke="#242424" stroke-width="1.5" stroke-linecap="round" stroke-linejoin="round"/>
<path d="M16.4999 6.87451V4.87451C16.4999 4.34408 16.2892 3.83537 15.9141 3.4603C15.539 3.08523 15.0303 2.87451 14.4999 2.87451H10.4999C9.96944 2.87451 9.46074 3.08523 9.08566 3.4603C8.71059 3.83537 8.49988 4.34408 8.49988 4.87451V6.87451" stroke="#242424" stroke-width="1.5" stroke-linecap="round" stroke-linejoin="round"/>
<path d="M22.4999 13.8755C19.5327 15.8345 16.0554 16.8788 12.4999 16.8788C8.94433 16.8788 5.46709 15.8345 2.49988 13.8755" stroke="#242424" stroke-width="1.5" stroke-linecap="round" stroke-linejoin="round"/>
<path d="M20.5 6.875H4.5C3.39543 6.875 2.5 7.77043 2.5 8.875V18.875C2.5 19.9796 3.39543 20.875 4.5 20.875H20.5C21.6046 20.875 22.5 19.9796 22.5 18.875V8.875C22.5 7.77043 21.6046 6.875 20.5 6.875Z" stroke="#242424" stroke-width="1.5" stroke-linecap="round" stroke-linejoin="round"/>
</svg>
