<svg width="25" height="25" viewBox="0 0 25 25" fill="none" xmlns="http://www.w3.org/2000/svg">
<path d="M16.5 2.875L14.2 5.175C13.6503 5.73579 13.3424 6.48974 13.3424 7.275C13.3424 8.06026 13.6503 8.81421 14.2 9.375L16 11.175C16.5608 11.7247 17.3147 12.0326 18.1 12.0326C18.8852 12.0326 19.6392 11.7247 20.2 11.175L22.5 8.875" stroke="#242424" stroke-width="1.5" stroke-linecap="round" stroke-linejoin="round"/>
<path d="M15.5 15.875L3.79998 4.17505C3.40086 4.5661 3.08379 5.03287 2.86733 5.548C2.65086 6.06313 2.53937 6.61628 2.53937 7.17505C2.53937 7.73381 2.65086 8.28696 2.86733 8.8021C3.08379 9.31723 3.40086 9.78399 3.79998 10.175L11.1 17.475C11.8 18.175 13.1 18.175 13.9 17.475L15.5 15.875ZM15.5 15.875L22.5 22.875" stroke="#242424" stroke-width="1.5" stroke-linecap="round" stroke-linejoin="round"/>
<path d="M2.59998 22.675L8.99998 16.375" stroke="#242424" stroke-width="1.5" stroke-linecap="round" stroke-linejoin="round"/>
<path d="M19.5 5.875L12.5 12.875" stroke="#242424" stroke-width="1.5" stroke-linecap="round" stroke-linejoin="round"/>
</svg>
