<svg width="25" height="25" viewBox="0 0 25 25" fill="none" xmlns="http://www.w3.org/2000/svg">
<path d="M20.5 6.875C21.6046 6.875 22.5 5.97957 22.5 4.875C22.5 3.77043 21.6046 2.875 20.5 2.875C19.3954 2.875 18.5 3.77043 18.5 4.875C18.5 5.97957 19.3954 6.875 20.5 6.875Z" stroke="#242424" stroke-width="1.5" stroke-linecap="round" stroke-linejoin="round"/>
<path d="M2.89999 15.275C2.58482 14.4083 2.44345 13.488 2.48395 12.5666C2.52445 11.6452 2.74603 10.7409 3.13603 9.90515C3.92368 8.21732 5.34956 6.91151 7.09999 6.275C8.85042 5.63848 10.782 5.72338 12.4698 6.51103C14.1577 7.29869 15.4635 8.72457 16.1 10.475L2.89999 15.275Z" stroke="#242424" stroke-width="1.5" stroke-linecap="round" stroke-linejoin="round"/>
<path d="M9.5 12.875L12.5 21.875" stroke="#242424" stroke-width="1.5" stroke-linecap="round" stroke-linejoin="round"/>
<path d="M3.5 21.875L4.2 19.775C4.4 19.275 4.9 18.875 5.5 18.875H17.5C18 18.875 18.8 18.475 19.1 18.075L22.5 13.875" stroke="#242424" stroke-width="1.5" stroke-linecap="round" stroke-linejoin="round"/>
<path d="M21.5 21.875L18.5 18.875" stroke="#242424" stroke-width="1.5" stroke-linecap="round" stroke-linejoin="round"/>
</svg>
