<svg width="18" height="19" viewBox="0 0 18 19" fill="none" xmlns="http://www.w3.org/2000/svg">
<path d="M11.25 5.29001L10.5 8.38001H14.8725C15.1054 8.38001 15.335 8.43422 15.5433 8.53836C15.7516 8.64251 15.9328 8.79371 16.0725 8.98001C16.2122 9.1663 16.3066 9.38257 16.3483 9.61168C16.39 9.84079 16.3777 10.0765 16.3125 10.3L14.565 16.3C14.4741 16.6116 14.2846 16.8853 14.025 17.08C13.7654 17.2747 13.4496 17.38 13.125 17.38H3C2.60218 17.38 2.22064 17.222 1.93934 16.9407C1.65804 16.6594 1.5 16.2778 1.5 15.88V9.88001C1.5 9.48218 1.65804 9.10065 1.93934 8.81935C2.22064 8.53804 2.60218 8.38001 3 8.38001H5.07C5.34906 8.37986 5.62255 8.30186 5.85972 8.1548C6.09688 8.00773 6.28832 7.79742 6.4125 7.54751L9 2.38C9.35368 2.38438 9.7018 2.46863 10.0184 2.62645C10.3349 2.78427 10.6117 3.01159 10.8281 3.29141C11.0444 3.57123 11.1947 3.89633 11.2678 4.24241C11.3409 4.58849 11.3348 4.94661 11.25 5.29001Z" fill="#00426D" stroke="#00426D" stroke-linecap="round" stroke-linejoin="round"/>
<path d="M5.25 8.38V17.38Z" fill="white"/>
<path d="M5.25 8.38V17.38" stroke="white" stroke-linecap="round" stroke-linejoin="round"/>
</svg>
