<svg width="18" height="19" viewBox="0 0 18 19" fill="none" xmlns="http://www.w3.org/2000/svg">
<path d="M11.25 5.17001L10.5 8.26001H14.8725C15.1054 8.26001 15.335 8.31423 15.5433 8.41837C15.7516 8.52251 15.9328 8.67372 16.0725 8.86001C16.2122 9.0463 16.3066 9.26257 16.3483 9.49168C16.39 9.72079 16.3777 9.95646 16.3125 10.18L14.565 16.18C14.4741 16.4916 14.2846 16.7653 14.025 16.96C13.7654 17.1547 13.4496 17.26 13.125 17.26H3C2.60218 17.26 2.22064 17.102 1.93934 16.8207C1.65804 16.5394 1.5 16.1578 1.5 15.76V9.76001C1.5 9.36219 1.65804 8.98065 1.93934 8.69935C2.22064 8.41805 2.60218 8.26001 3 8.26001H5.07C5.34906 8.25986 5.62255 8.18187 5.85972 8.0348C6.09688 7.88773 6.28832 7.67742 6.4125 7.42751L9 2.26001C9.35368 2.26439 9.7018 2.34864 10.0184 2.50646C10.3349 2.66428 10.6117 2.89159 10.8281 3.17141C11.0444 3.45123 11.1947 3.77633 11.2678 4.12241C11.3409 4.46849 11.3348 4.82661 11.25 5.17001Z" stroke="#00426D" stroke-linecap="round" stroke-linejoin="round"/>
<path d="M5.25 8.26001V17.26V8.26001Z" fill="white"/>
<path d="M5.25 8.26001V17.26" stroke="#00426D" stroke-linecap="round" stroke-linejoin="round"/>
</svg>
