<svg width="22" height="22" viewBox="0 0 22 22" fill="none" xmlns="http://www.w3.org/2000/svg">
<path d="M11 11.9167C11.5062 11.9167 11.9166 11.5063 11.9166 11C11.9166 10.4938 11.5062 10.0834 11 10.0834C10.4937 10.0834 10.0833 10.4938 10.0833 11C10.0833 11.5063 10.4937 11.9167 11 11.9167Z" fill="#FF7F38" stroke="#FF7F38" stroke-width="1.5" stroke-linecap="round" stroke-linejoin="round"/>
<path d="M17.4167 11.9167C17.9229 11.9167 18.3333 11.5063 18.3333 11C18.3333 10.4938 17.9229 10.0834 17.4167 10.0834C16.9104 10.0834 16.5 10.4938 16.5 11C16.5 11.5063 16.9104 11.9167 17.4167 11.9167Z" fill="#FF7F38" stroke="#FF7F38" stroke-width="1.5" stroke-linecap="round" stroke-linejoin="round"/>
<path d="M4.58335 11.9167C5.08961 11.9167 5.50002 11.5063 5.50002 11C5.50002 10.4938 5.08961 10.0834 4.58335 10.0834C4.07709 10.0834 3.66669 10.4938 3.66669 11C3.66669 11.5063 4.07709 11.9167 4.58335 11.9167Z" fill="#FF7F38" stroke="#FF7F38" stroke-width="1.5" stroke-linecap="round" stroke-linejoin="round"/>
</svg>
