<svg width="22" height="23" viewBox="0 0 22 23" fill="none" xmlns="http://www.w3.org/2000/svg">
<path d="M11.0002 12.7967C11.5064 12.7967 11.9168 12.3863 11.9168 11.88C11.9168 11.3738 11.5064 10.9634 11.0002 10.9634C10.4939 10.9634 10.0835 11.3738 10.0835 11.88C10.0835 12.3863 10.4939 12.7967 11.0002 12.7967Z" fill="#242424" stroke="black" stroke-width="1.375" stroke-linecap="round" stroke-linejoin="round"/>
<path d="M17.4167 12.7967C17.9229 12.7967 18.3333 12.3863 18.3333 11.88C18.3333 11.3738 17.9229 10.9634 17.4167 10.9634C16.9104 10.9634 16.5 11.3738 16.5 11.88C16.5 12.3863 16.9104 12.7967 17.4167 12.7967Z" fill="#242424" stroke="black" stroke-width="1.375" stroke-linecap="round" stroke-linejoin="round"/>
<path d="M4.58317 12.7967C5.08943 12.7967 5.49984 12.3863 5.49984 11.88C5.49984 11.3738 5.08943 10.9634 4.58317 10.9634C4.07691 10.9634 3.6665 11.3738 3.6665 11.88C3.6665 12.3863 4.07691 12.7967 4.58317 12.7967Z" fill="#242424" stroke="black" stroke-width="1.375" stroke-linecap="round" stroke-linejoin="round"/>
</svg>
