<svg width="14" height="15" viewBox="0 0 14 15" fill="none" xmlns="http://www.w3.org/2000/svg">
<path d="M12.6759 11.3801L8.00925 3.21339C7.90749 3.03384 7.75993 2.8845 7.58162 2.78059C7.40331 2.67669 7.20062 2.62195 6.99425 2.62195C6.78787 2.62195 6.58519 2.67669 6.40688 2.78059C6.22856 2.8845 6.081 3.03384 5.97925 3.21339L1.31258 11.3801C1.20973 11.5582 1.1558 11.7603 1.15625 11.966C1.15671 12.1717 1.21153 12.3736 1.31517 12.5513C1.41881 12.729 1.56758 12.8761 1.7464 12.9777C1.92522 13.0793 2.12774 13.1319 2.33341 13.1301H11.6667C11.8714 13.1298 12.0725 13.0758 12.2497 12.9733C12.4269 12.8708 12.574 12.7235 12.6762 12.5462C12.7785 12.3689 12.8323 12.1678 12.8322 11.9631C12.8322 11.7584 12.7783 11.5573 12.6759 11.3801Z" fill="white" stroke="white" stroke-linecap="round" stroke-linejoin="round"/>
<path d="M7 6.13V8.46334" stroke="#FF7F38" stroke-linecap="round" stroke-linejoin="round"/>
<path d="M7 10.7966H7.00583" stroke="#FF7F38" stroke-linecap="round" stroke-linejoin="round"/>
</svg>
