<svg width="18" height="19" viewBox="0 0 18 19" fill="none" xmlns="http://www.w3.org/2000/svg">
<path d="M13.5 6.88C14.7426 6.88 15.75 5.87265 15.75 4.63C15.75 3.38736 14.7426 2.38 13.5 2.38C12.2574 2.38 11.25 3.38736 11.25 4.63C11.25 5.87265 12.2574 6.88 13.5 6.88Z" stroke="#00426D" stroke-linecap="round" stroke-linejoin="round"/>
<path d="M4.5 12.13C5.74264 12.13 6.75 11.1226 6.75 9.88C6.75 8.63736 5.74264 7.63 4.5 7.63C3.25736 7.63 2.25 8.63736 2.25 9.88C2.25 11.1226 3.25736 12.13 4.5 12.13Z" stroke="#00426D" stroke-linecap="round" stroke-linejoin="round"/>
<path d="M13.5 17.38C14.7426 17.38 15.75 16.3726 15.75 15.13C15.75 13.8874 14.7426 12.88 13.5 12.88C12.2574 12.88 11.25 13.8874 11.25 15.13C11.25 16.3726 12.2574 17.38 13.5 17.38Z" stroke="#00426D" stroke-linecap="round" stroke-linejoin="round"/>
<path d="M6.4425 11.0125L11.565 13.9975" stroke="#00426D" stroke-linecap="round" stroke-linejoin="round"/>
<path d="M11.5575 5.76245L6.4425 8.74745" stroke="#00426D" stroke-linecap="round" stroke-linejoin="round"/>
</svg>
