<svg width="25" height="25" viewBox="0 0 25 25" fill="none" xmlns="http://www.w3.org/2000/svg">
<path d="M2.5 22.875H22.5" stroke="#242424" stroke-width="1.5" stroke-linecap="round" stroke-linejoin="round"/>
<path d="M6.86 18.275L4.5 17.875L2.5 13.875L3.6 13.325C3.87916 13.1843 4.1874 13.1111 4.5 13.1111C4.8126 13.1111 5.12084 13.1843 5.4 13.325L5.57 13.425C5.84916 13.5657 6.1574 13.6389 6.47 13.6389C6.7826 13.6389 7.09084 13.5657 7.37 13.425L8.5 12.875L5.5 6.875L6.4 6.425C6.73267 6.26135 7.10429 6.19338 7.47335 6.2287C7.84242 6.26402 8.1944 6.40122 8.49 6.625L12.51 9.625C12.8066 9.85072 13.1604 9.98904 13.5315 10.0244C13.9025 10.0597 14.2761 9.99067 14.61 9.825L18.8 7.765C19.3354 7.49509 19.9523 7.43448 20.53 7.595L21.5 7.875C21.7004 7.93066 21.8859 8.03027 22.043 8.16661C22.2001 8.30294 22.3248 8.47256 22.4082 8.66314C22.4915 8.85373 22.5313 9.06048 22.5247 9.26838C22.5181 9.47628 22.4652 9.68009 22.37 9.865L21.99 10.625C21.76 11.085 21.39 11.465 20.92 11.705L8.08 18.075C7.70245 18.262 7.27547 18.325 6.86 18.255V18.275Z" stroke="#242424" stroke-width="1.5" stroke-linecap="round" stroke-linejoin="round"/>
</svg>
