<svg width="48" height="49" viewBox="0 0 48 49" fill="none" xmlns="http://www.w3.org/2000/svg">
<path d="M0 24.8799C0 11.625 10.7452 0.879883 24 0.879883C37.2548 0.879883 48 11.625 48 24.8799C48 38.1347 37.2548 48.8799 24 48.8799C10.7452 48.8799 0 38.1347 0 24.8799Z" fill="#FEF0C7"/>
<path d="M24 20.8799V24.8799M24 28.8799H24.01M34 24.8799C34 30.4027 29.5228 34.8799 24 34.8799C18.4772 34.8799 14 30.4027 14 24.8799C14 19.357 18.4772 14.8799 24 14.8799C29.5228 14.8799 34 19.357 34 24.8799Z" stroke="#DC6803" stroke-width="2" stroke-linecap="round" stroke-linejoin="round"/>
</svg>
