<svg width="23" height="21" viewBox="0 0 23 21" fill="none" xmlns="http://www.w3.org/2000/svg">
<path d="M15.1221 1.66504C18.8645 1.66504 21.2244 5.18 21.2246 8.2959C21.2246 9.93106 20.5916 11.4445 19.708 12.7617C18.8238 14.0799 17.6592 15.2481 16.5156 16.2119C15.3689 17.1784 14.22 17.959 13.3486 18.498C12.9126 18.7678 12.5421 18.9789 12.2715 19.125C12.137 19.1976 12.0231 19.2565 11.9355 19.2988C11.8929 19.3194 11.849 19.3404 11.8086 19.3574C11.7895 19.3655 11.7605 19.3775 11.7275 19.3887C11.7113 19.3942 11.6838 19.4029 11.6504 19.4111C11.6299 19.4162 11.5494 19.4355 11.4453 19.4355C11.3409 19.4355 11.2597 19.4162 11.2393 19.4111C11.2062 19.403 11.1793 19.3942 11.1631 19.3887C11.1302 19.3775 11.1012 19.3655 11.082 19.3574C11.0416 19.3404 10.9977 19.3194 10.9551 19.2988C10.8675 19.2564 10.7528 19.1977 10.6182 19.125C10.3475 18.9789 9.977 18.7678 9.54102 18.498C8.66975 17.959 7.52167 17.1783 6.375 16.2119C5.2314 15.2481 4.06591 14.08 3.18164 12.7617C2.29808 11.4445 1.66504 9.931 1.66504 8.2959C1.66527 5.18001 4.0252 1.66506 7.76758 1.66504C9.41025 1.66504 10.6161 2.31476 11.4443 3.03711C12.2725 2.31454 13.4791 1.66512 15.1221 1.66504Z" stroke="#242424" stroke-width="1.67" stroke-linecap="round" stroke-linejoin="round"/>
</svg>
