<svg width="73" height="83" viewBox="0 0 73 83" fill="none" xmlns="http://www.w3.org/2000/svg">
<path d="M62.3974 43.9233C62.3796 42.3241 62.0054 40.745 61.4221 39.2618C60.9721 38.1135 60.4495 36.9953 59.9393 35.8731C55.8787 27.0238 51.6175 18.268 47.159 9.61234C46.5319 8.4029 45.9181 7.18617 45.2558 5.99544C44.605 4.83393 43.8474 3.71577 42.8666 2.80664C41.3017 1.3147 39.2018 0.425195 37.0467 0.291016H36.0545C33.836 0.400549 31.6705 1.33159 30.0786 2.88332C29.1338 3.7783 28.4027 4.86953 27.7692 5.99864C27.1157 7.16974 26.5105 8.36731 25.8953 9.55757C22.9036 15.3648 20 21.217 17.1855 27.1122C15.5078 30.6401 13.8443 34.1739 12.2442 37.7365C11.5806 39.2207 10.9804 40.7555 10.7545 42.3757C10.336 45.1113 10.9362 47.9825 12.3975 50.3315C13.6572 52.372 15.548 54.0164 17.7519 54.9662C19.4748 55.7098 21.3474 56.0412 23.2208 55.9342C25.7232 55.8014 28.1362 54.9023 30.2534 53.5901C32.6152 52.1407 34.6352 50.2129 36.516 48.1947C38.2648 50.0796 40.1365 51.8782 42.2971 53.288C44.3837 54.6608 46.7628 55.6549 49.2652 55.8913C51.983 56.1751 54.799 55.5015 57.08 53.9886C59.0975 52.6517 60.6599 50.732 61.559 48.485C62.138 47.035 62.423 45.4844 62.3974 43.9233ZM36.5274 42.8682C35.8451 42.0649 35.244 41.1959 34.6402 40.3334C33.6243 38.8433 32.7005 37.2856 31.9575 35.6399C31.3487 34.2743 30.8599 32.8408 30.6691 31.3521C30.5299 30.1709 30.5633 28.9387 30.9968 27.8173C31.3848 26.7658 32.1305 25.8548 33.0752 25.2529C35.3261 23.8002 38.5346 23.9572 40.5742 25.7193C41.6065 26.5987 42.2231 27.899 42.3783 29.2353C42.5814 31.0116 42.1775 32.7956 41.5573 34.4523C40.3862 37.5266 38.5323 40.2823 36.5274 42.8682ZM58.6135 46.6357C58.012 48.7118 56.5661 50.5255 54.6744 51.572C52.9976 52.5099 50.9963 52.8312 49.106 52.5154C46.6985 52.1407 44.5384 50.8632 42.6667 49.3553C41.2912 48.2499 40.0525 46.9866 38.8659 45.6846C40.7394 43.315 42.5043 40.8359 43.8524 38.1258C45.029 35.7526 45.9231 33.1813 46.008 30.5128C46.0559 28.8195 45.7373 27.0953 44.9464 25.5878C43.9109 23.5738 42.0556 22.0266 39.9288 21.2781C37.9422 20.5685 35.7337 20.505 33.7069 21.0828C31.7955 21.6236 30.0498 22.7724 28.8536 24.3647C27.8007 25.7531 27.2006 27.46 27.0614 29.191C26.8473 31.6843 27.4721 34.1716 28.4173 36.4636C29.8225 39.8126 31.885 42.844 34.1628 45.6558C33.1357 46.842 32.0211 47.9496 30.8284 48.9692C28.9791 50.5342 26.8633 51.8965 24.4663 52.4149C22.5285 52.8499 20.4378 52.6336 18.6606 51.7345C16.579 50.6971 14.9807 48.7433 14.3778 46.4974C13.9169 44.8475 14.0191 43.0662 14.5672 41.4502C15.0231 40.1129 15.6416 38.8387 16.2203 37.5521C20.2374 28.7982 24.4508 20.1357 28.8573 11.5712C29.5145 10.2965 30.1616 9.01584 30.8572 7.76213C31.4249 6.75214 32.0853 5.7604 33.0186 5.05117C34.0278 4.26499 35.2762 3.84887 36.5552 3.87231C37.8696 3.8568 39.1763 4.34103 40.1817 5.18581C41.1748 6.01051 41.8457 7.1387 42.4481 8.26325C43.81 10.8213 45.118 13.4091 46.4265 15.9941C50.1608 23.3852 53.7491 30.8492 57.1891 38.3818C57.7089 39.552 58.2653 40.7131 58.6153 41.9481C59.0429 43.4711 59.0571 45.1159 58.6135 46.6357ZM17.0395 62.8343C18.164 62.5797 19.3926 63.3213 19.6847 64.4376C20.0476 65.58 19.3265 66.9081 18.1782 67.2385C17.0564 67.6328 15.7242 66.9473 15.3527 65.8274C15.0003 64.8835 15.3773 63.7444 16.2143 63.1862C16.4639 63.0164 16.7442 62.8969 17.0395 62.8343ZM24.6347 70.2083C25.312 69.4721 26.2663 69.0107 27.2494 68.8637C27.9052 68.7996 28.5671 68.8416 29.2096 68.9879C29.2014 70.0243 29.2078 71.0594 29.2059 72.0963C28.1978 71.8357 27.1061 71.7819 26.1166 72.1461C25.5792 72.3418 25.0948 72.6601 24.7018 73.0758C24.6169 73.1483 24.6375 73.2656 24.6297 73.3665C24.6356 76.2623 24.6252 79.1585 24.6338 82.0539C24.6238 82.1652 24.6507 82.2907 24.6014 82.3953C23.4833 82.4213 22.3637 82.4003 21.2451 82.4044C21.2456 77.9897 21.2415 73.5741 21.2479 69.1595C22.1899 69.1636 23.1323 69.1558 24.0747 69.1613C24.2819 69.1494 24.5028 69.2558 24.5786 69.4579C24.653 69.6998 24.6293 69.9577 24.6347 70.2083ZM48.7449 70.2201C49.6399 69.2941 50.937 68.8386 52.2099 68.8359C53.5549 68.8021 54.9331 69.1996 55.9723 70.0723C56.6634 70.6143 57.1619 71.3643 57.394 72.2113C57.6897 73.2433 57.6633 74.3272 57.6596 75.3901C57.6605 77.7287 57.6596 80.0677 57.6605 82.4067C56.5328 82.4048 55.4055 82.414 54.2778 82.4016C54.2787 80.0645 54.2778 77.7273 54.2787 75.3892C54.2787 74.5207 54.3198 73.5837 53.8579 72.8101C53.5361 72.2552 52.8995 71.9786 52.2856 71.9142C51.1164 71.7271 49.8951 72.1922 49.0891 73.0447C49.0033 73.1305 48.9298 73.2391 48.9394 73.3688C48.9284 73.7302 48.9832 74.0931 48.9521 74.455C48.9079 74.9465 48.9768 75.438 48.9608 75.9309C48.9464 76.8602 48.9451 77.7897 48.9572 78.719C48.8933 79.9481 49.0046 81.1813 48.9312 82.4089C47.808 82.4053 46.6857 82.408 45.5625 82.4076C45.5621 77.9906 45.5543 73.5746 45.5666 69.1581C46.4352 69.1649 47.3055 69.1581 48.1735 69.1608C48.3981 69.1467 48.6436 69.2722 48.7016 69.5004C48.7545 69.735 48.7386 69.9791 48.7449 70.2201ZM15.8027 82.4071C15.8022 77.9906 15.7958 73.5746 15.8049 69.1586C16.924 69.1613 18.0426 69.1604 19.1612 69.1595C19.1699 73.5755 19.1635 77.9915 19.1644 82.4067C18.044 82.4067 16.9236 82.4058 15.8027 82.4071ZM13.7183 69.1599C12.8316 69.1581 11.9448 69.1627 11.0571 69.1549C10.8225 69.1535 10.5231 69.1649 10.4086 69.4114C10.3059 69.6647 10.3451 69.9458 10.336 70.2124C9.59803 69.4269 8.55792 68.9605 7.49088 68.8592C5.84331 68.7113 4.13595 69.1681 2.81287 70.1685C1.72301 70.9736 0.91748 72.1379 0.495775 73.4203C0.292681 74.0214 0.190906 74.6521 0.126099 75.2824V76.1893C0.220572 78.0874 1.06489 79.965 2.53767 81.1886C3.64852 82.1296 5.07611 82.6554 6.52242 82.7471H7.27637C8.42282 82.67 9.55467 82.1958 10.3369 81.3415C10.3442 81.6094 10.3063 81.8932 10.4068 82.1497C10.5113 82.3574 10.7577 82.4144 10.9718 82.4062C11.8868 82.4039 12.8033 82.4071 13.7192 82.4021C13.7192 77.9893 13.722 73.5746 13.7183 69.1599ZM10.2324 78.28C9.54783 79.0997 8.47851 79.5843 7.41055 79.5506C6.26592 79.5592 5.07794 79.1207 4.3363 78.2229C3.61292 77.3658 3.39431 76.1737 3.55861 75.0843C3.68138 74.2026 4.13093 73.3569 4.84107 72.8097C5.48504 72.3013 6.29696 72.0393 7.10979 71.9827C8.32059 71.8768 9.59712 72.4108 10.3255 73.3884C10.3666 74.8278 10.3264 76.271 10.3447 77.7127C10.3328 77.9025 10.3853 78.1312 10.2324 78.28ZM43.6293 72.9493C43.1081 71.6746 42.1834 70.5665 41.0114 69.8436C39.8043 69.0924 38.3566 68.7528 36.9413 68.8491C35.8236 68.9226 34.7315 69.3995 33.9556 70.2146C33.951 67.7405 33.9556 65.2678 33.9533 62.7937C32.8251 62.7942 31.696 62.7887 30.5678 62.7969C30.5737 69.3315 30.5582 75.8693 30.576 82.4035C31.5103 82.4058 32.4454 82.408 33.3801 82.4058C33.6124 82.424 33.863 82.2962 33.9269 82.0612C33.9729 81.822 33.9561 81.5751 33.9574 81.3328C34.7415 82.2049 35.8934 82.6782 37.0518 82.748H37.7427C39.618 82.654 41.4568 81.775 42.6339 80.3013C44.2824 78.28 44.6041 75.3417 43.6293 72.9493ZM39.6838 78.5237C38.928 79.2252 37.8819 79.5615 36.8605 79.5515C35.7949 79.5761 34.7301 79.0864 34.0551 78.2617C33.9716 78.1759 33.9442 78.06 33.951 77.9459C33.952 76.4298 33.9533 74.9141 33.951 73.3989C34.5991 72.5536 35.6365 72.027 36.6976 71.9727C37.7733 71.9412 38.902 72.257 39.6915 73.0155C40.4437 73.7133 40.8106 74.7598 40.7869 75.7735C40.8088 76.7858 40.4318 77.8254 39.6838 78.5237ZM71.4659 71.31C70.031 69.4826 67.5779 68.5607 65.2909 68.9025C64.3357 69.0531 63.4307 69.5113 62.763 70.2142C62.7557 67.7415 62.763 65.2687 62.7593 62.7951C61.633 62.7937 60.5075 62.7928 59.382 62.796C59.3811 69.3311 59.382 75.868 59.382 82.4039C60.2697 82.4108 61.1597 82.4026 62.0474 82.4108C62.2806 82.4144 62.5722 82.3957 62.6918 82.1575C62.7954 81.9001 62.7566 81.613 62.7639 81.3424C63.542 82.1949 64.6689 82.6659 65.8089 82.749H66.5693C68.4241 82.6481 70.2373 81.7823 71.412 80.331C72.3714 79.1736 72.8889 77.6912 72.9747 76.1984V75.3125C72.8684 73.8712 72.3819 72.44 71.4659 71.31ZM68.8298 78.1431C67.9366 79.2927 66.3607 79.7204 64.9628 79.4972C64.1116 79.3274 63.286 78.8678 62.7826 78.1504C62.7265 77.594 62.7771 77.0313 62.7602 76.4722C62.7721 75.444 62.7347 74.4125 62.7771 73.3861C63.2892 72.6801 64.1089 72.2273 64.9523 72.0402C66.5132 71.7518 68.3278 72.3702 69.1169 73.8115C69.8352 75.1455 69.7636 76.9281 68.8298 78.1431Z" fill="#FF7977"/>
</svg>
