<svg width="22" height="17" viewBox="0 0 22 17" fill="none" xmlns="http://www.w3.org/2000/svg">
<path d="M19.0003 12V3C19.0003 2.46957 18.7896 1.96086 18.4145 1.58579C18.0394 1.21071 17.5307 1 17.0003 1H5.00027C4.46983 1 3.96112 1.21071 3.58605 1.58579C3.21098 1.96086 3.00027 2.46957 3.00027 3V12M19.0003 12H3.00027M19.0003 12L20.2803 14.55C20.3574 14.703 20.3939 14.8732 20.3863 15.0444C20.3787 15.2155 20.3272 15.3818 20.2369 15.5274C20.1465 15.6729 20.0203 15.7928 19.8703 15.8756C19.7203 15.9584 19.5516 16.0012 19.3803 16H2.62027C2.44895 16.0012 2.28021 15.9584 2.13021 15.8756C1.98021 15.7928 1.85399 15.6729 1.76364 15.5274C1.6733 15.3818 1.62186 15.2155 1.61426 15.0444C1.60667 14.8732 1.64317 14.703 1.72027 14.55L3.00027 12" stroke="#242424" stroke-width="1.5" stroke-linecap="round" stroke-linejoin="round"/>
</svg>
