<svg width="24" height="24" viewBox="0 0 24 24" fill="none" xmlns="http://www.w3.org/2000/svg">
<path d="M11 14H13C13.5304 14 14.0391 13.7893 14.4142 13.4142C14.7893 13.0391 15 12.5304 15 12C15 11.4696 14.7893 10.9609 14.4142 10.5858C14.0391 10.2107 13.5304 10 13 10H10C9.4 10 8.9 10.2 8.6 10.6L3 16" stroke="#242424" stroke-width="1.5" stroke-linecap="round" stroke-linejoin="round"/>
<path d="M7 19.9998L8.6 18.5998C8.9 18.1998 9.4 17.9998 10 17.9998H14C15.1 17.9998 16.1 17.5998 16.8 16.7998L21.4 12.3998C21.7859 12.0351 22.0111 11.5321 22.0261 11.0014C22.0411 10.4706 21.8447 9.95567 21.48 9.56978C21.1153 9.18389 20.6123 8.95867 20.0816 8.94367C19.5508 8.92867 19.0359 9.12511 18.65 9.48978L14.45 13.3898" stroke="#242424" stroke-width="1.5" stroke-linecap="round" stroke-linejoin="round"/>
<path d="M2 15L8 21" stroke="#242424" stroke-width="1.5" stroke-linecap="round" stroke-linejoin="round"/>
<path d="M19.5001 8.5C20.2001 7.8 21.0001 6.9 21.0001 5.8C21.07 5.18893 20.9315 4.57216 20.6071 4.04964C20.2826 3.52712 19.7912 3.12947 19.2125 2.92114C18.6338 2.71281 18.0017 2.706 17.4187 2.90182C16.8356 3.09763 16.3358 3.4846 16.0001 4C15.6432 3.52458 15.1432 3.17613 14.5736 3.00578C14.004 2.83544 13.3948 2.85219 12.8354 3.05356C12.2761 3.25494 11.796 3.63034 11.4657 4.12465C11.1353 4.61896 10.9722 5.20614 11.0001 5.8C11.0001 7 11.8001 7.8 12.5001 8.6L16.0001 12L19.5001 8.5Z" stroke="#242424" stroke-width="1.5" stroke-linecap="round" stroke-linejoin="round"/>
</svg>
