<svg width="24" height="24" viewBox="0 0 24 24" fill="none" xmlns="http://www.w3.org/2000/svg">
<path d="M20.2569 7.33075C20.7328 6.85502 21.0002 6.20975 21.0002 5.53688C21.0003 4.86401 20.7331 4.21867 20.2574 3.74282C19.7817 3.26697 19.1364 2.9996 18.4635 2.99951C17.7906 2.99943 17.1453 3.26664 16.6695 3.74237L4.65778 15.7567C4.44881 15.9651 4.29427 16.2216 4.20777 16.5038L3.01884 20.4207C2.99558 20.4985 2.99382 20.5812 3.01376 20.6599C3.03369 20.7387 3.07457 20.8106 3.13206 20.868C3.18955 20.9254 3.26151 20.9661 3.34029 20.9859C3.41908 21.0057 3.50176 21.0038 3.57955 20.9805L7.49734 19.7924C7.7792 19.7067 8.03571 19.5531 8.24436 19.3451L20.2569 7.33075Z" stroke="#242424" stroke-width="1.5" stroke-linecap="round" stroke-linejoin="round"/>
<path d="M14.7 5.69971L18.3 9.29979" stroke="#242424" stroke-width="1.5" stroke-linecap="round" stroke-linejoin="round"/>
</svg>
