<svg width="20" height="21" viewBox="0 0 20 21" fill="none" xmlns="http://www.w3.org/2000/svg">
<path d="M16.8808 6.60888C17.2773 6.21244 17.5001 5.67471 17.5002 5.11399C17.5003 4.55326 17.2776 4.01548 16.8812 3.61894C16.4847 3.2224 15.947 2.99958 15.3863 2.99951C14.8255 2.99944 14.2878 3.22212 13.8912 3.61856L3.88148 13.6305C3.70734 13.8042 3.57856 14.0179 3.50647 14.2531L2.5157 17.5171C2.49632 17.582 2.49485 17.6509 2.51146 17.7165C2.52808 17.7821 2.56214 17.8421 2.61005 17.8899C2.65796 17.9377 2.71792 17.9717 2.78358 17.9882C2.84923 18.0047 2.91813 18.0031 2.98296 17.9836L6.24779 16.9936C6.48267 16.9222 6.69643 16.7942 6.8703 16.6209L16.8808 6.60888Z" stroke="white" stroke-width="1.25" stroke-linecap="round" stroke-linejoin="round"/>
<path d="M12.25 5.25L15.2501 8.25007" stroke="white" stroke-width="1.25" stroke-linecap="round" stroke-linejoin="round"/>
</svg>
