<svg width="24" height="24" viewBox="0 0 24 24" fill="none" xmlns="http://www.w3.org/2000/svg">
<path d="M10.7334 5.07648C13.0628 4.79888 15.419 5.2913 17.4423 6.47853C19.4655 7.66576 21.0446 9.48256 21.9384 11.6515C22.0217 11.876 22.0217 12.123 21.9384 12.3475C21.5709 13.2385 21.0852 14.076 20.4944 14.8375" stroke="white" stroke-width="1.5" stroke-linecap="round" stroke-linejoin="round"/>
<path d="M14.0841 14.158C13.5183 14.7045 12.7605 15.0069 11.9739 15C11.1873 14.9932 10.4349 14.6777 9.87868 14.1215C9.32245 13.5652 9.00695 12.8128 9.00011 12.0262C8.99328 11.2396 9.29566 10.4818 9.84214 9.91602" stroke="white" stroke-width="1.5" stroke-linecap="round" stroke-linejoin="round"/>
<path d="M17.4785 17.4988C16.152 18.2846 14.672 18.7758 13.1389 18.9392C11.6058 19.1026 10.0555 18.9343 8.59316 18.4457C7.13084 17.9571 5.79072 17.1597 4.66374 16.1075C3.53676 15.0554 2.64928 13.7731 2.06153 12.3478C1.97819 12.1233 1.97819 11.8763 2.06153 11.6518C2.94816 9.50164 4.5082 7.69704 6.50753 6.50879" stroke="white" stroke-width="1.5" stroke-linecap="round" stroke-linejoin="round"/>
<path d="M2 2L22 22" stroke="white" stroke-width="1.5" stroke-linecap="round" stroke-linejoin="round"/>
</svg>
