<svg width="24" height="24" viewBox="0 0 24 24" fill="none" xmlns="http://www.w3.org/2000/svg">
<path d="M10.7329 5.07599C13.0623 4.7984 15.4185 5.29081 17.4418 6.47804C19.465 7.66527 21.0441 9.48207 21.9379 11.651C22.0213 11.8755 22.0213 12.1225 21.9379 12.347C21.5704 13.238 21.0847 14.0755 20.4939 14.837" stroke="#242424" stroke-width="1.5" stroke-linecap="round" stroke-linejoin="round"/>
<path d="M14.0839 14.158C13.5181 14.7045 12.7603 15.0069 11.9737 15C11.1871 14.9932 10.4347 14.6777 9.87844 14.1215C9.32221 13.5652 9.0067 12.8128 8.99987 12.0262C8.99303 11.2396 9.29542 10.4818 9.84189 9.91602" stroke="#242424" stroke-width="1.5" stroke-linecap="round" stroke-linejoin="round"/>
<path d="M17.479 17.4988C16.1525 18.2846 14.6725 18.7758 13.1394 18.9392C11.6063 19.1026 10.056 18.9343 8.59365 18.4457C7.13133 17.9571 5.79121 17.1597 4.66423 16.1075C3.53725 15.0554 2.64977 13.7731 2.06202 12.3478C1.97868 12.1233 1.97868 11.8763 2.06202 11.6518C2.94865 9.50164 4.50869 7.69704 6.50802 6.50879" stroke="#242424" stroke-width="1.5" stroke-linecap="round" stroke-linejoin="round"/>
<path d="M2 2L22 22" stroke="#242424" stroke-width="1.5" stroke-linecap="round" stroke-linejoin="round"/>
</svg>
