<svg width="24" height="24" viewBox="0 0 24 24" fill="none" xmlns="http://www.w3.org/2000/svg">
<path d="M2.06202 12.3479C1.97868 12.1234 1.97868 11.8764 2.06202 11.6519C2.87372 9.68373 4.25153 8.00091 6.02079 6.81677C7.79004 5.63263 9.87106 5.00049 12 5.00049C14.129 5.00049 16.21 5.63263 17.9792 6.81677C19.7485 8.00091 21.1263 9.68373 21.938 11.6519C22.0214 11.8764 22.0214 12.1234 21.938 12.3479C21.1263 14.316 19.7485 15.9988 17.9792 17.183C16.21 18.3671 14.129 18.9993 12 18.9993C9.87106 18.9993 7.79004 18.3671 6.02079 17.183C4.25153 15.9988 2.87372 14.316 2.06202 12.3479Z" stroke="#242424" stroke-width="1.5" stroke-linecap="round" stroke-linejoin="round"/>
<path d="M12 15C13.6569 15 15 13.6569 15 12C15 10.3431 13.6569 9 12 9C10.3431 9 9 10.3431 9 12C9 13.6569 10.3431 15 12 15Z" stroke="#242424" stroke-width="1.5" stroke-linecap="round" stroke-linejoin="round"/>
</svg>
