<svg width="32" height="32" viewBox="0 0 32 32" fill="none" xmlns="http://www.w3.org/2000/svg">
<rect width="32" height="32" rx="16" fill="#00426D"/>
<path d="M11.509 6.19821C12.0261 6.66365 12.3585 7.31788 12.4023 8.01421C12.4065 8.15092 12.4067 8.28767 12.4067 8.42443C12.4067 8.48832 12.4072 8.55221 12.4076 8.6161C12.4084 8.834 12.4022 9.04176 12.3545 9.25547C12.3507 9.27427 12.3468 9.29307 12.3429 9.31244C12.2048 9.96031 11.8698 10.4465 11.3758 10.8787C11.7067 10.8865 12.0375 10.8944 12.3784 10.9025C12.3784 11.0837 12.3784 11.2649 12.3784 11.4515C11.9941 11.4537 11.6098 11.4555 11.2254 11.4565C11.0469 11.457 10.8684 11.4576 10.69 11.4587C10.5342 11.4597 10.3784 11.4603 10.2226 11.4605C10.1403 11.4607 10.058 11.4609 9.97568 11.4616C9.11823 11.4682 8.40934 11.2703 7.78334 10.6608C7.1949 10.0696 7.00365 9.33276 7.00182 8.51845C7.00159 8.4566 7.00085 8.39477 7.0001 8.33292C6.9974 7.91021 7.04962 7.51888 7.22239 7.13101C7.23219 7.1089 7.23219 7.1089 7.24218 7.08635C7.47978 6.56057 7.89033 6.12336 8.39204 5.84201C8.41838 5.82721 8.44472 5.81241 8.47186 5.79716C9.46381 5.27047 10.6769 5.46823 11.509 6.19821ZM9.01267 6.1762C8.98762 6.18512 8.96257 6.19404 8.93677 6.20324C8.44895 6.39067 8.0693 6.74935 7.81915 7.20262C7.80332 7.2305 7.80332 7.2305 7.78717 7.25894C7.63468 7.5426 7.57724 7.8461 7.57476 8.16471C7.57457 8.1885 7.57437 8.2123 7.57418 8.23681C7.57385 8.28717 7.57359 8.33753 7.5734 8.38789C7.57313 8.43871 7.57264 8.48954 7.57193 8.54036C7.56601 8.96555 7.61036 9.32007 7.79528 9.70901C7.80497 9.73021 7.81467 9.75141 7.82465 9.77325C8.07336 10.2743 8.5419 10.613 9.05491 10.8069C9.4719 10.9369 9.98789 10.9419 10.3971 10.7832C10.4213 10.7748 10.4454 10.7664 10.4703 10.7578C10.9938 10.5615 11.3964 10.1603 11.6384 9.66127C11.6853 9.55185 11.7266 9.44196 11.7578 9.32708C11.764 9.30502 11.7702 9.28295 11.7766 9.26022C11.836 9.0227 11.8404 8.79253 11.8387 8.54882C11.8383 8.48136 11.8387 8.41394 11.8392 8.34649C11.8399 7.69947 11.6507 7.14857 11.1953 6.67747C10.9585 6.44081 10.6827 6.29672 10.3733 6.1762C10.3452 6.16431 10.3452 6.16431 10.3165 6.15219C9.92746 6.00466 9.397 6.03172 9.01267 6.1762Z" fill="#F98345"/>
<path d="M14.1599 7.82566C14.6725 7.67308 15.2658 7.78882 15.7038 8.08543C16.1458 8.42022 16.4101 8.85192 16.5075 9.3989C16.5254 9.56286 16.5217 9.72741 16.5193 9.89207C16.519 9.93731 16.5194 9.98256 16.5193 10.0278C16.5188 10.1455 16.5177 10.2636 16.5163 10.3813C16.5151 10.502 16.514 10.6229 16.5134 10.7436C16.5121 10.9795 16.51 11.2158 16.5075 11.4516H15.9353C15.9274 11.2941 15.919 11.1364 15.9109 10.9741C15.8794 11.0016 15.8485 11.0297 15.8161 11.0581C15.3877 11.3989 14.897 11.4941 14.3601 11.4516C14.0007 11.4077 13.6705 11.2123 13.405 10.9741C13.3833 10.9557 13.383 10.9556 13.3611 10.937C13.0609 10.6642 12.8644 10.2231 12.8239 9.82468C12.8203 9.74818 12.8196 9.67178 12.82 9.59519C12.8202 9.56824 12.8199 9.54093 12.82 9.51316C12.8304 9.02691 13.0472 8.61927 13.3835 8.27293C13.5863 8.08205 13.8324 7.93299 14.0974 7.84715C14.118 7.84012 14.1386 7.8329 14.1599 7.82566ZM15.3708 8.54539C15.0293 8.32078 14.5655 8.25921 14.1823 8.41453C14.1615 8.42456 14.1411 8.43408 14.1208 8.44383C13.8559 8.56962 13.6345 8.78019 13.5056 9.04441C13.3795 9.34176 13.3116 9.66887 13.4265 9.98289C13.4352 10.0034 13.4443 10.0235 13.4528 10.0434C13.5841 10.3671 13.783 10.6264 14.1042 10.7807C14.1365 10.7942 14.137 10.794 14.1687 10.8071C14.3141 10.8681 14.4537 10.8833 14.6101 10.8862C14.6318 10.8863 14.6535 10.8861 14.6745 10.8862C14.8439 10.8873 14.9922 10.8715 15.1521 10.811C15.4585 10.6549 15.696 10.4438 15.8396 10.1255C15.8477 10.1057 15.8552 10.086 15.863 10.0669C15.9552 9.85521 15.9573 9.62589 15.9353 9.3989C15.8666 9.03168 15.662 8.76934 15.3708 8.54539Z" fill="#F98345"/>
<path d="M19.8145 7.95589C20.4298 7.62736 21.2192 7.73278 21.7638 8.1512C21.7943 8.17681 21.8245 8.20325 21.8546 8.22933C21.8742 8.24443 21.8939 8.25966 21.9141 8.27522C22.0916 8.42256 22.2076 8.62179 22.3087 8.82601C22.3222 8.8522 22.3222 8.85282 22.336 8.87972C22.4863 9.19011 22.4854 9.50401 22.4825 9.84065C22.4824 9.88717 22.4826 9.93379 22.4825 9.9803C22.4822 10.1019 22.4813 10.2239 22.4805 10.3455C22.4798 10.4701 22.479 10.595 22.4786 10.7196C22.4778 10.9634 22.4771 11.2081 22.4757 11.452H21.9268V10.95C21.8924 10.9786 21.8578 11.0075 21.8223 11.0369C21.3742 11.3915 20.8985 11.4839 20.3389 11.4461C19.8716 11.3827 19.4496 11.107 19.1632 10.7401C18.8452 10.2956 18.7362 9.81233 18.8067 9.27229C18.888 8.80873 19.1848 8.38567 19.5587 8.10823C19.6227 8.06655 19.6872 8.02721 19.754 7.99007C19.7739 7.97881 19.794 7.96749 19.8145 7.95589ZM21.4454 8.61409C20.9027 8.211 20.1445 8.24802 19.6739 8.75472C19.4167 9.07154 19.3461 9.37566 19.3682 9.77522C19.39 10.0581 19.5439 10.3664 19.7569 10.5565C19.7722 10.5687 19.787 10.5807 19.8018 10.5926C20.0047 10.7604 20.2283 10.8723 20.4932 10.8885C20.8965 10.901 21.2523 10.807 21.5548 10.5262C21.7753 10.2843 21.9042 9.98963 21.9122 9.6639C21.9124 9.64132 21.913 9.6194 21.9132 9.59749C21.9139 9.53498 21.9135 9.47242 21.9102 9.40999C21.8729 9.09918 21.6801 8.81123 21.4454 8.61409Z" fill="#F98345"/>
<path d="M16.9376 5.79425C17.1188 5.79425 17.3 5.79425 17.4866 5.79425C17.4866 6.44806 17.4866 7.10187 17.4866 7.77549C17.7702 7.77549 18.0538 7.77549 18.346 7.77549C18.346 7.96454 18.346 8.1536 18.346 8.34838C18.0624 8.34838 17.7788 8.34838 17.4866 8.34838C17.4888 8.68679 17.4888 8.68679 17.4916 9.02519C17.4929 9.16332 17.4941 9.30145 17.4949 9.43959C17.4955 9.55103 17.4965 9.66247 17.4977 9.7739C17.4981 9.8163 17.4983 9.85869 17.4985 9.90109C17.4997 10.1986 17.5055 10.4621 17.7253 10.6877C17.9327 10.8533 18.1057 10.877 18.3698 10.8548C18.4328 10.835 18.4868 10.8115 18.5447 10.7802C18.5847 10.7593 18.5847 10.7593 18.6324 10.7593C18.6324 10.9641 18.6324 11.1689 18.6324 11.3799C18.4024 11.4949 18.0558 11.4893 17.8104 11.4127C17.4118 11.2573 17.1568 10.9926 16.984 10.6052C16.9384 10.4823 16.9342 10.3649 16.9347 10.2349C16.9347 10.2159 16.9347 10.1969 16.9347 10.1773C16.9346 10.1137 16.9348 10.0501 16.9349 9.98645C16.9349 9.94081 16.9349 9.89517 16.9349 9.84953C16.9349 9.72565 16.935 9.60177 16.9352 9.4779C16.9353 9.34842 16.9353 9.21895 16.9354 9.08948C16.9354 8.84432 16.9356 8.59916 16.9359 8.354C16.9361 8.07489 16.9363 7.79578 16.9364 7.51667C16.9366 6.94253 16.9371 6.36839 16.9376 5.79425Z" fill="#F98345"/>
<path d="M24.1569 7.76954C24.1739 7.76936 24.1909 7.76917 24.2084 7.76898C24.3442 7.76948 24.4768 7.78555 24.6 7.84712C24.6 8.05193 24.6 8.25674 24.6 8.46775C24.4818 8.42049 24.4818 8.42049 24.3613 8.37227C24.1146 8.33673 23.9149 8.38421 23.7093 8.51997C23.577 8.65839 23.4997 8.81374 23.4982 9.00586C23.4978 9.0383 23.4978 9.0383 23.4975 9.07138C23.4973 9.09492 23.4972 9.11846 23.497 9.14272C23.4967 9.18011 23.4967 9.18011 23.4963 9.21825C23.4956 9.30065 23.495 9.38305 23.4944 9.46546C23.4939 9.52258 23.4934 9.57971 23.4929 9.63684C23.4916 9.78721 23.4904 9.93759 23.4892 10.088C23.488 10.2414 23.4867 10.3949 23.4854 10.5483C23.4828 10.8494 23.4804 11.1505 23.4781 11.4515C23.289 11.4515 23.1 11.4515 22.9052 11.4515C22.9036 11.1133 22.9022 10.7751 22.9015 10.4369C22.9011 10.2798 22.9006 10.1227 22.8998 9.96565C22.899 9.81397 22.8986 9.6623 22.8984 9.51062C22.8983 9.45285 22.898 9.39508 22.8976 9.33732C22.8971 9.25619 22.897 9.17507 22.8971 9.09394C22.8968 9.07024 22.8965 9.04655 22.8963 9.02214C22.8977 8.68691 23.0352 8.38404 23.2617 8.13804C23.5017 7.911 23.8257 7.76596 24.1569 7.76954Z" fill="#F98345"/>
<path d="M12.9194 13.5564C13.1489 13.717 13.3484 13.9232 13.5434 14.1229C13.6187 14.1984 13.6984 14.2674 13.7794 14.3367C13.8671 14.4148 13.9484 14.4991 14.0309 14.5828C14.1068 14.6576 14.1866 14.7268 14.2676 14.7962C14.3473 14.867 14.4212 14.9432 14.496 15.0192C14.5509 15.0733 14.6075 15.1239 14.6661 15.1741C14.7753 15.2679 14.8757 15.3689 14.9768 15.4713C15.0527 15.5462 15.1325 15.6153 15.2135 15.6847C15.2931 15.7555 15.3669 15.8316 15.4417 15.9075C15.5158 15.9805 15.5941 16.0478 15.673 16.1156C15.7271 16.1636 15.778 16.2134 15.8287 16.2651C15.8961 16.3336 15.9653 16.3978 16.0383 16.4603C16.1566 16.5621 16.2651 16.6724 16.3748 16.7834C16.4539 16.8614 16.5365 16.9339 16.6209 17.0062C16.692 17.069 16.7577 17.1364 16.8242 17.2041C16.8758 17.2548 16.9293 17.3019 16.9842 17.3489C17.0762 17.4281 17.1622 17.5115 17.2476 17.5979C17.3497 17.7013 17.4545 17.7984 17.5649 17.8928C17.6443 17.9633 17.7178 18.0392 17.7923 18.1149C17.8472 18.169 17.9038 18.2195 17.9624 18.2697C18.0716 18.3635 18.172 18.4645 18.2731 18.567C18.349 18.6419 18.4288 18.711 18.5098 18.7804C18.5895 18.8512 18.6634 18.9274 18.7382 19.0034C18.7931 19.0575 18.8497 19.1081 18.9082 19.1583C19.0175 19.2521 19.1179 19.3531 19.219 19.4555C19.2949 19.5304 19.3747 19.5996 19.4557 19.669C19.5354 19.7398 19.6092 19.816 19.6841 19.892C19.739 19.9461 19.7956 19.9967 19.8541 20.0468C19.9634 20.1407 20.0638 20.2416 20.1649 20.3441C20.2408 20.419 20.3206 20.4881 20.4015 20.5575C20.461 20.6103 20.5168 20.6656 20.5725 20.7222C20.6644 20.8154 20.7596 20.9028 20.8589 20.9879C20.8984 21.0219 20.9373 21.0565 20.9758 21.0916C21.1763 21.2734 21.3191 21.3436 21.5951 21.3357C21.7739 21.3141 21.9134 21.2549 22.0319 21.1169C22.1559 20.9368 22.1819 20.7993 22.1812 20.5822C22.1813 20.5558 22.1813 20.5294 22.1814 20.5023C22.1815 20.4135 22.1814 20.3248 22.1813 20.2361C22.1813 20.1726 22.1814 20.1092 22.1814 20.0457C22.1816 19.9088 22.1816 19.772 22.1816 19.6351C22.1817 19.4187 22.182 19.2022 22.1825 18.9858C22.1826 18.9493 22.1826 18.9128 22.1827 18.8752C22.1829 18.8005 22.183 18.7259 22.1832 18.6512C22.1835 18.4592 22.1839 18.2673 22.1842 18.0753C22.1842 18.056 22.1843 18.0368 22.1843 18.0169C22.1848 17.705 22.1849 17.393 22.1848 17.081C22.1848 16.7606 22.1853 16.4402 22.1863 16.1198C22.1868 15.9399 22.1871 15.7601 22.1868 15.5802C22.1864 15.411 22.1868 15.2418 22.1876 15.0726C22.1878 15.0105 22.1877 14.9484 22.1874 14.8864C22.187 14.8015 22.1875 14.7167 22.1882 14.6319C22.1879 14.6074 22.1876 14.5829 22.1872 14.5577C22.1906 14.3454 22.2718 14.2073 22.4205 14.0589C22.5798 13.9897 22.7357 13.9986 22.9076 13.9998C22.945 13.9996 22.9825 13.9995 23.0211 13.9994C23.1002 13.9993 23.1793 13.9995 23.2584 14C23.3593 14.0007 23.4602 14.0003 23.5612 13.9996C23.658 13.9991 23.7548 13.9995 23.8517 13.9998C23.9058 13.9994 23.9058 13.9994 23.9609 13.999C24.1555 14.0011 24.2859 14.0092 24.4421 14.1296C24.5601 14.2819 24.589 14.3883 24.5892 14.5782C24.5893 14.5977 24.5894 14.6173 24.5895 14.6374C24.5896 14.7034 24.5896 14.7694 24.5896 14.8354C24.5897 14.8831 24.5898 14.9307 24.5899 14.9783C24.5902 15.1095 24.5903 15.2407 24.5904 15.372C24.5905 15.5134 24.5908 15.6547 24.591 15.7961C24.5916 16.1378 24.5919 16.4795 24.5922 16.8212C24.5923 16.982 24.5924 17.1429 24.5926 17.3038C24.5931 17.8385 24.5935 18.3732 24.5937 18.9079C24.5938 19.0467 24.5938 19.1855 24.5939 19.3243C24.5939 19.3588 24.5939 19.3933 24.5939 19.4288C24.5941 19.9876 24.5949 20.5465 24.5958 21.1053C24.5967 21.6789 24.5973 22.2525 24.5974 22.8261C24.5974 23.1482 24.5977 23.4703 24.5984 23.7924C24.599 24.0667 24.5993 24.341 24.599 24.6154C24.5988 24.7553 24.5989 24.8953 24.5995 25.0352C24.6 25.1634 24.5999 25.2916 24.5995 25.4199C24.5994 25.4662 24.5995 25.5124 24.5999 25.5587C24.6022 25.8964 24.5768 26.2092 24.33 26.4628C24.1189 26.6371 23.8971 26.6823 23.6267 26.6703C23.2986 26.6227 23.0676 26.3321 22.8396 26.1114C22.7447 26.02 22.6484 25.9303 22.5521 25.8404C22.3731 25.6727 22.1945 25.5046 22.0159 25.3365C21.8789 25.2075 21.7417 25.0787 21.6044 24.9501C21.3446 24.7067 21.0855 24.4626 20.8263 24.2186C20.5319 23.9413 20.2371 23.6644 19.9419 23.3879C19.6871 23.1492 19.4324 22.9102 19.1782 22.6708C19.0412 22.5418 18.904 22.413 18.7667 22.2844C18.6089 22.1365 18.4512 21.9884 18.2938 21.8401C18.06 21.62 17.8258 21.4004 17.5915 21.1808C17.3367 20.9421 17.082 20.7031 16.8278 20.4637C16.6908 20.3347 16.5536 20.2059 16.4163 20.0773C16.2795 19.9491 16.1428 19.8208 16.0062 19.6923C15.9657 19.6541 15.9251 19.616 15.8845 19.5779C15.7784 19.4783 15.6731 19.3781 15.5687 19.2768C15.5472 19.2561 15.5256 19.2353 15.5034 19.214C15.4624 19.1745 15.4216 19.1348 15.3811 19.0949C15.2013 18.9225 15.039 18.8138 14.7825 18.8161C14.5828 18.8227 14.4485 18.8543 14.3026 18.9923C14.1425 19.1678 14.1148 19.3178 14.116 19.5494C14.116 19.5757 14.1159 19.6019 14.1158 19.629C14.1156 19.7171 14.1157 19.8052 14.1159 19.8933C14.1158 19.9564 14.1157 20.0195 14.1156 20.0827C14.1154 20.2187 14.1153 20.3547 14.1154 20.4907C14.1155 20.7058 14.1151 20.9209 14.1145 21.1361C14.1139 21.4378 14.1133 21.7394 14.113 22.0411C14.1129 22.0698 14.1129 22.0698 14.1129 22.0991C14.1126 22.3706 14.1124 22.642 14.1123 22.9134C14.1123 22.9325 14.1123 22.9516 14.1123 22.9713C14.1123 22.9904 14.1123 23.0095 14.1123 23.0291C14.1122 23.3477 14.1116 23.6663 14.1107 23.9848C14.1102 24.1986 14.1101 24.4124 14.1104 24.6261C14.1105 24.7593 14.1101 24.8924 14.1096 25.0256C14.1094 25.0872 14.1094 25.1488 14.1097 25.2105C14.11 25.2948 14.1096 25.3791 14.1091 25.4634C14.1093 25.4877 14.1096 25.5119 14.1099 25.5369C14.1077 25.7076 14.0702 25.8499 13.9799 25.9963C13.8431 26.108 13.7361 26.143 13.5623 26.1447C13.5296 26.1451 13.4969 26.1454 13.4632 26.1458C13.4101 26.1461 13.4101 26.1461 13.3559 26.1464C13.3196 26.1467 13.2832 26.1469 13.2457 26.1471C13.1687 26.1475 13.0917 26.1479 13.0146 26.1481C12.9162 26.1484 12.8178 26.1494 12.7194 26.1505C12.6253 26.1515 12.5311 26.1516 12.4369 26.1518C12.3841 26.1526 12.3841 26.1526 12.3302 26.1533C12.1452 26.1529 12.0274 26.1512 11.8875 26.025C11.8662 26.0072 11.8449 25.9895 11.823 25.9712C11.7166 25.842 11.7083 25.6994 11.7081 25.5371C11.708 25.5175 11.7079 25.4978 11.7078 25.4775C11.7076 25.4117 11.7077 25.3458 11.7079 25.28C11.7077 25.2322 11.7076 25.1845 11.7075 25.1368C11.7071 25.0057 11.7071 24.8746 11.7072 24.7436C11.7072 24.6022 11.7069 24.4608 11.7066 24.3194C11.7061 24.0424 11.706 23.7654 11.7059 23.4884C11.7059 23.2632 11.7058 23.0381 11.7056 22.8129C11.7051 22.1746 11.7048 21.5362 11.7049 20.8979C11.7049 20.8635 11.7049 20.829 11.7049 20.7936C11.7049 20.7591 11.7049 20.7247 11.7049 20.6892C11.7049 20.1307 11.7044 19.5723 11.7036 19.0138C11.7027 18.4404 11.7023 17.8671 11.7024 17.2937C11.7024 16.9718 11.7023 16.6498 11.7016 16.3279C11.7011 16.0538 11.701 15.7797 11.7014 15.5056C11.7016 15.3658 11.7016 15.226 11.7011 15.0862C11.7006 14.9581 11.7007 14.83 11.7012 14.7019C11.7013 14.6557 11.7012 14.6094 11.7009 14.5632C11.6987 14.224 11.7317 13.9487 11.9716 13.6927C12.2421 13.4626 12.5974 13.3965 12.9194 13.5564Z" fill="white"/>
<path d="M7.4949 14.0099C7.54571 14.0094 7.54571 14.0094 7.59754 14.0088C7.63417 14.0086 7.67081 14.0084 7.70855 14.0082C7.7462 14.0079 7.78384 14.0077 7.82263 14.0075C7.90236 14.007 7.98208 14.0068 8.06182 14.0065C8.16369 14.0062 8.26556 14.0052 8.36743 14.0041C8.46489 14.0032 8.56235 14.003 8.65982 14.0028C8.69628 14.0023 8.73275 14.0018 8.77031 14.0013C9.08482 14.0021 9.08482 14.0021 9.22178 14.1297C9.34234 14.2665 9.36868 14.3345 9.36903 14.5158C9.36914 14.5448 9.36914 14.5448 9.36926 14.5744C9.36948 14.6399 9.36949 14.7054 9.36951 14.7709C9.36963 14.8181 9.36975 14.8653 9.36989 14.9125C9.37024 15.0426 9.3704 15.1728 9.37053 15.3029C9.3707 15.4431 9.37103 15.5833 9.37134 15.7234C9.37204 16.0622 9.37246 16.401 9.37283 16.7398C9.37294 16.8355 9.37305 16.9311 9.37317 17.0268C9.37389 17.6205 9.37452 18.2142 9.37488 18.8078C9.37496 18.9454 9.37505 19.083 9.37513 19.2206C9.37516 19.2548 9.37518 19.289 9.3752 19.3242C9.37556 19.8782 9.37651 20.4323 9.37771 20.9863C9.37892 21.5548 9.3796 22.1234 9.37975 22.6919C9.37985 23.0112 9.38019 23.3305 9.38113 23.6498C9.38193 23.9218 9.38225 24.1937 9.38193 24.4657C9.38178 24.6044 9.38186 24.7432 9.38257 24.882C9.38321 25.009 9.38319 25.1361 9.38265 25.2632C9.38257 25.3091 9.38273 25.3551 9.38316 25.401C9.38706 25.8458 9.38706 25.8458 9.22178 26.025C9.08802 26.1586 8.95219 26.1537 8.77252 26.1556C8.71823 26.1552 8.71823 26.1552 8.66285 26.1549C8.62532 26.155 8.5878 26.1551 8.54914 26.1552C8.46992 26.1554 8.39071 26.1551 8.31149 26.1546C8.21029 26.1539 8.10912 26.1543 8.00791 26.155C7.91092 26.1555 7.81394 26.1552 7.71695 26.1549C7.66266 26.1552 7.66266 26.1552 7.60728 26.1556C7.29542 26.1522 7.29542 26.1522 7.15801 26.025C7.03724 25.8879 7.01112 25.8199 7.01085 25.6383C7.01078 25.6188 7.01072 25.5994 7.01065 25.5794C7.01045 25.5137 7.01047 25.448 7.01048 25.3823C7.01038 25.3349 7.01028 25.2876 7.01016 25.2402C7.00987 25.1097 7.00977 24.9791 7.00969 24.8485C7.00958 24.7078 7.0093 24.5672 7.00905 24.4265C7.00849 24.0866 7.0082 23.7467 7.00794 23.4068C7.00782 23.2469 7.00766 23.087 7.00751 22.927C7.00703 22.3956 7.00661 21.8641 7.0064 21.3326C7.00635 21.1947 7.00629 21.0567 7.00624 20.9187C7.00622 20.8844 7.00621 20.8501 7.0062 20.8148C7.00596 20.2589 7.00523 19.7031 7.0043 19.1472C7.00335 18.577 7.00284 18.0067 7.00274 17.4364C7.00268 17.1161 7.00243 16.7957 7.0017 16.4754C7.00108 16.2026 7.00085 15.9298 7.00112 15.6571C7.00126 15.5178 7.0012 15.3786 7.00064 15.2394C7.00014 15.112 7.00017 14.9846 7.00061 14.8572C7.00068 14.811 7.00056 14.7649 7.00022 14.7187C6.99979 14.6561 7.00006 14.5935 7.00051 14.5308C7.00048 14.496 7.00045 14.4612 7.00042 14.4253C7.02465 14.2641 7.12324 14.1488 7.24401 14.0437C7.33452 14.0135 7.39982 14.0108 7.4949 14.0099Z" fill="white"/>
</svg>
