<svg width="40" height="41" viewBox="0 0 40 41" fill="none" xmlns="http://www.w3.org/2000/svg">
<path d="M33.3332 17.3407C33.3332 25.6623 24.1015 34.329 21.0015 37.0057C20.7127 37.2228 20.3612 37.3402 19.9998 37.3402C19.6385 37.3402 19.287 37.2228 18.9982 37.0057C15.8982 34.329 6.6665 25.6623 6.6665 17.3407C6.6665 13.8044 8.07126 10.4131 10.5717 7.91257C13.0722 5.41208 16.4636 4.00732 19.9998 4.00732C23.5361 4.00732 26.9274 5.41208 29.4279 7.91257C31.9284 10.4131 33.3332 13.8044 33.3332 17.3407Z" fill="#FF7F38" stroke="#FF7F38" stroke-width="2.5" stroke-linecap="round" stroke-linejoin="round"/>
<path d="M20 22.3403C22.7614 22.3403 25 20.1018 25 17.3403C25 14.5789 22.7614 12.3403 20 12.3403C17.2386 12.3403 15 14.5789 15 17.3403C15 20.1018 17.2386 22.3403 20 22.3403Z" fill="white" stroke="white" stroke-width="2.5" stroke-linecap="round" stroke-linejoin="round"/>
</svg>
