<svg width="24" height="24" viewBox="0 0 24 24" fill="none" xmlns="http://www.w3.org/2000/svg">
<path d="M18 5L15.586 2.586C15.211 2.2109 14.7024 2.00011 14.172 2H6C5.46957 2 4.96086 2.21071 4.58579 2.58579C4.21071 2.96086 4 3.46957 4 4V20C4 20.5304 4.21071 21.0391 4.58579 21.4142C4.96086 21.7893 5.46957 22 6 22H18C18.5304 22 19.0391 21.7893 19.4142 21.4142C19.7893 21.0391 20 20.5304 20 20" stroke="#242424" stroke-width="1.5" stroke-linecap="round" stroke-linejoin="round"/>
<path d="M21.378 12.6261C21.7764 12.2278 22.0002 11.6875 22.0002 11.1241C22.0002 10.5608 21.7764 10.0205 21.378 9.62215C20.9797 9.22379 20.4394 9 19.876 9C19.3126 9 18.7724 9.22379 18.374 9.62215L14.364 13.6341C14.1263 13.8718 13.9522 14.1655 13.858 14.4881L13.021 17.3581C12.9959 17.4442 12.9944 17.5354 13.0167 17.6222C13.0389 17.7091 13.0841 17.7883 13.1475 17.8517C13.2108 17.9151 13.2901 17.9603 13.3769 17.9825C13.4637 18.0048 13.555 18.0032 13.641 17.9781L16.511 17.1411C16.8337 17.0469 17.1274 16.8729 17.365 16.6351L21.378 12.6261Z" stroke="#242424" stroke-width="1.5" stroke-linecap="round" stroke-linejoin="round"/>
<path d="M8 18H9" stroke="#242424" stroke-width="1.5" stroke-linecap="round" stroke-linejoin="round"/>
</svg>
