<svg width="24" height="25" viewBox="0 0 24 25" fill="none" xmlns="http://www.w3.org/2000/svg">
<path d="M20.2569 7.83051C20.7328 7.35478 21.0002 6.7095 21.0002 6.03664C21.0003 5.36377 20.7331 4.71843 20.2574 4.24258C19.7817 3.76673 19.1364 3.49935 18.4635 3.49927C17.7906 3.49918 17.1453 3.7664 16.6695 4.24213L4.65778 16.2565C4.44881 16.4649 4.29427 16.7214 4.20777 17.0035L3.01884 20.9204C2.99558 20.9982 2.99382 21.0809 3.01376 21.1597C3.03369 21.2384 3.07457 21.3103 3.13206 21.3677C3.18955 21.4251 3.26151 21.4659 3.34029 21.4857C3.41908 21.5055 3.50176 21.5036 3.57955 21.4802L7.49734 20.2922C7.7792 20.2065 8.03571 20.0529 8.24436 19.8449L20.2569 7.83051Z" stroke="#242424" stroke-width="1.5" stroke-linecap="round" stroke-linejoin="round"/>
<path d="M14.7002 6.19983L18.3003 9.79991" stroke="#242424" stroke-width="1.5" stroke-linecap="round" stroke-linejoin="round"/>
</svg>
