<svg width="24" height="24" viewBox="0 0 24 24" fill="none" xmlns="http://www.w3.org/2000/svg">
<path d="M6.66869 13.9995C6.54258 14.0001 6.41894 13.9471 6.31212 13.8465C6.20531 13.7459 6.11972 13.6019 6.06528 13.4313C6.01085 13.2606 5.98981 13.0703 6.0046 12.8824C6.0194 12.6945 6.06943 12.5168 6.14888 12.3699L12.7464 2.17256C12.7959 2.08686 12.8633 2.02895 12.9376 2.00833C13.012 1.98772 13.0887 2.00562 13.1554 2.05909C13.222 2.11257 13.2746 2.19845 13.3044 2.30263C13.3342 2.40682 13.3395 2.52312 13.3195 2.63244L12.04 8.65087C12.0023 8.80236 11.9896 8.96531 12.0031 9.12576C12.0165 9.2862 12.0558 9.43935 12.1173 9.57206C12.1789 9.70477 12.2611 9.81308 12.3567 9.88771C12.4523 9.96234 12.5586 10.001 12.6664 10.0005H17.3313C17.4574 9.99988 17.5811 10.0529 17.6879 10.1535C17.7947 10.2541 17.8803 10.3981 17.9347 10.5687C17.9892 10.7394 18.0102 10.9297 17.9954 11.1176C17.9806 11.3055 17.9306 11.4832 17.8511 11.6301L11.2536 21.8274C11.2041 21.9131 11.1367 21.971 11.0624 21.9917C10.988 22.0123 10.9113 21.9944 10.8446 21.9409C10.778 21.8874 10.7254 21.8015 10.6956 21.6974C10.6658 21.5932 10.6605 21.4769 10.6805 21.3676L11.96 15.3491C11.9977 15.1976 12.0104 15.0347 11.9969 14.8742C11.9835 14.7138 11.9442 14.5607 11.8827 14.4279C11.8211 14.2952 11.7389 14.1869 11.6433 14.1123C11.5477 14.0377 11.4414 13.999 11.3336 13.9995H6.66869Z" stroke="white" stroke-width="1.5" stroke-linecap="round" stroke-linejoin="round"/>
</svg>
