<svg width="24" height="24" viewBox="0 0 24 24" fill="none" xmlns="http://www.w3.org/2000/svg">
<path d="M12 13V21" stroke="#FF7F38" stroke-width="1.5" stroke-linecap="round" stroke-linejoin="round"/>
<path d="M4.00034 14.8988C3.25738 14.1397 2.69691 13.2215 2.36137 12.2137C2.02584 11.2059 1.92405 10.135 2.0637 9.08208C2.20335 8.02913 2.5808 7.02178 3.16743 6.13631C3.75407 5.25085 4.53452 4.51049 5.44967 3.97133C6.36482 3.43216 7.39067 3.10833 8.44951 3.02435C9.50835 2.94038 10.5724 3.09846 11.5611 3.48664C12.5498 3.87481 13.4372 4.48289 14.1561 5.26481C14.8749 6.04674 15.4065 6.98201 15.7103 7.99978H17.5003C18.4659 7.99967 19.4058 8.3101 20.1813 8.88522C20.9569 9.46033 21.5269 10.2696 21.8071 11.1936C22.0874 12.1175 22.063 13.1071 21.7377 14.0162C21.4123 14.9252 20.8032 15.7055 20.0003 16.2418" stroke="#FF7F38" stroke-width="1.5" stroke-linecap="round" stroke-linejoin="round"/>
<path d="M8 17L12 13L16 17" stroke="#FF7F38" stroke-width="1.5" stroke-linecap="round" stroke-linejoin="round"/>
</svg>
