<svg width="136" height="41" viewBox="0 0 136 41" fill="none" xmlns="http://www.w3.org/2000/svg">
<rect x="1" y="0.826172" width="134" height="39" rx="6.5" fill="black"/>
<rect x="1" y="0.826172" width="134" height="39" rx="6.5" stroke="#A6A6A6"/>
<path d="M82.0259 19.527V21.818H80.5898V23.3205H82.0259V28.4255C82.0259 30.1686 82.8144 30.8659 84.7983 30.8659C85.147 30.8659 85.479 30.8244 85.7695 30.7746V29.2888C85.5205 29.3137 85.3628 29.3303 85.0889 29.3303C84.2007 29.3303 83.8105 28.9152 83.8105 27.9689V23.3205H85.7695V21.818H83.8105V19.527H82.0259Z" fill="white"/>
<path d="M90.8234 30.9904C93.463 30.9904 95.0817 29.2223 95.0817 26.2922C95.0817 23.3786 93.4547 21.6022 90.8234 21.6022C88.1837 21.6022 86.5568 23.3786 86.5568 26.2922C86.5568 29.2223 88.1754 30.9904 90.8234 30.9904ZM90.8234 29.405C89.2711 29.405 88.3995 28.2678 88.3995 26.2922C88.3995 24.3332 89.2711 23.1877 90.8234 23.1877C92.3673 23.1877 93.2472 24.3332 93.2472 26.2922C93.2472 28.2595 92.3673 29.405 90.8234 29.405Z" fill="white"/>
<path d="M96.4666 30.8161H98.2512V25.4787C98.2512 24.2087 99.2058 23.3537 100.559 23.3537C100.874 23.3537 101.406 23.4118 101.555 23.4616V21.7018C101.364 21.652 101.024 21.6271 100.758 21.6271C99.5794 21.6271 98.575 22.2746 98.3176 23.1628H98.1848V21.7765H96.4666V30.8161Z" fill="white"/>
<path d="M105.986 23.1213C107.306 23.1213 108.169 24.0427 108.211 25.4621H103.645C103.745 24.051 104.666 23.1213 105.986 23.1213ZM108.203 28.3757C107.871 29.0812 107.132 29.4714 106.053 29.4714C104.625 29.4714 103.704 28.467 103.645 26.8815V26.7819H110.029V26.1594C110.029 23.3205 108.51 21.6022 105.995 21.6022C103.446 21.6022 101.828 23.4367 101.828 26.3254C101.828 29.214 103.413 30.9904 106.003 30.9904C108.07 30.9904 109.514 29.9943 109.921 28.3757H108.203Z" fill="white"/>
<path d="M70.3223 27.4779C70.4599 29.6976 72.3097 31.1172 75.0628 31.1172C78.0052 31.1172 79.8464 29.6288 79.8464 27.2542C79.8464 25.3873 78.7967 24.3549 76.2501 23.7612L74.8821 23.4257C73.2647 23.0471 72.6108 22.5395 72.6108 21.6533C72.6108 20.5349 73.626 19.8036 75.1489 19.8036C76.5942 19.8036 77.5923 20.5177 77.7729 21.662H79.6485C79.5366 19.5713 77.6955 18.1001 75.1747 18.1001C72.4646 18.1001 70.6578 19.5713 70.6578 21.7824C70.6578 23.6063 71.6816 24.6904 73.9272 25.2152L75.5274 25.6024C77.1707 25.9895 77.8934 26.5574 77.8934 27.5037C77.8934 28.605 76.7577 29.4051 75.2091 29.4051C73.5486 29.4051 72.3957 28.6566 72.2323 27.4779H70.3223Z" fill="white"/>
<path d="M51.8349 21.6271C50.6064 21.6271 49.5439 22.2414 48.9961 23.2707H48.8633V21.7765H47.145V33.821H48.9297V29.4465H49.0708C49.5439 30.4011 50.5649 30.9655 51.8516 30.9655C54.1343 30.9655 55.5869 29.1642 55.5869 26.2922C55.5869 23.4201 54.1343 21.6271 51.8349 21.6271ZM51.3286 29.3635C49.8345 29.3635 48.8965 28.1847 48.8965 26.3005C48.8965 24.4079 49.8345 23.2292 51.3369 23.2292C52.8476 23.2292 53.7524 24.383 53.7524 26.2922C53.7524 28.2096 52.8476 29.3635 51.3286 29.3635Z" fill="white"/>
<path d="M61.8317 21.6271C60.6032 21.6271 59.5407 22.2414 58.9929 23.2707H58.8601V21.7765H57.1418V33.821H58.9265V29.4465H59.0676C59.5407 30.4011 60.5617 30.9655 61.8483 30.9655C64.1311 30.9655 65.5837 29.1642 65.5837 26.2922C65.5837 23.4201 64.1311 21.6271 61.8317 21.6271ZM61.3254 29.3635C59.8313 29.3635 58.8933 28.1847 58.8933 26.3005C58.8933 24.4079 59.8313 23.2292 61.3337 23.2292C62.8444 23.2292 63.7492 24.383 63.7492 26.2922C63.7492 28.2096 62.8444 29.3635 61.3254 29.3635Z" fill="white"/>
<path d="M43.943 30.8161H45.9906L41.5082 18.4012H39.4348L34.9523 30.8161H36.9311L38.0754 27.5209H42.8073L43.943 30.8161ZM40.3725 20.6553H40.5188L42.3169 25.9035H38.5658L40.3725 20.6553Z" fill="white"/>
<path d="M36.1514 9.03687V15.0259H38.3137C40.0984 15.0259 41.1318 13.926 41.1318 12.0127C41.1318 10.1284 40.0901 9.03687 38.3137 9.03687H36.1514ZM37.0811 9.88354H38.21C39.4509 9.88354 40.1855 10.6721 40.1855 12.0251C40.1855 13.3989 39.4634 14.1792 38.21 14.1792H37.0811V9.88354Z" fill="white"/>
<path d="M44.2969 15.113C45.6167 15.113 46.4261 14.229 46.4261 12.7639C46.4261 11.3071 45.6126 10.4189 44.2969 10.4189C42.9771 10.4189 42.1636 11.3071 42.1636 12.7639C42.1636 14.229 42.9729 15.113 44.2969 15.113ZM44.2969 14.3203C43.5208 14.3203 43.085 13.7517 43.085 12.7639C43.085 11.7844 43.5208 11.2117 44.2969 11.2117C45.0689 11.2117 45.5088 11.7844 45.5088 12.7639C45.5088 13.7476 45.0689 14.3203 44.2969 14.3203Z" fill="white"/>
<path d="M53.3182 10.5061H52.4259L51.6207 13.9551H51.5501L50.6205 10.5061H49.7655L48.8358 13.9551H48.7694L47.9601 10.5061H47.0553L48.3004 15.0259H49.2176L50.1473 11.6973H50.2179L51.1517 15.0259H52.0772L53.3182 10.5061Z" fill="white"/>
<path d="M54.3458 15.0259H55.2382V12.3821C55.2382 11.6765 55.6574 11.2366 56.3173 11.2366C56.9772 11.2366 57.2926 11.5977 57.2926 12.324V15.0259H58.185V12.0999C58.185 11.0249 57.6288 10.4189 56.6203 10.4189C55.9396 10.4189 55.4914 10.7219 55.2714 11.2241H55.205V10.5061H54.3458V15.0259Z" fill="white"/>
<path d="M59.5903 15.0259H60.4826V8.74219H59.5903V15.0259Z" fill="white"/>
<path d="M63.8386 15.113C65.1584 15.113 65.9678 14.229 65.9678 12.7639C65.9678 11.3071 65.1543 10.4189 63.8386 10.4189C62.5188 10.4189 61.7053 11.3071 61.7053 12.7639C61.7053 14.229 62.5146 15.113 63.8386 15.113ZM63.8386 14.3203C63.0625 14.3203 62.6267 13.7517 62.6267 12.7639C62.6267 11.7844 63.0625 11.2117 63.8386 11.2117C64.6106 11.2117 65.0505 11.7844 65.0505 12.7639C65.0505 13.7476 64.6106 14.3203 63.8386 14.3203Z" fill="white"/>
<path d="M68.6265 14.3494C68.1409 14.3494 67.7881 14.1128 67.7881 13.7061C67.7881 13.3076 68.0704 13.0959 68.6929 13.0544L69.7969 12.9839V13.3616C69.7969 13.9219 69.2989 14.3494 68.6265 14.3494ZM68.3982 15.1006C68.9917 15.1006 69.4856 14.8433 69.7554 14.3909H69.826V15.0259H70.6851V11.938C70.6851 10.9834 70.0459 10.4189 68.9129 10.4189C67.8877 10.4189 67.1573 10.917 67.066 11.6931H67.9292C68.0289 11.3735 68.3733 11.1909 68.8714 11.1909C69.4815 11.1909 69.7969 11.4607 69.7969 11.938V12.3281L68.5726 12.3987C67.4976 12.4651 66.8916 12.9341 66.8916 13.7476C66.8916 14.5735 67.5267 15.1006 68.3982 15.1006Z" fill="white"/>
<path d="M73.7132 15.1006C74.3358 15.1006 74.8629 14.8059 75.1327 14.312H75.2032V15.0259H76.0582V8.74219H75.1659V11.2241H75.0995C74.8546 10.7261 74.3316 10.4314 73.7132 10.4314C72.5719 10.4314 71.8373 11.3362 71.8373 12.7639C71.8373 14.1958 72.5636 15.1006 73.7132 15.1006ZM73.9664 11.2324C74.7135 11.2324 75.1825 11.8259 75.1825 12.7681C75.1825 13.7144 74.7176 14.2996 73.9664 14.2996C73.211 14.2996 72.7586 13.7227 72.7586 12.7639C72.7586 11.8135 73.2152 11.2324 73.9664 11.2324Z" fill="white"/>
<path d="M81.8447 15.113C83.1645 15.113 83.9738 14.229 83.9738 12.7639C83.9738 11.3071 83.1604 10.4189 81.8447 10.4189C80.5249 10.4189 79.7114 11.3071 79.7114 12.7639C79.7114 14.229 80.5207 15.113 81.8447 15.113ZM81.8447 14.3203C81.0686 14.3203 80.6328 13.7517 80.6328 12.7639C80.6328 11.7844 81.0686 11.2117 81.8447 11.2117C82.6166 11.2117 83.0566 11.7844 83.0566 12.7639C83.0566 13.7476 82.6166 14.3203 81.8447 14.3203Z" fill="white"/>
<path d="M85.155 15.0259H86.0474V12.3821C86.0474 11.6765 86.4666 11.2366 87.1265 11.2366C87.7864 11.2366 88.1018 11.5977 88.1018 12.324V15.0259H88.9941V12.0999C88.9941 11.0249 88.438 10.4189 87.4294 10.4189C86.7488 10.4189 86.3005 10.7219 86.0806 11.2241H86.0142V10.5061H85.155V15.0259Z" fill="white"/>
<path d="M93.1039 9.38135V10.5269H92.3858V11.2781H93.1039V13.8306C93.1039 14.7021 93.4981 15.0508 94.4901 15.0508C94.6644 15.0508 94.8304 15.03 94.9757 15.0051V14.2622C94.8512 14.2747 94.7723 14.283 94.6353 14.283C94.1913 14.283 93.9962 14.0754 93.9962 13.6023V11.2781H94.9757V10.5269H93.9962V9.38135H93.1039Z" fill="white"/>
<path d="M96.1735 15.0259H97.0658V12.3862C97.0658 11.7014 97.4726 11.2407 98.203 11.2407C98.8339 11.2407 99.1701 11.606 99.1701 12.3281V15.0259H100.062V12.1082C100.062 11.0332 99.4689 10.4231 98.506 10.4231C97.8253 10.4231 97.348 10.7261 97.1281 11.2324H97.0575V8.74219H96.1735V15.0259Z" fill="white"/>
<path d="M103.281 11.1785C103.941 11.1785 104.373 11.6392 104.394 12.3489H102.111C102.161 11.6433 102.622 11.1785 103.281 11.1785ZM104.39 13.8057C104.224 14.1584 103.854 14.3535 103.315 14.3535C102.601 14.3535 102.14 13.8513 102.111 13.0586V13.0088H105.303V12.6975C105.303 11.2781 104.543 10.4189 103.286 10.4189C102.011 10.4189 101.202 11.3362 101.202 12.7805C101.202 14.2249 101.995 15.113 103.29 15.113C104.323 15.113 105.045 14.615 105.249 13.8057H104.39Z" fill="white"/>
<path d="M25.269 20.6272C25.2907 18.9462 26.1934 17.3556 27.6256 16.4752C26.7221 15.1849 25.2088 14.3668 23.6344 14.3175C21.9552 14.1412 20.3272 15.3223 19.4715 15.3223C18.5992 15.3223 17.2817 14.335 15.863 14.3642C14.0137 14.4239 12.2898 15.4753 11.3901 17.0921C9.45607 20.4405 10.8987 25.3615 12.7513 28.0681C13.6782 29.3935 14.7615 30.8739 16.1789 30.8214C17.566 30.7639 18.084 29.937 19.7583 29.937C21.4171 29.937 21.9031 30.8214 23.3493 30.7881C24.8377 30.7639 25.7754 29.4568 26.6698 28.1189C27.3358 27.1746 27.8483 26.1308 28.1882 25.0264C26.4391 24.2866 25.271 22.5264 25.269 20.6272Z" fill="white"/>
<path d="M22.5373 12.5375C23.3489 11.5633 23.7487 10.3111 23.6518 9.04688C22.412 9.1771 21.2668 9.76965 20.4443 10.7065C19.64 11.6218 19.2214 12.852 19.3006 14.0679C20.5408 14.0806 21.7601 13.5041 22.5373 12.5375Z" fill="white"/>
</svg>
