<svg width="150" height="52" viewBox="0 0 150 52" fill="none" xmlns="http://www.w3.org/2000/svg">
<path d="M130.363 21.9364C130.603 21.9368 130.842 21.9361 131.081 21.9356C131.548 21.9347 132.014 21.9349 132.481 21.9355C132.86 21.9359 133.24 21.936 133.619 21.9358C133.673 21.9357 133.727 21.9357 133.783 21.9357C133.893 21.9356 134.003 21.9356 134.113 21.9355C135.143 21.9349 136.172 21.9356 137.201 21.9366C138.084 21.9375 138.966 21.9374 139.849 21.9365C140.876 21.9354 141.903 21.935 142.93 21.9356C143.039 21.9357 143.149 21.9357 143.258 21.9358C143.312 21.9358 143.366 21.9358 143.421 21.9359C143.801 21.936 144.18 21.9358 144.559 21.9353C145.02 21.9347 145.482 21.9349 145.943 21.9359C146.179 21.9365 146.414 21.9367 146.649 21.936C146.904 21.9353 147.159 21.9361 147.414 21.9371C147.526 21.9365 147.526 21.9365 147.64 21.9358C148.06 21.939 148.38 21.9635 148.704 22.2597C148.96 22.588 149.025 22.8025 148.992 23.2179C148.835 23.695 148.606 24.1473 148.384 24.5967C148.351 24.6625 148.319 24.7282 148.285 24.796C148.217 24.9338 148.149 25.0716 148.08 25.2093C147.976 25.4196 147.873 25.6305 147.77 25.8414C147.704 25.9759 147.637 26.1103 147.57 26.2447C147.54 26.3075 147.509 26.3702 147.478 26.4348C147.272 26.8448 147.087 27.098 146.678 27.3225C146.379 27.4119 146.087 27.3994 145.777 27.398C145.705 27.3982 145.633 27.3984 145.559 27.3986C145.318 27.3991 145.077 27.3987 144.836 27.3982C144.664 27.3984 144.491 27.3987 144.319 27.399C143.947 27.3995 143.575 27.3997 143.203 27.3995C142.664 27.3993 142.125 27.4001 141.586 27.4011C140.711 27.4028 139.836 27.4042 138.961 27.4051C138.882 27.4051 138.882 27.4051 138.802 27.4052C138.06 27.406 137.317 27.4063 136.575 27.4065C136.523 27.4065 136.47 27.4065 136.416 27.4065C136.364 27.4066 136.312 27.4066 136.258 27.4066C135.387 27.4068 134.516 27.4081 133.644 27.4102C133.107 27.4114 132.57 27.4118 132.033 27.4111C131.621 27.4106 131.209 27.4115 130.797 27.4129C130.629 27.4133 130.46 27.4132 130.291 27.4126C130.061 27.4119 129.83 27.4128 129.599 27.414C129.533 27.4134 129.467 27.4128 129.399 27.4122C128.448 27.4224 127.577 27.8415 126.895 28.4924C126.056 29.3875 125.81 30.4402 125.823 31.6337C125.822 31.737 125.822 31.8402 125.822 31.9435C125.821 32.2204 125.822 32.4972 125.824 32.7741C125.826 33.0656 125.826 33.357 125.826 33.6485C125.826 34.1372 125.828 34.6259 125.83 35.1146C125.833 35.6781 125.834 36.2417 125.834 36.8052C125.834 37.408 125.836 38.0108 125.837 38.6136C125.838 38.7862 125.838 38.9589 125.838 39.1315C125.838 39.4033 125.84 39.675 125.841 39.9468C125.842 40.0461 125.842 40.1453 125.842 40.2446C125.843 41.508 126.127 42.5441 127.006 43.4899C127.75 44.1939 128.681 44.4381 129.68 44.4413C129.753 44.4417 129.753 44.4417 129.827 44.4421C129.99 44.4428 130.152 44.443 130.314 44.4433C130.431 44.4437 130.548 44.4441 130.664 44.4446C131.047 44.446 131.429 44.4467 131.812 44.4473C131.944 44.4476 132.076 44.4479 132.209 44.4482C132.83 44.4494 133.452 44.4504 134.073 44.4509C134.788 44.4515 135.503 44.4533 136.218 44.456C136.772 44.458 137.326 44.4589 137.88 44.4591C138.211 44.4593 138.541 44.4599 138.871 44.4616C139.182 44.4631 139.493 44.4634 139.804 44.4627C139.918 44.4627 140.031 44.4631 140.145 44.464C141.412 44.4736 142.538 44.2416 143.488 43.3394C144.028 42.7553 144.454 41.9304 144.498 41.1273C144.503 41.0725 144.507 41.0177 144.511 40.9613C144.539 40.3346 144.349 39.8223 143.96 39.3313C143.58 38.956 143.13 38.7401 142.599 38.7395C142.52 38.7392 142.441 38.739 142.359 38.7387C142.229 38.7388 142.229 38.7388 142.096 38.7388C142.003 38.7386 141.911 38.7384 141.819 38.7381C141.62 38.7376 141.421 38.7373 141.221 38.737C140.907 38.7366 140.592 38.7356 140.277 38.7343C140.169 38.7339 140.061 38.7335 139.953 38.7331C139.899 38.7328 139.845 38.7326 139.789 38.7324C139.056 38.7296 138.323 38.7275 137.59 38.7266C137.095 38.7261 136.601 38.7246 136.106 38.7221C135.844 38.7208 135.583 38.7199 135.321 38.7203C135.075 38.7206 134.829 38.7197 134.582 38.7178C134.449 38.7171 134.316 38.7178 134.183 38.7184C133.618 38.7126 133.306 38.6554 132.896 38.2501C132.666 37.9503 132.51 37.6042 132.344 37.2667C132.29 37.1582 132.29 37.1582 132.235 37.0475C132.159 36.8953 132.083 36.7429 132.008 36.5905C131.892 36.3566 131.776 36.123 131.66 35.8896C131.586 35.7415 131.513 35.5933 131.439 35.4452C131.404 35.3752 131.37 35.3051 131.334 35.233C131.286 35.1357 131.286 35.1357 131.237 35.0365C131.209 34.9794 131.18 34.9223 131.151 34.8635C131.02 34.5815 130.991 34.3665 131.017 34.0561C131.178 33.6956 131.359 33.4935 131.678 33.263C131.863 33.2012 131.976 33.1886 132.167 33.1883C132.257 33.1879 132.257 33.1879 132.349 33.1875C132.448 33.1876 132.448 33.1876 132.549 33.1877C132.654 33.1874 132.654 33.1874 132.761 33.1871C132.997 33.1865 133.233 33.1864 133.468 33.1863C133.637 33.186 133.806 33.1857 133.974 33.1853C134.433 33.1844 134.892 33.184 135.35 33.1837C135.637 33.1835 135.923 33.1833 136.21 33.183C137.003 33.1822 137.796 33.1815 138.589 33.1812C138.64 33.1812 138.691 33.1812 138.743 33.1812C138.794 33.1812 138.845 33.1812 138.897 33.1812C139 33.1811 139.104 33.1811 139.207 33.1811C139.258 33.1811 139.309 33.181 139.362 33.181C140.19 33.1808 141.019 33.1796 141.848 33.1781C142.699 33.1765 143.549 33.1757 144.4 33.1756C144.878 33.1755 145.356 33.1752 145.833 33.174C146.283 33.1728 146.732 33.1727 147.181 33.1733C147.346 33.1734 147.511 33.1731 147.676 33.1724C147.902 33.1716 148.127 33.172 148.352 33.1727C148.417 33.1721 148.483 33.1716 148.55 33.171C148.976 33.1741 149.321 33.216 149.651 33.5111C149.681 33.5506 149.712 33.59 149.744 33.6306C149.776 33.6703 149.808 33.7099 149.841 33.7507C149.975 33.938 149.992 34.0548 149.992 34.2823C149.993 34.3438 149.993 34.4052 149.993 34.4686C149.993 34.5363 149.993 34.604 149.993 34.6737C149.994 34.7805 149.994 34.7805 149.994 34.8894C149.994 35.126 149.995 35.3626 149.995 35.5993C149.995 35.764 149.995 35.9287 149.995 36.0934C149.996 36.4397 149.996 36.7861 149.996 37.1324C149.996 37.5739 149.997 38.0153 149.998 38.4567C149.999 38.7976 149.999 39.1384 149.999 39.4793C149.999 39.6419 149.999 39.8044 150 39.967C150.003 41.0704 149.995 42.1432 149.674 43.209C149.657 43.2674 149.639 43.3257 149.622 43.3858C149.27 44.54 148.731 45.6337 147.935 46.5463C147.887 46.6013 147.84 46.6562 147.79 46.7129C147.643 46.8799 147.492 47.0441 147.34 47.2072C147.293 47.2576 147.246 47.3081 147.198 47.36C146.563 48.02 145.827 48.4941 145.027 48.9254C144.98 48.9519 144.932 48.9783 144.884 49.0055C143.456 49.7678 141.892 49.9373 140.308 49.9349C140.182 49.9352 140.057 49.9355 139.932 49.9359C139.596 49.9368 139.259 49.9368 138.923 49.9367C138.64 49.9366 138.358 49.9369 138.075 49.9372C137.408 49.938 136.741 49.938 136.074 49.9376C135.389 49.9372 134.704 49.938 134.019 49.9394C133.428 49.9406 132.837 49.941 132.246 49.9408C131.894 49.9406 131.543 49.9408 131.191 49.9417C130.86 49.9426 130.529 49.9424 130.198 49.9416C130.077 49.9414 129.957 49.9416 129.836 49.9422C127.072 49.9539 124.819 48.9673 122.847 47.0461C121.091 45.2597 120.341 42.8828 120.351 40.4238C120.351 40.3137 120.351 40.2036 120.35 40.0934C120.349 39.7985 120.35 39.5036 120.35 39.2086C120.351 38.8973 120.35 38.5861 120.35 38.2748C120.35 37.7524 120.35 37.2301 120.351 36.7077C120.352 36.1071 120.352 35.5065 120.351 34.9059C120.35 34.3867 120.35 33.8674 120.35 33.3482C120.351 33.0396 120.351 32.7311 120.35 32.4225C120.349 32.1322 120.35 31.8419 120.351 31.5516C120.351 31.4462 120.351 31.3408 120.351 31.2354C120.347 30.2567 120.439 29.2601 120.753 28.3272C120.77 28.2762 120.786 28.2251 120.803 28.1725C120.984 27.6402 121.229 27.1456 121.5 26.6544C121.533 26.5943 121.566 26.5341 121.599 26.4722C122.755 24.4419 124.696 22.9533 126.92 22.2721C128.074 21.9831 129.176 21.933 130.363 21.9364Z" fill="white"/>
<path d="M88.0609 20.9049C88.5902 21.2753 89.0502 21.7507 89.4996 22.2111C89.6734 22.3852 89.857 22.5442 90.0438 22.7039C90.2461 22.8841 90.4334 23.0786 90.6236 23.2714C90.7987 23.444 90.9827 23.6034 91.1693 23.7634C91.3532 23.9268 91.5234 24.1024 91.6959 24.2776C91.8226 24.4023 91.9531 24.5189 92.0881 24.6346C92.3399 24.851 92.5714 25.0838 92.8044 25.32C92.9795 25.4927 93.1636 25.6521 93.3502 25.8121C93.5338 25.9753 93.7039 26.1508 93.8763 26.3258C94.0472 26.494 94.2278 26.6491 94.4096 26.8054C94.5344 26.9161 94.6518 27.0311 94.7687 27.15C94.924 27.3082 95.0835 27.4562 95.2519 27.6003C95.5247 27.835 95.7749 28.0891 96.0277 28.345C96.2101 28.5251 96.4005 28.6922 96.5951 28.8587C96.7591 29.0035 96.9106 29.1591 97.0639 29.3151C97.1828 29.432 97.3061 29.5405 97.4328 29.6489C97.645 29.8316 97.8432 30.0239 98.04 30.2231C98.2755 30.4614 98.517 30.6853 98.7715 30.903C98.9547 31.0654 99.1241 31.2405 99.2958 31.4149C99.4225 31.5396 99.553 31.6563 99.688 31.7719C99.9398 31.9883 100.171 32.2211 100.404 32.4573C100.579 32.63 100.763 32.7894 100.95 32.9494C101.134 33.1127 101.304 33.2884 101.477 33.4636C101.603 33.5883 101.734 33.7049 101.869 33.8206C102.121 34.037 102.352 34.2697 102.585 34.506C102.76 34.6786 102.944 34.838 103.131 34.998C103.315 35.1614 103.485 35.3371 103.658 35.5123C103.784 35.637 103.915 35.7536 104.05 35.8693C104.301 36.0856 104.533 36.3184 104.766 36.5547C104.941 36.7273 105.125 36.8867 105.312 37.0467C105.449 37.1684 105.577 37.2959 105.706 37.4264C105.918 37.6413 106.137 37.8427 106.366 38.039C106.457 38.1174 106.547 38.1972 106.636 38.2781C107.098 38.6971 107.427 38.859 108.064 38.8408C108.476 38.791 108.798 38.6547 109.071 38.3364C109.357 37.9211 109.416 37.6042 109.415 37.1035C109.415 37.0427 109.415 36.9819 109.415 36.9193C109.416 36.7147 109.415 36.5102 109.415 36.3056C109.415 36.1593 109.415 36.013 109.415 35.8667C109.416 35.5511 109.416 35.2356 109.416 34.92C109.416 34.421 109.417 33.922 109.418 33.423C109.418 33.3388 109.418 33.2546 109.418 33.1679C109.419 32.9958 109.419 32.8236 109.419 32.6515C109.42 32.2089 109.421 31.7663 109.422 31.3237C109.422 31.2793 109.422 31.2349 109.422 31.1892C109.423 30.4699 109.423 29.7506 109.423 29.0313C109.423 28.2926 109.424 27.5539 109.427 26.8151C109.428 26.4005 109.429 25.9858 109.428 25.5711C109.427 25.181 109.428 24.7908 109.43 24.4006C109.43 24.2575 109.43 24.1144 109.429 23.9713C109.428 23.7757 109.429 23.5802 109.431 23.3846C109.43 23.3281 109.43 23.2717 109.429 23.2135C109.437 22.7242 109.624 22.4058 109.967 22.0636C110.334 21.904 110.693 21.9246 111.09 21.9272C111.176 21.9269 111.262 21.9267 111.351 21.9264C111.534 21.926 111.716 21.9266 111.898 21.9278C112.131 21.9293 112.364 21.9285 112.597 21.9269C112.82 21.9257 113.043 21.9265 113.266 21.9272C113.391 21.9264 113.391 21.9264 113.518 21.9256C113.967 21.9303 114.267 21.9489 114.628 22.2266C114.9 22.5776 114.966 22.8229 114.967 23.2607C114.967 23.3058 114.967 23.3509 114.967 23.3974C114.968 23.5496 114.968 23.7017 114.968 23.8539C114.968 23.9637 114.968 24.0735 114.968 24.1833C114.969 24.4858 114.969 24.7884 114.97 25.091C114.97 25.4169 114.97 25.7429 114.971 26.0689C114.972 26.8567 114.973 27.6444 114.974 28.4322C114.974 28.8031 114.974 29.174 114.975 29.5449C114.976 30.7777 114.977 32.0105 114.977 33.2433C114.977 33.5633 114.977 33.8834 114.978 34.2034C114.978 34.2829 114.978 34.3625 114.978 34.4444C114.978 35.7328 114.98 37.0212 114.982 38.3096C114.984 39.632 114.985 40.9545 114.986 42.277C114.986 43.0196 114.986 43.7623 114.988 44.5049C114.989 45.1374 114.99 45.7699 114.989 46.4024C114.989 46.7251 114.989 47.0477 114.99 47.3704C114.992 47.666 114.992 47.9617 114.99 48.2573C114.99 48.364 114.991 48.4707 114.991 48.5774C114.997 49.3559 114.938 50.0772 114.369 50.6617C113.882 51.0638 113.371 51.1679 112.748 51.1403C111.991 51.0306 111.459 50.3605 110.933 49.8517C110.714 49.641 110.492 49.4341 110.27 49.2269C109.857 48.8403 109.445 48.4527 109.034 48.065C108.718 47.7677 108.402 47.4707 108.085 47.1741C107.486 46.613 106.889 46.0503 106.291 45.4876C105.612 44.8483 104.933 44.21 104.252 43.5724C103.664 43.022 103.077 42.471 102.491 41.919C102.175 41.6216 101.859 41.3247 101.543 41.0281C101.179 40.6872 100.815 40.3457 100.452 40.0038C99.9132 39.4963 99.3732 38.9899 98.833 38.4838C98.2454 37.9333 97.6583 37.3824 97.0722 36.8304C96.7563 36.533 96.44 36.2361 96.1235 35.9395C95.808 35.6439 95.4927 35.3481 95.178 35.0518C95.0845 34.9638 94.9909 34.8759 94.8973 34.7881C94.6528 34.5586 94.4099 34.3275 94.1693 34.094C94.1196 34.0462 94.0698 33.9983 94.0186 33.949C93.9241 33.858 93.8301 33.7666 93.7366 33.6745C93.322 33.2771 92.948 33.0263 92.3565 33.0317C91.8962 33.047 91.5865 33.1197 91.2501 33.438C90.881 33.8425 90.817 34.1884 90.8199 34.7224C90.8197 34.7829 90.8195 34.8435 90.8193 34.9059C90.8188 35.109 90.8193 35.3121 90.8197 35.5152C90.8195 35.6607 90.8193 35.8063 90.819 35.9519C90.8184 36.2655 90.8183 36.5791 90.8184 36.8926C90.8186 37.3886 90.8177 37.8846 90.8165 38.3806C90.815 39.0762 90.8137 39.7717 90.8129 40.4673C90.8128 40.5335 90.8128 40.5335 90.8127 40.601C90.812 41.2268 90.8116 41.8526 90.8114 42.4784C90.8114 42.5225 90.8114 42.5665 90.8114 42.6119C90.8114 42.6559 90.8114 42.6999 90.8114 42.7452C90.8111 43.4797 90.8098 44.2142 90.8078 44.9486C90.8064 45.4415 90.8063 45.9344 90.807 46.4273C90.8072 46.7342 90.8062 47.0412 90.805 47.3482C90.8046 47.4903 90.8047 47.6324 90.8053 47.7745C90.8061 47.969 90.8052 48.1633 90.8039 48.3577C90.8045 48.4136 90.8051 48.4695 90.8057 48.5271C90.8007 48.9206 90.7142 49.2487 90.5061 49.5863C90.1907 49.8438 89.9441 49.9245 89.5433 49.9284C89.4678 49.9293 89.3924 49.9301 89.3147 49.931C89.1923 49.9317 89.1923 49.9317 89.0675 49.9325C88.9836 49.933 88.8998 49.9335 88.8134 49.9341C88.6358 49.935 88.4582 49.9357 88.2806 49.9362C88.0537 49.937 87.8268 49.9392 87.5999 49.9419C87.3828 49.944 87.1657 49.9443 86.9486 49.9449C86.8268 49.9466 86.8268 49.9466 86.7026 49.9484C86.2759 49.9473 86.0045 49.9434 85.6818 49.6524C85.6328 49.6115 85.5837 49.5706 85.5332 49.5285C85.2877 49.2304 85.2688 48.9017 85.2683 48.5276C85.2681 48.4823 85.2679 48.4369 85.2676 48.3902C85.267 48.2384 85.2673 48.0865 85.2677 47.9347C85.2674 47.8247 85.2671 47.7147 85.2667 47.6047C85.2659 47.3025 85.266 47.0002 85.2661 46.698C85.2661 46.372 85.2654 46.046 85.2648 45.72C85.2637 45.0814 85.2633 44.4427 85.2633 43.8041C85.2632 43.2849 85.2629 42.7658 85.2625 42.2467C85.2613 40.7749 85.2607 39.3032 85.2608 37.8314C85.2608 37.7521 85.2608 37.6727 85.2608 37.5909C85.2608 37.5115 85.2608 37.432 85.2609 37.3502C85.2609 36.0626 85.2596 34.7751 85.2578 33.4875C85.2559 32.1656 85.255 30.8436 85.2551 29.5216C85.2551 28.7794 85.2548 28.0372 85.2533 27.295C85.2521 26.663 85.2518 26.0311 85.2527 25.3991C85.2532 25.0767 85.2532 24.7544 85.252 24.432C85.251 24.1367 85.2512 23.8414 85.2523 23.5461C85.2525 23.4394 85.2523 23.3328 85.2516 23.2261C85.2465 22.4443 85.3226 21.8094 85.8757 21.2193C86.4995 20.6887 87.3187 20.5363 88.0609 20.9049Z" fill="#FF7F38"/>
<path d="M43.3252 21.9516C43.379 21.951 43.4329 21.9504 43.4883 21.9497C43.5464 21.9494 43.6044 21.9492 43.6642 21.9489C43.7243 21.9485 43.7843 21.9481 43.8462 21.9477C43.9735 21.9471 44.1008 21.9467 44.228 21.9464C44.4215 21.9458 44.615 21.9437 44.8084 21.9416C44.9323 21.9412 45.0562 21.9409 45.18 21.9406C45.2374 21.9398 45.2948 21.939 45.3539 21.9381C45.9657 21.9403 46.3728 22.1173 46.8182 22.5365C47.0445 22.7885 47.1858 23.0668 47.3312 23.3707C47.3989 23.5061 47.4666 23.6415 47.5344 23.7768C47.5692 23.8474 47.6039 23.918 47.6398 23.9907C47.8251 24.3636 48.0185 24.7322 48.211 25.1014C48.2896 25.253 48.3681 25.4046 48.4467 25.5562C48.6524 25.953 48.859 26.3492 49.066 26.7453C49.4272 27.4368 49.7857 28.1297 50.1439 28.8227C50.1648 28.8631 50.1857 28.9036 50.2072 28.9452C50.2386 29.0059 50.2386 29.0059 50.2706 29.0678C50.4883 29.4888 50.7064 29.9097 50.9246 30.3304C50.9625 30.4035 51.0004 30.4766 51.0395 30.5519C51.1158 30.6991 51.1922 30.8462 51.2685 30.9934C51.4224 31.29 51.5762 31.5866 51.7299 31.8832C51.807 32.0318 51.884 32.1804 51.9611 32.329C52.1555 32.704 52.3499 33.079 52.5443 33.454C52.7366 33.8253 52.9292 34.1964 53.1218 34.5675C53.2327 34.7815 53.3434 34.9956 53.454 35.2097C53.5237 35.3442 53.5934 35.4787 53.6631 35.6132C53.694 35.6733 53.725 35.7334 53.7568 35.7953C54.185 36.7368 54.185 36.7368 54.9518 37.3604C55.4392 37.4195 55.8147 37.3987 56.2074 37.096C56.4644 36.8139 56.6226 36.494 56.7924 36.1558C56.8227 36.0962 56.853 36.0366 56.8843 35.9751C56.9812 35.7845 57.0776 35.5935 57.1739 35.4026C57.2999 35.1538 57.4261 34.9051 57.5524 34.6565C57.5836 34.5949 57.6149 34.5332 57.6471 34.4697C57.8773 34.0164 58.1124 33.5659 58.3501 33.1165C58.5963 32.6506 58.838 32.1824 59.0786 31.7135C59.3965 31.0941 59.7145 30.4748 60.0404 29.8596C60.3396 29.2947 60.6319 28.7263 60.9243 28.1579C61.2782 27.4697 61.6332 26.7822 61.9922 26.0966C62.1753 25.7465 62.3571 25.3958 62.5377 25.0443C62.5816 24.9591 62.6255 24.8738 62.6693 24.7886C62.7332 24.6645 62.797 24.5404 62.8605 24.4161C63.0843 23.9787 63.313 23.5441 63.5523 23.1149C63.6136 23.0043 63.6136 23.0043 63.6762 22.8915C63.9431 22.4797 64.3233 22.1097 64.7986 21.9623C65.004 21.9418 65.2085 21.9406 65.4148 21.9401C65.4744 21.9396 65.5339 21.9392 65.5953 21.9388C65.7212 21.9381 65.8472 21.9378 65.9731 21.9378C66.164 21.9375 66.3548 21.9351 66.5456 21.9326C67.2809 21.928 67.9071 21.9263 68.487 22.4332C68.9283 22.9288 69.0846 23.4048 69.0616 24.0676C69.0198 24.5547 68.7805 24.9745 68.5614 25.4029C68.5131 25.5008 68.465 25.5989 68.417 25.697C68.2943 25.947 68.1693 26.1957 68.0435 26.4441C67.9298 26.6694 67.8176 26.8956 67.7054 27.1217C67.5851 27.3636 67.4644 27.6054 67.3422 27.8464C67.0674 28.3889 66.8039 28.9362 66.5423 29.4852C66.221 30.1587 65.8926 30.8287 65.5634 31.4985C65.3824 31.8668 65.2016 32.2353 65.0209 32.6037C64.9848 32.6772 64.9488 32.7506 64.9116 32.8263C64.5906 33.4807 64.2709 34.1358 63.9519 34.7913C63.9268 34.8428 63.9017 34.8944 63.8758 34.9475C63.7748 35.1549 63.6739 35.3623 63.573 35.5697C63.2811 36.1695 62.9887 36.7691 62.6962 37.3686C62.6555 37.4522 62.6555 37.4522 62.6139 37.5374C62.143 38.5027 61.6713 39.4676 61.1994 40.4325C60.7538 41.3436 60.3091 42.2551 59.8652 43.167C59.5581 43.7977 59.2506 44.4282 58.9422 45.0584C58.9108 45.1226 58.8794 45.1868 58.847 45.253C58.6899 45.5741 58.5327 45.8951 58.3753 46.2161C58.1106 46.7565 57.8467 47.2972 57.5906 47.8417C57.5706 47.8839 57.5507 47.9261 57.5301 47.9696C57.4415 48.1573 57.3534 48.3452 57.2667 48.5339C56.9731 49.1574 56.668 49.5501 56.0324 49.8434C55.5271 50.0106 55.0145 50.0016 54.5263 49.7845C53.7964 49.4085 53.4897 48.5611 53.1509 47.8639C53.0988 47.7582 53.0465 47.6525 52.9942 47.5468C52.6782 46.9064 52.3704 46.2622 52.0631 45.6177C51.7346 44.93 51.3987 44.2461 51.0623 43.5622C50.8736 43.1785 50.6851 42.7946 50.4966 42.4108C50.4404 42.2964 50.4404 42.2964 50.3831 42.1797C50.0571 41.5155 49.7325 40.8508 49.4088 40.1855C49.3838 40.1342 49.3588 40.0829 49.3331 40.03C49.2328 39.824 49.1326 39.618 49.0323 39.412C48.741 38.8133 48.4492 38.2149 48.1573 37.6164C48.1301 37.5607 48.1029 37.505 48.0749 37.4476C47.604 36.4823 47.1323 35.5174 46.6605 34.5526C46.2148 33.6412 45.7699 32.7294 45.3259 31.8173C44.9314 31.0071 44.536 30.1975 44.1401 29.388C43.897 28.8909 43.6539 28.3936 43.4108 27.8964C43.3505 27.773 43.2902 27.6496 43.2298 27.5261C43.0545 27.1675 42.8794 26.8089 42.7043 26.4502C42.6507 26.3403 42.597 26.2304 42.5433 26.1205C42.4026 25.8328 42.2627 25.5447 42.1239 25.256C42.0697 25.1442 42.0141 25.0331 41.9584 24.9221C41.7768 24.5496 41.6811 24.2488 41.6974 23.8334C41.6984 23.7849 41.6995 23.7365 41.7005 23.6866C41.7161 23.3188 41.776 23.0476 41.9989 22.7553C42.0479 22.6858 42.097 22.6163 42.1476 22.5447C42.4737 22.2111 42.8474 21.9562 43.3252 21.9516Z" fill="white"/>
<path d="M1.1857 21.9495C1.26073 21.9485 1.33575 21.9474 1.41305 21.9463C1.75729 21.9434 2.10153 21.9406 2.44579 21.9392C2.62721 21.9383 2.80857 21.9364 2.98997 21.9337C3.25157 21.9298 3.51315 21.9287 3.77478 21.9277C3.85547 21.9262 3.93617 21.9247 4.01932 21.9232C4.42826 21.9242 4.73283 21.9492 5.07858 22.1765C5.48338 22.6029 5.49097 22.9941 5.48578 23.5583C5.48609 23.6391 5.4864 23.7199 5.48671 23.8031C5.48731 24.0266 5.48673 24.25 5.48565 24.4735C5.48478 24.7149 5.48544 24.9562 5.48592 25.1975C5.48656 25.6156 5.48627 26.0336 5.48537 26.4517C5.48409 27.0569 5.48451 27.6622 5.48541 28.2675C5.48683 29.2507 5.48728 30.2339 5.48692 31.2172C5.48689 31.276 5.48687 31.3348 5.48685 31.3954C5.48667 31.8725 5.48645 32.3496 5.48622 32.8266C5.48602 33.2432 5.48584 33.6597 5.48569 34.0762C5.48567 34.1349 5.48565 34.1935 5.48562 34.254C5.4853 35.2332 5.486 36.2124 5.48745 37.1916C5.48828 37.795 5.48819 38.3984 5.48689 39.0019C5.48605 39.4157 5.48615 39.8296 5.48698 40.2434C5.48742 40.4819 5.48743 40.7203 5.48628 40.9588C5.48503 41.218 5.48584 41.4771 5.48683 41.7362C5.48579 41.848 5.48579 41.848 5.48473 41.962C5.49058 42.656 5.65177 43.2984 6.10534 43.8383C6.50328 44.2071 6.99404 44.4395 7.53716 44.4402C7.6273 44.4405 7.6273 44.4405 7.71927 44.4409C7.81792 44.4408 7.81792 44.4408 7.91857 44.4407C7.98864 44.4409 8.0587 44.4411 8.13089 44.4413C8.36644 44.4418 8.60199 44.4419 8.83754 44.442C9.00611 44.4423 9.17469 44.4426 9.34326 44.443C9.70667 44.4438 10.0701 44.4443 10.4335 44.4447C11.008 44.4454 11.5825 44.4468 12.157 44.4482C12.3536 44.4487 12.5502 44.4492 12.7468 44.4497C12.7959 44.4498 12.845 44.45 12.8957 44.4501C13.4548 44.4515 14.014 44.4527 14.5732 44.4539C14.6243 44.454 14.6755 44.4541 14.7281 44.4542C15.5564 44.456 16.3847 44.4572 17.213 44.4583C18.0635 44.4595 18.9141 44.4614 19.7646 44.4639C20.2891 44.4655 20.8136 44.4664 21.3382 44.4665C21.7402 44.4667 22.1422 44.4678 22.5443 44.4694C22.7091 44.4699 22.874 44.47 23.0389 44.4698C23.2639 44.4695 23.4888 44.4705 23.7138 44.4718C23.8118 44.4712 23.8118 44.4712 23.9118 44.4706C24.3372 44.4747 24.6826 44.517 25.0122 44.8118C25.043 44.8513 25.0738 44.8907 25.1056 44.9313C25.1375 44.971 25.1693 45.0106 25.2022 45.0514C25.4134 45.3455 25.3818 45.6687 25.3452 46.0176C25.2692 46.262 25.1584 46.4812 25.0395 46.7074C25.0074 46.7711 24.9752 46.8348 24.9421 46.9004C24.8723 47.0387 24.8019 47.1767 24.7311 47.3145C24.632 47.5104 24.5363 47.7072 24.4423 47.9055C24.3629 48.0728 24.2826 48.2396 24.2021 48.4063C24.1446 48.5261 24.0881 48.6463 24.0317 48.7665C23.8134 49.2121 23.5957 49.5848 23.1643 49.8506C22.9487 49.9197 22.7494 49.9252 22.5239 49.9256C22.4467 49.9259 22.3695 49.9262 22.29 49.9265C22.2052 49.9265 22.1203 49.9265 22.0329 49.9264C21.9419 49.9267 21.8509 49.9269 21.7599 49.9272C21.5096 49.9278 21.2593 49.9281 21.009 49.9283C20.7392 49.9285 20.4693 49.9292 20.1995 49.9297C19.5478 49.931 18.8961 49.9317 18.2444 49.9323C17.9376 49.9326 17.6308 49.9329 17.324 49.9333C16.3043 49.9344 15.2847 49.9354 14.265 49.9358C14.0005 49.936 13.7359 49.9361 13.4713 49.9362C13.4056 49.9363 13.3398 49.9363 13.2721 49.9363C12.2061 49.9369 11.1402 49.9385 10.0742 49.9407C8.98018 49.9429 7.88614 49.9441 6.79209 49.9443C6.17768 49.9444 5.56327 49.945 4.94886 49.9467C4.42578 49.9481 3.90271 49.9487 3.37963 49.948C3.11269 49.9477 2.84577 49.9478 2.57883 49.9491C2.33448 49.9503 2.09016 49.9502 1.84581 49.9492C1.7155 49.949 1.5852 49.95 1.45489 49.9512C0.749041 49.946 0.749041 49.946 0.430714 49.6524C0.121568 49.3089 0.017737 49.0787 0.017195 48.6154C0.0168475 48.5485 0.0168475 48.5485 0.0164929 48.4803C0.0158758 48.3302 0.0162031 48.1801 0.0165238 48.0299C0.016277 47.9215 0.0159729 47.8131 0.0156164 47.7046C0.0148059 47.4061 0.0148256 47.1076 0.0149812 46.8091C0.0150081 46.4873 0.0142792 46.1656 0.0136519 45.8438C0.0125529 45.2133 0.0121908 44.5827 0.0121171 43.9522C0.0120544 43.4398 0.011783 42.9274 0.0113636 42.415C0.0101993 40.9631 0.00958996 39.5111 0.00968903 38.0592C0.00969431 37.9809 0.00969959 37.9026 0.00970503 37.8219C0.00971044 37.7435 0.00971585 37.6651 0.00972142 37.5843C0.00977516 36.3132 0.00851008 35.0422 0.00664683 33.7711C0.00474986 32.4667 0.00383535 31.1624 0.00394962 29.8581C0.00399355 29.1255 0.00362822 28.3928 0.00220787 27.6602C0.00100645 27.0365 0.000715241 26.4129 0.00161431 25.7892C0.0020469 25.4708 0.00204977 25.1525 0.000906794 24.8342C-0.00012842 24.5429 5.19472e-05 24.2516 0.00120868 23.9603C0.00141253 23.8548 0.00116788 23.7493 0.000434109 23.6438C-0.00049657 23.5006 0.000198412 23.3574 0.0013007 23.2141C0.00127197 23.1345 0.0012432 23.0549 0.0012136 22.9729C0.0682155 22.5309 0.357853 22.2849 0.695058 22.0284C0.86645 21.9427 0.993763 21.952 1.1857 21.9495Z" fill="white"/>
<path d="M75.5544 21.9506C75.6715 21.9493 75.6715 21.9493 75.791 21.948C75.8755 21.9476 75.9599 21.9471 76.047 21.9466C76.1338 21.946 76.2205 21.9455 76.31 21.9449C76.4938 21.944 76.6776 21.9433 76.8614 21.9428C77.0963 21.9421 77.3312 21.9398 77.5661 21.9372C77.7908 21.935 78.0155 21.9347 78.2402 21.9342C78.3243 21.933 78.4083 21.9319 78.4949 21.9307C79.2201 21.9324 79.2201 21.9324 79.5358 22.2267C79.8138 22.5422 79.8745 22.6988 79.8753 23.1169C79.8756 23.1838 79.8756 23.1838 79.8759 23.2521C79.8764 23.4031 79.8764 23.5541 79.8764 23.7051C79.8767 23.8139 79.877 23.9227 79.8773 24.0315C79.8781 24.3315 79.8785 24.6316 79.8788 24.9317C79.8792 25.2549 79.88 25.5781 79.8807 25.9013C79.8823 26.6824 79.8833 27.4635 79.8841 28.2446C79.8843 28.4652 79.8846 28.6857 79.8849 28.9063C79.8865 30.275 79.888 31.6438 79.8888 33.0126C79.889 33.3298 79.8892 33.647 79.8894 33.9642C79.8895 34.043 79.8895 34.1219 79.8896 34.2031C79.8904 35.4805 79.8926 36.7579 79.8954 38.0353C79.8982 39.3461 79.8997 40.6568 79.9001 41.9676C79.9003 42.7038 79.9011 43.4401 79.9032 44.1763C79.9051 44.8033 79.9058 45.4303 79.9051 46.0572C79.9047 46.3772 79.9049 46.6971 79.9066 47.0171C79.908 47.31 79.908 47.603 79.9067 47.8959C79.9066 48.0018 79.9069 48.1078 79.9079 48.2137C79.9169 49.2394 79.9169 49.2394 79.5358 49.6524C79.2274 49.9606 78.9143 49.949 78.5 49.9535C78.3749 49.9527 78.3749 49.9527 78.2472 49.9518C78.1607 49.9521 78.0741 49.9524 77.985 49.9526C77.8024 49.953 77.6197 49.9524 77.4371 49.9512C77.2038 49.9497 76.9705 49.9506 76.7372 49.9521C76.5135 49.9533 76.2899 49.9525 76.0663 49.9518C75.9412 49.9527 75.9412 49.9527 75.8135 49.9535C75.0944 49.9458 75.0944 49.9458 74.7776 49.6524C74.4992 49.3363 74.439 49.1796 74.4383 48.7608C74.4382 48.716 74.438 48.6712 74.4379 48.6251C74.4374 48.4736 74.4375 48.322 74.4375 48.1705C74.4373 48.0614 74.437 47.9522 74.4368 47.8431C74.4361 47.542 74.4358 47.2409 74.4357 46.9398C74.4354 46.6156 74.4348 46.2913 74.4342 45.967C74.4329 45.1834 74.4322 44.3997 74.4316 43.616C74.4314 43.2472 74.431 42.8785 74.4307 42.5097C74.4295 41.2844 74.4286 40.0591 74.4281 38.8338C74.428 38.5156 74.4278 38.1975 74.4277 37.8794C74.4277 37.8003 74.4276 37.7212 74.4276 37.6397C74.4271 36.3582 74.4254 35.0766 74.4232 33.7951C74.4211 32.4803 74.4199 31.1655 74.4197 29.8507C74.4195 29.1121 74.4189 28.3735 74.4172 27.6349C74.4158 27.006 74.4153 26.3771 74.4159 25.7482C74.4162 25.4272 74.4161 25.1062 74.4148 24.7852C74.4137 24.4915 74.4137 24.1977 74.4147 23.904C74.4149 23.7976 74.4146 23.6912 74.4138 23.5848C74.4128 23.4404 74.4135 23.296 74.4145 23.1515C74.4144 23.0713 74.4144 22.991 74.4143 22.9083C74.4702 22.5366 74.6975 22.2709 74.9759 22.0284C75.1846 21.9588 75.3351 21.9527 75.5544 21.9506Z" fill="#FF7F38"/>
<path d="M31.93 21.9506C32.008 21.9498 32.0861 21.9489 32.1666 21.948C32.2514 21.9476 32.3362 21.9471 32.4236 21.9466C32.5539 21.9458 32.5539 21.9458 32.6869 21.9449C32.8711 21.944 33.0553 21.9433 33.2395 21.9428C33.475 21.9421 33.7103 21.9398 33.9457 21.9372C34.1708 21.935 34.3959 21.9347 34.621 21.9342C34.7052 21.933 34.7895 21.9319 34.8763 21.9307C35.6035 21.9324 35.6035 21.9324 35.9189 22.2267C36.1966 22.5418 36.2576 22.6983 36.2582 23.1158C36.2584 23.1604 36.2585 23.2049 36.2587 23.2507C36.2591 23.4014 36.2591 23.552 36.2591 23.7026C36.2593 23.8111 36.2596 23.9196 36.2598 24.0281C36.2605 24.3275 36.2607 24.6268 36.2609 24.9261C36.2612 25.2485 36.2618 25.5709 36.2624 25.8932C36.2637 26.6724 36.2643 27.4516 36.2649 28.2307C36.2652 28.5974 36.2656 28.9641 36.2659 29.3308C36.2671 30.5495 36.268 31.7681 36.2685 32.9867C36.2686 33.3032 36.2687 33.6196 36.2689 33.936C36.2689 34.0146 36.2689 34.0933 36.269 34.1743C36.2695 35.4485 36.2712 36.7227 36.2733 37.9969C36.2755 39.3044 36.2767 40.6118 36.2769 41.9193C36.2771 42.6537 36.2776 43.3881 36.2793 44.1224C36.2808 44.7479 36.2813 45.3733 36.2807 45.9987C36.2804 46.3178 36.2805 46.637 36.2818 46.9561C36.2829 47.2483 36.2829 47.5405 36.2818 47.8327C36.2817 47.9384 36.282 48.0441 36.2828 48.1498C36.2904 49.2525 36.2904 49.2525 35.8879 49.6925C35.5417 50.0202 35.0698 49.963 34.6238 49.9583C34.4942 49.9585 34.4942 49.9585 34.3619 49.9588C34.1797 49.959 33.9975 49.958 33.8152 49.9562C33.5824 49.9539 33.3497 49.9543 33.1168 49.9556C32.8936 49.9564 32.6703 49.9552 32.4471 49.9542C32.3639 49.9545 32.2806 49.9548 32.1949 49.9552C31.641 49.9477 31.3828 49.8773 30.9879 49.4774C30.717 49.0871 30.7851 48.5861 30.7888 48.1308C30.7885 48.0213 30.788 47.9119 30.7874 47.8025C30.7861 47.5021 30.7869 47.2018 30.7881 46.9015C30.789 46.5774 30.7879 46.2534 30.7872 45.9294C30.7859 45.2947 30.7865 44.6601 30.7877 44.0255C30.7886 43.5098 30.7889 42.9941 30.7887 42.4784C30.7886 42.405 30.7886 42.3316 30.7886 42.256C30.7885 42.107 30.7884 41.958 30.7884 41.8089C30.7878 40.4907 30.7889 39.1726 30.7909 37.8544C30.7928 36.575 30.7932 35.2955 30.7922 34.016C30.7911 32.6231 30.7908 31.2302 30.792 29.8373C30.7921 29.6888 30.7922 29.5403 30.7924 29.3918C30.7924 29.3188 30.7925 29.2457 30.7925 29.1704C30.7929 28.6552 30.7927 28.14 30.7923 27.6248C30.7917 26.9971 30.7922 26.3695 30.7939 25.7418C30.7947 25.4215 30.7951 25.1011 30.7943 24.7808C30.7937 24.4877 30.7942 24.1945 30.7958 23.9014C30.7961 23.7953 30.796 23.6891 30.7954 23.583C30.7947 23.4388 30.7956 23.2948 30.7969 23.1506C30.7969 23.0705 30.797 22.9904 30.7971 22.9079C30.8489 22.5671 31.0138 22.3639 31.2681 22.1399C31.5083 21.9692 31.6367 21.9534 31.93 21.9506Z" fill="white"/>
<path d="M12.4968 1.93306C13.9282 3.22166 14.8484 5.0329 14.9697 6.96074C14.9815 7.33921 14.9819 7.71781 14.9819 8.09643C14.9821 8.27333 14.9833 8.4502 14.9845 8.62709C14.9865 9.23036 14.9696 9.80555 14.8375 10.3972C14.8268 10.4493 14.8162 10.5013 14.8052 10.5549C14.4229 12.3486 13.4954 13.6945 12.128 14.8911C13.0439 14.9129 13.9599 14.9347 14.9036 14.9572C14.9036 15.4588 14.9036 15.9603 14.9036 16.4771C13.8396 16.4831 12.7756 16.488 11.7116 16.4908C11.2174 16.4922 10.7232 16.494 10.2291 16.4971C9.79773 16.4997 9.36641 16.5014 8.93507 16.502C8.70723 16.5024 8.47941 16.5031 8.25158 16.5051C5.8777 16.5231 3.9151 15.9753 2.182 14.288C0.552858 12.6511 0.0233696 10.6112 0.0183242 8.35674C0.0176869 8.1855 0.0156326 8.01432 0.0135484 7.84309C0.00606843 6.6728 0.15066 5.58939 0.628975 4.51555C0.656098 4.45434 0.656098 4.45434 0.683768 4.3919C1.34158 2.93625 2.47819 1.72583 3.8672 0.946902C3.94012 0.905926 4.01304 0.86495 4.08817 0.822733C6.83443 -0.635429 10.193 -0.0879359 12.4968 1.93306ZM5.58544 1.87211C5.51609 1.89681 5.44675 1.92152 5.3753 1.94697C4.02475 2.46589 2.97369 3.45892 2.28113 4.71381C2.2373 4.79099 2.2373 4.79099 2.19258 4.86973C1.7704 5.65507 1.6114 6.4953 1.60452 7.37739C1.60399 7.44327 1.60345 7.50914 1.6029 7.57701C1.60199 7.71643 1.60128 7.85585 1.60076 7.99527C1.6 8.13599 1.59866 8.2767 1.5967 8.41741C1.5803 9.59456 1.70307 10.5761 2.21504 11.6529C2.24188 11.7115 2.26871 11.7702 2.29636 11.8307C2.98493 13.218 4.2821 14.1557 5.70238 14.6923C6.85684 15.0525 8.28539 15.0661 9.41843 14.6267C9.48522 14.6036 9.55201 14.5804 9.62082 14.5565C11.0703 14.013 12.1849 12.9023 12.8549 11.5207C12.9848 11.2178 13.099 10.9135 13.1853 10.5955C13.2025 10.5344 13.2198 10.4733 13.2375 10.4104C13.4019 9.75277 13.414 9.11553 13.4094 8.44082C13.4084 8.25407 13.4094 8.06741 13.4107 7.88065C13.4128 6.08937 12.8888 4.56417 11.6282 3.25992C10.9727 2.6047 10.209 2.20579 9.35234 1.87211C9.27456 1.83921 9.27456 1.83921 9.19521 1.80565C8.11807 1.3972 6.64946 1.47212 5.58544 1.87211Z" fill="white"/>
<path d="M19.8369 6.43845C21.2559 6.01606 22.8975 6.33518 24.1103 7.15623C25.3344 8.08318 26.0672 9.27934 26.3369 10.7939C26.3864 11.2478 26.3758 11.7034 26.3691 12.1592C26.3685 12.2847 26.3675 12.4106 26.3671 12.5361C26.3659 12.8622 26.363 13.1886 26.3593 13.5146C26.3559 13.8491 26.3541 14.184 26.3525 14.5185C26.349 15.1714 26.3437 15.8247 26.3369 16.4775H24.7509C24.7291 16.0413 24.707 15.6046 24.6845 15.1553C24.5973 15.2316 24.5098 15.3081 24.4199 15.3867C23.2336 16.3303 21.8754 16.5954 20.3886 16.4775C19.3938 16.3559 18.4802 15.8149 17.7451 15.1553C17.6849 15.1043 17.6846 15.1039 17.623 15.0517C16.7922 14.2965 16.2508 13.0765 16.1386 11.9736C16.1286 11.7616 16.1247 11.5511 16.1259 11.3388C16.1263 11.2638 16.1275 11.1886 16.1279 11.1113C16.1564 9.76433 16.7557 8.635 17.6875 7.67576C18.2488 7.14737 18.9285 6.73567 19.6621 6.49802C19.7198 6.4784 19.7774 6.45868 19.8369 6.43845ZM23.1894 8.43064C22.244 7.80863 20.9603 7.63743 19.8994 8.06736C19.8413 8.09532 19.7849 8.12323 19.7285 8.15037C18.995 8.49862 18.3813 9.07995 18.0244 9.8115C17.6751 10.6348 17.4878 11.5396 17.8056 12.4092C17.83 12.4664 17.8542 12.5226 17.8779 12.5781C18.2413 13.4748 18.7936 14.1918 19.6835 14.6191C19.7726 14.6561 19.7728 14.656 19.8603 14.6924C20.2634 14.8615 20.6506 14.9021 21.0839 14.9101C21.144 14.9105 21.2024 14.9117 21.2607 14.9121C21.7296 14.9152 22.1394 14.8714 22.582 14.7041C23.431 14.2717 24.0886 13.6867 24.4863 12.8047C24.5086 12.7501 24.531 12.6975 24.5527 12.6445C24.808 12.0584 24.8119 11.4224 24.7509 10.7939C24.5609 9.77726 23.9956 9.05065 23.1894 8.43064Z" fill="white"/>
<path d="M35.4909 6.80065C37.1946 5.89096 39.3797 6.18203 40.8874 7.34069C40.9719 7.41156 41.056 7.48336 41.1394 7.55553C41.1937 7.59736 41.2484 7.63939 41.3044 7.68249C41.7957 8.09041 42.1154 8.64247 42.3952 9.20788C42.4328 9.28093 42.4331 9.28095 42.4714 9.35534C42.8879 10.2151 42.8856 11.085 42.8776 12.0174C42.8773 12.1466 42.8769 12.276 42.8767 12.4051C42.8759 12.7423 42.874 13.0798 42.8718 13.4169C42.8697 13.7619 42.8689 14.107 42.8679 14.452C42.8658 15.1271 42.8622 15.8024 42.8581 16.4774H41.3376V15.0897C41.2423 15.1686 41.1467 15.2476 41.0485 15.329C39.8076 16.3106 38.4915 16.5665 36.9421 16.4618C35.6481 16.2863 34.4813 15.5227 33.6882 14.5067C32.8079 13.276 32.5055 11.9385 32.7009 10.4432C32.9259 9.1597 33.7468 7.98769 34.7819 7.2196C34.9594 7.10414 35.1389 6.99728 35.3239 6.8944C35.3789 6.8633 35.4343 6.83269 35.4909 6.80065ZM40.0065 8.62096C38.504 7.50495 36.4041 7.60698 35.1013 9.00964C34.3888 9.88686 34.1943 10.7295 34.2556 11.8358C34.3158 12.6189 34.742 13.4718 35.3317 13.9979C35.3741 14.0319 35.4156 14.0655 35.4567 14.0985C36.0183 14.5628 36.6365 14.873 37.3698 14.9178C38.4862 14.9523 39.4718 14.6933 40.3093 13.9159C40.92 13.2463 41.2772 12.43 41.2995 11.5282C41.3001 11.4653 41.2999 11.4037 41.3005 11.3426C41.3025 11.1697 41.3008 10.9988 41.2917 10.826C41.1886 9.96521 40.6565 9.16695 40.0065 8.62096Z" fill="white"/>
<path d="M27.526 0.814713C28.0276 0.814713 28.5292 0.814713 29.046 0.814713C29.046 2.62481 29.046 4.43491 29.046 6.29986C29.8311 6.29986 30.6162 6.29986 31.4251 6.29986C31.4251 6.82326 31.4251 7.34667 31.4251 7.88593C30.64 7.88593 29.8549 7.88593 29.046 7.88593C29.052 8.82283 29.052 8.82283 29.0598 9.7597C29.0634 10.1421 29.0668 10.5246 29.0689 10.907C29.0706 11.2155 29.0733 11.524 29.0766 11.8325C29.0777 11.9499 29.0785 12.0673 29.0789 12.1847C29.0821 13.0084 29.0982 13.7379 29.7069 14.3624C30.2811 14.8209 30.7599 14.8867 31.4912 14.825C31.6656 14.7702 31.8151 14.7053 31.9755 14.6185C32.086 14.5606 32.086 14.5606 32.2181 14.5606C32.2181 15.1276 32.2181 15.6947 32.2181 16.2789C31.5815 16.5972 30.6217 16.5818 29.9423 16.3697C28.8388 15.9395 28.133 15.2064 27.6546 14.1339C27.5281 13.7938 27.5167 13.4687 27.5181 13.109C27.518 13.0563 27.518 13.0037 27.5179 12.9495C27.5178 12.7733 27.5182 12.5972 27.5185 12.421C27.5185 12.2946 27.5185 12.1683 27.5185 12.0419C27.5185 11.699 27.5189 11.356 27.5193 11.013C27.5197 10.6546 27.5198 10.2962 27.5199 9.93771C27.5201 9.25897 27.5206 8.58024 27.5213 7.9015C27.522 7.12877 27.5224 6.35605 27.5227 5.58332C27.5234 3.99378 27.5246 2.40425 27.526 0.814713Z" fill="white"/>
<path d="M47.5129 6.28333C47.56 6.28282 47.607 6.28231 47.6555 6.28178C48.0315 6.28315 48.3987 6.32766 48.7396 6.49811C48.7396 7.06513 48.7396 7.63215 48.7396 8.21635C48.4125 8.0855 48.4125 8.0855 48.0788 7.95201C47.3959 7.85363 46.8429 7.98508 46.2738 8.36092C45.9076 8.74415 45.6936 9.17425 45.6892 9.70614C45.6883 9.79593 45.6883 9.79593 45.6873 9.88754C45.6869 9.95271 45.6865 10.0179 45.6861 10.085C45.6851 10.1885 45.6851 10.1885 45.6841 10.2941C45.682 10.5223 45.6804 10.7504 45.6788 10.9785C45.6774 11.1367 45.676 11.2949 45.6746 11.453C45.671 11.8693 45.6677 12.2857 45.6645 12.702C45.6612 13.1268 45.6575 13.5516 45.6539 13.9764C45.6467 14.81 45.6401 15.6436 45.6336 16.4771C45.1102 16.4771 44.5868 16.4771 44.0475 16.4771C44.043 15.5407 44.0394 14.6043 44.0373 13.6679C44.0362 13.233 44.0348 12.7982 44.0326 12.3634C44.0304 11.9434 44.0292 11.5235 44.0287 11.1036C44.0283 10.9436 44.0276 10.7837 44.0266 10.6238C44.0251 10.3992 44.0249 10.1746 44.025 9.94998C44.0243 9.88438 44.0236 9.81879 44.0229 9.7512C44.0269 8.8231 44.4074 7.98459 45.0347 7.30354C45.6991 6.67495 46.5961 6.27343 47.5129 6.28333Z" fill="white"/>
</svg>
