<svg width="64" height="64" viewBox="0 0 64 64" fill="none" xmlns="http://www.w3.org/2000/svg">
<rect width="64" height="64" rx="32" fill="#FEF0C7"/>
<path d="M45.3337 32H37.3337L34.667 36H29.3337L26.667 32H18.667" stroke="#FF7F38" stroke-width="2.66667" stroke-linecap="round" stroke-linejoin="round"/>
<path d="M23.267 22.8134L18.667 32V40C18.667 40.7073 18.9479 41.3856 19.448 41.8857C19.9481 42.3858 20.6264 42.6667 21.3337 42.6667H42.667C43.3742 42.6667 44.0525 42.3858 44.5526 41.8857C45.0527 41.3856 45.3337 40.7073 45.3337 40V32L40.7337 22.8134C40.5129 22.3691 40.1726 21.9952 39.7509 21.7337C39.3293 21.4723 38.8431 21.3336 38.347 21.3334H25.6537C25.1575 21.3336 24.6713 21.4723 24.2497 21.7337C23.8281 21.9952 23.4878 22.3691 23.267 22.8134Z" stroke="#FF7F38" stroke-width="2.66667" stroke-linecap="round" stroke-linejoin="round"/>
</svg>
