<svg width="32" height="32" viewBox="0 0 32 32" fill="none" xmlns="http://www.w3.org/2000/svg">
<g clip-path="url(#clip0_8534_2122)">
<rect x="2" y="2" width="28" height="28" rx="6" fill="#097BEA"/>
<path d="M4.48926 22.7568V22.7594L4.57004 22.9784C4.56076 22.9529 4.53074 22.8754 4.48926 22.7568Z" fill="#69C9D0"/>
<circle cx="16" cy="16" r="14" fill="#097BEA"/>
<path d="M21.2137 20.2816L21.8356 16.3301H17.9452V13.767C17.9452 12.6857 18.4877 11.6311 20.2302 11.6311H22V8.26699C22 8.26699 20.3945 8 18.8603 8C15.6548 8 13.5617 9.89294 13.5617 13.3184V16.3301H10V20.2816H13.5617V30C15 30 15 30 15.7534 30C16.5 30 17 30 17.9452 30V20.2816H21.2137Z" fill="white"/>
</g>
<defs>
<clipPath id="clip0_8534_2122">
<rect width="32" height="32" fill="white"/>
</clipPath>
</defs>
</svg>
