<svg width="136" height="41" viewBox="0 0 136 41" fill="none" xmlns="http://www.w3.org/2000/svg">
<rect x="1" y="0.826172" width="134" height="39" rx="4.5" fill="black"/>
<rect x="1" y="0.826172" width="134" height="39" rx="4.5" stroke="#A6A6A6"/>
<path d="M68.636 22.077C66.284 22.077 64.367 23.866 64.367 26.33C64.367 28.779 66.284 30.583 68.636 30.583C70.989 30.583 72.906 28.779 72.906 26.33C72.905 23.866 70.988 22.077 68.636 22.077ZM68.636 28.909C67.347 28.909 66.236 27.846 66.236 26.331C66.236 24.8 67.348 23.753 68.636 23.753C69.925 23.753 71.036 24.8 71.036 26.331C71.036 27.845 69.925 28.909 68.636 28.909ZM59.322 22.077C56.97 22.077 55.053 23.866 55.053 26.33C55.053 28.779 56.97 30.583 59.322 30.583C61.675 30.583 63.592 28.779 63.592 26.33C63.592 23.866 61.675 22.077 59.322 22.077ZM59.322 28.909C58.033 28.909 56.922 27.846 56.922 26.331C56.922 24.8 58.034 23.753 59.322 23.753C60.611 23.753 61.722 24.8 61.722 26.331C61.723 27.845 60.611 28.909 59.322 28.909ZM48.244 23.383V25.187H52.562C52.433 26.202 52.095 26.943 51.579 27.458C50.951 28.086 49.968 28.779 48.244 28.779C45.586 28.779 43.508 26.636 43.508 23.978C43.508 21.32 45.586 19.177 48.244 19.177C49.678 19.177 50.725 19.741 51.498 20.466L52.771 19.193C51.691 18.162 50.258 17.373 48.244 17.373C44.603 17.373 41.542 20.337 41.542 23.978C41.542 27.619 44.603 30.583 48.244 30.583C50.209 30.583 51.692 29.938 52.851 28.73C54.043 27.538 54.414 25.862 54.414 24.509C54.414 24.091 54.382 23.704 54.317 23.382H48.244V23.383ZM93.552 24.784C93.198 23.834 92.118 22.077 89.911 22.077C87.72 22.077 85.899 23.801 85.899 26.33C85.899 28.714 87.704 30.583 90.12 30.583C92.069 30.583 93.197 29.391 93.665 28.698L92.215 27.731C91.732 28.44 91.071 28.907 90.12 28.907C89.17 28.907 88.493 28.472 88.058 27.618L93.745 25.266L93.552 24.784ZM87.752 26.202C87.704 24.558 89.025 23.721 89.976 23.721C90.717 23.721 91.345 24.092 91.555 24.623L87.752 26.202ZM83.129 30.326H84.997V17.825H83.129V30.326ZM80.067 23.028H80.003C79.584 22.528 78.778 22.077 77.764 22.077C75.637 22.077 73.688 23.946 73.688 26.347C73.688 28.731 75.637 30.584 77.764 30.584C78.779 30.584 79.584 30.133 80.003 29.618H80.067V30.23C80.067 31.857 79.197 32.727 77.796 32.727C76.652 32.727 75.943 31.906 75.653 31.213L74.026 31.89C74.493 33.017 75.733 34.403 77.796 34.403C79.987 34.403 81.84 33.114 81.84 29.972V22.336H80.068V23.028H80.067ZM77.925 28.909C76.636 28.909 75.557 27.829 75.557 26.347C75.557 24.848 76.636 23.753 77.925 23.753C79.197 23.753 80.196 24.848 80.196 26.347C80.196 27.829 79.197 28.909 77.925 28.909ZM102.306 17.825H97.835V30.326H99.7V25.59H102.305C104.373 25.59 106.407 24.093 106.407 21.708C106.407 19.323 104.374 17.825 102.306 17.825ZM102.354 23.85H99.7V19.565H102.354C103.749 19.565 104.541 20.72 104.541 21.708C104.541 22.676 103.749 23.85 102.354 23.85ZM113.886 22.055C112.535 22.055 111.136 22.65 110.557 23.969L112.213 24.66C112.567 23.969 113.227 23.743 113.918 23.743C114.883 23.743 115.864 24.322 115.88 25.351V25.48C115.542 25.287 114.818 24.998 113.934 24.998C112.149 24.998 110.331 25.979 110.331 27.812C110.331 29.485 111.795 30.562 113.435 30.562C114.689 30.562 115.381 29.999 115.815 29.339H115.879V30.304H117.681V25.511C117.682 23.293 116.024 22.055 113.886 22.055ZM113.66 28.906C113.05 28.906 112.197 28.6 112.197 27.844C112.197 26.879 113.259 26.509 114.176 26.509C114.995 26.509 115.382 26.686 115.88 26.927C115.735 28.086 114.738 28.906 113.66 28.906ZM124.243 22.328L122.104 27.748H122.04L119.82 22.328H117.81L121.139 29.903L119.241 34.117H121.187L126.318 22.328H124.243ZM107.437 30.326H109.302V17.825H107.437V30.326Z" fill="white"/>
<path d="M47.918 10.5694C47.918 11.4074 47.6701 12.0744 47.173 12.5724C46.609 13.1644 45.8731 13.4604 44.9691 13.4604C44.1031 13.4604 43.3661 13.1604 42.7611 12.5604C42.1551 11.9594 41.8521 11.2154 41.8521 10.3274C41.8521 9.43836 42.1551 8.69436 42.7611 8.09436C43.3661 7.49336 44.1031 7.19336 44.9691 7.19336C45.3991 7.19336 45.8101 7.27736 46.2001 7.44436C46.5911 7.61236 46.904 7.83536 47.1381 8.11436L46.611 8.64236C46.214 8.16736 45.667 7.93036 44.968 7.93036C44.336 7.93036 43.79 8.15236 43.329 8.59636C42.868 9.04036 42.6381 9.61736 42.6381 10.3264C42.6381 11.0354 42.868 11.6124 43.329 12.0564C43.79 12.5004 44.336 12.7224 44.968 12.7224C45.638 12.7224 46.1971 12.4994 46.6441 12.0524C46.9341 11.7614 47.102 11.3564 47.147 10.8374H44.968V10.1164H47.875C47.905 10.2734 47.918 10.4244 47.918 10.5694Z" fill="white"/>
<path d="M52.5281 8.06342H49.7961V9.96542H52.2601V10.6864H49.7961V12.5884H52.5281V13.3264H49.0251V7.32642H52.5281V8.06342Z" fill="white"/>
<path d="M55.779 13.3264H55.008V8.06342H53.332V7.32642H57.455V8.06342H55.779V13.3264Z" fill="white"/>
<path d="M60.438 13.3264V7.32642H61.209V13.3264H60.438Z" fill="white"/>
<path d="M64.6281 13.3264H63.8572V8.06342H62.1812V7.32642H66.3042V8.06342H64.6281V13.3264Z" fill="white"/>
<path d="M74.1089 12.5514C73.5189 13.1574 72.7859 13.4604 71.9089 13.4604C71.0319 13.4604 70.2989 13.1574 69.7099 12.5514C69.1199 11.9454 68.8259 11.2034 68.8259 10.3264C68.8259 9.44941 69.1199 8.70741 69.7099 8.10141C70.2989 7.49541 71.0319 7.19141 71.9089 7.19141C72.7809 7.19141 73.5129 7.49641 74.1049 8.10541C74.6969 8.71441 74.9929 9.45441 74.9929 10.3264C74.9929 11.2034 74.6979 11.9454 74.1089 12.5514ZM70.2789 12.0484C70.7229 12.4984 71.2659 12.7224 71.9089 12.7224C72.5519 12.7224 73.0959 12.4974 73.5389 12.0484C73.9829 11.5984 74.2059 11.0244 74.2059 10.3264C74.2059 9.62841 73.9829 9.05441 73.5389 8.60441C73.0959 8.15441 72.5519 7.93041 71.9089 7.93041C71.2659 7.93041 70.7229 8.15541 70.2789 8.60441C69.8359 9.05441 69.6129 9.62841 69.6129 10.3264C69.6129 11.0244 69.8359 11.5984 70.2789 12.0484Z" fill="white"/>
<path d="M76.0749 13.3264V7.32642H77.013L79.929 11.9934H79.9619L79.929 10.8374V7.32642H80.6999V13.3264H79.8949L76.844 8.43242H76.8109L76.844 9.58842V13.3264H76.0749Z" fill="white"/>
<path d="M47.918 10.5694C47.918 11.4074 47.6701 12.0744 47.173 12.5724C46.609 13.1644 45.8731 13.4604 44.9691 13.4604C44.1031 13.4604 43.3661 13.1604 42.7611 12.5604C42.1551 11.9594 41.8521 11.2154 41.8521 10.3274C41.8521 9.43836 42.1551 8.69436 42.7611 8.09436C43.3661 7.49336 44.1031 7.19336 44.9691 7.19336C45.3991 7.19336 45.8101 7.27736 46.2001 7.44436C46.5911 7.61236 46.904 7.83536 47.1381 8.11436L46.611 8.64236C46.214 8.16736 45.667 7.93036 44.968 7.93036C44.336 7.93036 43.79 8.15236 43.329 8.59636C42.868 9.04036 42.6381 9.61736 42.6381 10.3264C42.6381 11.0354 42.868 11.6124 43.329 12.0564C43.79 12.5004 44.336 12.7224 44.968 12.7224C45.638 12.7224 46.1971 12.4994 46.6441 12.0524C46.9341 11.7614 47.102 11.3564 47.147 10.8374H44.968V10.1164H47.875C47.905 10.2734 47.918 10.4244 47.918 10.5694Z" stroke="white" stroke-width="0.2" stroke-miterlimit="10"/>
<path d="M52.5281 8.06342H49.7961V9.96542H52.2601V10.6864H49.7961V12.5884H52.5281V13.3264H49.0251V7.32642H52.5281V8.06342Z" stroke="white" stroke-width="0.2" stroke-miterlimit="10"/>
<path d="M55.779 13.3264H55.008V8.06342H53.332V7.32642H57.455V8.06342H55.779V13.3264Z" stroke="white" stroke-width="0.2" stroke-miterlimit="10"/>
<path d="M60.438 13.3264V7.32642H61.209V13.3264H60.438Z" stroke="white" stroke-width="0.2" stroke-miterlimit="10"/>
<path d="M64.6281 13.3264H63.8572V8.06342H62.1812V7.32642H66.3042V8.06342H64.6281V13.3264Z" stroke="white" stroke-width="0.2" stroke-miterlimit="10"/>
<path d="M74.1089 12.5514C73.5189 13.1574 72.7859 13.4604 71.9089 13.4604C71.0319 13.4604 70.2989 13.1574 69.7099 12.5514C69.1199 11.9454 68.8259 11.2034 68.8259 10.3264C68.8259 9.44941 69.1199 8.70741 69.7099 8.10141C70.2989 7.49541 71.0319 7.19141 71.9089 7.19141C72.7809 7.19141 73.5129 7.49641 74.1049 8.10541C74.6969 8.71441 74.9929 9.45441 74.9929 10.3264C74.9929 11.2034 74.6979 11.9454 74.1089 12.5514ZM70.2789 12.0484C70.7229 12.4984 71.2659 12.7224 71.9089 12.7224C72.5519 12.7224 73.0959 12.4974 73.5389 12.0484C73.9829 11.5984 74.2059 11.0244 74.2059 10.3264C74.2059 9.62841 73.9829 9.05441 73.5389 8.60441C73.0959 8.15441 72.5519 7.93041 71.9089 7.93041C71.2659 7.93041 70.7229 8.15541 70.2789 8.60441C69.8359 9.05441 69.6129 9.62841 69.6129 10.3264C69.6129 11.0244 69.8359 11.5984 70.2789 12.0484Z" stroke="white" stroke-width="0.2" stroke-miterlimit="10"/>
<path d="M76.0749 13.3264V7.32642H77.013L79.929 11.9934H79.9619L79.929 10.8374V7.32642H80.6999V13.3264H79.8949L76.844 8.43242H76.8109L76.844 9.58842V13.3264H76.0749Z" stroke="white" stroke-width="0.2" stroke-miterlimit="10"/>
<g filter="url(#filter0_ii_52491_460)">
<path d="M10.936 7.8645C10.645 8.1725 10.473 8.6505 10.473 9.2695V31.3855C10.473 32.0055 10.645 32.4825 10.936 32.7905L11.01 32.8625L23.399 20.4735V20.3275V20.1815L11.01 7.7915L10.936 7.8645Z" fill="url(#paint0_linear_52491_460)"/>
<path d="M27.528 24.6043L23.399 20.4733V20.3273V20.1813L27.529 16.0513L27.622 16.1043L32.515 18.8843C33.912 19.6783 33.912 20.9773 32.515 21.7723L27.622 24.5523L27.528 24.6043Z" fill="url(#paint1_linear_52491_460)"/>
<g filter="url(#filter1_i_52491_460)">
<path d="M27.622 24.5511L23.398 20.3271L10.936 32.7901C11.396 33.2781 12.157 33.3381 13.014 32.8521L27.622 24.5511Z" fill="url(#paint2_linear_52491_460)"/>
</g>
<path d="M27.622 16.1034L13.014 7.80336C12.157 7.31636 11.396 7.37736 10.936 7.86536L23.399 20.3284L27.622 16.1034Z" fill="url(#paint3_linear_52491_460)"/>
</g>
<defs>
<filter id="filter0_ii_52491_460" x="10.473" y="7.46729" width="23.0898" height="25.7207" filterUnits="userSpaceOnUse" color-interpolation-filters="sRGB">
<feFlood flood-opacity="0" result="BackgroundImageFix"/>
<feBlend mode="normal" in="SourceGraphic" in2="BackgroundImageFix" result="shape"/>
<feColorMatrix in="SourceAlpha" type="matrix" values="0 0 0 0 0 0 0 0 0 0 0 0 0 0 0 0 0 0 127 0" result="hardAlpha"/>
<feOffset dy="-0.15"/>
<feComposite in2="hardAlpha" operator="arithmetic" k2="-1" k3="1"/>
<feColorMatrix type="matrix" values="0 0 0 0 0 0 0 0 0 0 0 0 0 0 0 0 0 0 0.12 0"/>
<feBlend mode="normal" in2="shape" result="effect1_innerShadow_52491_460"/>
<feColorMatrix in="SourceAlpha" type="matrix" values="0 0 0 0 0 0 0 0 0 0 0 0 0 0 0 0 0 0 127 0" result="hardAlpha"/>
<feOffset dy="0.15"/>
<feComposite in2="hardAlpha" operator="arithmetic" k2="-1" k3="1"/>
<feColorMatrix type="matrix" values="0 0 0 0 1 0 0 0 0 1 0 0 0 0 1 0 0 0 0.25 0"/>
<feBlend mode="normal" in2="effect1_innerShadow_52491_460" result="effect2_innerShadow_52491_460"/>
</filter>
<filter id="filter1_i_52491_460" x="10.936" y="20.3271" width="16.686" height="12.8608" filterUnits="userSpaceOnUse" color-interpolation-filters="sRGB">
<feFlood flood-opacity="0" result="BackgroundImageFix"/>
<feBlend mode="normal" in="SourceGraphic" in2="BackgroundImageFix" result="shape"/>
<feColorMatrix in="SourceAlpha" type="matrix" values="0 0 0 0 0 0 0 0 0 0 0 0 0 0 0 0 0 0 127 0" result="hardAlpha"/>
<feOffset dy="-0.15"/>
<feComposite in2="hardAlpha" operator="arithmetic" k2="-1" k3="1"/>
<feColorMatrix type="matrix" values="0 0 0 0 0 0 0 0 0 0 0 0 0 0 0 0 0 0 0.08 0"/>
<feBlend mode="normal" in2="shape" result="effect1_innerShadow_52491_460"/>
</filter>
<linearGradient id="paint0_linear_52491_460" x1="22.3008" y1="9.0355" x2="5.51882" y2="25.8175" gradientUnits="userSpaceOnUse">
<stop stop-color="#00A0FF"/>
<stop offset="0.0066" stop-color="#00A1FF"/>
<stop offset="0.2601" stop-color="#00BEFF"/>
<stop offset="0.5122" stop-color="#00D2FF"/>
<stop offset="0.7604" stop-color="#00DFFF"/>
<stop offset="1" stop-color="#00E3FF"/>
</linearGradient>
<linearGradient id="paint1_linear_52491_460" x1="34.3335" y1="20.3273" x2="10.1376" y2="20.3273" gradientUnits="userSpaceOnUse">
<stop stop-color="#FFE000"/>
<stop offset="0.4087" stop-color="#FFBD00"/>
<stop offset="0.7754" stop-color="#FFA500"/>
<stop offset="1" stop-color="#FF9C00"/>
</linearGradient>
<linearGradient id="paint2_linear_52491_460" x1="25.3281" y1="22.621" x2="2.56964" y2="45.3796" gradientUnits="userSpaceOnUse">
<stop stop-color="#FF3A44"/>
<stop offset="1" stop-color="#C31162"/>
</linearGradient>
<linearGradient id="paint3_linear_52491_460" x1="7.79743" y1="0.503161" x2="17.9597" y2="10.6655" gradientUnits="userSpaceOnUse">
<stop stop-color="#32A071"/>
<stop offset="0.0685" stop-color="#2DA771"/>
<stop offset="0.4762" stop-color="#15CF74"/>
<stop offset="0.8009" stop-color="#06E775"/>
<stop offset="1" stop-color="#00F076"/>
</linearGradient>
</defs>
</svg>
