<svg width="126" height="48" viewBox="0 0 126 48" fill="none" xmlns="http://www.w3.org/2000/svg">
<rect width="126" height="48" fill="#00426D"/>
<path d="M108.767 20.9342C108.965 20.9345 109.163 20.934 109.36 20.9335C109.746 20.9328 110.132 20.9329 110.518 20.9334C110.831 20.9338 111.145 20.9338 111.458 20.9337C111.503 20.9336 111.548 20.9336 111.594 20.9336C111.685 20.9335 111.776 20.9335 111.867 20.9334C112.718 20.933 113.569 20.9335 114.419 20.9344C115.149 20.9351 115.879 20.935 116.608 20.9342C117.457 20.9333 118.306 20.933 119.155 20.9335C119.246 20.9335 119.336 20.9336 119.427 20.9337C119.471 20.9337 119.516 20.9337 119.562 20.9337C119.875 20.9339 120.189 20.9336 120.502 20.9332C120.883 20.9328 121.265 20.9329 121.646 20.9338C121.841 20.9342 122.036 20.9344 122.23 20.9338C122.441 20.9333 122.652 20.934 122.863 20.9348C122.955 20.9342 122.955 20.9342 123.049 20.9337C123.396 20.9363 123.661 20.9565 123.929 21.2014C124.14 21.4728 124.194 21.6501 124.167 21.9936C124.037 22.3879 123.847 22.7618 123.664 23.1334C123.637 23.1877 123.61 23.2421 123.583 23.2981C123.526 23.412 123.47 23.5259 123.413 23.6398C123.327 23.8136 123.242 23.9879 123.157 24.1623C123.102 24.2735 123.046 24.3846 122.991 24.4957C122.966 24.5476 122.941 24.5994 122.915 24.6528C122.744 24.9918 122.592 25.2011 122.254 25.3866C122.007 25.4606 121.766 25.4503 121.509 25.4491C121.449 25.4492 121.39 25.4494 121.329 25.4496C121.13 25.45 120.931 25.4496 120.731 25.4493C120.589 25.4494 120.446 25.4496 120.303 25.4499C119.996 25.4504 119.688 25.4505 119.381 25.4503C118.935 25.4502 118.49 25.4508 118.045 25.4517C117.321 25.4531 116.598 25.4542 115.874 25.4549C115.809 25.455 115.809 25.455 115.743 25.4551C115.129 25.4557 114.516 25.456 113.902 25.4561C113.859 25.4561 113.815 25.4561 113.771 25.4561C113.728 25.4562 113.685 25.4562 113.64 25.4562C112.92 25.4564 112.2 25.4574 111.479 25.4592C111.035 25.4602 110.592 25.4605 110.148 25.4599C109.807 25.4595 109.466 25.4603 109.126 25.4614C108.986 25.4617 108.847 25.4617 108.708 25.4612C108.517 25.4606 108.326 25.4613 108.135 25.4624C108.081 25.4619 108.026 25.4614 107.97 25.4608C107.184 25.4693 106.464 25.8157 105.9 26.3538C105.206 27.0937 105.003 27.964 105.013 28.9506C105.013 29.036 105.013 29.1213 105.013 29.2067C105.012 29.4356 105.013 29.6644 105.015 29.8933C105.016 30.1343 105.016 30.3752 105.016 30.6161C105.016 31.0201 105.017 31.4241 105.019 31.8281C105.022 32.294 105.023 32.7599 105.023 33.2257C105.023 33.724 105.024 34.2223 105.025 34.7207C105.026 34.8634 105.026 35.0061 105.026 35.1488C105.027 35.3735 105.027 35.5981 105.029 35.8228C105.029 35.9048 105.029 35.9869 105.029 36.0689C105.03 37.1134 105.265 37.9699 105.992 38.7517C106.607 39.3337 107.376 39.5355 108.202 39.5382C108.262 39.5385 108.262 39.5385 108.324 39.5388C108.458 39.5394 108.592 39.5397 108.726 39.5399C108.823 39.5402 108.919 39.5406 109.016 39.541C109.332 39.5421 109.648 39.5427 109.965 39.5432C110.074 39.5434 110.183 39.5437 110.292 39.5439C110.806 39.5449 111.32 39.5457 111.834 39.5462C112.425 39.5467 113.016 39.5481 113.607 39.5503C114.065 39.552 114.523 39.5528 114.981 39.553C115.254 39.5531 115.527 39.5536 115.8 39.555C116.057 39.5562 116.314 39.5565 116.572 39.5559C116.665 39.5559 116.759 39.5562 116.853 39.557C117.9 39.565 118.831 39.3731 119.617 38.6273C120.063 38.1445 120.415 37.4626 120.452 36.7986C120.455 36.7534 120.459 36.7081 120.462 36.6614C120.485 36.1433 120.329 35.7198 120.007 35.314C119.692 35.0037 119.321 34.8253 118.882 34.8247C118.816 34.8245 118.751 34.8243 118.684 34.8241C118.576 34.8241 118.576 34.8241 118.466 34.8242C118.39 34.824 118.313 34.8238 118.237 34.8236C118.072 34.8232 117.908 34.8229 117.743 34.8227C117.483 34.8224 117.222 34.8215 116.962 34.8204C116.873 34.8201 116.784 34.8197 116.695 34.8194C116.65 34.8192 116.605 34.8191 116.559 34.8189C115.953 34.8166 115.347 34.8148 114.741 34.8141C114.332 34.8136 113.923 34.8124 113.514 34.8103C113.298 34.8092 113.082 34.8086 112.866 34.8088C112.662 34.8091 112.458 34.8083 112.255 34.8068C112.145 34.8063 112.035 34.8068 111.925 34.8073C111.458 34.8025 111.2 34.7552 110.861 34.4202C110.671 34.1723 110.541 33.8862 110.404 33.6072C110.36 33.5175 110.36 33.5175 110.314 33.426C110.251 33.3002 110.189 33.1742 110.127 33.0482C110.031 32.8548 109.935 32.6618 109.839 32.4688C109.778 32.3463 109.717 32.2239 109.656 32.1014C109.628 32.0435 109.599 31.9857 109.569 31.926C109.53 31.8456 109.53 31.8456 109.489 31.7636C109.466 31.7164 109.443 31.6692 109.419 31.6206C109.31 31.3874 109.286 31.2097 109.307 30.9531C109.441 30.6551 109.59 30.4881 109.854 30.2975C110.007 30.2464 110.1 30.236 110.258 30.2357C110.333 30.2354 110.333 30.2354 110.409 30.2351C110.49 30.2351 110.49 30.2351 110.574 30.2352C110.661 30.235 110.661 30.235 110.749 30.2347C110.944 30.2342 111.139 30.2342 111.334 30.2341C111.473 30.2338 111.613 30.2336 111.752 30.2333C112.131 30.2325 112.511 30.2322 112.89 30.232C113.127 30.2318 113.363 30.2316 113.6 30.2313C114.256 30.2307 114.911 30.2301 115.567 30.2299C115.609 30.2299 115.651 30.2299 115.694 30.2299C115.736 30.2299 115.778 30.2298 115.822 30.2298C115.907 30.2298 115.992 30.2298 116.078 30.2298C116.12 30.2298 116.162 30.2297 116.206 30.2297C116.891 30.2295 117.576 30.2286 118.261 30.2273C118.964 30.226 119.668 30.2253 120.371 30.2252C120.766 30.2252 121.161 30.2249 121.556 30.2239C121.927 30.223 122.299 30.2229 122.67 30.2234C122.806 30.2234 122.943 30.2232 123.079 30.2226C123.265 30.2219 123.451 30.2222 123.637 30.2228C123.692 30.2224 123.746 30.2219 123.801 30.2215C124.153 30.224 124.438 30.2586 124.711 30.5026C124.737 30.5352 124.762 30.5678 124.788 30.6014C124.815 30.6342 124.841 30.6669 124.868 30.7006C124.979 30.8555 124.993 30.952 124.994 31.1401C124.994 31.1909 124.994 31.2417 124.994 31.2941C124.994 31.3501 124.994 31.406 124.994 31.4637C124.995 31.5519 124.995 31.5519 124.995 31.6419C124.995 31.8376 124.996 32.0332 124.996 32.2288C124.996 32.365 124.996 32.5011 124.996 32.6373C124.997 32.9236 124.997 33.2099 124.997 33.4962C124.997 33.8611 124.997 34.226 124.998 34.591C124.999 34.8727 124.999 35.1545 124.999 35.4363C124.999 35.5707 124.999 35.7051 125 35.8394C125.002 36.7516 124.996 37.6385 124.73 38.5195C124.716 38.5678 124.702 38.616 124.687 38.6657C124.396 39.6198 123.951 40.5239 123.293 41.2784C123.253 41.3238 123.214 41.3692 123.173 41.416C123.051 41.5541 122.927 41.6899 122.801 41.8247C122.762 41.8664 122.724 41.9081 122.684 41.951C122.159 42.4966 121.55 42.8885 120.889 43.2451C120.85 43.2669 120.811 43.2888 120.77 43.3113C119.591 43.9415 118.298 44.0816 116.988 44.0796C116.884 44.0798 116.781 44.0801 116.677 44.0804C116.399 44.0812 116.121 44.0812 115.843 44.0811C115.609 44.081 115.376 44.0813 115.142 44.0815C114.591 44.0821 114.039 44.0822 113.488 44.0818C112.922 44.0815 112.355 44.0822 111.789 44.0833C111.301 44.0843 110.812 44.0846 110.323 44.0844C110.033 44.0843 109.742 44.0845 109.451 44.0853C109.177 44.0859 108.904 44.0858 108.63 44.0851C108.531 44.085 108.431 44.0851 108.331 44.0856C106.046 44.0953 104.184 43.2797 102.554 41.6915C101.102 40.2148 100.482 38.2499 100.49 36.2171C100.49 36.1261 100.49 36.035 100.49 35.944C100.489 35.7002 100.489 35.4564 100.49 35.2125C100.49 34.9552 100.49 34.6979 100.489 34.4406C100.489 34.0087 100.49 33.5769 100.49 33.1451C100.491 32.6486 100.491 32.1521 100.49 31.6556C100.489 31.2264 100.489 30.7972 100.49 30.3679C100.49 30.1128 100.49 29.8578 100.489 29.6027C100.489 29.3627 100.489 29.1227 100.49 28.8827C100.49 28.7956 100.49 28.7084 100.49 28.6213C100.487 27.8123 100.563 26.9884 100.822 26.2173C100.836 26.175 100.85 26.1328 100.864 26.0893C101.014 25.6493 101.216 25.2404 101.44 24.8344C101.467 24.7847 101.494 24.735 101.522 24.6837C102.477 23.0054 104.082 21.7748 105.92 21.2117C106.875 20.9728 107.785 20.9314 108.767 20.9342Z" fill="white"/>
<path d="M73.7971 20.0814C74.2346 20.3876 74.6149 20.7806 74.9864 21.1612C75.1301 21.3051 75.2818 21.4365 75.4362 21.5686C75.6035 21.7175 75.7583 21.8783 75.9155 22.0377C76.0603 22.1804 76.2124 22.3122 76.3667 22.4444C76.5187 22.5795 76.6594 22.7247 76.802 22.8695C76.9068 22.9726 77.0146 23.069 77.1262 23.1646C77.3344 23.3435 77.5257 23.5359 77.7184 23.7312C77.8631 23.874 78.0153 24.0057 78.1695 24.138C78.3213 24.2729 78.462 24.418 78.6044 24.5627C78.7457 24.7017 78.895 24.83 79.0453 24.9592C79.1485 25.0507 79.2455 25.1457 79.3422 25.244C79.4706 25.3748 79.6024 25.4971 79.7417 25.6162C79.9671 25.8103 80.174 26.0204 80.3829 26.2319C80.5337 26.3807 80.6911 26.5189 80.852 26.6566C80.9876 26.7763 81.1128 26.9049 81.2395 27.0339C81.3378 27.1304 81.4398 27.2202 81.5445 27.3098C81.7199 27.4608 81.8837 27.6197 82.0464 27.7844C82.2411 27.9815 82.4408 28.1665 82.6512 28.3465C82.8026 28.4808 82.9427 28.6255 83.0846 28.7697C83.1893 28.8728 83.2972 28.9692 83.4088 29.0648C83.617 29.2437 83.8083 29.4361 84.001 29.6314C84.1457 29.7741 84.2979 29.9059 84.4521 30.0381C84.6041 30.1732 84.7448 30.3184 84.8874 30.4632C84.9922 30.5663 85.1001 30.6627 85.2116 30.7584C85.4198 30.9372 85.6111 31.1297 85.8038 31.325C85.9485 31.4677 86.1007 31.5995 86.2549 31.7317C86.4069 31.8668 86.5477 32.012 86.6903 32.1568C86.795 32.2599 86.9029 32.3563 87.0144 32.4519C87.2226 32.6308 87.414 32.8232 87.6066 33.0185C87.7514 33.1613 87.9035 33.293 88.0578 33.4253C88.171 33.5259 88.2773 33.6312 88.3836 33.7392C88.5588 33.9168 88.7401 34.0833 88.9295 34.2456C89.0047 34.3104 89.0789 34.3764 89.1523 34.4432C89.5343 34.7896 89.8066 34.9234 90.3326 34.9084C90.6733 34.8672 90.9394 34.7545 91.1651 34.4914C91.4015 34.1481 91.4509 33.8862 91.4498 33.4722C91.4499 33.422 91.4499 33.3717 91.45 33.32C91.4502 33.1509 91.45 32.9818 91.4499 32.8127C91.4499 32.6917 91.45 32.5708 91.4502 32.4498C91.4504 32.1889 91.4505 31.9281 91.4505 31.6672C91.4506 31.2547 91.4513 30.8422 91.4521 30.4297C91.4523 30.3601 91.4524 30.2905 91.4526 30.2188C91.4528 30.0765 91.4531 29.9342 91.4534 29.7919C91.4542 29.426 91.4548 29.0602 91.4554 28.6943C91.4555 28.6576 91.4556 28.6209 91.4556 28.583C91.4566 27.9884 91.4567 27.3938 91.4566 26.7992C91.4566 26.1885 91.4576 25.5779 91.4594 24.9672C91.4604 24.6244 91.4609 24.2816 91.4603 23.9388C91.4596 23.6163 91.4603 23.2938 91.4619 22.9712C91.4623 22.8529 91.4622 22.7346 91.4615 22.6163C91.4608 22.4546 91.4617 22.293 91.463 22.1313C91.4624 22.0846 91.4618 22.0379 91.4612 21.9899C91.4676 21.5853 91.6224 21.3221 91.9057 21.0393C92.2095 20.9073 92.5065 20.9244 92.8341 20.9265C92.9055 20.9263 92.9769 20.9261 93.0505 20.9258C93.2012 20.9255 93.352 20.926 93.5027 20.927C93.6951 20.9283 93.8875 20.9275 94.0798 20.9262C94.2644 20.9252 94.449 20.9259 94.6336 20.9265C94.7366 20.9258 94.7366 20.9258 94.8417 20.9251C95.2126 20.9291 95.4611 20.9444 95.7588 21.174C95.9838 21.4642 96.0388 21.667 96.0393 22.0289C96.0395 22.0662 96.0396 22.1034 96.0397 22.1418C96.0401 22.2676 96.0401 22.3935 96.04 22.5193C96.0402 22.61 96.0404 22.7008 96.0406 22.7915C96.0412 23.0416 96.0414 23.2918 96.0415 23.5419C96.0417 23.8113 96.0423 24.0808 96.0427 24.3503C96.0438 25.0015 96.0444 25.6527 96.0449 26.304C96.0451 26.6106 96.0454 26.9172 96.0457 27.2238C96.0466 28.2429 96.0474 29.262 96.0478 30.2811C96.0479 30.5457 96.048 30.8102 96.0481 31.0748C96.0481 31.1406 96.0482 31.2063 96.0482 31.2741C96.0487 32.3391 96.05 33.4042 96.0518 34.4692C96.0536 35.5625 96.0546 36.6557 96.0548 37.749C96.0549 38.3629 96.0554 38.9768 96.0568 39.5907C96.058 40.1136 96.0584 40.6365 96.0579 41.1594C96.0576 41.4261 96.0577 41.6928 96.0588 41.9595C96.0597 42.2039 96.0597 42.4483 96.0588 42.6927C96.0587 42.7809 96.0589 42.8691 96.0596 42.9573C96.064 43.6009 96.0155 44.1972 95.5452 44.6804C95.1429 45.0128 94.7201 45.0988 94.2048 45.076C93.5795 44.9853 93.1392 44.4314 92.7045 44.0107C92.5238 43.8366 92.3401 43.6656 92.1566 43.4943C91.8154 43.1747 91.475 42.8543 91.1346 42.5338C90.8735 42.2879 90.6121 42.0425 90.3503 41.7973C89.8552 41.3334 89.3613 40.8682 88.8674 40.4031C88.3062 39.8746 87.7443 39.3469 87.1817 38.8199C86.696 38.3648 86.2107 37.9094 85.7261 37.4531C85.465 37.2072 85.2036 36.9618 84.9419 36.7166C84.641 36.4347 84.3406 36.1524 84.0404 35.8698C83.5949 35.4503 83.1486 35.0317 82.702 34.6133C82.2163 34.1582 81.7309 33.7028 81.2464 33.2465C80.9853 33.0006 80.7238 32.7552 80.4621 32.51C80.2013 32.2656 79.9407 32.0211 79.6805 31.7762C79.6032 31.7034 79.5259 31.6308 79.4484 31.5582C79.2463 31.3684 79.0456 31.1774 78.8466 30.9844C78.8055 30.9448 78.7644 30.9053 78.7221 30.8645C78.644 30.7893 78.5663 30.7137 78.489 30.6376C78.1463 30.3091 77.8371 30.1018 77.3481 30.1062C76.9675 30.1188 76.7116 30.179 76.4335 30.4421C76.1283 30.7764 76.0755 31.0625 76.0779 31.5038C76.0777 31.5539 76.0775 31.604 76.0774 31.6556C76.077 31.8235 76.0773 31.9913 76.0777 32.1592C76.0775 32.2796 76.0773 32.3999 76.0771 32.5202C76.0766 32.7795 76.0765 33.0387 76.0766 33.2979C76.0768 33.7079 76.076 34.118 76.075 34.528C76.0738 35.103 76.0727 35.678 76.072 36.253C76.072 36.3077 76.072 36.3077 76.0719 36.3635C76.0713 36.8808 76.071 37.3982 76.0708 37.9155C76.0708 37.9519 76.0708 37.9883 76.0708 38.0259C76.0708 38.0622 76.0708 38.0986 76.0708 38.1361C76.0706 38.7432 76.0695 39.3504 76.0678 39.9575C76.0667 40.365 76.0666 40.7724 76.0671 41.1799C76.0673 41.4336 76.0665 41.6874 76.0655 41.9412C76.0652 42.0586 76.0653 42.1761 76.0658 42.2936C76.0664 42.4543 76.0657 42.615 76.0646 42.7757C76.0651 42.8219 76.0656 42.8681 76.0661 42.9157C76.0619 43.2411 75.9905 43.5123 75.8184 43.7913C75.5577 44.0042 75.3538 44.0709 75.0225 44.0742C74.9601 44.0749 74.8978 44.0756 74.8335 44.0763C74.7323 44.0769 74.7323 44.0769 74.6292 44.0775C74.5598 44.078 74.4905 44.0784 74.4191 44.0788C74.2723 44.0796 74.1255 44.0802 73.9786 44.0806C73.7911 44.0812 73.6035 44.0831 73.416 44.0853C73.2365 44.087 73.057 44.0873 72.8775 44.0878C72.7769 44.0892 72.7769 44.0892 72.6742 44.0907C72.3215 44.0898 72.0971 44.0865 71.8304 43.846C71.7898 43.8122 71.7492 43.7784 71.7075 43.7435C71.5046 43.4972 71.4889 43.2254 71.4885 42.9162C71.4883 42.8787 71.4881 42.8412 71.4879 42.8026C71.4874 42.6771 71.4877 42.5515 71.488 42.426C71.4878 42.3351 71.4875 42.2442 71.4872 42.1532C71.4866 41.9034 71.4866 41.6535 71.4867 41.4037C71.4867 41.1342 71.4861 40.8647 71.4856 40.5952C71.4847 40.0673 71.4844 39.5393 71.4843 39.0114C71.4843 38.5822 71.4841 38.1531 71.4837 37.7239C71.4827 36.5073 71.4822 35.2906 71.4823 34.074C71.4823 34.0084 71.4823 33.9428 71.4823 33.8752C71.4823 33.8095 71.4823 33.7438 71.4824 33.6762C71.4824 32.6118 71.4813 31.5474 71.4798 30.483C71.4782 29.3902 71.4775 28.2974 71.4776 27.2046C71.4776 26.591 71.4773 25.9774 71.4761 25.3639C71.4751 24.8414 71.4749 24.319 71.4756 23.7966C71.476 23.5301 71.476 23.2636 71.4751 22.9971C71.4742 22.753 71.4744 22.5089 71.4753 22.2648C71.4755 22.1766 71.4753 22.0884 71.4747 22.0003C71.4705 21.354 71.5334 20.8291 71.9906 20.3413C72.5063 19.9027 73.1835 19.7767 73.7971 20.0814Z" fill="#FF7F38"/>
<path d="M36.8155 20.9467C36.86 20.9462 36.9045 20.9456 36.9504 20.9451C36.9984 20.9449 37.0463 20.9446 37.0958 20.9444C37.1454 20.9441 37.1951 20.9438 37.2463 20.9435C37.3515 20.9429 37.4567 20.9426 37.5619 20.9424C37.7218 20.9418 37.8817 20.9401 38.0417 20.9384C38.1441 20.9381 38.2465 20.9378 38.3489 20.9376C38.3963 20.9369 38.4437 20.9362 38.4926 20.9355C38.9984 20.9374 39.3349 21.0836 39.703 21.4302C39.8902 21.6385 40.007 21.8686 40.1272 22.1198C40.1831 22.2317 40.2391 22.3436 40.2951 22.4555C40.3239 22.5139 40.3526 22.5722 40.3823 22.6323C40.5354 22.9406 40.6954 23.2453 40.8544 23.5505C40.9194 23.6758 40.9844 23.8011 41.0493 23.9265C41.2193 24.2545 41.3901 24.582 41.5612 24.9094C41.8599 25.4811 42.1562 26.0538 42.4523 26.6268C42.4696 26.6602 42.4869 26.6936 42.5047 26.728C42.5306 26.7782 42.5306 26.7782 42.5571 26.8294C42.737 27.1775 42.9173 27.5253 43.0977 27.8732C43.1291 27.9336 43.1604 27.994 43.1927 28.0562C43.2558 28.1779 43.3189 28.2996 43.382 28.4212C43.5092 28.6664 43.6363 28.9116 43.7635 29.1568C43.8271 29.2796 43.8908 29.4025 43.9545 29.5253C44.1153 29.8353 44.276 30.1453 44.4366 30.4553C44.5956 30.7622 44.7548 31.0691 44.9141 31.3758C45.0058 31.5527 45.0972 31.7297 45.1887 31.9067C45.2463 32.0179 45.3039 32.1291 45.3615 32.2403C45.3871 32.2899 45.4127 32.3396 45.439 32.3908C45.7929 33.1691 45.7929 33.1691 46.4268 33.6846C46.8298 33.7334 47.1402 33.7163 47.4648 33.466C47.6773 33.2328 47.8081 32.9684 47.9484 32.6888C47.9735 32.6395 47.9985 32.5902 48.0244 32.5395C48.1045 32.3818 48.1841 32.224 48.2638 32.0661C48.368 31.8605 48.4723 31.6549 48.5766 31.4494C48.6025 31.3984 48.6283 31.3475 48.6549 31.295C48.8453 30.9203 49.0396 30.5478 49.2361 30.1763C49.4397 29.7911 49.6394 29.4041 49.8383 29.0165C50.1011 28.5045 50.364 27.9925 50.6334 27.4839C50.8807 27.0169 51.1224 26.5471 51.3641 26.0772C51.6567 25.5083 51.9501 24.9399 52.2469 24.3732C52.3983 24.0838 52.5486 23.7938 52.6979 23.5033C52.7342 23.4328 52.7704 23.3624 52.8067 23.2919C52.8595 23.1893 52.9122 23.0867 52.9647 22.984C53.1497 22.6224 53.3387 22.2631 53.5366 21.9083C53.5873 21.8169 53.5873 21.8169 53.639 21.7237C53.8596 21.3832 54.174 21.0774 54.5669 20.9555C54.7367 20.9386 54.9057 20.9376 55.0763 20.9371C55.1255 20.9368 55.1748 20.9364 55.2255 20.936C55.3296 20.9355 55.4337 20.9352 55.5378 20.9352C55.6956 20.935 55.8533 20.933 56.0111 20.931C56.6189 20.9272 57.1365 20.9258 57.616 21.3447C57.9808 21.7545 58.11 22.148 58.0909 22.6959C58.0564 23.0986 57.8586 23.4456 57.6774 23.7997C57.6375 23.8807 57.5977 23.9618 57.5581 24.0429C57.4566 24.2495 57.3533 24.4551 57.2494 24.6605C57.1553 24.8467 57.0626 25.0337 56.9698 25.2206C56.8703 25.4206 56.7706 25.6204 56.6696 25.8197C56.4424 26.2682 56.2245 26.7206 56.0083 27.1744C55.7427 27.7312 55.4713 28.2851 55.1991 28.8387C55.0495 29.1432 54.9 29.4478 54.7506 29.7524C54.7208 29.8131 54.691 29.8738 54.6603 29.9364C54.3949 30.4774 54.1306 31.0189 53.8669 31.5608C53.8462 31.6034 53.8254 31.646 53.804 31.69C53.7206 31.8614 53.6371 32.0328 53.5537 32.2043C53.3124 32.7001 53.0707 33.1958 52.8289 33.6914C52.7952 33.7605 52.7952 33.7605 52.7608 33.8309C52.3716 34.6289 51.9816 35.4266 51.5915 36.2242C51.2232 36.9774 50.8556 37.7309 50.4886 38.4847C50.2348 39.0061 49.9805 39.5273 49.7256 40.0482C49.6996 40.1013 49.6737 40.1544 49.6469 40.2091C49.517 40.4746 49.3871 40.74 49.257 41.0053C49.0381 41.452 48.82 41.899 48.6082 42.3492C48.5917 42.384 48.5753 42.4189 48.5583 42.4549C48.485 42.61 48.4122 42.7654 48.3405 42.9213C48.0978 43.4368 47.8455 43.7614 47.3201 44.0039C46.9025 44.1421 46.4787 44.1347 46.0751 43.9552C45.4717 43.6443 45.2182 42.9438 44.9381 42.3675C44.895 42.2801 44.8518 42.1927 44.8086 42.1053C44.5474 41.576 44.2929 41.0434 44.0388 40.5106C43.7673 39.9421 43.4896 39.3767 43.2115 38.8115C43.0555 38.4942 42.8997 38.1769 42.7439 37.8596C42.6975 37.765 42.6975 37.765 42.6501 37.6685C42.3806 37.1195 42.1123 36.57 41.8446 36.02C41.824 35.9776 41.8033 35.9352 41.782 35.8914C41.6992 35.7212 41.6163 35.5509 41.5334 35.3806C41.2926 34.8857 41.0514 34.3909 40.8101 33.8963C40.7876 33.8502 40.7651 33.8041 40.742 33.7567C40.3527 32.9587 39.9628 32.161 39.5727 31.3635C39.2042 30.6101 38.8365 29.8563 38.4694 29.1023C38.1433 28.4326 37.8165 27.7632 37.4892 27.0941C37.2882 26.6831 37.0873 26.2721 36.8863 25.861C36.8365 25.759 36.7866 25.657 36.7367 25.5549C36.5918 25.2585 36.447 24.962 36.3023 24.6655C36.2579 24.5746 36.2136 24.4838 36.1692 24.393C36.0529 24.1551 35.9372 23.9169 35.8225 23.6783C35.7777 23.5859 35.7317 23.494 35.6856 23.4023C35.5355 23.0944 35.4564 22.8456 35.4699 22.5022C35.4707 22.4622 35.4716 22.4222 35.4725 22.381C35.4853 22.0768 35.5349 21.8527 35.7191 21.6111C35.7597 21.5536 35.8002 21.4961 35.842 21.4369C36.1117 21.1612 36.4205 20.9505 36.8155 20.9467Z" fill="white"/>
<path d="M1.98018 20.945C2.0422 20.9442 2.10422 20.9433 2.16812 20.9424C2.4527 20.9399 2.73727 20.9377 3.02185 20.9364C3.17182 20.9357 3.32175 20.9342 3.47171 20.932C3.68796 20.9287 3.9042 20.9278 4.12048 20.927C4.18719 20.9257 4.2539 20.9245 4.32263 20.9232C4.6607 20.9241 4.91247 20.9447 5.19829 21.1326C5.53293 21.4852 5.53921 21.8085 5.53491 22.2749C5.53516 22.3417 5.53542 22.4085 5.53568 22.4773C5.53618 22.6621 5.5357 22.8468 5.53481 23.0315C5.53408 23.231 5.53463 23.4305 5.53503 23.63C5.53556 23.9756 5.53532 24.3212 5.53457 24.6668C5.53351 25.1671 5.53386 25.6675 5.5346 26.1679C5.53578 26.9807 5.53615 27.7935 5.53585 28.6063C5.53583 28.6549 5.53581 28.7035 5.5358 28.7536C5.53565 29.148 5.53546 29.5424 5.53527 29.9367C5.53511 30.2811 5.53496 30.6254 5.53484 30.9698C5.53482 31.0182 5.5348 31.0667 5.53478 31.1167C5.53451 31.9262 5.5351 32.7356 5.53629 33.5451C5.53698 34.0439 5.5369 34.5428 5.53583 35.0416C5.53514 35.3837 5.53522 35.7258 5.5359 36.0679C5.53627 36.2651 5.53628 36.4622 5.53532 36.6594C5.53429 36.8736 5.53496 37.0878 5.53578 37.302C5.53492 37.3944 5.53492 37.3944 5.53404 37.4887C5.53888 38.0624 5.67213 38.5934 6.04708 39.0398C6.37604 39.3446 6.78174 39.5367 7.23072 39.5373C7.30524 39.5376 7.30524 39.5376 7.38126 39.5379C7.46281 39.5378 7.46281 39.5378 7.54602 39.5377C7.60394 39.5379 7.66186 39.538 7.72153 39.5382C7.91626 39.5386 8.11098 39.5387 8.3057 39.5388C8.44505 39.539 8.58441 39.5393 8.72376 39.5396C9.02418 39.5402 9.3246 39.5407 9.62503 39.5411C10.1 39.5416 10.5749 39.5427 11.0498 39.544C11.2123 39.5444 11.3748 39.5448 11.5373 39.5452C11.578 39.5453 11.6186 39.5454 11.6604 39.5455C12.1227 39.5466 12.5849 39.5477 13.0472 39.5486C13.0895 39.5487 13.1317 39.5488 13.1752 39.5489C13.86 39.5503 14.5447 39.5514 15.2294 39.5523C15.9325 39.5532 16.6356 39.5548 17.3387 39.5569C17.7723 39.5582 18.2059 39.559 18.6396 39.5591C18.9719 39.5592 19.3042 39.5602 19.6366 39.5615C19.7729 39.5618 19.9092 39.562 20.0455 39.5618C20.2315 39.5616 20.4174 39.5624 20.6034 39.5634C20.6844 39.5629 20.6844 39.5629 20.7671 39.5625C21.1188 39.5659 21.4043 39.6008 21.6767 39.8445C21.7022 39.8771 21.7277 39.9097 21.754 39.9433C21.7803 39.9761 21.8067 40.0088 21.8338 40.0426C22.0084 40.2857 21.9823 40.5529 21.952 40.8413C21.8892 41.0434 21.7976 41.2246 21.6993 41.4115C21.6728 41.4642 21.6462 41.5168 21.6188 41.5711C21.5611 41.6854 21.5029 41.7995 21.4444 41.9134C21.3625 42.0753 21.2833 42.2381 21.2056 42.402C21.14 42.5403 21.0736 42.6781 21.007 42.816C20.9595 42.915 20.9129 43.0143 20.8662 43.1137C20.6858 43.4821 20.5058 43.7901 20.1492 44.0099C19.971 44.067 19.8062 44.0716 19.6197 44.0719C19.5559 44.0721 19.4921 44.0724 19.4264 44.0726C19.3563 44.0726 19.2861 44.0726 19.2139 44.0726C19.1386 44.0728 19.0634 44.073 18.9882 44.0732C18.7813 44.0738 18.5744 44.074 18.3675 44.0741C18.1444 44.0743 17.9213 44.0748 17.6982 44.0753C17.1595 44.0764 16.6208 44.077 16.082 44.0774C15.8284 44.0777 15.5748 44.078 15.3212 44.0783C14.4783 44.0792 13.6353 44.08 12.7924 44.0804C12.5737 44.0805 12.355 44.0806 12.1363 44.0807C12.0819 44.0807 12.0276 44.0807 11.9716 44.0808C11.0904 44.0812 10.2092 44.0826 9.32802 44.0844C8.42361 44.0862 7.51921 44.0872 6.61479 44.0873C6.10688 44.0875 5.59897 44.0879 5.09106 44.0893C4.65864 44.0905 4.22624 44.091 3.79382 44.0904C3.57315 44.0902 3.3525 44.0903 3.13183 44.0913C2.92984 44.0923 2.72787 44.0923 2.52587 44.0914C2.41815 44.0912 2.31043 44.0921 2.20271 44.093C1.61921 44.0888 1.61921 44.0888 1.35606 43.846C1.1005 43.5621 1.01466 43.3718 1.01421 42.9888C1.01393 42.9335 1.01393 42.9335 1.01363 42.8771C1.01312 42.753 1.01339 42.6289 1.01366 42.5048C1.01346 42.4152 1.0132 42.3255 1.01291 42.2359C1.01224 41.9891 1.01226 41.7423 1.01238 41.4956C1.01241 41.2296 1.0118 40.9636 1.01129 40.6976C1.01038 40.1764 1.01008 39.6551 1.01002 39.1339C1.00996 38.7103 1.00974 38.2867 1.00939 37.8631C1.00843 36.6629 1.00793 35.4626 1.00801 34.2623C1.00801 34.1976 1.00802 34.1329 1.00802 34.0662C1.00803 34.0014 1.00803 33.9365 1.00804 33.8698C1.00808 32.819 1.00703 31.7683 1.00549 30.7175C1.00393 29.6392 1.00317 28.561 1.00327 27.4827C1.0033 26.8771 1.003 26.2715 1.00183 25.6659C1.00083 25.1503 1.00059 24.6347 1.00133 24.1191C1.00169 23.856 1.00169 23.5928 1.00075 23.3297C0.999894 23.0889 1.00004 22.8481 1.001 22.6072C1.00117 22.52 1.00097 22.4328 1.00036 22.3456C0.99959 22.2272 1.00016 22.1089 1.00108 21.9904C1.00105 21.9246 1.00103 21.8588 1.001 21.791C1.05639 21.4256 1.29583 21.2223 1.57458 21.0102C1.71627 20.9394 1.82151 20.9471 1.98018 20.945Z" fill="white"/>
<path d="M63.4583 20.9458C63.5551 20.9448 63.5551 20.9448 63.6539 20.9437C63.7237 20.9433 63.7935 20.9429 63.8655 20.9425C63.9372 20.942 64.009 20.9416 64.0829 20.9411C64.2349 20.9403 64.3868 20.9398 64.5388 20.9394C64.733 20.9388 64.9271 20.9369 65.1213 20.9347C65.307 20.9329 65.4928 20.9327 65.6786 20.9322C65.7481 20.9313 65.8175 20.9303 65.8891 20.9293C66.4886 20.9308 66.4886 20.9308 66.7496 21.174C66.9794 21.4348 67.0296 21.5644 67.0303 21.9099C67.0305 21.9653 67.0305 21.9653 67.0307 22.0217C67.0311 22.1466 67.0312 22.2714 67.0312 22.3962C67.0314 22.4861 67.0317 22.5761 67.0319 22.666C67.0326 22.914 67.0329 23.1621 67.0331 23.4102C67.0335 23.6773 67.0341 23.9445 67.0347 24.2117C67.036 24.8574 67.0368 25.5031 67.0375 26.1489C67.0377 26.3312 67.0379 26.5135 67.0382 26.6958C67.0395 27.8273 67.0407 28.9589 67.0414 30.0904C67.0416 30.3526 67.0417 30.6148 67.0419 30.877C67.042 30.9422 67.042 31.0074 67.042 31.0745C67.0427 32.1305 67.0445 33.1865 67.0468 34.2425C67.0491 35.3261 67.0504 36.4096 67.0507 37.4932C67.0509 38.1018 67.0515 38.7104 67.0533 39.319C67.0549 39.8373 67.0555 40.3556 67.0549 40.874C67.0546 41.1385 67.0547 41.4029 67.0561 41.6674C67.0573 41.9096 67.0573 42.1517 67.0562 42.3939C67.0561 42.4815 67.0564 42.5691 67.0572 42.6567C67.0646 43.5045 67.0646 43.5045 66.7496 43.8459C66.4947 44.1007 66.2358 44.0912 65.8933 44.0948C65.7899 44.0942 65.7899 44.0942 65.6843 44.0935C65.6128 44.0937 65.5413 44.0939 65.4676 44.0941C65.3166 44.0945 65.1657 44.094 65.0147 44.093C64.8218 44.0917 64.6289 44.0924 64.4361 44.0937C64.2512 44.0947 64.0664 44.094 63.8815 44.0935C63.778 44.0942 63.778 44.0942 63.6725 44.0948C63.0781 44.0885 63.0781 44.0885 62.8162 43.8459C62.586 43.5847 62.5362 43.4551 62.5357 43.1089C62.5356 43.0719 62.5354 43.0348 62.5353 42.9967C62.5349 42.8714 62.535 42.7462 62.535 42.6209C62.5348 42.5307 62.5346 42.4405 62.5344 42.3503C62.5338 42.1014 62.5336 41.8525 62.5335 41.6036C62.5333 41.3355 62.5327 41.0674 62.5323 40.7994C62.5312 40.1515 62.5306 39.5037 62.5302 38.8559C62.5299 38.551 62.5296 38.2462 62.5293 37.9413C62.5284 36.9284 62.5276 35.9155 62.5272 34.9025C62.5271 34.6396 62.527 34.3766 62.5269 34.1136C62.5269 34.0482 62.5268 33.9828 62.5268 33.9155C62.5264 32.8561 62.525 31.7966 62.5232 30.7372C62.5214 29.6503 62.5204 28.5634 62.5202 27.4766C62.5201 26.866 62.5196 26.2554 62.5183 25.6448C62.5171 25.125 62.5166 24.6051 62.5172 24.0852C62.5174 23.8198 62.5173 23.5545 62.5162 23.2891C62.5153 23.0463 62.5153 22.8034 62.5162 22.5606C62.5163 22.4727 62.5161 22.3847 62.5154 22.2968C62.5146 22.1774 62.5151 22.058 62.516 21.9386C62.5159 21.8722 62.5159 21.8059 62.5158 21.7375C62.562 21.4302 62.7499 21.2106 62.9801 21.0101C63.1526 20.9526 63.277 20.9475 63.4583 20.9458Z" fill="#FF7F38"/>
<path d="M27.3954 20.9458C27.46 20.9451 27.5245 20.9444 27.5911 20.9437C27.6612 20.9433 27.7313 20.9429 27.8035 20.9425C27.9112 20.9418 27.9112 20.9418 28.0211 20.9411C28.1734 20.9403 28.3257 20.9398 28.478 20.9394C28.6726 20.9388 28.8672 20.9369 29.0618 20.9347C29.2478 20.9329 29.4339 20.9327 29.62 20.9322C29.6896 20.9313 29.7593 20.9303 29.8311 20.9293C30.4322 20.9308 30.4322 20.9308 30.693 21.174C30.9225 21.4345 30.973 21.5639 30.9735 21.9091C30.9736 21.9459 30.9737 21.9827 30.9739 22.0206C30.9742 22.1451 30.9742 22.2696 30.9742 22.3942C30.9744 22.4838 30.9746 22.5735 30.9748 22.6632C30.9753 22.9107 30.9755 23.1581 30.9757 23.4056C30.9759 23.6721 30.9764 23.9386 30.9769 24.2051C30.978 24.8492 30.9785 25.4933 30.979 26.1374C30.9792 26.4405 30.9795 26.7437 30.9798 27.0468C30.9808 28.0542 30.9815 29.0616 30.9819 30.069C30.982 30.3306 30.9821 30.5921 30.9823 30.8537C30.9823 30.9187 30.9823 30.9837 30.9823 31.0507C30.9828 32.1041 30.9842 33.1574 30.9859 34.2107C30.9878 35.2916 30.9887 36.3724 30.9889 37.4533C30.989 38.0603 30.9895 38.6674 30.9909 39.2745C30.9921 39.7915 30.9925 40.3085 30.992 40.8255C30.9918 41.0894 30.9919 41.3532 30.9929 41.617C30.9939 41.8586 30.9938 42.1001 30.993 42.3417C30.9928 42.4291 30.9931 42.5164 30.9937 42.6038C31.0001 43.5153 31.0001 43.5153 30.6673 43.8791C30.3811 44.15 29.991 44.1027 29.6223 44.0988C29.5152 44.099 29.5152 44.099 29.4059 44.0992C29.2552 44.0994 29.1046 44.0986 28.9539 44.0971C28.7614 44.0952 28.569 44.0956 28.3766 44.0966C28.192 44.0973 28.0075 44.0963 27.8229 44.0954C27.7541 44.0957 27.6853 44.096 27.6144 44.0962C27.1566 44.0901 26.9431 44.0319 26.6167 43.7013C26.3927 43.3786 26.449 42.9645 26.4521 42.5881C26.4518 42.4976 26.4514 42.4072 26.4509 42.3167C26.4498 42.0684 26.4505 41.8202 26.4515 41.5719C26.4522 41.304 26.4514 41.0361 26.4507 40.7683C26.4497 40.2436 26.4502 39.719 26.4512 39.1944C26.4519 38.7681 26.4521 38.3418 26.4519 37.9154C26.4519 37.8548 26.4519 37.7941 26.4519 37.7316C26.4518 37.6084 26.4518 37.4852 26.4517 37.362C26.4512 36.2723 26.4521 35.1826 26.4538 34.093C26.4553 33.0353 26.4557 31.9776 26.4549 30.9199C26.454 29.7684 26.4537 28.6169 26.4547 27.4654C26.4548 27.3427 26.4549 27.22 26.455 27.0972C26.4551 27.0368 26.4551 26.9764 26.4552 26.9142C26.4555 26.4883 26.4553 26.0624 26.4549 25.6365C26.4545 25.1176 26.4549 24.5987 26.4562 24.0799C26.4569 23.815 26.4573 23.5502 26.4566 23.2854C26.4561 23.0431 26.4566 22.8008 26.4578 22.5585C26.4581 22.4707 26.458 22.383 26.4575 22.2952C26.4569 22.1761 26.4577 22.057 26.4587 21.9378C26.4588 21.8716 26.4589 21.8054 26.4589 21.7372C26.5017 21.4554 26.6381 21.2875 26.8483 21.1023C27.0469 20.9612 27.153 20.9481 27.3954 20.9458Z" fill="white"/>
<path d="M11.3309 4.39802C12.5142 5.46326 13.275 6.96056 13.3752 8.55423C13.385 8.8671 13.3853 9.18008 13.3853 9.49307C13.3854 9.63931 13.3864 9.78552 13.3874 9.93175C13.3891 10.4305 13.3751 10.9059 13.2659 11.3951C13.2571 11.4381 13.2483 11.4811 13.2393 11.5254C12.9232 13.0082 12.1565 14.1208 11.026 15.11C11.7832 15.128 12.5404 15.146 13.3205 15.1646C13.3205 15.5793 13.3205 15.9939 13.3205 16.4211C12.441 16.4261 11.5614 16.4301 10.6818 16.4324C10.2733 16.4336 9.8648 16.4351 9.45628 16.4376C9.09972 16.4398 8.74315 16.4412 8.38658 16.4417C8.19823 16.442 8.00991 16.4426 7.82157 16.4442C5.85915 16.4592 4.23674 16.0063 2.80404 14.6115C1.45729 13.2582 1.01958 11.572 1.0154 9.70827C1.01488 9.56671 1.01318 9.42519 1.01146 9.28365C1.00527 8.3162 1.1248 7.42059 1.52021 6.53288C1.54263 6.48228 1.54263 6.48228 1.5655 6.43066C2.10929 5.22733 3.04889 4.22671 4.19714 3.5828C4.25742 3.54892 4.3177 3.51505 4.37981 3.48015C6.65005 2.27474 9.4265 2.72733 11.3309 4.39802ZM5.61755 4.34763C5.56022 4.36806 5.5029 4.38848 5.44384 4.40952C4.32738 4.83849 3.45851 5.65939 2.88599 6.69677C2.84976 6.76058 2.84976 6.76058 2.81279 6.82567C2.46379 7.47488 2.33235 8.16948 2.32666 8.89867C2.32622 8.95312 2.32578 9.00758 2.32532 9.06368C2.32457 9.17894 2.32398 9.29419 2.32355 9.40945C2.32293 9.52577 2.32181 9.6421 2.32019 9.75842C2.30664 10.7315 2.40813 11.5429 2.83136 12.433C2.85354 12.4816 2.87572 12.5301 2.89858 12.5801C3.4678 13.7269 4.54013 14.5021 5.71422 14.9457C6.66858 15.2434 7.84951 15.2546 8.78616 14.8915C8.84137 14.8723 8.89658 14.8531 8.95347 14.8334C10.1517 14.3841 11.0731 13.4659 11.627 12.3238C11.7344 12.0734 11.8288 11.8219 11.9001 11.559C11.9144 11.5085 11.9286 11.458 11.9432 11.4059C12.0792 10.8623 12.0892 10.3355 12.0854 9.77777C12.0845 9.62338 12.0854 9.46908 12.0864 9.3147C12.0882 7.8339 11.655 6.57307 10.6129 5.49489C10.071 4.95324 9.43967 4.62348 8.73153 4.34763C8.66723 4.32044 8.66723 4.32044 8.60163 4.2927C7.71119 3.95504 6.49715 4.01697 5.61755 4.34763Z" fill="white"/>
<path d="M17.3988 8.12306C18.5717 7.77391 19.9285 8.03724 20.931 8.71584C21.9428 9.48207 22.5488 10.4707 22.7718 11.7227C22.8128 12.0979 22.8038 12.4748 22.7982 12.8516C22.7977 12.9554 22.7975 13.0602 22.7972 13.1641C22.7962 13.4333 22.7934 13.7025 22.7904 13.9717C22.7876 14.2482 22.7869 14.5252 22.7855 14.8018C22.7826 15.3415 22.7775 15.8812 22.7718 16.4209H21.4603C21.4423 16.0605 21.4242 15.6995 21.4056 15.3281C21.3336 15.3911 21.262 15.4546 21.1878 15.5195C20.2071 16.2997 19.084 16.5184 17.8548 16.4209C17.0324 16.3203 16.277 15.8734 15.6693 15.3281C15.6198 15.2862 15.6195 15.2862 15.5687 15.2432C14.8818 14.6189 14.4338 13.6101 14.3412 12.6983C14.3329 12.5231 14.3304 12.3492 14.3314 12.1738C14.3317 12.1118 14.3321 12.0493 14.3324 11.9854C14.356 10.872 14.8513 9.93843 15.6214 9.14552C16.0855 8.70867 16.6478 8.36836 17.2542 8.17189C17.3019 8.15568 17.3497 8.13977 17.3988 8.12306ZM20.1703 9.76955C19.3887 9.25529 18.3276 9.11433 17.4505 9.46974C17.4026 9.49282 17.3555 9.51472 17.3089 9.53712C16.7026 9.82501 16.1949 10.3064 15.8998 10.9111C15.611 11.5918 15.4571 12.3398 15.7201 13.0586C15.7402 13.1059 15.7591 13.1524 15.7787 13.1983C16.0791 13.9395 16.5362 14.5316 17.2718 14.8848C17.3456 14.9154 17.3459 14.9162 17.4183 14.9463C17.7514 15.086 18.0711 15.1193 18.4291 15.126C18.4787 15.1263 18.5273 15.1267 18.5755 15.127C18.9631 15.1296 19.3016 15.0943 19.6673 14.9561C20.3692 14.5987 20.9137 14.1149 21.2425 13.3858C21.261 13.3406 21.2783 13.2958 21.2962 13.252C21.5072 12.7674 21.5108 12.2423 21.4603 11.7227C21.3032 10.8824 20.8366 10.282 20.1703 9.76955Z" fill="white"/>
<path d="M30.3391 8.4215C31.7476 7.66944 33.5547 7.91079 34.8011 8.86877C34.8708 8.92726 34.9403 8.98596 35.0091 9.04553C35.054 9.0801 35.0985 9.11538 35.1448 9.15099C35.551 9.48822 35.8159 9.94432 36.0472 10.4117C36.0782 10.4721 36.078 10.4723 36.1097 10.5338C36.454 11.2446 36.4521 11.9641 36.4456 12.735C36.4453 12.8416 36.4448 12.9487 36.4446 13.0553C36.444 13.3338 36.4425 13.6127 36.4407 13.8912C36.439 14.1764 36.4386 14.4615 36.4378 14.7467C36.436 15.3048 36.4324 15.8634 36.429 16.4215H35.1731V15.274L34.9339 15.4723C33.9079 16.2838 32.8194 16.4945 31.5384 16.4078C30.4688 16.2627 29.5045 15.6324 28.8489 14.7926C28.1211 13.7752 27.871 12.6693 28.0325 11.4332C28.2185 10.3721 28.8975 9.40314 29.7532 8.76818C29.8999 8.67272 30.0485 8.58468 30.2014 8.49963C30.2469 8.4739 30.2923 8.448 30.3391 8.4215ZM34.0725 9.92639C32.8305 9.0038 31.0939 9.08822 30.0169 10.2477C29.4279 10.9729 29.267 11.67 29.3177 12.5846C29.3674 13.2318 29.7199 13.9367 30.2073 14.3717C30.2424 14.3998 30.2768 14.4275 30.3108 14.4547C30.7751 14.8387 31.2865 15.0954 31.8929 15.1324C32.8156 15.1609 33.6303 14.9469 34.3225 14.3043C34.8274 13.7508 35.1225 13.0753 35.1409 12.3297C35.1414 12.2779 35.1414 12.2276 35.1419 12.1774C35.1435 12.0343 35.1416 11.8925 35.1341 11.7496C35.0488 11.038 34.6098 10.3777 34.0725 9.92639Z" fill="white"/>
<path d="M23.7549 3.47363C24.1695 3.47363 24.5842 3.47363 25.0114 3.47363C25.0114 4.96998 25.0114 6.46633 25.0114 8.00802C25.6604 8.00802 26.3095 8.00802 26.9781 8.00802C26.9781 8.4407 26.9781 8.87338 26.9781 9.31917C26.3291 9.31917 25.6801 9.31917 25.0114 9.31917C25.0164 10.0937 25.0164 10.0937 25.0228 10.8682C25.0258 11.1843 25.0286 11.5004 25.0303 11.8166C25.0318 12.0716 25.034 12.3267 25.0367 12.5817C25.0376 12.6787 25.0383 12.7758 25.0386 12.8728C25.0412 13.5537 25.0545 14.1568 25.5577 14.673C26.0324 15.0521 26.4282 15.1064 27.0328 15.0554C27.177 15.0102 27.3005 14.9565 27.4331 14.8847C27.5244 14.8369 27.5244 14.8369 27.6337 14.8369C27.6337 15.3057 27.6337 15.7744 27.6337 16.2573C27.1074 16.5205 26.314 16.5078 25.7523 16.3325C24.8401 15.9768 24.2567 15.3708 23.8612 14.4842C23.7566 14.203 23.7472 13.9343 23.7483 13.6369C23.7483 13.5934 23.7482 13.5499 23.7482 13.505C23.7481 13.3594 23.7484 13.2138 23.7487 13.0682C23.7487 12.9637 23.7487 12.8593 23.7487 12.7548C23.7487 12.4713 23.749 12.1878 23.7494 11.9043C23.7497 11.6079 23.7497 11.3116 23.7498 11.0153C23.75 10.4542 23.7504 9.89313 23.751 9.33205C23.7516 8.69326 23.7519 8.05447 23.7521 7.41568C23.7527 6.10166 23.7537 4.78765 23.7549 3.47363Z" fill="white"/>
<path d="M40.2774 7.99457C40.3164 7.99414 40.3553 7.99372 40.3954 7.99329C40.7061 7.99442 41.0097 8.03121 41.2915 8.17212C41.2915 8.64085 41.2915 9.10959 41.2915 9.59253C41.0211 9.48436 41.0211 9.48436 40.7452 9.374C40.1807 9.29268 39.7236 9.40134 39.2531 9.71203C38.9504 10.0288 38.7735 10.3844 38.7699 10.8241C38.7691 10.8983 38.7691 10.8983 38.7682 10.974C38.7679 11.0279 38.7676 11.0818 38.7673 11.1373C38.7665 11.2229 38.7665 11.2229 38.7656 11.3102C38.7639 11.4988 38.7626 11.6873 38.7612 11.8759C38.7601 12.0067 38.7589 12.1374 38.7578 12.2682C38.7548 12.6123 38.7521 12.9565 38.7494 13.3007C38.7467 13.6518 38.7436 14.003 38.7406 14.3542C38.7348 15.0433 38.7292 15.7323 38.7239 16.4214C38.2912 16.4214 37.8585 16.4214 37.4127 16.4214C37.409 15.6473 37.406 14.8732 37.4042 14.0991C37.4034 13.7397 37.4022 13.3802 37.4004 13.0207C37.3986 12.6736 37.3976 12.3264 37.3972 11.9793C37.3969 11.8471 37.3963 11.7149 37.3954 11.5827C37.3942 11.397 37.394 11.2113 37.3941 11.0257C37.3935 10.9714 37.3929 10.9172 37.3923 10.8613C37.3957 10.0941 37.7102 9.40094 38.2288 8.83794C38.778 8.31831 39.5195 7.98638 40.2774 7.99457Z" fill="white"/>
</svg>
