<svg width="40" height="41" viewBox="0 0 40 41" fill="none" xmlns="http://www.w3.org/2000/svg">
<path d="M33.3332 17.3404C33.3332 25.6621 24.1015 34.3287 21.0015 37.0054C20.7127 37.2226 20.3612 37.34 19.9998 37.34C19.6385 37.34 19.287 37.2226 18.9982 37.0054C15.8982 34.3287 6.6665 25.6621 6.6665 17.3404C6.6665 13.8042 8.07126 10.4128 10.5717 7.91232C13.0722 5.41184 16.4636 4.00708 19.9998 4.00708C23.5361 4.00708 26.9274 5.41184 29.4279 7.91232C31.9284 10.4128 33.3332 13.8042 33.3332 17.3404Z" fill="#FF7F38" stroke="#FF7F38" stroke-width="2.5" stroke-linecap="round" stroke-linejoin="round"/>
<path d="M20 22.3406C22.7614 22.3406 25 20.102 25 17.3406C25 14.5792 22.7614 12.3406 20 12.3406C17.2386 12.3406 15 14.5792 15 17.3406C15 20.102 17.2386 22.3406 20 22.3406Z" fill="white" stroke="white" stroke-width="2.5" stroke-linecap="round" stroke-linejoin="round"/>
</svg>
