<svg width="1170" height="150" viewBox="0 0 1170 150" fill="none" xmlns="http://www.w3.org/2000/svg">
<mask id="path-1-inside-1_6745_11779" fill="white">
<path d="M0 0H1170V150H0V0Z"/>
</mask>
<path d="M0 0H1170V150H0V0Z" fill="#F0F0F0"/>
<path d="M0 0V-1H-1V0H0ZM1170 0H1171V-1H1170V0ZM1170 150V151H1171V150H1170ZM0 150H-1V151H0V150ZM0 0V1H1170V0V-1H0V0ZM1170 0H1169V150H1170H1171V0H1170ZM1170 150V149H0V150V151H1170V150ZM0 150H1V0H0H-1V150H0Z" fill="#646464" mask="url(#path-1-inside-1_6745_11779)"/>
<rect x="15" y="15" width="1140" height="120" rx="13" stroke="#646464" stroke-width="2" stroke-dasharray="4 4"/>
<rect width="1122" height="76" transform="translate(24 37)" fill="#F0F0F0"/>
<path d="M506.92 71V58.73H502.42V56.54H513.7V58.73H509.36V71H506.92ZM517.288 71.2C516.628 71.2 516.035 71.08 515.508 70.84C514.988 70.5933 514.578 70.2433 514.278 69.79C513.985 69.33 513.838 68.7733 513.838 68.12C513.838 66.98 514.248 66.12 515.068 65.54C515.895 64.96 517.208 64.6567 519.008 64.63L520.558 64.59V63.89C520.558 63.3433 520.395 62.9167 520.068 62.61C519.748 62.2967 519.248 62.1433 518.568 62.15C518.061 62.1567 517.601 62.2767 517.188 62.51C516.775 62.7367 516.501 63.12 516.368 63.66H514.298C514.338 62.9533 514.541 62.3633 514.908 61.89C515.281 61.41 515.791 61.0533 516.438 60.82C517.085 60.58 517.831 60.46 518.678 60.46C519.665 60.46 520.468 60.59 521.088 60.85C521.708 61.11 522.165 61.4867 522.458 61.98C522.751 62.4667 522.898 63.0567 522.898 63.75V71H520.848L520.648 69.14C520.281 69.92 519.811 70.46 519.238 70.76C518.671 71.0533 518.021 71.2 517.288 71.2ZM518.078 69.55C518.378 69.55 518.675 69.4967 518.968 69.39C519.261 69.2767 519.525 69.1267 519.758 68.94C519.998 68.7467 520.188 68.5333 520.328 68.3C520.475 68.0667 520.551 67.8233 520.558 67.57V65.94L519.288 65.96C518.661 65.9667 518.111 66.0333 517.638 66.16C517.171 66.2867 516.808 66.49 516.548 66.77C516.288 67.0433 516.158 67.41 516.158 67.87C516.158 68.3967 516.341 68.81 516.708 69.11C517.075 69.4033 517.531 69.55 518.078 69.55ZM525.489 71V56.14H527.909V65.35L532.199 60.66H534.869L531.129 64.7L535.059 71H532.589L529.589 66.21L527.909 67.97V71H525.489ZM540.997 71.2C540.004 71.2 539.127 70.99 538.367 70.57C537.614 70.1433 537.024 69.5367 536.597 68.75C536.177 67.9633 535.967 67.0267 535.967 65.94C535.967 64.88 536.157 63.94 536.537 63.12C536.924 62.2933 537.48 61.6433 538.207 61.17C538.94 60.6967 539.824 60.46 540.857 60.46C541.877 60.46 542.734 60.6767 543.427 61.11C544.12 61.5433 544.647 62.15 545.007 62.93C545.367 63.7033 545.547 64.61 545.547 65.65V66.39H538.397C538.39 66.9767 538.484 67.4967 538.677 67.95C538.87 68.4033 539.157 68.76 539.537 69.02C539.917 69.2733 540.387 69.4 540.947 69.4C541.52 69.4 542.017 69.2733 542.437 69.02C542.864 68.76 543.147 68.3667 543.287 67.84H545.507C545.387 68.56 545.1 69.17 544.647 69.67C544.2 70.17 543.654 70.55 543.007 70.81C542.367 71.07 541.697 71.2 540.997 71.2ZM538.387 64.88H543.247C543.247 64.38 543.157 63.93 542.977 63.53C542.804 63.1233 542.54 62.8033 542.187 62.57C541.834 62.33 541.387 62.21 540.847 62.21C540.314 62.21 539.864 62.34 539.497 62.6C539.13 62.86 538.854 63.1967 538.667 63.61C538.48 64.0167 538.387 64.44 538.387 64.88ZM547.908 66.76V64.94L553.188 64.93V66.75L547.908 66.76ZM560.337 71.2C559.351 71.2 558.491 70.99 557.757 70.57C557.024 70.1433 556.454 69.5333 556.047 68.74C555.647 67.9467 555.447 66.9933 555.447 65.88C555.447 64.8 555.644 63.8533 556.037 63.04C556.431 62.2267 556.991 61.5933 557.717 61.14C558.451 60.6867 559.327 60.46 560.347 60.46C561.334 60.46 562.191 60.6767 562.917 61.11C563.644 61.5433 564.204 62.1633 564.597 62.97C564.997 63.7767 565.197 64.7467 565.197 65.88C565.197 66.9267 565.007 67.85 564.627 68.65C564.254 69.4433 563.704 70.0667 562.977 70.52C562.257 70.9733 561.377 71.2 560.337 71.2ZM560.347 69.35C560.907 69.35 561.367 69.1967 561.727 68.89C562.094 68.5833 562.367 68.1633 562.547 67.63C562.727 67.0967 562.817 66.49 562.817 65.81C562.817 65.1767 562.737 64.5933 562.577 64.06C562.417 63.5267 562.154 63.1 561.787 62.78C561.427 62.4533 560.947 62.29 560.347 62.29C559.781 62.29 559.311 62.44 558.937 62.74C558.571 63.0333 558.297 63.4467 558.117 63.98C557.937 64.5067 557.847 65.1167 557.847 65.81C557.847 66.4367 557.927 67.02 558.087 67.56C558.247 68.0933 558.511 68.5267 558.877 68.86C559.244 69.1867 559.734 69.35 560.347 69.35ZM569.969 71L566.149 60.66H568.379L570.859 67.9H570.989L573.459 60.66H575.699L571.889 71H569.969ZM581.739 71.2C580.746 71.2 579.869 70.99 579.109 70.57C578.356 70.1433 577.766 69.5367 577.339 68.75C576.919 67.9633 576.709 67.0267 576.709 65.94C576.709 64.88 576.899 63.94 577.279 63.12C577.666 62.2933 578.222 61.6433 578.949 61.17C579.682 60.6967 580.566 60.46 581.599 60.46C582.619 60.46 583.476 60.6767 584.169 61.11C584.862 61.5433 585.389 62.15 585.749 62.93C586.109 63.7033 586.289 64.61 586.289 65.65V66.39H579.139C579.132 66.9767 579.226 67.4967 579.419 67.95C579.612 68.4033 579.899 68.76 580.279 69.02C580.659 69.2733 581.129 69.4 581.689 69.4C582.262 69.4 582.759 69.2733 583.179 69.02C583.606 68.76 583.889 68.3667 584.029 67.84H586.249C586.129 68.56 585.842 69.17 585.389 69.67C584.942 70.17 584.396 70.55 583.749 70.81C583.109 71.07 582.439 71.2 581.739 71.2ZM579.129 64.88H583.989C583.989 64.38 583.899 63.93 583.719 63.53C583.546 63.1233 583.282 62.8033 582.929 62.57C582.576 62.33 582.129 62.21 581.589 62.21C581.056 62.21 580.606 62.34 580.239 62.6C579.872 62.86 579.596 63.1967 579.409 63.61C579.222 64.0167 579.129 64.44 579.129 64.88ZM588.614 71V60.66H590.944V62.9C591.111 62.3867 591.348 61.95 591.654 61.59C591.968 61.2233 592.334 60.9433 592.754 60.75C593.174 60.5567 593.631 60.46 594.124 60.46C594.244 60.46 594.361 60.4667 594.474 60.48C594.588 60.4933 594.671 60.5167 594.724 60.55V62.88C594.651 62.8467 594.554 62.8233 594.434 62.81C594.321 62.7967 594.221 62.79 594.134 62.79C593.634 62.75 593.191 62.77 592.804 62.85C592.424 62.93 592.101 63.0667 591.834 63.26C591.574 63.4467 591.378 63.6867 591.244 63.98C591.111 64.2667 591.044 64.6033 591.044 64.99V71H588.614ZM601.699 71V56.54H606.669C608.503 56.54 609.873 56.8667 610.779 57.52C611.693 58.1667 612.149 59.1 612.149 60.32C612.149 61.06 611.959 61.7 611.579 62.24C611.199 62.78 610.529 63.2367 609.569 63.61C610.156 63.75 610.639 63.9433 611.019 64.19C611.406 64.43 611.706 64.7067 611.919 65.02C612.133 65.3267 612.283 65.6567 612.369 66.01C612.456 66.3633 612.499 66.7267 612.499 67.1C612.499 68.42 612.039 69.4 611.119 70.04C610.206 70.68 608.789 71 606.869 71H601.699ZM604.129 69.06H606.899C607.926 69.06 608.703 68.8767 609.229 68.51C609.763 68.1367 610.029 67.6 610.029 66.9C610.029 66.3933 609.899 65.9767 609.639 65.65C609.379 65.3167 609.026 65.07 608.579 64.91C608.133 64.75 607.633 64.67 607.079 64.67H604.129V69.06ZM604.129 62.7H607.079C607.419 62.7 607.749 62.6633 608.069 62.59C608.389 62.5167 608.679 62.4 608.939 62.24C609.199 62.08 609.406 61.8667 609.559 61.6C609.719 61.3333 609.799 61.01 609.799 60.63C609.799 59.9033 609.523 59.3633 608.969 59.01C608.423 58.65 607.719 58.47 606.859 58.47H604.129V62.7ZM617.874 71.2C617.214 71.2 616.621 71.08 616.094 70.84C615.574 70.5933 615.164 70.2433 614.864 69.79C614.571 69.33 614.424 68.7733 614.424 68.12C614.424 66.98 614.834 66.12 615.654 65.54C616.481 64.96 617.794 64.6567 619.594 64.63L621.144 64.59V63.89C621.144 63.3433 620.981 62.9167 620.654 62.61C620.334 62.2967 619.834 62.1433 619.154 62.15C618.647 62.1567 618.187 62.2767 617.774 62.51C617.361 62.7367 617.087 63.12 616.954 63.66H614.884C614.924 62.9533 615.127 62.3633 615.494 61.89C615.867 61.41 616.377 61.0533 617.024 60.82C617.671 60.58 618.417 60.46 619.264 60.46C620.251 60.46 621.054 60.59 621.674 60.85C622.294 61.11 622.751 61.4867 623.044 61.98C623.337 62.4667 623.484 63.0567 623.484 63.75V71H621.434L621.234 69.14C620.867 69.92 620.397 70.46 619.824 70.76C619.257 71.0533 618.607 71.2 617.874 71.2ZM618.664 69.55C618.964 69.55 619.261 69.4967 619.554 69.39C619.847 69.2767 620.111 69.1267 620.344 68.94C620.584 68.7467 620.774 68.5333 620.914 68.3C621.061 68.0667 621.137 67.8233 621.144 67.57V65.94L619.874 65.96C619.247 65.9667 618.697 66.0333 618.224 66.16C617.757 66.2867 617.394 66.49 617.134 66.77C616.874 67.0433 616.744 67.41 616.744 67.87C616.744 68.3967 616.927 68.81 617.294 69.11C617.661 69.4033 618.117 69.55 618.664 69.55ZM626.075 71V60.66H628.455V62.14C628.615 61.8733 628.832 61.6167 629.105 61.37C629.385 61.1233 629.729 60.9233 630.135 60.77C630.542 60.6167 631.019 60.54 631.565 60.54C632.205 60.54 632.799 60.6667 633.345 60.92C633.899 61.1733 634.342 61.57 634.675 62.11C635.015 62.65 635.185 63.3467 635.185 64.2V71H632.745V64.49C632.745 63.81 632.559 63.3067 632.185 62.98C631.812 62.6467 631.342 62.48 630.775 62.48C630.389 62.48 630.022 62.5467 629.675 62.68C629.329 62.8067 629.045 63.0033 628.825 63.27C628.612 63.53 628.505 63.8567 628.505 64.25V71H626.075ZM637.794 71V60.66H640.174V62.14C640.334 61.8733 640.551 61.6167 640.824 61.37C641.104 61.1233 641.447 60.9233 641.854 60.77C642.261 60.6167 642.737 60.54 643.284 60.54C643.924 60.54 644.517 60.6667 645.064 60.92C645.617 61.1733 646.061 61.57 646.394 62.11C646.734 62.65 646.904 63.3467 646.904 64.2V71H644.464V64.49C644.464 63.81 644.277 63.3067 643.904 62.98C643.531 62.6467 643.061 62.48 642.494 62.48C642.107 62.48 641.741 62.5467 641.394 62.68C641.047 62.8067 640.764 63.0033 640.544 63.27C640.331 63.53 640.224 63.8567 640.224 64.25V71H637.794ZM654.083 71.2C653.089 71.2 652.213 70.99 651.453 70.57C650.699 70.1433 650.109 69.5367 649.683 68.75C649.263 67.9633 649.053 67.0267 649.053 65.94C649.053 64.88 649.243 63.94 649.623 63.12C650.009 62.2933 650.566 61.6433 651.293 61.17C652.026 60.6967 652.909 60.46 653.943 60.46C654.963 60.46 655.819 60.6767 656.513 61.11C657.206 61.5433 657.733 62.15 658.093 62.93C658.453 63.7033 658.633 64.61 658.633 65.65V66.39H651.483C651.476 66.9767 651.569 67.4967 651.763 67.95C651.956 68.4033 652.243 68.76 652.623 69.02C653.003 69.2733 653.473 69.4 654.033 69.4C654.606 69.4 655.103 69.2733 655.523 69.02C655.949 68.76 656.233 68.3667 656.373 67.84H658.593C658.473 68.56 658.186 69.17 657.733 69.67C657.286 70.17 656.739 70.55 656.093 70.81C655.453 71.07 654.783 71.2 654.083 71.2ZM651.473 64.88H656.333C656.333 64.38 656.243 63.93 656.063 63.53C655.889 63.1233 655.626 62.8033 655.273 62.57C654.919 62.33 654.473 62.21 653.933 62.21C653.399 62.21 652.949 62.34 652.583 62.6C652.216 62.86 651.939 63.1967 651.753 63.61C651.566 64.0167 651.473 64.44 651.473 64.88ZM660.958 71V60.66H663.288V62.9C663.455 62.3867 663.691 61.95 663.998 61.59C664.311 61.2233 664.678 60.9433 665.098 60.75C665.518 60.5567 665.975 60.46 666.468 60.46C666.588 60.46 666.705 60.4667 666.818 60.48C666.931 60.4933 667.015 60.5167 667.068 60.55V62.88C666.995 62.8467 666.898 62.8233 666.778 62.81C666.665 62.7967 666.565 62.79 666.478 62.79C665.978 62.75 665.535 62.77 665.148 62.85C664.768 62.93 664.445 63.0667 664.178 63.26C663.918 63.4467 663.721 63.6867 663.588 63.98C663.455 64.2667 663.388 64.6033 663.388 64.99V71H660.958Z" fill="#646464"/>
<path d="M558.142 97V90.316H556.534V89.446C557.042 89.446 557.444 89.404 557.74 89.32C558.04 89.232 558.258 89.104 558.394 88.936C558.534 88.768 558.614 88.564 558.634 88.324H559.63V97H558.142ZM563.169 97V90.316H561.561V89.446C562.069 89.446 562.471 89.404 562.767 89.32C563.067 89.232 563.285 89.104 563.421 88.936C563.561 88.768 563.641 88.564 563.661 88.324H564.657V97H563.169ZM568.161 97C568.209 96.628 568.305 96.164 568.449 95.608C568.597 95.048 568.799 94.432 569.055 93.76C569.311 93.084 569.629 92.386 570.009 91.666C570.389 90.946 570.833 90.238 571.341 89.542H566.589V88.324H572.895V89.542C572.603 89.922 572.313 90.362 572.025 90.862C571.737 91.358 571.461 91.884 571.197 92.44C570.933 92.992 570.697 93.546 570.489 94.102C570.281 94.654 570.111 95.18 569.979 95.68C569.847 96.18 569.767 96.62 569.739 97H568.161ZM577.03 97.132C576.026 97.132 575.236 96.754 574.66 95.998C574.088 95.242 573.802 94.14 573.802 92.692C573.802 91.716 573.934 90.896 574.198 90.232C574.462 89.564 574.836 89.06 575.32 88.72C575.804 88.376 576.376 88.204 577.036 88.204C578.028 88.204 578.812 88.586 579.388 89.35C579.968 90.11 580.258 91.22 580.258 92.68C580.258 94.132 579.97 95.238 579.394 95.998C578.822 96.754 578.034 97.132 577.03 97.132ZM577.036 95.914C577.6 95.914 578.02 95.664 578.296 95.164C578.572 94.664 578.71 93.838 578.71 92.686C578.71 91.51 578.57 90.666 578.29 90.154C578.01 89.642 577.59 89.386 577.03 89.386C576.47 89.386 576.046 89.644 575.758 90.16C575.474 90.676 575.332 91.518 575.332 92.686C575.332 93.834 575.474 94.66 575.758 95.164C576.046 95.664 576.472 95.914 577.036 95.914ZM583.897 97L586.279 93.772L584.095 90.796H585.643L587.077 92.734L588.511 90.796H590.065L587.863 93.772L590.251 97H588.703L587.071 94.792L585.445 97H583.897ZM595.478 97V90.316H593.87V89.446C594.378 89.446 594.78 89.404 595.076 89.32C595.376 89.232 595.594 89.104 595.73 88.936C595.87 88.768 595.95 88.564 595.97 88.324H596.966V97H595.478ZM602.443 97.132C601.891 97.132 601.377 97.042 600.901 96.862C600.429 96.678 600.021 96.426 599.677 96.106C599.337 95.786 599.083 95.42 598.915 95.008L600.097 94.384C600.245 94.68 600.421 94.946 600.625 95.182C600.833 95.418 601.075 95.604 601.351 95.74C601.631 95.872 601.951 95.938 602.311 95.938C602.875 95.938 603.327 95.782 603.667 95.47C604.011 95.154 604.183 94.734 604.183 94.21C604.183 93.886 604.103 93.598 603.943 93.346C603.787 93.094 603.573 92.898 603.301 92.758C603.033 92.614 602.727 92.542 602.383 92.542C602.179 92.542 601.987 92.56 601.807 92.596C601.631 92.632 601.453 92.7 601.273 92.8C601.093 92.896 600.899 93.042 600.691 93.238C600.651 93.258 600.621 93.268 600.601 93.268C600.585 93.264 600.555 93.252 600.511 93.232L599.389 92.776L599.785 88.324H605.179L605.125 89.542H600.973L600.775 91.954C601.083 91.738 601.393 91.582 601.705 91.486C602.017 91.39 602.361 91.342 602.737 91.342C603.289 91.342 603.791 91.45 604.243 91.666C604.695 91.882 605.055 92.2 605.323 92.62C605.591 93.04 605.725 93.554 605.725 94.162C605.725 94.77 605.589 95.296 605.317 95.74C605.049 96.184 604.669 96.528 604.177 96.772C603.689 97.012 603.111 97.132 602.443 97.132ZM610.053 97.132C609.049 97.132 608.259 96.754 607.683 95.998C607.111 95.242 606.825 94.14 606.825 92.692C606.825 91.716 606.957 90.896 607.221 90.232C607.485 89.564 607.859 89.06 608.343 88.72C608.827 88.376 609.399 88.204 610.059 88.204C611.051 88.204 611.835 88.586 612.411 89.35C612.991 90.11 613.281 91.22 613.281 92.68C613.281 94.132 612.993 95.238 612.417 95.998C611.845 96.754 611.057 97.132 610.053 97.132ZM610.059 95.914C610.623 95.914 611.043 95.664 611.319 95.164C611.595 94.664 611.733 93.838 611.733 92.686C611.733 91.51 611.593 90.666 611.313 90.154C611.033 89.642 610.613 89.386 610.053 89.386C609.493 89.386 609.069 89.644 608.781 90.16C608.497 90.676 608.355 91.518 608.355 92.686C608.355 93.834 608.497 94.66 608.781 95.164C609.069 95.664 609.495 95.914 610.059 95.914Z" fill="#646464"/>
</svg>
