<svg width="12" height="13" viewBox="0 0 12 13" fill="none" xmlns="http://www.w3.org/2000/svg">
<g clip-path="url(#clip0_6474_35866)">
<path d="M1.92497 4.68517C1.85199 4.35643 1.8632 4.01459 1.95755 3.69134C2.0519 3.36809 2.22635 3.07389 2.46471 2.83603C2.70307 2.59817 2.99763 2.42434 3.32108 2.33067C3.64453 2.23699 3.98639 2.2265 4.31497 2.30017C4.49583 2.01732 4.74498 1.78455 5.03945 1.62331C5.33392 1.46208 5.66425 1.37756 5.99997 1.37756C6.3357 1.37756 6.66603 1.46208 6.9605 1.62331C7.25497 1.78455 7.50412 2.01732 7.68497 2.30017C8.01406 2.22618 8.35651 2.23663 8.68047 2.33053C9.00444 2.42443 9.29939 2.59874 9.5379 2.83725C9.7764 3.07575 9.95072 3.37071 10.0446 3.69467C10.1385 4.01864 10.149 4.36109 10.075 4.69017C10.3578 4.87103 10.5906 5.12017 10.7518 5.41465C10.9131 5.70912 10.9976 6.03944 10.9976 6.37517C10.9976 6.7109 10.9131 7.04122 10.7518 7.3357C10.5906 7.63017 10.3578 7.87932 10.075 8.06017C10.1486 8.38875 10.1382 8.73062 10.0445 9.05407C9.9508 9.37752 9.77698 9.67208 9.53911 9.91044C9.30125 10.1488 9.00706 10.3232 8.6838 10.4176C8.36055 10.5119 8.01871 10.5231 7.68997 10.4502C7.50936 10.7341 7.26001 10.9679 6.96504 11.1298C6.67006 11.2918 6.33899 11.3767 6.00247 11.3767C5.66596 11.3767 5.33489 11.2918 5.03991 11.1298C4.74494 10.9679 4.49559 10.7341 4.31497 10.4502C3.98639 10.5238 3.64453 10.5133 3.32108 10.4197C2.99763 10.326 2.70307 10.1522 2.46471 9.91431C2.22635 9.67645 2.0519 9.38225 1.95755 9.059C1.8632 8.73575 1.85199 8.39391 1.92497 8.06517C1.63995 7.88479 1.40518 7.63526 1.2425 7.33978C1.07982 7.0443 0.994507 6.71247 0.994507 6.37517C0.994507 6.03787 1.07982 5.70604 1.2425 5.41056C1.40518 5.11508 1.63995 4.86555 1.92497 4.68517Z" fill="#00426D" stroke="#00426D" stroke-linecap="round" stroke-linejoin="round"/>
<path d="M4.5 6.37512L5.5 7.37512L7.5 5.37512" stroke="white" stroke-linecap="round" stroke-linejoin="round"/>
</g>
<defs>
<clipPath id="clip0_6474_35866">
<rect width="12" height="12" fill="white" transform="translate(0 0.375031)"/>
</clipPath>
</defs>
</svg>
