<svg width="32" height="32" viewBox="0 0 32 32" fill="none" xmlns="http://www.w3.org/2000/svg">
<rect x="2" y="2" width="28" height="28" rx="6" fill="black"/>
<path d="M4.48926 22.7568V22.7594L4.57004 22.9784C4.56076 22.9529 4.53074 22.8754 4.48926 22.7568Z" fill="#69C9D0"/>
<path d="M9.70945 19.1605C9.83968 18.0822 10.2819 17.4785 11.1153 16.8596C12.3076 16.0215 13.7971 16.4956 13.7971 16.4956V13.683C14.1592 13.6737 14.5215 13.6952 14.8796 13.7471V17.3667C14.8796 17.3667 13.3906 16.8926 12.1982 17.7312C11.3653 18.3496 10.9222 18.9537 10.7924 20.032C10.7883 20.6175 10.8982 21.3828 11.4042 22.0446C11.2791 21.9805 11.1516 21.9074 11.0217 21.8253C9.90706 21.0769 9.70403 19.954 9.70945 19.1605ZM21.0296 8.4824C20.2094 7.58357 19.8992 6.67608 19.7871 6.03857H20.8189C20.8189 6.03857 20.6132 7.71012 22.1126 9.35393L22.1334 9.37603C21.7293 9.12184 21.3587 8.82179 21.0296 8.4824ZM26.0004 11.0307V14.5775C26.0004 14.5775 24.6836 14.5259 23.7092 14.278C22.3486 13.9313 21.4741 13.3995 21.4741 13.3995C21.4741 13.3995 20.87 13.0203 20.8212 12.9939V20.318C20.8212 20.7258 20.7095 21.7443 20.369 22.5937C19.9245 23.7049 19.2386 24.4343 19.1124 24.5833C19.1124 24.5833 18.2781 25.5693 16.8063 26.2332C15.4796 26.8322 14.3148 26.817 13.9667 26.8322C13.9667 26.8322 11.9531 26.9119 10.1413 25.7344C9.74948 25.4749 9.38375 25.1809 9.04883 24.8564L9.05787 24.8629C10.8702 26.0404 12.8833 25.9606 12.8833 25.9606C13.2319 25.9455 14.3967 25.9606 15.7229 25.3617C17.1934 24.6978 18.029 23.7118 18.029 23.7118C18.1538 23.5627 18.8429 22.8334 19.2856 21.7217C19.6252 20.8727 19.7378 19.8539 19.7378 19.4461V12.1228C19.7866 12.1497 20.3903 12.5289 20.3903 12.5289C20.3903 12.5289 21.2652 13.0611 22.6258 13.4073C23.6007 13.6552 24.917 13.7068 24.917 13.7068V10.9275C25.3673 11.0285 25.7512 11.0558 26.0004 11.0307Z" fill="#EE1D52"/>
<path d="M24.9172 10.9275V13.7059C24.9172 13.7059 23.6009 13.6544 22.6261 13.4065C21.2655 13.0598 20.3905 12.528 20.3905 12.528C20.3905 12.528 19.7869 12.1488 19.738 12.1219V19.4469C19.738 19.8547 19.6263 20.8736 19.2859 21.7226C18.8414 22.8342 18.1554 23.5636 18.0293 23.7127C18.0293 23.7127 17.1945 24.6986 15.7232 25.3626C14.3969 25.9615 13.2321 25.9463 12.8835 25.9615C12.8835 25.9615 10.8704 26.0412 9.05813 24.8637L9.04909 24.8572C8.85775 24.672 8.67764 24.4763 8.50964 24.2713C7.93131 23.5662 7.57681 22.7324 7.48773 22.4945C7.48758 22.4934 7.48758 22.4924 7.48773 22.4914C7.34439 22.078 7.04324 21.0851 7.08439 20.1234C7.15719 18.4267 7.75406 17.3853 7.91187 17.1244C8.32982 16.413 8.8734 15.7764 9.51844 15.2431C10.0877 14.7829 10.7328 14.4168 11.4275 14.1597C12.1785 13.8578 12.9827 13.696 13.7969 13.683V16.4956C13.7969 16.4956 12.3075 16.0232 11.1155 16.8596C10.2822 17.4785 9.83994 18.0822 9.70971 19.1605C9.70429 19.954 9.90731 21.0769 11.021 21.8257C11.1509 21.9081 11.2785 21.9812 11.4036 22.045C11.5981 22.2979 11.8349 22.5183 12.1044 22.6973C13.1924 23.3859 14.1039 23.434 15.2696 22.9868C16.0469 22.6877 16.632 22.0138 16.9033 21.2671C17.0738 20.8008 17.0716 20.3315 17.0716 19.8461V6.03857H19.7846C19.8967 6.67608 20.2069 7.58357 21.0272 8.4824C21.3562 8.82179 21.7268 9.12184 22.1309 9.37603C22.2503 9.49955 22.8607 10.1102 23.6444 10.4851C24.0495 10.6788 24.4766 10.8273 24.9172 10.9275Z" fill="white"/>
<path d="M11.4273 14.1595C10.7327 14.4166 10.0875 14.7828 9.51827 15.243C8.87303 15.7775 8.32957 16.4154 7.91215 17.1282C7.75434 17.3882 7.15747 18.4305 7.08467 20.1272C7.04352 21.0889 7.34467 22.0817 7.48801 22.4952C7.48786 22.4962 7.48786 22.4972 7.48801 22.4982C7.57845 22.734 7.93159 23.5678 8.50992 24.2751C8.67792 24.4801 8.85803 24.6757 9.04937 24.861C8.43631 24.4546 7.88955 23.9633 7.42697 23.4031C6.85361 22.7041 6.50001 21.8789 6.40777 21.6354C6.40766 21.6336 6.40766 21.6319 6.40777 21.6301V21.6271C6.26398 21.2141 5.96193 20.2208 6.00398 19.2578C6.07678 17.5611 6.67365 16.5197 6.83145 16.2588C7.24875 15.5459 7.79222 14.908 8.43758 14.3736C9.00667 13.9133 9.65188 13.5471 10.3467 13.2902C10.78 13.1178 11.2315 12.9907 11.6932 12.911C12.3891 12.7946 13.0998 12.7845 13.799 12.8811V13.6828C12.984 13.6956 12.179 13.8574 11.4273 14.1595Z" fill="#69C9D0"/>
<path d="M19.7862 6.03871H17.0731V19.8466C17.0731 20.332 17.0731 20.8001 16.9049 21.2677C16.6309 22.014 16.0481 22.6879 15.2712 22.9869C14.1051 23.4359 13.1935 23.3861 12.106 22.6974C11.836 22.5193 11.5986 22.2996 11.4033 22.0473C12.3298 22.521 13.1591 22.5128 14.1864 22.1175C14.9628 21.8185 15.5466 21.1446 15.8197 20.3979C15.9906 19.9316 15.9884 19.4622 15.9884 18.9773V5.16675H19.7346C19.7346 5.16675 19.6926 5.50999 19.7862 6.03871ZM24.9165 10.1593V10.9277C24.4767 10.8273 24.0504 10.6788 23.6459 10.4852C22.8623 10.1103 22.2519 9.49968 22.1325 9.37617C22.271 9.46333 22.4148 9.54263 22.563 9.61366C23.5157 10.0696 24.454 10.2057 24.9165 10.1593Z" fill="#69C9D0"/>
</svg>
