<svg width="32" height="32" viewBox="0 0 32 32" fill="none" xmlns="http://www.w3.org/2000/svg">
<rect x="0.5" y="0.5" width="31" height="31" rx="15.5" stroke="white"/>
<path d="M19.2639 7H16.1071V19.2064C16.1071 20.6608 14.8929 21.8554 13.382 21.8554C11.871 21.8554 10.6568 20.6608 10.6568 19.2064C10.6568 17.778 11.844 16.6093 13.301 16.5573V13.4928C10.0902 13.5447 7.5 16.0639 7.5 19.2064C7.5 22.3749 10.1442 24.92 13.409 24.92C16.6737 24.92 19.3179 22.3489 19.3179 19.2064V12.9473C20.5051 13.7784 21.962 14.2719 23.5 14.2979V11.2333C21.1257 11.1554 19.2639 9.28545 19.2639 7Z" fill="white"/>
</svg>
