<svg width="24" height="24" viewBox="0 0 24 24" fill="none" xmlns="http://www.w3.org/2000/svg">
<path fill-rule="evenodd" clip-rule="evenodd" d="M12 22.5C17.799 22.5 22.5 17.799 22.5 12C22.5 6.20101 17.799 1.5 12 1.5C6.20101 1.5 1.5 6.20101 1.5 12C1.5 13.8832 1.99575 15.6505 2.86386 17.1787L1.5 22.5L6.98615 21.2278C8.47603 22.0391 10.1842 22.5 12 22.5ZM12 20.8846C16.9068 20.8846 20.8846 16.9068 20.8846 12C20.8846 7.09316 16.9068 3.11538 12 3.11538C7.09316 3.11538 3.11538 7.09316 3.11538 12C3.11538 13.8945 3.70838 15.6506 4.71888 17.0927L3.92308 20.0769L6.95995 19.3177C8.39202 20.3059 10.1284 20.8846 12 20.8846Z" fill="#5BD066"/>
<path d="M9.37508 7.12553C9.12543 6.62409 8.74246 6.66848 8.35557 6.66848C7.66413 6.66848 6.586 7.4967 6.586 9.03808C6.586 10.3013 7.14265 11.6841 9.01837 13.7527C10.8286 15.749 13.2071 16.7817 15.1817 16.7466C17.1563 16.7114 17.5626 15.0122 17.5626 14.4384C17.5626 14.184 17.4047 14.0571 17.296 14.0226C16.6231 13.6997 15.3821 13.098 15.0997 12.9849C14.8173 12.8719 14.6699 13.0248 14.5782 13.108C14.3221 13.352 13.8145 14.0712 13.6407 14.233C13.4669 14.3947 13.2078 14.3129 13.0999 14.2517C12.7031 14.0925 11.6273 13.6139 10.7697 12.7826C9.70905 11.7544 9.64681 11.4007 9.44699 11.0858C9.28713 10.8339 9.40443 10.6794 9.46297 10.6119C9.69148 10.3482 10.007 9.9411 10.1485 9.73881C10.29 9.53651 10.1777 9.22937 10.1103 9.03808C9.82039 8.21537 9.5748 7.52667 9.37508 7.12553Z" fill="#5BD066"/>
</svg>
