<svg width="32" height="32" viewBox="0 0 32 32" fill="none" xmlns="http://www.w3.org/2000/svg">
<rect x="2" y="2" width="28" height="28" rx="6" fill="#5BD066"/>
<path d="M4.48926 22.7568V22.7594L4.57004 22.9784C4.56076 22.9529 4.53074 22.8754 4.48926 22.7568Z" fill="#69C9D0"/>
<path fill-rule="evenodd" clip-rule="evenodd" d="M16 25.625C21.3157 25.625 25.625 21.3157 25.625 16C25.625 10.6843 21.3157 6.375 16 6.375C10.6843 6.375 6.375 10.6843 6.375 16C6.375 17.7262 6.82944 19.3463 7.6252 20.7472L6.375 25.625L11.404 24.4589C12.7697 25.2025 14.3355 25.625 16 25.625ZM16 24.1442C20.4979 24.1442 24.1442 20.4979 24.1442 16C24.1442 11.5021 20.4979 7.85577 16 7.85577C11.5021 7.85577 7.85577 11.5021 7.85577 16C7.85577 17.7367 8.39935 19.3464 9.32564 20.6683L8.59615 23.4038L11.38 22.7079C12.6927 23.6138 14.2844 24.1442 16 24.1442Z" fill="white"/>
<path d="M13.5938 11.5317C13.3649 11.072 13.0139 11.1127 12.6592 11.1127C12.0254 11.1127 11.0371 11.8719 11.0371 13.2849C11.0371 14.4428 11.5474 15.7104 13.2668 17.6066C14.9262 19.4366 17.1065 20.3832 18.9165 20.351C20.7266 20.3188 21.099 18.7611 21.099 18.2351C21.099 18.002 20.9543 17.8856 20.8546 17.854C20.2378 17.558 19.1002 17.0064 18.8413 16.9028C18.5825 16.7992 18.4473 16.9393 18.3633 17.0156C18.1286 17.2393 17.6632 17.8986 17.5039 18.0468C17.3446 18.1951 17.1071 18.1201 17.0082 18.064C16.6445 17.9181 15.6583 17.4794 14.8721 16.7173C13.8999 15.7749 13.8429 15.4506 13.6597 15.162C13.5131 14.9311 13.6207 14.7894 13.6743 14.7275C13.8838 14.4858 14.173 14.1126 14.3027 13.9272C14.4325 13.7418 14.3295 13.4602 14.2677 13.2849C14.002 12.5307 13.7768 11.8994 13.5938 11.5317Z" fill="white"/>
</svg>
