<svg width="32" height="32" viewBox="0 0 32 32" fill="none" xmlns="http://www.w3.org/2000/svg">
<rect x="0.5" y="0.5" width="31" height="31" rx="15.5" stroke="white"/>
<path d="M23.1704 11.7523C22.9859 11.0672 22.4456 10.527 21.7602 10.3426C20.5082 10 15.5 10 15.5 10C15.5 10 10.4918 10 9.2397 10.3294C8.56754 10.5138 8.014 11.0672 7.82949 11.7523C7.5 13.004 7.5 15.5995 7.5 15.5995C7.5 15.5995 7.5 18.2082 7.82949 19.4467C8.014 20.1318 8.55436 20.672 9.2397 20.8564C10.5049 21.199 15.5 21.199 15.5 21.199C15.5 21.199 20.5082 21.199 21.7602 20.8696C22.4456 20.6851 22.9859 20.1449 23.1704 19.4598C23.4999 18.2082 23.4999 15.6127 23.4999 15.6127C23.4999 15.6127 23.5131 13.004 23.1704 11.7523Z" fill="white"/>
<path d="M13.9062 17.9975L18.071 15.5996L13.9062 13.2017V17.9975Z" fill="#01416D"/>
</svg>
