<svg width="24" height="24" viewBox="0 0 24 24" fill="none" xmlns="http://www.w3.org/2000/svg">
<path d="M12 22.0002C9.34784 22.0002 6.8043 20.9467 4.92893 19.0713C3.05357 17.1959 2 14.6524 2 12.0002C2 9.34808 3.05357 6.80454 4.92893 4.92918C6.8043 3.05381 9.34784 2.00024 12 2.00024C14.6522 2.00024 17.1957 2.94846 19.0711 4.63628C20.9464 6.32411 22 8.6133 22 11.0002C22 12.3263 21.4732 13.5981 20.5355 14.5358C19.5979 15.4735 18.3261 16.0002 17 16.0002H14.75C14.425 16.0002 14.1064 16.0907 13.83 16.2616C13.5535 16.4325 13.3301 16.6769 13.1848 16.9676C13.0394 17.2583 12.9779 17.5837 13.0071 17.9074C13.0363 18.2311 13.155 18.5402 13.35 18.8002L13.65 19.2002C13.845 19.4602 13.9637 19.7694 13.9929 20.0931C14.0221 20.4168 13.9606 20.7422 13.8152 21.0329C13.6699 21.3236 13.4465 21.568 13.17 21.7389C12.8936 21.9097 12.575 22.0002 12.25 22.0002H12Z" stroke="#242424" stroke-width="1.5" stroke-linecap="round" stroke-linejoin="round"/>
<path d="M13.5 7C13.7761 7 14 6.77614 14 6.5C14 6.22386 13.7761 6 13.5 6C13.2239 6 13 6.22386 13 6.5C13 6.77614 13.2239 7 13.5 7Z" fill="#242424" stroke="#242424" stroke-width="1.5" stroke-linecap="round" stroke-linejoin="round"/>
<path d="M17.5 10.9998C17.7761 10.9998 18 10.7759 18 10.4998C18 10.2236 17.7761 9.99976 17.5 9.99976C17.2239 9.99976 17 10.2236 17 10.4998C17 10.7759 17.2239 10.9998 17.5 10.9998Z" fill="#242424" stroke="#242424" stroke-width="1.5" stroke-linecap="round" stroke-linejoin="round"/>
<path d="M6.5 13C6.77614 13 7 12.7761 7 12.5C7 12.2239 6.77614 12 6.5 12C6.22386 12 6 12.2239 6 12.5C6 12.7761 6.22386 13 6.5 13Z" fill="#242424" stroke="#242424" stroke-width="1.5" stroke-linecap="round" stroke-linejoin="round"/>
<path d="M8.5 7.99976C8.77614 7.99976 9 7.7759 9 7.49976C9 7.22361 8.77614 6.99976 8.5 6.99976C8.22386 6.99976 8 7.22361 8 7.49976C8 7.7759 8.22386 7.99976 8.5 7.99976Z" fill="#242424" stroke="#242424" stroke-width="1.5" stroke-linecap="round" stroke-linejoin="round"/>
</svg>
