<svg width="20" height="20" viewBox="0 0 20 20" fill="none" xmlns="http://www.w3.org/2000/svg">
<path d="M11.6399 6.45831C11.6027 6.31411 11.5275 6.18252 11.4222 6.07723C11.3169 5.97193 11.1853 5.89677 11.0411 5.85957L8.48494 5.20042C8.44133 5.18804 8.40295 5.16178 8.37561 5.12561C8.34828 5.08944 8.3335 5.04534 8.3335 5.00001C8.3335 4.95468 8.34828 4.91058 8.37561 4.87441C8.40295 4.83824 8.44133 4.81198 8.48494 4.7996L11.0411 4.14003C11.1853 4.10287 11.3168 4.02777 11.4221 3.92255C11.5274 3.81733 11.6026 3.68583 11.6399 3.54171L12.299 0.985527C12.3113 0.941744 12.3375 0.903171 12.3737 0.875694C12.4099 0.848217 12.4542 0.833344 12.4996 0.833344C12.5451 0.833344 12.5893 0.848217 12.6255 0.875694C12.6618 0.903171 12.688 0.941744 12.7002 0.985527L13.359 3.54171C13.3962 3.68591 13.4713 3.8175 13.5766 3.92279C13.6819 4.02809 13.8135 4.10325 13.9577 4.14045L16.5139 4.79918C16.5579 4.81131 16.5966 4.83752 16.6242 4.8738C16.6519 4.91007 16.6668 4.95441 16.6668 5.00001C16.6668 5.04561 16.6519 5.08995 16.6242 5.12622C16.5966 5.1625 16.5579 5.18871 16.5139 5.20084L13.9577 5.85957C13.8135 5.89677 13.6819 5.97193 13.5766 6.07723C13.4713 6.18252 13.3962 6.31411 13.359 6.45831L12.6998 9.01449C12.6876 9.05828 12.6613 9.09685 12.6251 9.12433C12.5889 9.1518 12.5447 9.16668 12.4992 9.16668C12.4537 9.16668 12.4095 9.1518 12.3733 9.12433C12.3371 9.09685 12.3108 9.05828 12.2986 9.01449L11.6399 6.45831Z" fill="#787878"/>
<path d="M15.8611 8.18524C16.2621 8.12646 16.6386 8.40411 16.658 8.80892C16.7167 10.038 16.4722 11.2667 15.941 12.3849C15.3045 13.7247 14.2849 14.8457 13.0113 15.6062C11.7377 16.3666 10.2672 16.7323 8.78574 16.657C7.3043 16.5817 5.87845 16.0688 4.68851 15.1831C3.49857 14.2974 2.59798 13.0788 2.10063 11.6813C1.60328 10.2838 1.53151 8.77021 1.89438 7.33192C2.25726 5.89363 3.03849 4.59524 4.13928 3.60095C5.05796 2.77116 6.16477 2.18427 7.35895 1.88773C7.75228 1.79005 8.12632 2.07103 8.1851 2.47202C8.24388 2.873 7.96461 3.24134 7.57372 3.34835C6.66635 3.59674 5.82617 4.05494 5.12302 4.69006C4.23764 5.48979 3.60928 6.5341 3.31741 7.69094C3.02554 8.84778 3.08327 10.0652 3.4833 11.1892C3.88332 12.3133 4.60768 13.2934 5.56477 14.0058C6.52186 14.7181 7.6687 15.1307 8.86025 15.1913C10.0518 15.2518 11.2346 14.9577 12.259 14.3461C13.2833 13.7344 14.1034 12.8328 14.6153 11.7551C15.0219 10.8993 15.2197 9.96291 15.1972 9.02242C15.1875 8.61727 15.4602 8.24403 15.8611 8.18524Z" fill="#787878"/>
<path d="M17.4998 17.5002L13.9165 13.9168" stroke="#787878" stroke-width="1.5" stroke-linecap="round" stroke-linejoin="round"/>
</svg>
