<svg width="18" height="19" viewBox="0 0 18 19" fill="none" xmlns="http://www.w3.org/2000/svg">
<g clip-path="url(#clip0_515_12500)">
<path d="M14.25 11.375C15.3675 10.28 16.5 8.9675 16.5 7.25C16.5 6.15598 16.0654 5.10677 15.2918 4.33318C14.5182 3.5596 13.469 3.125 12.375 3.125C11.055 3.125 10.125 3.5 9 4.625C7.875 3.5 6.945 3.125 5.625 3.125C4.53098 3.125 3.48177 3.5596 2.70818 4.33318C1.9346 5.10677 1.5 6.15598 1.5 7.25C1.5 8.975 2.625 10.2875 3.75 11.375L9 16.625L14.25 11.375Z" fill="#FF7F38" stroke="#FF7F38" stroke-width="1.5" stroke-linecap="round" stroke-linejoin="round"/>
</g>
<defs>
<clipPath id="clip0_515_12500">
<rect width="18" height="18" fill="white" transform="translate(0 0.5)"/>
</clipPath>
</defs>
</svg>
