<svg width="32" height="24" viewBox="0 0 32 24" fill="none" xmlns="http://www.w3.org/2000/svg">
<rect width="32" height="24" rx="12" fill="url(#paint0_linear_348_5282)"/>
<path d="M17.3118 9.16647C17.2821 9.05112 17.222 8.94585 17.1377 8.86161C17.0535 8.77737 16.9482 8.71725 16.8328 8.68749L14.7879 8.16017C14.753 8.15026 14.7223 8.12925 14.7004 8.10032C14.6786 8.07138 14.6667 8.0361 14.6667 7.99984C14.6667 7.96357 14.6786 7.92829 14.7004 7.89936C14.7223 7.87042 14.753 7.84941 14.7879 7.83951L16.8328 7.31185C16.9482 7.28212 17.0534 7.22205 17.1376 7.13787C17.2219 7.0537 17.282 6.94849 17.3118 6.8332L17.8392 4.78825C17.849 4.75322 17.87 4.72237 17.8989 4.70038C17.9279 4.6784 17.9633 4.6665 17.9997 4.6665C18.036 4.6665 18.0714 4.6784 18.1004 4.70038C18.1294 4.72237 18.1503 4.75322 18.1601 4.78825L18.6871 6.8332C18.7169 6.94855 18.777 7.05383 18.8613 7.13806C18.9455 7.2223 19.0508 7.28243 19.1661 7.31219L21.2111 7.83917C21.2462 7.84887 21.2772 7.86984 21.2993 7.89887C21.3214 7.92789 21.3334 7.96336 21.3334 7.99984C21.3334 8.03632 21.3214 8.07179 21.2993 8.10081C21.2772 8.12983 21.2462 8.1508 21.2111 8.1605L19.1661 8.68749C19.0508 8.71725 18.9455 8.77737 18.8613 8.86161C18.777 8.94585 18.7169 9.05112 18.6871 9.16647L18.1598 11.2114C18.15 11.2465 18.129 11.2773 18.1 11.2993C18.0711 11.3213 18.0357 11.3332 17.9993 11.3332C17.9629 11.3332 17.9276 11.3213 17.8986 11.2993C17.8696 11.2773 17.8486 11.2465 17.8388 11.2114L17.3118 9.16647Z" fill="white"/>
<path d="M20.689 10.5484C21.0098 10.5013 21.311 10.7235 21.3264 11.0473C21.3734 12.0305 21.1778 13.0135 20.7528 13.9081C20.2436 14.9799 19.428 15.8768 18.4091 16.4851C17.3902 17.0935 16.2138 17.386 15.0286 17.3258C13.8435 17.2655 12.7028 16.8552 11.7509 16.1466C10.7989 15.4381 10.0784 14.4632 9.68055 13.3452C9.28267 12.2272 9.22525 11.0163 9.51556 9.8657C9.80586 8.71507 10.4308 7.67636 11.3115 6.88093C12.0464 6.2171 12.9319 5.74758 13.8872 5.51035C14.2019 5.43221 14.5011 5.657 14.5481 5.97778V5.97778C14.5952 6.29857 14.3717 6.59324 14.059 6.67885C13.3331 6.87756 12.661 7.24412 12.0985 7.75222C11.3902 8.392 10.8875 9.22745 10.654 10.1529C10.4205 11.0784 10.4667 12.0523 10.7867 12.9516C11.1067 13.8508 11.6862 14.6349 12.4519 15.2048C13.2175 15.7747 14.135 16.1047 15.0882 16.1532C16.0415 16.2016 16.9877 15.9663 17.8072 15.477C18.6267 14.9877 19.2827 14.2664 19.6923 13.4043C20.0176 12.7196 20.1758 11.9705 20.1578 11.2181C20.15 10.894 20.3682 10.5954 20.689 10.5484V10.5484Z" fill="white"/>
<path d="M22 18L19.1333 15.1333" stroke="white" stroke-linecap="round" stroke-linejoin="round"/>
<defs>
<linearGradient id="paint0_linear_348_5282" x1="-1.78423e-07" y1="12" x2="31.0783" y2="6.64799" gradientUnits="userSpaceOnUse">
<stop stop-color="#0A426B"/>
<stop offset="0.998184" stop-color="#35B7EF"/>
</linearGradient>
</defs>
</svg>
