<svg width="16" height="16" viewBox="0 0 16 16" fill="none" xmlns="http://www.w3.org/2000/svg">
<path d="M9.31184 5.16647C9.28208 5.05112 9.22195 4.94585 9.13771 4.86161C9.05348 4.77737 8.9482 4.71725 8.83285 4.68749L6.7879 4.16017C6.75301 4.15026 6.72231 4.12925 6.70044 4.10032C6.67858 4.07138 6.66675 4.0361 6.66675 3.99984C6.66675 3.96357 6.67858 3.92829 6.70044 3.89936C6.72231 3.87042 6.75301 3.84941 6.7879 3.83951L8.83285 3.31185C8.94816 3.28212 9.05341 3.22205 9.13764 3.13787C9.22188 3.0537 9.28203 2.94849 9.31184 2.8332L9.83916 0.788251C9.84896 0.753224 9.86995 0.722366 9.89893 0.700384C9.92791 0.678402 9.96328 0.666504 9.99965 0.666504C10.036 0.666504 10.0714 0.678402 10.1004 0.700384C10.1294 0.722366 10.1503 0.753224 10.1601 0.788251L10.6871 2.8332C10.7169 2.94855 10.777 3.05383 10.8613 3.13806C10.9455 3.2223 11.0508 3.28243 11.1661 3.31219L13.2111 3.83917C13.2462 3.84887 13.2772 3.86984 13.2993 3.89887C13.3214 3.92789 13.3334 3.96336 13.3334 3.99984C13.3334 4.03632 13.3214 4.07179 13.2993 4.10081C13.2772 4.12983 13.2462 4.1508 13.2111 4.1605L11.1661 4.68749C11.0508 4.71725 10.9455 4.77737 10.8613 4.86161C10.777 4.94585 10.7169 5.05112 10.6871 5.16647L10.1598 7.21142C10.15 7.24645 10.129 7.27731 10.1 7.29929C10.0711 7.32127 10.0357 7.33317 9.99932 7.33317C9.96295 7.33317 9.92757 7.32127 9.8986 7.29929C9.86962 7.27731 9.84863 7.24645 9.83882 7.21142L9.31184 5.16647Z" fill="white"/>
<path d="M12.689 6.54837C13.0098 6.50134 13.311 6.72346 13.3264 7.04731C13.3734 8.03055 13.1778 9.0135 12.7528 9.90806C12.2436 10.9799 11.428 11.8768 10.4091 12.4851C9.39021 13.0935 8.2138 13.386 7.02864 13.3258C5.84349 13.2655 4.70281 12.8552 3.75086 12.1466C2.7989 11.4381 2.07843 10.4632 1.68055 9.34521C1.28267 8.22721 1.22525 7.01634 1.51556 5.8657C1.80586 4.71507 2.43084 3.67636 3.31148 2.88093C4.04642 2.2171 4.93187 1.74758 5.88721 1.51035C6.20187 1.43221 6.5011 1.657 6.54813 1.97778V1.97778C6.59516 2.29857 6.37174 2.59324 6.05903 2.67885C5.33313 2.87756 4.66099 3.24412 4.09847 3.75222C3.39016 4.392 2.88747 5.22745 2.65398 6.15293C2.42048 7.0784 2.46666 8.05233 2.78669 8.95155C3.10671 9.85078 3.6862 10.6349 4.45187 11.2048C5.21754 11.7747 6.13501 12.1047 7.08825 12.1532C8.04149 12.2016 8.9877 11.9663 9.80721 11.477C10.6267 10.9877 11.2827 10.2664 11.6923 9.40426C12.0176 8.71957 12.1758 7.9705 12.1578 7.21811C12.15 6.89399 12.3682 6.59539 12.689 6.54837V6.54837Z" fill="white"/>
<path d="M14 14L11.1333 11.1333" stroke="white" stroke-linecap="round" stroke-linejoin="round"/>
</svg>
