<svg width="18" height="19" viewBox="0 0 18 19" fill="none" xmlns="http://www.w3.org/2000/svg">
<path d="M13.5 6.5C14.7426 6.5 15.75 5.49264 15.75 4.25C15.75 3.00736 14.7426 2 13.5 2C12.2574 2 11.25 3.00736 11.25 4.25C11.25 5.49264 12.2574 6.5 13.5 6.5Z" stroke="#FF7F38" stroke-width="1.5" stroke-linecap="round" stroke-linejoin="round"/>
<path d="M4.5 11.75C5.74264 11.75 6.75 10.7426 6.75 9.5C6.75 8.25736 5.74264 7.25 4.5 7.25C3.25736 7.25 2.25 8.25736 2.25 9.5C2.25 10.7426 3.25736 11.75 4.5 11.75Z" stroke="#FF7F38" stroke-width="1.5" stroke-linecap="round" stroke-linejoin="round"/>
<path d="M13.5 17C14.7426 17 15.75 15.9926 15.75 14.75C15.75 13.5074 14.7426 12.5 13.5 12.5C12.2574 12.5 11.25 13.5074 11.25 14.75C11.25 15.9926 12.2574 17 13.5 17Z" stroke="#FF7F38" stroke-width="1.5" stroke-linecap="round" stroke-linejoin="round"/>
<path d="M6.44263 10.6325L11.5651 13.6175" stroke="#FF7F38" stroke-width="1.5" stroke-linecap="round" stroke-linejoin="round"/>
<path d="M11.5576 5.38251L6.44263 8.36751" stroke="#FF7F38" stroke-width="1.5" stroke-linecap="round" stroke-linejoin="round"/>
</svg>
