<svg width="120" height="480" viewBox="0 0 120 480" fill="none" xmlns="http://www.w3.org/2000/svg">
<mask id="path-1-inside-1_515_12579" fill="white">
<path d="M0 0H120V480H0V0Z"/>
</mask>
<path d="M0 0H120V480H0V0Z" fill="#F0F0F0"/>
<path d="M0 0V-1H-1V0H0ZM120 0H121V-1H120V0ZM120 480V481H121V480H120ZM0 480H-1V481H0V480ZM0 0V1H120V0V-1H0V0ZM120 0H119V480H120H121V0H120ZM120 480V479H0V480V481H120V480ZM0 480H1V0H0H-1V480H0Z" fill="#646464" mask="url(#path-1-inside-1_515_12579)"/>
<rect x="15" y="15" width="90" height="450" rx="13" stroke="#646464" stroke-width="2" stroke-dasharray="4 4"/>
<rect width="72" height="144" transform="translate(24 168)" fill="#F0F0F0"/>
<path d="M42.6739 202V189.73H38.1739V187.54H49.4539V189.73H45.1139V202H42.6739ZM53.0419 202.2C52.3819 202.2 51.7885 202.08 51.2619 201.84C50.7419 201.593 50.3319 201.243 50.0319 200.79C49.7385 200.33 49.5919 199.773 49.5919 199.12C49.5919 197.98 50.0019 197.12 50.8219 196.54C51.6485 195.96 52.9619 195.657 54.7619 195.63L56.3119 195.59V194.89C56.3119 194.343 56.1485 193.917 55.8219 193.61C55.5019 193.297 55.0019 193.143 54.3219 193.15C53.8152 193.157 53.3552 193.277 52.9419 193.51C52.5285 193.737 52.2552 194.12 52.1219 194.66H50.0519C50.0919 193.953 50.2952 193.363 50.6619 192.89C51.0352 192.41 51.5452 192.053 52.1919 191.82C52.8385 191.58 53.5852 191.46 54.4319 191.46C55.4185 191.46 56.2219 191.59 56.8419 191.85C57.4619 192.11 57.9185 192.487 58.2119 192.98C58.5052 193.467 58.6519 194.057 58.6519 194.75V202H56.6019L56.4019 200.14C56.0352 200.92 55.5652 201.46 54.9919 201.76C54.4252 202.053 53.7752 202.2 53.0419 202.2ZM53.8319 200.55C54.1319 200.55 54.4285 200.497 54.7219 200.39C55.0152 200.277 55.2785 200.127 55.5119 199.94C55.7519 199.747 55.9419 199.533 56.0819 199.3C56.2285 199.067 56.3052 198.823 56.3119 198.57V196.94L55.0419 196.96C54.4152 196.967 53.8652 197.033 53.3919 197.16C52.9252 197.287 52.5619 197.49 52.3019 197.77C52.0419 198.043 51.9119 198.41 51.9119 198.87C51.9119 199.397 52.0952 199.81 52.4619 200.11C52.8285 200.403 53.2852 200.55 53.8319 200.55ZM61.2433 202V187.14H63.6633V196.35L67.9533 191.66H70.6233L66.8833 195.7L70.8133 202H68.3433L65.3433 197.21L63.6633 198.97V202H61.2433ZM76.7508 202.2C75.7574 202.2 74.8808 201.99 74.1208 201.57C73.3674 201.143 72.7774 200.537 72.3508 199.75C71.9308 198.963 71.7208 198.027 71.7208 196.94C71.7208 195.88 71.9108 194.94 72.2908 194.12C72.6774 193.293 73.2341 192.643 73.9608 192.17C74.6941 191.697 75.5774 191.46 76.6108 191.46C77.6308 191.46 78.4874 191.677 79.1808 192.11C79.8741 192.543 80.4008 193.15 80.7608 193.93C81.1208 194.703 81.3008 195.61 81.3008 196.65V197.39H74.1508C74.1441 197.977 74.2374 198.497 74.4308 198.95C74.6241 199.403 74.9108 199.76 75.2908 200.02C75.6708 200.273 76.1408 200.4 76.7008 200.4C77.2741 200.4 77.7708 200.273 78.1908 200.02C78.6174 199.76 78.9008 199.367 79.0408 198.84H81.2608C81.1408 199.56 80.8541 200.17 80.4008 200.67C79.9541 201.17 79.4074 201.55 78.7608 201.81C78.1208 202.07 77.4508 202.2 76.7508 202.2ZM74.1408 195.88H79.0008C79.0008 195.38 78.9108 194.93 78.7308 194.53C78.5574 194.123 78.2941 193.803 77.9408 193.57C77.5874 193.33 77.1408 193.21 76.6008 193.21C76.0674 193.21 75.6174 193.34 75.2508 193.6C74.8841 193.86 74.6074 194.197 74.4208 194.61C74.2341 195.017 74.1408 195.44 74.1408 195.88ZM45.2834 236.2C43.9501 236.2 42.7968 235.907 41.8234 235.32C40.8568 234.733 40.1068 233.887 39.5734 232.78C39.0468 231.673 38.7834 230.347 38.7834 228.8C38.7834 227.24 39.0501 225.903 39.5834 224.79C40.1168 223.677 40.8701 222.823 41.8434 222.23C42.8234 221.637 43.9701 221.34 45.2834 221.34C46.5968 221.34 47.7334 221.637 48.6934 222.23C49.6601 222.823 50.4068 223.677 50.9334 224.79C51.4601 225.903 51.7234 227.24 51.7234 228.8C51.7234 230.347 51.4634 231.673 50.9434 232.78C50.4234 233.88 49.6801 234.727 48.7134 235.32C47.7468 235.907 46.6034 236.2 45.2834 236.2ZM45.2834 234.16C46.0701 234.16 46.7468 233.977 47.3134 233.61C47.8801 233.237 48.3134 232.66 48.6134 231.88C48.9201 231.093 49.0734 230.077 49.0734 228.83C49.0734 227.563 48.9201 226.53 48.6134 225.73C48.3068 224.923 47.8701 224.33 47.3034 223.95C46.7368 223.57 46.0634 223.38 45.2834 223.38C44.4968 223.38 43.8168 223.573 43.2434 223.96C42.6768 224.34 42.2368 224.933 41.9234 225.74C41.6101 226.54 41.4534 227.57 41.4534 228.83C41.4534 230.077 41.6101 231.093 41.9234 231.88C42.2368 232.66 42.6768 233.237 43.2434 233.61C43.8168 233.977 44.4968 234.16 45.2834 234.16ZM56.9144 236L53.0944 225.66H55.3244L57.8044 232.9H57.9344L60.4044 225.66H62.6444L58.8344 236H56.9144ZM68.6844 236.2C67.691 236.2 66.8144 235.99 66.0544 235.57C65.301 235.143 64.711 234.537 64.2844 233.75C63.8644 232.963 63.6544 232.027 63.6544 230.94C63.6544 229.88 63.8444 228.94 64.2244 228.12C64.611 227.293 65.1677 226.643 65.8944 226.17C66.6277 225.697 67.511 225.46 68.5444 225.46C69.5644 225.46 70.421 225.677 71.1144 226.11C71.8077 226.543 72.3344 227.15 72.6944 227.93C73.0544 228.703 73.2344 229.61 73.2344 230.65V231.39H66.0844C66.0777 231.977 66.171 232.497 66.3644 232.95C66.5577 233.403 66.8444 233.76 67.2244 234.02C67.6044 234.273 68.0744 234.4 68.6344 234.4C69.2077 234.4 69.7044 234.273 70.1244 234.02C70.551 233.76 70.8344 233.367 70.9744 232.84H73.1944C73.0744 233.56 72.7877 234.17 72.3344 234.67C71.8877 235.17 71.341 235.55 70.6944 235.81C70.0544 236.07 69.3844 236.2 68.6844 236.2ZM66.0744 229.88H70.9344C70.9344 229.38 70.8444 228.93 70.6644 228.53C70.491 228.123 70.2277 227.803 69.8744 227.57C69.521 227.33 69.0744 227.21 68.5344 227.21C68.001 227.21 67.551 227.34 67.1844 227.6C66.8177 227.86 66.541 228.197 66.3544 228.61C66.1677 229.017 66.0744 229.44 66.0744 229.88ZM75.5597 236V225.66H77.8897V227.9C78.0564 227.387 78.293 226.95 78.5997 226.59C78.913 226.223 79.2797 225.943 79.6997 225.75C80.1197 225.557 80.5764 225.46 81.0697 225.46C81.1897 225.46 81.3064 225.467 81.4197 225.48C81.533 225.493 81.6164 225.517 81.6697 225.55V227.88C81.5964 227.847 81.4997 227.823 81.3797 227.81C81.2664 227.797 81.1664 227.79 81.0797 227.79C80.5797 227.75 80.1364 227.77 79.7497 227.85C79.3697 227.93 79.0464 228.067 78.7797 228.26C78.5197 228.447 78.323 228.687 78.1897 228.98C78.0564 229.267 77.9897 229.603 77.9897 229.99V236H75.5597ZM27.9121 270V255.54H32.8821C34.7154 255.54 36.0854 255.867 36.9921 256.52C37.9054 257.167 38.3621 258.1 38.3621 259.32C38.3621 260.06 38.1721 260.7 37.7921 261.24C37.4121 261.78 36.7421 262.237 35.7821 262.61C36.3688 262.75 36.8521 262.943 37.2321 263.19C37.6188 263.43 37.9188 263.707 38.1321 264.02C38.3454 264.327 38.4954 264.657 38.5821 265.01C38.6688 265.363 38.7121 265.727 38.7121 266.1C38.7121 267.42 38.2521 268.4 37.3321 269.04C36.4188 269.68 35.0021 270 33.0821 270H27.9121ZM30.3421 268.06H33.1121C34.1388 268.06 34.9154 267.877 35.4421 267.51C35.9754 267.137 36.2421 266.6 36.2421 265.9C36.2421 265.393 36.1121 264.977 35.8521 264.65C35.5921 264.317 35.2388 264.07 34.7921 263.91C34.3454 263.75 33.8454 263.67 33.2921 263.67H30.3421V268.06ZM30.3421 261.7H33.2921C33.6321 261.7 33.9621 261.663 34.2821 261.59C34.6021 261.517 34.8921 261.4 35.1521 261.24C35.4121 261.08 35.6188 260.867 35.7721 260.6C35.9321 260.333 36.0121 260.01 36.0121 259.63C36.0121 258.903 35.7354 258.363 35.1821 258.01C34.6354 257.65 33.9321 257.47 33.0721 257.47H30.3421V261.7ZM44.0868 270.2C43.4268 270.2 42.8335 270.08 42.3068 269.84C41.7868 269.593 41.3768 269.243 41.0768 268.79C40.7835 268.33 40.6368 267.773 40.6368 267.12C40.6368 265.98 41.0468 265.12 41.8668 264.54C42.6935 263.96 44.0068 263.657 45.8068 263.63L47.3568 263.59V262.89C47.3568 262.343 47.1935 261.917 46.8668 261.61C46.5468 261.297 46.0468 261.143 45.3668 261.15C44.8601 261.157 44.4001 261.277 43.9868 261.51C43.5735 261.737 43.3001 262.12 43.1668 262.66H41.0968C41.1368 261.953 41.3401 261.363 41.7068 260.89C42.0801 260.41 42.5901 260.053 43.2368 259.82C43.8835 259.58 44.6301 259.46 45.4768 259.46C46.4635 259.46 47.2668 259.59 47.8868 259.85C48.5068 260.11 48.9635 260.487 49.2568 260.98C49.5501 261.467 49.6968 262.057 49.6968 262.75V270H47.6468L47.4468 268.14C47.0801 268.92 46.6101 269.46 46.0368 269.76C45.4701 270.053 44.8201 270.2 44.0868 270.2ZM44.8768 268.55C45.1768 268.55 45.4735 268.497 45.7668 268.39C46.0601 268.277 46.3235 268.127 46.5568 267.94C46.7968 267.747 46.9868 267.533 47.1268 267.3C47.2735 267.067 47.3501 266.823 47.3568 266.57V264.94L46.0868 264.96C45.4601 264.967 44.9101 265.033 44.4368 265.16C43.9701 265.287 43.6068 265.49 43.3468 265.77C43.0868 266.043 42.9568 266.41 42.9568 266.87C42.9568 267.397 43.1401 267.81 43.5068 268.11C43.8735 268.403 44.3301 268.55 44.8768 268.55ZM52.2882 270V259.66H54.6682V261.14C54.8282 260.873 55.0449 260.617 55.3182 260.37C55.5982 260.123 55.9415 259.923 56.3482 259.77C56.7549 259.617 57.2315 259.54 57.7782 259.54C58.4182 259.54 59.0115 259.667 59.5582 259.92C60.1115 260.173 60.5549 260.57 60.8882 261.11C61.2282 261.65 61.3982 262.347 61.3982 263.2V270H58.9582V263.49C58.9582 262.81 58.7715 262.307 58.3982 261.98C58.0249 261.647 57.5549 261.48 56.9882 261.48C56.6015 261.48 56.2349 261.547 55.8882 261.68C55.5415 261.807 55.2582 262.003 55.0382 262.27C54.8249 262.53 54.7182 262.857 54.7182 263.25V270H52.2882ZM64.007 270V259.66H66.387V261.14C66.547 260.873 66.7636 260.617 67.037 260.37C67.317 260.123 67.6603 259.923 68.067 259.77C68.4736 259.617 68.9503 259.54 69.497 259.54C70.137 259.54 70.7303 259.667 71.277 259.92C71.8303 260.173 72.2736 260.57 72.607 261.11C72.947 261.65 73.117 262.347 73.117 263.2V270H70.677V263.49C70.677 262.81 70.4903 262.307 70.117 261.98C69.7436 261.647 69.2736 261.48 68.707 261.48C68.3203 261.48 67.9536 261.547 67.607 261.68C67.2603 261.807 66.977 262.003 66.757 262.27C66.5436 262.53 66.437 262.857 66.437 263.25V270H64.007ZM80.2957 270.2C79.3024 270.2 78.4257 269.99 77.6657 269.57C76.9124 269.143 76.3224 268.537 75.8957 267.75C75.4757 266.963 75.2657 266.027 75.2657 264.94C75.2657 263.88 75.4557 262.94 75.8357 262.12C76.2224 261.293 76.779 260.643 77.5057 260.17C78.239 259.697 79.1224 259.46 80.1557 259.46C81.1757 259.46 82.0324 259.677 82.7257 260.11C83.419 260.543 83.9457 261.15 84.3057 261.93C84.6657 262.703 84.8457 263.61 84.8457 264.65V265.39H77.6957C77.689 265.977 77.7824 266.497 77.9757 266.95C78.169 267.403 78.4557 267.76 78.8357 268.02C79.2157 268.273 79.6857 268.4 80.2457 268.4C80.819 268.4 81.3157 268.273 81.7357 268.02C82.1624 267.76 82.4457 267.367 82.5857 266.84H84.8057C84.6857 267.56 84.399 268.17 83.9457 268.67C83.499 269.17 82.9524 269.55 82.3057 269.81C81.6657 270.07 80.9957 270.2 80.2957 270.2ZM77.6857 263.88H82.5457C82.5457 263.38 82.4557 262.93 82.2757 262.53C82.1024 262.123 81.839 261.803 81.4857 261.57C81.1324 261.33 80.6857 261.21 80.1457 261.21C79.6124 261.21 79.1624 261.34 78.7957 261.6C78.429 261.86 78.1524 262.197 77.9657 262.61C77.779 263.017 77.6857 263.44 77.6857 263.88ZM87.171 270V259.66H89.501V261.9C89.6677 261.387 89.9043 260.95 90.211 260.59C90.5243 260.223 90.891 259.943 91.311 259.75C91.731 259.557 92.1877 259.46 92.681 259.46C92.801 259.46 92.9177 259.467 93.031 259.48C93.1443 259.493 93.2277 259.517 93.281 259.55V261.88C93.2077 261.847 93.111 261.823 92.991 261.81C92.8777 261.797 92.7777 261.79 92.691 261.79C92.191 261.75 91.7477 261.77 91.361 261.85C90.981 261.93 90.6577 262.067 90.391 262.26C90.131 262.447 89.9343 262.687 89.801 262.98C89.6677 263.267 89.601 263.603 89.601 263.99V270H87.171Z" fill="#646464"/>
<path d="M34.142 296V289.316H32.534V288.446C33.042 288.446 33.444 288.404 33.74 288.32C34.04 288.232 34.258 288.104 34.394 287.936C34.534 287.768 34.614 287.564 34.634 287.324H35.63V296H34.142ZM37.7353 296V295.22V294.818C37.7353 294.374 37.8173 293.992 37.9813 293.672C38.1453 293.348 38.3633 293.066 38.6353 292.826C38.9073 292.586 39.2053 292.374 39.5293 292.19C39.8573 292.002 40.1813 291.826 40.5013 291.662C40.8253 291.494 41.1233 291.322 41.3953 291.146C41.6673 290.966 41.8853 290.766 42.0493 290.546C42.2173 290.326 42.3013 290.064 42.3013 289.76C42.3013 289.372 42.1633 289.056 41.8873 288.812C41.6153 288.564 41.2453 288.44 40.7773 288.44C40.2813 288.44 39.8713 288.582 39.5473 288.866C39.2273 289.15 39.0373 289.55 38.9773 290.066H37.5613C37.5693 289.538 37.6953 289.058 37.9393 288.626C38.1833 288.194 38.5453 287.85 39.0253 287.594C39.5053 287.334 40.1033 287.204 40.8193 287.204C41.4393 287.204 41.9733 287.312 42.4213 287.528C42.8733 287.74 43.2213 288.038 43.4653 288.422C43.7133 288.802 43.8373 289.246 43.8373 289.754C43.8373 290.198 43.7553 290.578 43.5913 290.894C43.4313 291.21 43.2173 291.484 42.9493 291.716C42.6853 291.944 42.3933 292.146 42.0733 292.322C41.7573 292.498 41.4393 292.664 41.1193 292.82C40.8033 292.972 40.5113 293.132 40.2433 293.3C39.9793 293.464 39.7653 293.652 39.6013 293.864C39.4413 294.076 39.3613 294.33 39.3613 294.626V294.752H43.8553V296H37.7353ZM48.2136 296.132C47.2096 296.132 46.4196 295.754 45.8436 294.998C45.2716 294.242 44.9856 293.14 44.9856 291.692C44.9856 290.716 45.1176 289.896 45.3816 289.232C45.6456 288.564 46.0196 288.06 46.5036 287.72C46.9876 287.376 47.5596 287.204 48.2196 287.204C49.2116 287.204 49.9956 287.586 50.5716 288.35C51.1516 289.11 51.4416 290.22 51.4416 291.68C51.4416 293.132 51.1536 294.238 50.5776 294.998C50.0056 295.754 49.2176 296.132 48.2136 296.132ZM48.2196 294.914C48.7836 294.914 49.2036 294.664 49.4796 294.164C49.7556 293.664 49.8936 292.838 49.8936 291.686C49.8936 290.51 49.7536 289.666 49.4736 289.154C49.1936 288.642 48.7736 288.386 48.2136 288.386C47.6536 288.386 47.2296 288.644 46.9416 289.16C46.6576 289.676 46.5156 290.518 46.5156 291.686C46.5156 292.834 46.6576 293.66 46.9416 294.164C47.2296 294.664 47.6556 294.914 48.2196 294.914ZM55.081 296L57.463 292.772L55.279 289.796H56.827L58.261 291.734L59.695 289.796H61.249L59.047 292.772L61.435 296H59.887L58.255 293.792L56.629 296H55.081ZM69.0855 296L69.0915 293.942H65.0535V292.7L69.0495 287.324H70.5015V292.7H71.8875V293.942H70.5015V296H69.0855ZM66.4215 292.7H69.0795V289.136L66.4215 292.7ZM76.2022 296.126C75.5182 296.126 74.9202 296.024 74.4082 295.82C73.9002 295.612 73.5042 295.32 73.2202 294.944C72.9362 294.568 72.7942 294.126 72.7942 293.618C72.7942 293.286 72.8762 292.968 73.0402 292.664C73.2082 292.36 73.4222 292.104 73.6822 291.896C73.9422 291.684 74.2102 291.55 74.4862 291.494C74.1142 291.326 73.8022 291.086 73.5502 290.774C73.2982 290.458 73.1722 290.07 73.1722 289.61C73.1722 289.094 73.3042 288.658 73.5682 288.302C73.8322 287.942 74.1922 287.67 74.6482 287.486C75.1082 287.298 75.6262 287.204 76.2022 287.204C76.7782 287.204 77.2942 287.298 77.7502 287.486C78.2062 287.67 78.5662 287.942 78.8302 288.302C79.0982 288.658 79.2322 289.094 79.2322 289.61C79.2322 290.07 79.1082 290.458 78.8602 290.774C78.6122 291.086 78.2982 291.326 77.9182 291.494C78.1942 291.55 78.4622 291.684 78.7222 291.896C78.9822 292.104 79.1962 292.36 79.3642 292.664C79.5322 292.968 79.6162 293.286 79.6162 293.618C79.6162 294.126 79.4742 294.568 79.1902 294.944C78.9102 295.32 78.5122 295.612 77.9962 295.82C77.4842 296.024 76.8862 296.126 76.2022 296.126ZM76.2022 294.998C76.7742 294.998 77.2262 294.87 77.5582 294.614C77.8902 294.358 78.0562 294.016 78.0562 293.588C78.0562 293.304 77.9802 293.054 77.8282 292.838C77.6762 292.618 77.4622 292.446 77.1862 292.322C76.9102 292.198 76.5822 292.136 76.2022 292.136C75.8262 292.136 75.4982 292.198 75.2182 292.322C74.9422 292.446 74.7282 292.618 74.5762 292.838C74.4282 293.054 74.3542 293.304 74.3542 293.588C74.3542 294.016 74.5202 294.358 74.8522 294.614C75.1882 294.87 75.6382 294.998 76.2022 294.998ZM76.2022 290.912C76.6582 290.912 77.0302 290.796 77.3182 290.564C77.6102 290.328 77.7562 290 77.7562 289.58C77.7562 289.164 77.6102 288.834 77.3182 288.59C77.0262 288.346 76.6542 288.224 76.2022 288.224C75.7502 288.224 75.3762 288.346 75.0802 288.59C74.7882 288.834 74.6422 289.164 74.6422 289.58C74.6422 290 74.7882 290.328 75.0802 290.564C75.3762 290.796 75.7502 290.912 76.2022 290.912ZM83.8855 296.132C82.8815 296.132 82.0915 295.754 81.5155 294.998C80.9435 294.242 80.6575 293.14 80.6575 291.692C80.6575 290.716 80.7895 289.896 81.0535 289.232C81.3175 288.564 81.6915 288.06 82.1755 287.72C82.6595 287.376 83.2315 287.204 83.8915 287.204C84.8835 287.204 85.6675 287.586 86.2435 288.35C86.8235 289.11 87.1135 290.22 87.1135 291.68C87.1135 293.132 86.8255 294.238 86.2495 294.998C85.6775 295.754 84.8895 296.132 83.8855 296.132ZM83.8915 294.914C84.4555 294.914 84.8755 294.664 85.1515 294.164C85.4275 293.664 85.5655 292.838 85.5655 291.686C85.5655 290.51 85.4255 289.666 85.1455 289.154C84.8655 288.642 84.4455 288.386 83.8855 288.386C83.3255 288.386 82.9015 288.644 82.6135 289.16C82.3295 289.676 82.1875 290.518 82.1875 291.686C82.1875 292.834 82.3295 293.66 82.6135 294.164C82.9015 294.664 83.3275 294.914 83.8915 294.914Z" fill="#646464"/>
</svg>
