<svg width="26" height="25" viewBox="0 0 26 25" fill="none" xmlns="http://www.w3.org/2000/svg">
<path d="M12.9975 2.25243C16.3365 2.25243 16.7284 2.26731 18.0481 2.32685C19.2686 2.38142 19.9285 2.58484 20.37 2.75848C20.9555 2.9867 21.3722 3.25461 21.8088 3.69121C22.2454 4.1278 22.5183 4.54455 22.7415 5.12999C22.9102 5.57154 23.1186 6.23139 23.1732 7.45188C23.2327 8.77158 23.2476 9.16352 23.2476 12.5025C23.2476 15.8414 23.2327 16.2334 23.1732 17.5531C23.1186 18.7736 22.9152 19.4334 22.7415 19.875C22.5133 20.4604 22.2454 20.8772 21.8088 21.3138C21.3722 21.7503 20.9555 22.0232 20.37 22.2465C19.9285 22.4152 19.2686 22.6235 18.0481 22.6781C16.7284 22.7376 16.3365 22.7525 12.9975 22.7525C9.65857 22.7525 9.26663 22.7376 7.94692 22.6781C6.72644 22.6235 6.06658 22.4201 5.62503 22.2465C5.03959 22.0183 4.62284 21.7503 4.18625 21.3138C3.74965 20.8772 3.47678 20.4604 3.25352 19.875C3.08484 19.4334 2.87646 18.7736 2.82189 17.5531C2.76235 16.2334 2.74747 15.8414 2.74747 12.5025C2.74747 9.16352 2.76235 8.77158 2.82189 7.45188C2.87646 6.23139 3.07988 5.57154 3.25352 5.12999C3.48174 4.54455 3.74965 4.1278 4.18625 3.69121C4.62284 3.25461 5.03959 2.98174 5.62503 2.75848C6.06658 2.5898 6.72644 2.38142 7.94692 2.32685C9.26663 2.26235 9.66353 2.25243 12.9975 2.25243ZM12.9975 0C9.60399 0 9.17732 0.0148839 7.84273 0.0744195C6.5131 0.133955 5.60518 0.347291 4.81137 0.654892C3.9878 0.972415 3.29321 1.40405 2.59863 2.09863C1.90405 2.79321 1.47738 3.49276 1.15489 4.31137C0.847291 5.10518 0.633955 6.0131 0.57442 7.34769C0.514884 8.67732 0.5 9.10399 0.5 12.4975C0.5 15.891 0.514884 16.3177 0.57442 17.6523C0.633955 18.9819 0.847291 19.8899 1.15489 20.6886C1.47242 21.5122 1.90405 22.2068 2.59863 22.9014C3.29321 23.596 3.99276 24.0226 4.81137 24.3451C5.60518 24.6527 6.5131 24.866 7.84769 24.9256C9.18228 24.9851 9.60399 25 13.0025 25C16.401 25 16.8227 24.9851 18.1573 24.9256C19.4869 24.866 20.3948 24.6527 21.1936 24.3451C22.0172 24.0276 22.7118 23.596 23.4063 22.9014C24.1009 22.2068 24.5276 21.5072 24.8501 20.6886C25.1577 19.8948 25.371 18.9869 25.4306 17.6523C25.4901 16.3177 25.505 15.896 25.505 12.4975C25.505 9.09903 25.4901 8.67732 25.4306 7.34273C25.371 6.0131 25.1577 5.10518 24.8501 4.30641C24.5326 3.48283 24.1009 2.78825 23.4063 2.09367C22.7118 1.39909 22.0122 0.972415 21.1936 0.649931C20.3998 0.34233 19.4919 0.128994 18.1573 0.0694582C16.8177 0.0148839 16.3911 0 12.9975 0Z" fill="#FF7F38"/>
<path d="M12.999 6.08252C9.45666 6.08252 6.5791 8.95511 6.5791 12.5024C6.5791 16.0498 9.45169 18.9224 12.999 18.9224C16.5464 18.9224 19.4189 16.0498 19.4189 12.5024C19.4189 8.95511 16.5464 6.08252 12.999 6.08252ZM12.999 16.665C10.697 16.665 8.83153 14.7995 8.83153 12.4975C8.83153 10.1954 10.697 8.32999 12.999 8.32999C15.3011 8.32999 17.1665 10.1954 17.1665 12.4975C17.1665 14.7995 15.3011 16.665 12.999 16.665Z" fill="#FF7F38"/>
</svg>
