<svg width="26" height="18" viewBox="0 0 26 18" fill="none" xmlns="http://www.w3.org/2000/svg">
<path d="M25.2038 2.86298C24.9155 1.79249 24.0712 0.948453 23.0004 0.660245C21.044 0.125 13.2187 0.125 13.2187 0.125C13.2187 0.125 5.39336 0.125 3.43703 0.639658C2.38678 0.927867 1.52188 1.79249 1.23357 2.86298C0.71875 4.81868 0.71875 8.87419 0.71875 8.87419C0.71875 8.87419 0.71875 12.9503 1.23357 14.8854C1.52188 15.9559 2.36619 16.7999 3.43703 17.0881C5.41395 17.6234 13.2187 17.6234 13.2187 17.6234C13.2187 17.6234 21.044 17.6234 23.0004 17.1087C24.0712 16.8205 24.9155 15.9765 25.2038 14.906C25.7186 12.9503 25.7186 8.89478 25.7186 8.89478C25.7186 8.89478 25.7392 4.81868 25.2038 2.86298Z" fill="#FF7F38"/>
<path d="M10.7285 12.6211L17.2359 8.8744L10.7285 5.12769V12.6211Z" fill="white"/>
</svg>
