<svg width="20" height="20" viewBox="0 0 20 20" fill="none" xmlns="http://www.w3.org/2000/svg">
<path fill-rule="evenodd" clip-rule="evenodd" d="M10 18.75C14.8325 18.75 18.75 14.8325 18.75 10C18.75 5.16751 14.8325 1.25 10 1.25C5.16751 1.25 1.25 5.16751 1.25 10C1.25 11.5693 1.66312 13.0421 2.38655 14.3156L1.25 18.75L5.82179 17.6899C7.06336 18.3659 8.48682 18.75 10 18.75ZM10 17.4038C14.089 17.4038 17.4038 14.089 17.4038 10C17.4038 5.91097 14.089 2.59615 10 2.59615C5.91097 2.59615 2.59615 5.91097 2.59615 10C2.59615 11.5788 3.09031 13.0422 3.9324 14.2439L3.26923 16.7308L5.79996 16.0981C6.99335 16.9216 8.44036 17.4038 10 17.4038Z" fill="white"/>
<path d="M7.81251 5.93786C7.60447 5.52 7.28533 5.55699 6.96292 5.55699C6.38673 5.55699 5.48828 6.24717 5.48828 7.53165C5.48828 8.58435 5.95216 9.7367 7.51526 11.4605C9.02377 13.1241 11.0059 13.9847 12.6514 13.9554C14.2969 13.9261 14.6354 12.5101 14.6354 12.0319C14.6354 11.8199 14.5039 11.7142 14.4133 11.6854C13.8525 11.4163 12.8183 10.9149 12.583 10.8207C12.3477 10.7265 12.2248 10.8539 12.1484 10.9232C11.935 11.1266 11.512 11.7259 11.3672 11.8607C11.2224 11.9955 11.0064 11.9273 10.9166 11.8763C10.5859 11.7436 9.68933 11.3448 8.97467 10.6521C8.09083 9.79529 8.03896 9.50051 7.87244 9.23812C7.73922 9.02821 7.83698 8.89941 7.88576 8.84313C8.07619 8.6234 8.33913 8.28417 8.45705 8.11559C8.57496 7.94701 8.48135 7.69106 8.42518 7.53165C8.18361 6.84606 7.97895 6.27215 7.81251 5.93786Z" fill="white"/>
</svg>
