<svg width="19" height="18" viewBox="0 0 19 18" fill="none" xmlns="http://www.w3.org/2000/svg">
<path d="M16.25 9.00012C16.25 12.728 13.2279 15.7501 9.5 15.7501C8.07809 15.7501 6.75887 15.3105 5.67087 14.5597L3.36364 15.1365L3.96824 12.8692C3.20052 11.7736 2.75 10.4395 2.75 9.00012C2.75 5.2722 5.77208 2.25012 9.5 2.25012C13.2279 2.25012 16.25 5.2722 16.25 9.00012Z" fill="#5BD066"/>
<path fill-rule="evenodd" clip-rule="evenodd" d="M9.5 16.875C13.8492 16.875 17.375 13.3492 17.375 9C17.375 4.65076 13.8492 1.125 9.5 1.125C5.15076 1.125 1.625 4.65076 1.625 9C1.625 10.4124 1.99681 11.7379 2.64789 12.884L1.625 16.875L5.73961 15.9209C6.85702 16.5293 8.13814 16.875 9.5 16.875ZM9.5 15.6635C13.1801 15.6635 16.1635 12.6801 16.1635 9C16.1635 5.31987 13.1801 2.33654 9.5 2.33654C5.81987 2.33654 2.83654 5.31987 2.83654 9C2.83654 10.4209 3.28128 11.7379 4.03916 12.8195L3.44231 15.0577L5.71996 14.4883C6.79402 15.2294 8.09632 15.6635 9.5 15.6635Z" fill="#5BD066"/>
<path d="M7.53126 5.34408C7.34403 4.96801 7.0568 5.0013 6.76663 5.0013C6.24805 5.0013 5.43945 5.62246 5.43945 6.7785C5.43945 7.72593 5.85694 8.76304 7.26373 10.3145C8.6214 11.8117 10.4053 12.5862 11.8862 12.5599C13.3672 12.5335 13.6719 11.2591 13.6719 10.8287C13.6719 10.6379 13.5535 10.5428 13.472 10.5169C12.9673 10.2747 12.0365 9.82342 11.8247 9.73862C11.6129 9.65383 11.5023 9.76852 11.4336 9.83091C11.2415 10.0139 10.8608 10.5533 10.7305 10.6747C10.6001 10.796 10.4058 10.7346 10.3249 10.6887C10.0273 10.5693 9.2204 10.2104 8.5772 9.58687C7.78174 8.81577 7.73506 8.55048 7.58519 8.31432C7.4653 8.1254 7.55328 8.00948 7.59718 7.95883C7.76857 7.76108 8.00522 7.45577 8.11134 7.30404C8.21747 7.15232 8.13322 6.92197 8.08266 6.7785C7.86525 6.16147 7.68105 5.64494 7.53126 5.34408Z" fill="white"/>
</svg>
