<svg width="20" height="20" viewBox="0 0 20 20" fill="none" xmlns="http://www.w3.org/2000/svg">
<path d="M10 10H10.0083" stroke="#FF7F38" stroke-width="1.5" stroke-linecap="round" stroke-linejoin="round"/>
<path d="M13.3332 4.99959V3.33293C13.3332 2.8909 13.1576 2.46698 12.8451 2.15442C12.5325 1.84185 12.1086 1.66626 11.6666 1.66626H8.33323C7.8912 1.66626 7.46728 1.84185 7.15472 2.15442C6.84216 2.46698 6.66656 2.8909 6.66656 3.33293V4.99959" stroke="#FF7F38" stroke-width="1.5" stroke-linecap="round" stroke-linejoin="round"/>
<path d="M18.3332 10.8337C15.8606 12.4662 12.9629 13.3365 9.9999 13.3365C7.03694 13.3365 4.13924 12.4662 1.66656 10.8337" stroke="#FF7F38" stroke-width="1.5" stroke-linecap="round" stroke-linejoin="round"/>
<path d="M16.6667 5H3.33335C2.41288 5 1.66669 5.74619 1.66669 6.66667V15C1.66669 15.9205 2.41288 16.6667 3.33335 16.6667H16.6667C17.5872 16.6667 18.3334 15.9205 18.3334 15V6.66667C18.3334 5.74619 17.5872 5 16.6667 5Z" stroke="#FF7F38" stroke-width="1.5" stroke-linecap="round" stroke-linejoin="round"/>
</svg>
