<svg width="24" height="24" viewBox="0 0 24 24" fill="none" xmlns="http://www.w3.org/2000/svg">
<path d="M11.75 12.5C12.8872 12.5 13.9989 12.1628 14.9445 11.531C15.8901 10.8991 16.6271 10.0011 17.0623 8.95043C17.4975 7.89976 17.6114 6.74362 17.3895 5.62823C17.1677 4.51284 16.62 3.48829 15.8159 2.68414C15.0117 1.87999 13.9872 1.33235 12.8718 1.11049C11.7564 0.888622 10.6002 1.00249 9.54957 1.4377C8.49889 1.8729 7.60087 2.60989 6.96905 3.55547C6.33723 4.50106 6 5.61276 6 6.75C6.00176 8.27446 6.60813 9.73597 7.68608 10.8139C8.76403 11.8919 10.2255 12.4982 11.75 12.5ZM11.75 2.64286C12.5623 2.64286 13.3564 2.88374 14.0318 3.33504C14.7072 3.78634 15.2336 4.42778 15.5445 5.17827C15.8554 5.92875 15.9367 6.75456 15.7782 7.55127C15.6198 8.34797 15.2286 9.0798 14.6542 9.65419C14.0798 10.2286 13.348 10.6198 12.5513 10.7782C11.7546 10.9367 10.9287 10.8554 10.1783 10.5445C9.42778 10.2336 8.78633 9.70722 8.33504 9.03181C7.88374 8.35639 7.64286 7.56232 7.64286 6.75C7.64414 5.66111 8.07727 4.61719 8.84723 3.84723C9.61719 3.07727 10.6611 2.64414 11.75 2.64286Z" fill="#242424"/>
<path d="M17.9047 11.7484C17.8309 11.6701 17.7428 11.6077 17.6455 11.5651C17.5483 11.5224 17.4438 11.5003 17.3383 11.5C17.2327 11.4997 17.1281 11.5212 17.0307 11.5633C16.9332 11.6054 16.8448 11.6673 16.7705 11.7452C16.6963 11.8232 16.6378 11.9157 16.5983 12.0174C16.5588 12.1191 16.5393 12.228 16.5407 12.3376C16.5422 12.4472 16.5646 12.5555 16.6068 12.656C16.6489 12.7565 16.7099 12.8474 16.7861 12.9232C17.461 13.6129 17.9964 14.4358 18.361 15.3434C18.7256 16.251 18.9119 17.2251 18.9091 18.2085C18.9091 19.2191 16.1203 20.6872 11.75 20.6872C7.37973 20.6872 4.59095 19.2183 4.59095 18.2069C4.58827 17.2302 4.77213 16.2627 5.13189 15.3603C5.49164 14.4579 6.02015 13.6386 6.68681 12.9498C6.76221 12.8735 6.82227 12.7823 6.86349 12.6817C6.90471 12.581 6.92628 12.4729 6.92695 12.3635C6.92762 12.2541 6.90737 12.1457 6.86738 12.0445C6.82738 11.9433 6.76845 11.8514 6.69398 11.774C6.61952 11.6967 6.53101 11.6355 6.43359 11.5939C6.33617 11.5524 6.23178 11.5314 6.12647 11.5321C6.02116 11.5327 5.91704 11.5552 5.82013 11.598C5.72323 11.6408 5.63547 11.7032 5.56196 11.7815C4.74695 12.6236 4.10087 13.6252 3.66111 14.7284C3.22135 15.8316 2.99666 17.0145 3.00004 18.2085C3.00004 20.8917 7.50788 22.3396 11.75 22.3396C15.9922 22.3396 20.5 20.8917 20.5 18.2085C20.5036 17.0064 20.2758 15.8157 19.8301 14.7064C19.3844 13.597 18.7298 12.5913 17.9047 11.7484Z" fill="#242424"/>
</svg>
