<svg width="20" height="20" viewBox="0 0 20 20" fill="none" xmlns="http://www.w3.org/2000/svg">
<circle cx="10" cy="10" r="9.3" fill="#F98345" stroke="#F98345" stroke-width="1.4"/>
<path d="M10.1426 16C9.59018 16 9.14258 15.6351 9.14258 15.1847V4.81531C9.14258 4.36493 9.59018 4 10.1426 4C10.695 4 11.1426 4.36493 11.1426 4.81531V15.1847C11.1426 15.6351 10.695 16 10.1426 16Z" fill="white"/>
<path d="M15.1847 11.1426H4.81531C4.36493 11.1426 4 10.695 4 10.1426C4 9.59018 4.36493 9.14258 4.81531 9.14258H15.1847C15.6351 9.14258 16 9.59018 16 10.1426C16 10.695 15.6351 11.1426 15.1847 11.1426Z" fill="white"/>
</svg>
