<svg width="33" height="32" viewBox="0 0 33 32" fill="none" xmlns="http://www.w3.org/2000/svg">
<rect x="0.5" width="32" height="32" rx="16" fill="#00426D"/>
<path d="M16.5026 8.13034C19.0678 8.13034 19.3689 8.14178 20.3828 8.18751C21.3204 8.22944 21.8274 8.38571 22.1666 8.51912C22.6164 8.69445 22.9365 8.90027 23.2719 9.23569C23.6074 9.5711 23.817 9.89127 23.9885 10.341C24.1181 10.6803 24.2782 11.1872 24.3201 12.1248C24.3659 13.1387 24.3773 13.4398 24.3773 16.005C24.3773 18.5702 24.3659 18.8713 24.3201 19.8851C24.2782 20.8228 24.1219 21.3297 23.9885 21.6689C23.8132 22.1187 23.6074 22.4389 23.2719 22.7743C22.9365 23.1097 22.6164 23.3193 22.1666 23.4908C21.8274 23.6204 21.3204 23.7805 20.3828 23.8225C19.3689 23.8682 19.0678 23.8796 16.5026 23.8796C13.9375 23.8796 13.6364 23.8682 12.6225 23.8225C11.6849 23.7805 11.1779 23.6243 10.8387 23.4908C10.3889 23.3155 10.0688 23.1097 9.73334 22.7743C9.39793 22.4389 9.18829 22.1187 9.01677 21.6689C8.88718 21.3297 8.7271 20.8228 8.68517 19.8851C8.63943 18.8713 8.628 18.5702 8.628 16.005C8.628 13.4398 8.63943 13.1387 8.68517 12.1248C8.7271 11.1872 8.88337 10.6803 9.01677 10.341C9.1921 9.89127 9.39793 9.5711 9.73334 9.23569C10.0688 8.90027 10.3889 8.69064 10.8387 8.51912C11.1779 8.38953 11.6849 8.22944 12.6225 8.18751C13.6364 8.13796 13.9413 8.13034 16.5026 8.13034ZM16.5026 6.3999C13.8955 6.3999 13.5678 6.41134 12.5425 6.45708C11.521 6.50281 10.8234 6.66671 10.2136 6.90303C9.58088 7.14696 9.04727 7.47857 8.51365 8.01218C7.98003 8.5458 7.65224 9.08323 7.40449 9.71213C7.16818 10.322 7.00428 11.0195 6.95854 12.0448C6.9128 13.0663 6.90137 13.3941 6.90137 16.0012C6.90137 18.6083 6.9128 18.9361 6.95854 19.9614C7.00428 20.9829 7.16818 21.6804 7.40449 22.294C7.64843 22.9267 7.98003 23.4604 8.51365 23.994C9.04727 24.5276 9.58469 24.8554 10.2136 25.1031C10.8234 25.3394 11.521 25.5033 12.5463 25.5491C13.5716 25.5948 13.8955 25.6063 16.5065 25.6063C19.1174 25.6063 19.4413 25.5948 20.4666 25.5491C21.4881 25.5033 22.1857 25.3394 22.7993 25.1031C23.432 24.8592 23.9656 24.5276 24.4993 23.994C25.0329 23.4604 25.3607 22.9229 25.6084 22.294C25.8447 21.6842 26.0086 20.9867 26.0544 19.9614C26.1001 18.9361 26.1115 18.6121 26.1115 16.0012C26.1115 13.3903 26.1001 13.0663 26.0544 12.041C26.0086 11.0195 25.8447 10.322 25.6084 9.70832C25.3645 9.0756 25.0329 8.54199 24.4993 8.00837C23.9656 7.47476 23.4282 7.14696 22.7993 6.89921C22.1895 6.6629 21.492 6.499 20.4666 6.45326C19.4375 6.41134 19.1097 6.3999 16.5026 6.3999Z" fill="white"/>
<path d="M16.5024 11.0728C13.781 11.0728 11.5703 13.2796 11.5703 16.0049C11.5703 18.7301 13.7772 20.937 16.5024 20.937C19.2277 20.937 21.4346 18.7301 21.4346 16.0049C21.4346 13.2796 19.2277 11.0728 16.5024 11.0728ZM16.5024 19.2028C14.7339 19.2028 13.3008 17.7696 13.3008 16.0011C13.3008 14.2325 14.7339 12.7994 16.5024 12.7994C18.271 12.7994 19.7041 14.2325 19.7041 16.0011C19.7041 17.7696 18.271 19.2028 16.5024 19.2028Z" fill="white"/>
<path d="M21.6291 12.0258C22.2648 12.0258 22.7802 11.5104 22.7802 10.8747C22.7802 10.239 22.2648 9.72363 21.6291 9.72363C20.9934 9.72363 20.478 10.239 20.478 10.8747C20.478 11.5104 20.9934 12.0258 21.6291 12.0258Z" fill="white"/>
</svg>
