<svg width="33" height="32" viewBox="0 0 33 32" fill="none" xmlns="http://www.w3.org/2000/svg">
<rect x="0.5" width="32" height="32" rx="16" fill="#00426D"/>
<path d="M24.001 7.2002H8.99942C8.65484 7.2002 8.32438 7.33708 8.08073 7.58073C7.83708 7.82438 7.7002 8.15484 7.7002 8.49942V23.501C7.7002 23.8455 7.83708 24.176 8.08073 24.4197C8.32438 24.6633 8.65484 24.8002 8.99942 24.8002H24.001C24.3455 24.8002 24.676 24.6633 24.9197 24.4197C25.1633 24.176 25.3002 23.8455 25.3002 23.501V8.49942C25.3002 8.15484 25.1633 7.82438 24.9197 7.58073C24.676 7.33708 24.3455 7.2002 24.001 7.2002ZM12.946 22.1932H10.2999V13.788H12.946V22.1932ZM11.6211 12.6232C11.3209 12.6215 11.028 12.5309 10.7793 12.3629C10.5305 12.1949 10.3371 11.957 10.2235 11.6792C10.1099 11.4013 10.0811 11.0961 10.1408 10.8019C10.2004 10.5078 10.3459 10.2379 10.5588 10.0263C10.7718 9.81474 11.0426 9.67099 11.3371 9.6132C11.6317 9.55541 11.9367 9.58616 12.2138 9.70158C12.4909 9.81701 12.7276 10.0119 12.894 10.2617C13.0604 10.5115 13.1491 10.805 13.1489 11.1052C13.1517 11.3062 13.114 11.5056 13.0381 11.6917C12.9622 11.8778 12.8496 12.0467 12.7071 12.1884C12.5645 12.33 12.3949 12.4415 12.2083 12.5162C12.0217 12.5909 11.822 12.6273 11.6211 12.6232ZM22.6993 22.2005H20.0544V17.6086C20.0544 16.2544 19.4788 15.8364 18.7356 15.8364C17.951 15.8364 17.181 16.428 17.181 17.6429V22.2005H14.5349V13.7941H17.0795V14.9589H17.1138C17.3692 14.4419 18.2639 13.5582 19.6291 13.5582C21.1055 13.5582 22.7005 14.4345 22.7005 17.0012L22.6993 22.2005Z" fill="white"/>
</svg>
