<svg width="33" height="32" viewBox="0 0 33 32" fill="none" xmlns="http://www.w3.org/2000/svg">
<rect x="0.5" width="32" height="32" rx="16" fill="#00426D"/>
<path d="M21.6048 4.7998H17.6587V20.0578C17.6587 21.8758 16.1411 23.3691 14.2524 23.3691C12.3636 23.3691 10.8459 21.8758 10.8459 20.0578C10.8459 18.2723 12.3299 16.8114 14.1512 16.7465V12.9158C10.1377 12.9807 6.8999 16.1297 6.8999 20.0578C6.8999 24.0184 10.2051 27.1998 14.2861 27.1998C18.367 27.1998 21.6722 23.9859 21.6722 20.0578V12.234C23.1562 13.2729 24.9774 13.8897 26.8999 13.9221V10.0914C23.932 9.99401 21.6048 7.65661 21.6048 4.7998Z" fill="white"/>
</svg>
