<svg width="50" height="50" viewBox="0 0 50 50" fill="none" xmlns="http://www.w3.org/2000/svg">
<path d="M37.5 41.6667C37.5 38.3515 36.183 35.1721 33.8388 32.8279C31.4946 30.4837 28.3152 29.1667 25 29.1667C21.6848 29.1667 18.5054 30.4837 16.1612 32.8279C13.817 35.1721 12.5 38.3515 12.5 41.6667" stroke="#FF7F38" stroke-width="3" stroke-linecap="round" stroke-linejoin="round"/>
<path d="M24.9998 29.1667C29.6022 29.1667 33.3332 25.4357 33.3332 20.8333C33.3332 16.231 29.6022 12.5 24.9998 12.5C20.3975 12.5 16.6665 16.231 16.6665 20.8333C16.6665 25.4357 20.3975 29.1667 24.9998 29.1667Z" stroke="#FF7F38" stroke-width="3" stroke-linecap="round" stroke-linejoin="round"/>
<path d="M24.9998 45.8334C36.5058 45.8334 45.8332 36.506 45.8332 25.0001C45.8332 13.4941 36.5058 4.16675 24.9998 4.16675C13.4939 4.16675 4.1665 13.4941 4.1665 25.0001C4.1665 36.506 13.4939 45.8334 24.9998 45.8334Z" stroke="#FF7F38" stroke-width="3" stroke-linecap="round" stroke-linejoin="round"/>
</svg>
