<svg width="33" height="32" viewBox="0 0 33 32" fill="none" xmlns="http://www.w3.org/2000/svg">
<rect x="0.5" width="32" height="32" rx="16" fill="#00426D"/>
<path d="M27.4587 10.5043C27.1951 9.5252 26.4231 8.75318 25.444 8.48957C23.6551 8 16.4999 8 16.4999 8C16.4999 8 9.34464 8 7.55582 8.47074C6.59551 8.73436 5.80467 9.5252 5.54105 10.5043C5.07031 12.2932 5.07031 16.0026 5.07031 16.0026C5.07031 16.0026 5.07031 19.7309 5.54105 21.5008C5.80467 22.48 6.57668 23.252 7.55582 23.5156C9.36347 24.0052 16.4999 24.0052 16.4999 24.0052C16.4999 24.0052 23.6551 24.0052 25.444 23.5344C26.4231 23.2708 27.1951 22.4988 27.4587 21.5197C27.9295 19.7309 27.9295 16.0214 27.9295 16.0214C27.9295 16.0214 27.9483 12.2932 27.4587 10.5043Z" fill="white"/>
<path d="M14.2217 19.4297L20.1718 16.0027L14.2217 12.5757V19.4297Z" fill="#00426D"/>
</svg>
