<svg width="20" height="22" viewBox="0 0 20 22" fill="none" xmlns="http://www.w3.org/2000/svg">
<path d="M18.8428 17.1447C18.5101 17.9133 18.1163 18.6208 17.66 19.2713C17.0381 20.158 16.5288 20.7719 16.1364 21.1127C15.528 21.6722 14.8762 21.9587 14.1782 21.975C13.6771 21.975 13.0728 21.8324 12.3693 21.5432C11.6636 21.2553 11.015 21.1127 10.422 21.1127C9.80003 21.1127 9.13299 21.2553 8.4195 21.5432C7.70493 21.8324 7.12928 21.9832 6.68916 21.9981C6.01981 22.0266 5.35264 21.7319 4.68668 21.1127C4.26164 20.742 3.72999 20.1064 3.09309 19.2061C2.40976 18.2446 1.84796 17.1297 1.40784 15.8587C0.936484 14.4857 0.700195 13.1563 0.700195 11.8692C0.700195 10.3948 1.01878 9.12321 1.65689 8.0576C2.1584 7.20166 2.82557 6.52647 3.66059 6.03081C4.49562 5.53514 5.39786 5.28256 6.36949 5.2664C6.90114 5.2664 7.59833 5.43085 8.46472 5.75405C9.32867 6.07834 9.88341 6.24279 10.1266 6.24279C10.3085 6.24279 10.9247 6.0505 11.9694 5.66714C12.9573 5.31162 13.7911 5.16441 14.4742 5.2224C16.3251 5.37178 17.7157 6.10142 18.6405 7.41595C16.9851 8.41896 16.1662 9.82379 16.1825 11.626C16.1975 13.0297 16.7067 14.1979 17.7076 15.1254C18.1611 15.5558 18.6676 15.8885 19.2312 16.1248C19.109 16.4793 18.98 16.8188 18.8428 17.1447ZM14.5978 0.440125C14.5978 1.54038 14.1958 2.56768 13.3946 3.51854C12.4277 4.64892 11.2582 5.30211 9.99001 5.19904C9.97385 5.06705 9.96448 4.92812 9.96448 4.78214C9.96448 3.7259 10.4243 2.59552 11.2408 1.67127C11.6485 1.20331 12.167 0.814209 12.7957 0.503814C13.4231 0.19805 14.0166 0.0289566 14.5747 0C14.591 0.147086 14.5978 0.294182 14.5978 0.440111V0.440125Z" fill="black"/>
</svg>
