<svg width="56" height="57" viewBox="0 0 56 57" fill="none" xmlns="http://www.w3.org/2000/svg">
<rect x="4" y="4.5" width="48" height="48" rx="24" fill="#D1FADF"/>
<rect x="4" y="4.5" width="48" height="48" rx="24" stroke="#ECFDF3" stroke-width="8"/>
<path d="M38 27.5801V28.5001C37.9988 30.6565 37.3005 32.7548 36.0093 34.4819C34.7182 36.2091 32.9033 37.4726 30.8354 38.084C28.7674 38.6954 26.5573 38.622 24.5345 37.8747C22.5117 37.1274 20.7847 35.7462 19.611 33.9372C18.4373 32.1281 17.8798 29.9882 18.0217 27.8364C18.1636 25.6847 18.9972 23.6364 20.3983 21.9972C21.7994 20.3579 23.6928 19.2155 25.7962 18.7403C27.8996 18.265 30.1003 18.4824 32.07 19.3601M38 20.5001L28 30.5101L25 27.5101" stroke="#039855" stroke-width="2" stroke-linecap="round" stroke-linejoin="round"/>
</svg>
