<svg width="28" height="28" viewBox="0 0 28 28" fill="none" xmlns="http://www.w3.org/2000/svg">
<path d="M9.21732 23.3337C11.444 24.4759 14.0054 24.7853 16.44 24.2061C18.8746 23.6269 21.0223 22.1972 22.496 20.1746C23.9698 18.152 24.6726 15.6695 24.478 13.1746C24.2834 10.6796 23.204 8.33618 21.4344 6.5666C19.6649 4.79703 17.3214 3.71767 14.8265 3.52303C12.3315 3.32839 9.84903 4.03127 7.82644 5.505C5.80385 6.97873 4.37412 9.12641 3.79491 11.561C3.2157 13.9956 3.52508 16.557 4.66732 18.7837L2.33398 25.667L9.21732 23.3337Z" stroke="white" stroke-width="2.33333" stroke-linecap="round" stroke-linejoin="round"/>
<path d="M9.33398 14H9.34565" stroke="white" stroke-width="2.33333" stroke-linecap="round" stroke-linejoin="round"/>
<path d="M14 14H14.0117" stroke="white" stroke-width="2.33333" stroke-linecap="round" stroke-linejoin="round"/>
<path d="M18.667 14H18.6787" stroke="white" stroke-width="2.33333" stroke-linecap="round" stroke-linejoin="round"/>
</svg>
