<svg width="20" height="21" viewBox="0 0 20 21" fill="none" xmlns="http://www.w3.org/2000/svg">
<path d="M10 10.5H10.0083" stroke="#646464" stroke-width="1.66667" stroke-linecap="round" stroke-linejoin="round"/>
<path d="M13.3332 5.49935V3.83268C13.3332 3.39065 13.1576 2.96673 12.845 2.65417C12.5325 2.34161 12.1085 2.16602 11.6665 2.16602H8.33317C7.89114 2.16602 7.46722 2.34161 7.15466 2.65417C6.8421 2.96673 6.6665 3.39065 6.6665 3.83268V5.49935" stroke="#646464" stroke-width="1.66667" stroke-linecap="round" stroke-linejoin="round"/>
<path d="M18.3332 11.334C15.8605 12.9665 12.9628 13.8367 9.99984 13.8367C7.03688 13.8367 4.13918 12.9665 1.6665 11.334" stroke="#646464" stroke-width="1.66667" stroke-linecap="round" stroke-linejoin="round"/>
<path d="M16.6666 5.5H3.33329C2.41282 5.5 1.66663 6.24619 1.66663 7.16667V15.5C1.66663 16.4205 2.41282 17.1667 3.33329 17.1667H16.6666C17.5871 17.1667 18.3333 16.4205 18.3333 15.5V7.16667C18.3333 6.24619 17.5871 5.5 16.6666 5.5Z" stroke="#646464" stroke-width="1.66667" stroke-linecap="round" stroke-linejoin="round"/>
</svg>
