<svg width="32" height="32" viewBox="0 0 32 32" fill="none" xmlns="http://www.w3.org/2000/svg">
<rect x="0.5" y="0.5" width="31" height="31" rx="15.5" stroke="white"/>
<path d="M15.9984 9.44156C18.1354 9.44156 18.3862 9.45108 19.2308 9.48918C20.0119 9.52411 20.4342 9.6543 20.7168 9.76543C21.0915 9.91149 21.3582 10.083 21.6376 10.3624C21.9171 10.6418 22.0917 10.9085 22.2346 11.2832C22.3425 11.5658 22.4759 11.9881 22.5108 12.7692C22.5489 13.6138 22.5585 13.8647 22.5585 16.0016C22.5585 18.1385 22.5489 18.3894 22.5108 19.234C22.4759 20.0151 22.3457 20.4374 22.2346 20.72C22.0885 21.0947 21.9171 21.3614 21.6376 21.6408C21.3582 21.9202 21.0915 22.0949 20.7168 22.2377C20.4342 22.3457 20.0119 22.4791 19.2308 22.514C18.3862 22.5521 18.1354 22.5616 15.9984 22.5616C13.8615 22.5616 13.6106 22.5521 12.766 22.514C11.9849 22.4791 11.5626 22.3489 11.28 22.2377C10.9053 22.0917 10.6386 21.9202 10.3592 21.6408C10.0798 21.3614 9.90514 21.0947 9.76226 20.72C9.6543 20.4374 9.52094 20.0151 9.48601 19.234C9.44791 18.3894 9.43838 18.1385 9.43838 16.0016C9.43838 13.8647 9.44791 13.6138 9.48601 12.7692C9.52094 11.9881 9.65112 11.5658 9.76226 11.2832C9.90832 10.9085 10.0798 10.6418 10.3592 10.3624C10.6386 10.083 10.9053 9.90832 11.28 9.76543C11.5626 9.65747 11.9849 9.52411 12.766 9.48918C13.6106 9.44791 13.8647 9.44156 15.9984 9.44156ZM15.9984 8C13.8266 8 13.5535 8.00953 12.6993 8.04763C11.8484 8.08573 11.2673 8.22227 10.7593 8.41913C10.2322 8.62235 9.78766 8.89859 9.34312 9.34312C8.89859 9.78766 8.62552 10.2354 8.41913 10.7593C8.22227 11.2673 8.08573 11.8484 8.04763 12.7025C8.00953 13.5535 8 13.8266 8 15.9984C8 18.1703 8.00953 18.4433 8.04763 19.2975C8.08573 20.1484 8.22227 20.7295 8.41913 21.2407C8.62235 21.7678 8.89859 22.2123 9.34312 22.6569C9.78766 23.1014 10.2354 23.3745 10.7593 23.5809C11.2673 23.7777 11.8484 23.9143 12.7025 23.9524C13.5567 23.9905 13.8266 24 16.0016 24C18.1766 24 18.4465 23.9905 19.3007 23.9524C20.1516 23.9143 20.7327 23.7777 21.2439 23.5809C21.771 23.3777 22.2155 23.1014 22.6601 22.6569C23.1046 22.2123 23.3777 21.7646 23.5841 21.2407C23.7809 20.7327 23.9175 20.1516 23.9556 19.2975C23.9937 18.4433 24.0032 18.1734 24.0032 15.9984C24.0032 13.8234 23.9937 13.5535 23.9556 12.6993C23.9175 11.8484 23.7809 11.2673 23.5841 10.7561C23.3808 10.229 23.1046 9.78448 22.6601 9.33995C22.2155 8.89542 21.7678 8.62235 21.2439 8.41596C20.7359 8.21909 20.1548 8.08256 19.3007 8.04445C18.4433 8.00953 18.1703 8 15.9984 8Z" fill="white"/>
<path d="M15.9991 11.8931C13.732 11.8931 11.8903 13.7315 11.8903 16.0018C11.8903 18.2721 13.7288 20.1106 15.9991 20.1106C18.2694 20.1106 20.1078 18.2721 20.1078 16.0018C20.1078 13.7315 18.2694 11.8931 15.9991 11.8931ZM15.9991 18.6658C14.5258 18.6658 13.3319 17.4719 13.3319 15.9986C13.3319 14.5253 14.5258 13.3314 15.9991 13.3314C17.4724 13.3314 18.6663 14.5253 18.6663 15.9986C18.6663 17.4719 17.4724 18.6658 15.9991 18.6658Z" fill="white"/>
<path d="M20.1296 13.0258C20.7653 13.0258 21.2807 12.5104 21.2807 11.8747C21.2807 11.239 20.7653 10.7236 20.1296 10.7236C19.4939 10.7236 18.9785 11.239 18.9785 11.8747C18.9785 12.5104 19.4939 13.0258 20.1296 13.0258Z" fill="white"/>
</svg>
