<svg width="32" height="32" viewBox="0 0 32 32" fill="none" xmlns="http://www.w3.org/2000/svg">
<rect x="0.5" y="0.5" width="31" height="31" rx="15.5" stroke="white"/>
<path d="M22.8189 8H9.18111C8.86786 8 8.56744 8.12444 8.34594 8.34594C8.12444 8.56744 8 8.86786 8 9.18111V22.8189C8 23.1321 8.12444 23.4326 8.34594 23.6541C8.56744 23.8756 8.86786 24 9.18111 24H22.8189C23.1321 24 23.4326 23.8756 23.6541 23.6541C23.8756 23.4326 24 23.1321 24 22.8189V9.18111C24 8.86786 23.8756 8.56744 23.6541 8.34594C23.4326 8.12444 23.1321 8 22.8189 8ZM12.7689 21.63H10.3633V13.9889H12.7689V21.63ZM11.5644 12.93C11.2916 12.9285 11.0253 12.8461 10.7992 12.6934C10.573 12.5407 10.3972 12.3244 10.2939 12.0718C10.1906 11.8192 10.1644 11.5417 10.2187 11.2743C10.2729 11.0069 10.4052 10.7615 10.5988 10.5692C10.7923 10.3769 11.0385 10.2462 11.3063 10.1936C11.5741 10.1411 11.8514 10.1691 12.1033 10.274C12.3552 10.3789 12.5704 10.5561 12.7216 10.7832C12.8729 11.0103 12.9535 11.2771 12.9533 11.55C12.9559 11.7327 12.9217 11.914 12.8527 12.0832C12.7837 12.2524 12.6813 12.4059 12.5517 12.5347C12.4221 12.6635 12.2679 12.7649 12.0983 12.8328C11.9287 12.9007 11.7471 12.9337 11.5644 12.93ZM21.6356 21.6367H19.2311V17.4622C19.2311 16.2311 18.7078 15.8511 18.0322 15.8511C17.3189 15.8511 16.6189 16.3889 16.6189 17.4933V21.6367H14.2133V13.9944H16.5267V15.0533H16.5578C16.79 14.5833 17.6033 13.78 18.8444 13.78C20.1867 13.78 21.6367 14.5767 21.6367 16.91L21.6356 21.6367Z" fill="white"/>
</svg>
