<svg width="32" height="32" viewBox="0 0 32 32" fill="none" xmlns="http://www.w3.org/2000/svg">
<rect x="0.5" y="0.5" width="31" height="31" rx="15.5" stroke="white"/>
<path d="M23.7712 20.1967C20.9658 18.8387 20.5187 16.742 20.4988 16.5865C20.4747 16.3981 20.4474 16.25 20.6552 16.0583C20.8556 15.8732 21.7448 15.3229 21.9915 15.1507C22.3993 14.8656 22.5789 14.5809 22.4465 14.231C22.3539 13.9889 22.1285 13.8977 21.8911 13.8977C21.8162 13.898 21.7415 13.9063 21.6684 13.9227C21.2204 14.0199 20.7853 14.2444 20.5335 14.305C20.5032 14.3128 20.4722 14.317 20.4409 14.3175C20.3067 14.3175 20.2558 14.2578 20.2687 14.0963C20.3002 13.6066 20.3669 12.6508 20.2896 11.7579C20.1836 10.5295 19.7874 9.92086 19.3176 9.38255C19.0903 9.1215 18.035 8 15.9984 8C13.9619 8 12.9079 9.1215 12.6821 9.37931C12.2109 9.91762 11.8151 10.5263 11.7101 11.7547C11.6328 12.6475 11.7022 13.6029 11.7309 14.093C11.7401 14.2467 11.6929 14.3143 11.5587 14.3143C11.5275 14.3138 11.4964 14.3096 11.4661 14.3018C11.2148 14.2412 10.7797 14.0167 10.3317 13.9195C10.2586 13.9031 10.1839 13.8947 10.109 13.8945C9.87066 13.8945 9.64618 13.9871 9.55361 14.2277C9.42123 14.5777 9.59989 14.8623 10.0091 15.1474C10.2558 15.3196 11.1449 15.8695 11.3453 16.0551C11.5527 16.2467 11.5258 16.3948 11.5018 16.5832C11.4819 16.7411 11.0343 18.8378 8.22937 20.1935C8.06506 20.2731 7.78549 20.4416 8.27844 20.7138C9.05233 21.1414 9.56749 21.0956 9.96786 21.3534C10.3076 21.5724 10.1067 22.0445 10.3539 22.2148C10.6575 22.4245 11.555 22.2 12.7145 22.5828C13.6865 22.9031 14.2771 23.808 16.0007 23.808C17.7244 23.808 18.3321 22.8989 19.287 22.5828C20.4442 22.2 21.3435 22.4245 21.6476 22.2148C21.8943 22.0445 21.6939 21.5724 22.0336 21.3534C22.434 21.0956 22.9487 21.1414 23.723 20.7138C24.2151 20.4448 23.9355 20.2764 23.7712 20.1967Z" fill="white"/>
</svg>
