<svg width="64" height="64" viewBox="0 0 64 64" fill="none" xmlns="http://www.w3.org/2000/svg">
<path d="M32 33V41" stroke="#FF7F38" stroke-width="1.5" stroke-linecap="round" stroke-linejoin="round"/>
<path d="M24.0001 34.899C23.2571 34.1399 22.6967 33.2217 22.3611 32.214C22.0256 31.2062 21.9238 30.1353 22.0635 29.0823C22.2031 28.0294 22.5806 27.022 23.1672 26.1366C23.7538 25.2511 24.5343 24.5107 25.4494 23.9716C26.3646 23.4324 27.3904 23.1086 28.4493 23.0246C29.5081 22.9406 30.5722 23.0987 31.5609 23.4869C32.5496 23.8751 33.4369 24.4831 34.1558 25.2651C34.8747 26.047 35.4062 26.9823 35.7101 28H37.5001C38.4656 27.9999 39.4056 28.3103 40.1811 28.8855C40.9566 29.4606 41.5266 30.2699 41.8069 31.1938C42.0871 32.1178 42.0628 33.1074 41.7374 34.0164C41.4121 34.9254 40.803 35.7057 40.0001 36.242" stroke="#FF7F38" stroke-width="1.5" stroke-linecap="round" stroke-linejoin="round"/>
<path d="M28 37L32 33L36 37" stroke="#FF7F38" stroke-width="1.5" stroke-linecap="round" stroke-linejoin="round"/>
</svg>
