<svg width="20" height="20" viewBox="0 0 20 20" fill="none" xmlns="http://www.w3.org/2000/svg">
<path d="M12.25 5.24994C12.0973 5.40572 12.0118 5.61515 12.0118 5.83328C12.0118 6.0514 12.0973 6.26083 12.25 6.41661L13.5833 7.74994C13.7391 7.90263 13.9485 7.98816 14.1667 7.98816C14.3848 7.98816 14.5942 7.90263 14.75 7.74994L17.8917 4.60828C18.3107 5.53427 18.4376 6.56597 18.2554 7.5659C18.0732 8.56582 17.5906 9.48648 16.8719 10.2052C16.1532 10.9239 15.2325 11.4065 14.2326 11.5887C13.2327 11.7708 12.201 11.644 11.275 11.2249L5.51667 16.9833C5.18515 17.3148 4.73551 17.501 4.26667 17.501C3.79783 17.501 3.34819 17.3148 3.01667 16.9833C2.68515 16.6518 2.4989 16.2021 2.4989 15.7333C2.4989 15.2644 2.68515 14.8148 3.01667 14.4833L8.775 8.72494C8.35597 7.79895 8.2291 6.76725 8.41129 5.76732C8.59348 4.7674 9.07607 3.84674 9.79477 3.12804C10.5135 2.40935 11.4341 1.92675 12.434 1.74456C13.434 1.56237 14.4657 1.68925 15.3917 2.10828L12.2583 5.24161L12.25 5.24994Z" stroke="#FF7F38" stroke-width="1.5" stroke-linecap="round" stroke-linejoin="round"/>
</svg>
