<svg width="32" height="32" viewBox="0 0 32 32" fill="none" xmlns="http://www.w3.org/2000/svg">
<rect x="0.5" y="0.5" width="31" height="31" rx="15.5" stroke="white"/>
<path d="M13.02 23.0098C19.0617 23.0098 22.3653 18.0034 22.3653 13.6645C22.3653 13.5215 22.3653 13.3785 22.3584 13.2422C22.9987 12.7791 23.5573 12.2001 24 11.5394C23.4142 11.7982 22.7808 11.9753 22.1132 12.057C22.7944 11.6484 23.312 11.0081 23.5573 10.2384C22.9238 10.613 22.2222 10.8855 21.473 11.0353C20.8736 10.3951 20.0221 10 19.0754 10C17.2635 10 15.7923 11.4713 15.7923 13.2831C15.7923 13.5419 15.8195 13.794 15.8808 14.0324C13.1494 13.8961 10.7314 12.5883 9.11026 10.5994C8.83099 11.083 8.66752 11.6484 8.66752 12.2478C8.66752 13.3853 9.24649 14.3934 10.132 14.9791C9.59387 14.9655 9.08983 14.8157 8.64708 14.5705C8.64708 14.5841 8.64708 14.5977 8.64708 14.6113C8.64708 16.2052 9.77778 17.5266 11.2831 17.8331C11.0106 17.908 10.7178 17.9489 10.4181 17.9489C10.2069 17.9489 10.0026 17.9285 9.79821 17.8876C10.2137 19.1954 11.4261 20.1422 12.8633 20.1694C11.7395 21.0481 10.3227 21.5726 8.78331 21.5726C8.51767 21.5726 8.25883 21.559 8 21.5249C9.43721 22.4649 11.1673 23.0098 13.02 23.0098Z" fill="white"/>
</svg>
