<svg width="38" height="38" viewBox="0 0 38 38" fill="none" xmlns="http://www.w3.org/2000/svg">
<path d="M19.0001 34.8334C27.7446 34.8334 34.8334 27.7445 34.8334 19C34.8334 10.2555 27.7446 3.16669 19.0001 3.16669C10.2556 3.16669 3.16675 10.2555 3.16675 19C3.16675 27.7445 10.2556 34.8334 19.0001 34.8334Z" stroke="#00426D" stroke-width="2.85" stroke-linecap="round" stroke-linejoin="round"/>
<path d="M19 20.5833C21.6234 20.5833 23.75 18.4567 23.75 15.8333C23.75 13.21 21.6234 11.0833 19 11.0833C16.3766 11.0833 14.25 13.21 14.25 15.8333C14.25 18.4567 16.3766 20.5833 19 20.5833Z" fill="#00426D" stroke="#00426D" stroke-width="2.85" stroke-linecap="round" stroke-linejoin="round"/>
<path d="M11.0833 32.7149V30.0834C11.0833 29.2435 11.4169 28.438 12.0107 27.8442C12.6046 27.2503 13.4101 26.9167 14.2499 26.9167H23.7499C24.5898 26.9167 25.3952 27.2503 25.9891 27.8442C26.583 28.438 26.9166 29.2435 26.9166 30.0834V32.7149" fill="#00426D" stroke="#00426D" stroke-width="2.85" stroke-linecap="round" stroke-linejoin="round"/>
</svg>
