<svg width="24" height="24" viewBox="0 0 24 24" fill="none" xmlns="http://www.w3.org/2000/svg">
<rect x="0.5" y="0.5" width="23" height="23" rx="3.5" stroke="#083556"/>
<g clip-path="url(#clip0_4781_6129)">
<path d="M17.8328 14.8694V16.6194C17.8335 16.7819 17.8002 16.9427 17.7351 17.0915C17.6701 17.2404 17.5746 17.374 17.4549 17.4838C17.3352 17.5937 17.1938 17.6773 17.04 17.7293C16.8861 17.7814 16.723 17.8007 16.5612 17.7861C14.7662 17.591 13.0419 16.9777 11.527 15.9952C10.1176 15.0996 8.92263 13.9047 8.02701 12.4952C7.04117 10.9734 6.42766 9.24082 6.23618 7.43774C6.2216 7.27643 6.24077 7.11385 6.29247 6.96035C6.34417 6.80686 6.42726 6.66581 6.53646 6.54618C6.64566 6.42656 6.77857 6.33099 6.92672 6.26554C7.07488 6.2001 7.23505 6.16622 7.39701 6.16607H9.14701C9.43011 6.16329 9.70456 6.26353 9.91921 6.44813C10.1339 6.63273 10.2741 6.88908 10.3137 7.16941C10.3875 7.72944 10.5245 8.27933 10.722 8.80857C10.8005 9.01736 10.8175 9.24427 10.771 9.46242C10.7244 9.68057 10.6164 9.8808 10.4595 10.0394L9.71868 10.7802C10.5491 12.2406 11.7583 13.4498 13.2187 14.2802L13.9595 13.5394C14.1181 13.3826 14.3184 13.2745 14.5365 13.228C14.7546 13.1814 14.9816 13.1984 15.1903 13.2769C15.7196 13.4744 16.2695 13.6114 16.8295 13.6852C17.1129 13.7252 17.3717 13.8679 17.5567 14.0863C17.7417 14.3046 17.8399 14.5833 17.8328 14.8694Z" stroke="#00426D" stroke-linecap="round" stroke-linejoin="round"/>
</g>
<defs>
<clipPath id="clip0_4781_6129">
<rect width="14" height="14" fill="white" transform="translate(5 5)"/>
</clipPath>
</defs>
</svg>
