<svg width="33" height="33" viewBox="0 0 33 33" fill="none" xmlns="http://www.w3.org/2000/svg">
<rect x="0.791668" y="1.16667" width="30.6667" height="30.6667" rx="4.13334" stroke="url(#paint0_linear_1869_10786)" stroke-width="1.33334"/>
<path d="M23.7912 21.2674V23.7674C23.7922 23.9995 23.7446 24.2292 23.6517 24.4419C23.5587 24.6545 23.4223 24.8454 23.2513 25.0023C23.0803 25.1592 22.8784 25.2787 22.6585 25.353C22.4387 25.4274 22.2057 25.455 21.9746 25.4341C19.4103 25.1555 16.9471 24.2792 14.7829 22.8758C12.7694 21.5963 11.0623 19.8892 9.78288 17.8758C8.37452 15.7017 7.49807 13.2266 7.22454 10.6507C7.20371 10.4203 7.2311 10.188 7.30495 9.96875C7.37881 9.74947 7.49751 9.54797 7.65351 9.37708C7.80951 9.20619 7.99938 9.06966 8.21103 8.97617C8.42269 8.88268 8.65149 8.83428 8.88287 8.83407H11.3829C11.7873 8.83008 12.1794 8.9733 12.486 9.23701C12.7927 9.50072 12.9929 9.86694 13.0495 10.2674C13.1551 11.0675 13.3508 11.853 13.6329 12.6091C13.745 12.9073 13.7693 13.2315 13.7028 13.5431C13.6363 13.8548 13.4819 14.1408 13.2579 14.3674L12.1995 15.4257C13.3858 17.512 15.1133 19.2395 17.1996 20.4258L18.2579 19.3674C18.4845 19.1434 18.7705 18.989 19.0822 18.9225C19.3938 18.856 19.718 18.8803 20.0162 18.9924C20.7723 19.2745 21.5578 19.4702 22.3579 19.5758C22.7627 19.6329 23.1324 19.8368 23.3967 20.1487C23.661 20.4606 23.8014 20.8587 23.7912 21.2674Z" stroke="url(#paint1_linear_1869_10786)" stroke-width="1.5" stroke-linecap="round" stroke-linejoin="round"/>
<defs>
<linearGradient id="paint0_linear_1869_10786" x1="16.125" y1="0.5" x2="16.125" y2="32.5001" gradientUnits="userSpaceOnUse">
<stop stop-color="#FF7F38"/>
<stop offset="0.49" stop-color="#FFBA08"/>
<stop offset="1" stop-color="#FFA500"/>
</linearGradient>
<linearGradient id="paint1_linear_1869_10786" x1="15.5048" y1="8.83398" x2="15.5048" y2="25.4409" gradientUnits="userSpaceOnUse">
<stop stop-color="#FF7F38"/>
<stop offset="0.49" stop-color="#FFBA08"/>
<stop offset="1" stop-color="#FFA500"/>
</linearGradient>
</defs>
</svg>
