<svg width="25" height="24" viewBox="0 0 25 24" fill="none" xmlns="http://www.w3.org/2000/svg">
<path d="M2.66675 9C3.4624 9 4.22546 9.31607 4.78807 9.87868C5.35068 10.4413 5.66675 11.2044 5.66675 12C5.66675 12.7956 5.35068 13.5587 4.78807 14.1213C4.22546 14.6839 3.4624 15 2.66675 15V17C2.66675 17.5304 2.87746 18.0391 3.25253 18.4142C3.62761 18.7893 4.13632 19 4.66675 19H20.6667C21.1972 19 21.7059 18.7893 22.081 18.4142C22.456 18.0391 22.6667 17.5304 22.6667 17V15C21.8711 15 21.108 14.6839 20.5454 14.1213C19.9828 13.5587 19.6667 12.7956 19.6667 12C19.6667 11.2044 19.9828 10.4413 20.5454 9.87868C21.108 9.31607 21.8711 9 22.6667 9V7C22.6667 6.46957 22.456 5.96086 22.081 5.58579C21.7059 5.21071 21.1972 5 20.6667 5H4.66675C4.13632 5 3.62761 5.21071 3.25253 5.58579C2.87746 5.96086 2.66675 6.46957 2.66675 7V9Z" stroke="#00426D" stroke-width="1.5" stroke-linecap="round" stroke-linejoin="round"/>
<path d="M9.66675 9H9.67675" stroke="#00426D" stroke-width="1.5" stroke-linecap="round" stroke-linejoin="round"/>
<path d="M15.6667 9L9.66675 15" stroke="#00426D" stroke-width="1.5" stroke-linecap="round" stroke-linejoin="round"/>
<path d="M15.6667 15H15.6767" stroke="#00426D" stroke-width="1.5" stroke-linecap="round" stroke-linejoin="round"/>
</svg>
