<svg width="32" height="33" viewBox="0 0 32 33" fill="none" xmlns="http://www.w3.org/2000/svg">
<rect x="0.5" y="1" width="31" height="31" rx="3.1" stroke="url(#paint0_linear_4975_13834)"/>
<path d="M23.5 19V22.3333C23.5 22.7754 23.3244 23.1993 23.0118 23.5118C22.6993 23.8244 22.2754 24 21.8333 24H10.1667C9.72464 24 9.30072 23.8244 8.98816 23.5118C8.67559 23.1993 8.5 22.7754 8.5 22.3333V19" stroke="url(#paint1_linear_4975_13834)" stroke-width="1.5" stroke-linecap="round" stroke-linejoin="round"/>
<path d="M11.833 14.8333L15.9997 18.9999L20.1663 14.8333" stroke="url(#paint2_linear_4975_13834)" stroke-width="1.5" stroke-linecap="round" stroke-linejoin="round"/>
<path d="M16 19V9" stroke="url(#paint3_linear_4975_13834)" stroke-width="1.5" stroke-linecap="round" stroke-linejoin="round"/>
<defs>
<linearGradient id="paint0_linear_4975_13834" x1="16" y1="0.5" x2="16" y2="32.5" gradientUnits="userSpaceOnUse">
<stop stop-color="#FF7F38"/>
<stop offset="0.49" stop-color="#FFBA08"/>
<stop offset="1" stop-color="#FFA500"/>
</linearGradient>
<linearGradient id="paint1_linear_4975_13834" x1="16" y1="19" x2="16" y2="24" gradientUnits="userSpaceOnUse">
<stop stop-color="#FF7F38"/>
<stop offset="0.49" stop-color="#FFBA08"/>
<stop offset="1" stop-color="#FFA500"/>
</linearGradient>
<linearGradient id="paint2_linear_4975_13834" x1="15.9997" y1="14.8333" x2="15.9997" y2="18.9999" gradientUnits="userSpaceOnUse">
<stop stop-color="#FF7F38"/>
<stop offset="0.49" stop-color="#FFBA08"/>
<stop offset="1" stop-color="#FFA500"/>
</linearGradient>
<linearGradient id="paint3_linear_4975_13834" x1="16.5" y1="9" x2="16.5" y2="19" gradientUnits="userSpaceOnUse">
<stop stop-color="#FF7F38"/>
<stop offset="0.49" stop-color="#FFBA08"/>
<stop offset="1" stop-color="#FFA500"/>
</linearGradient>
</defs>
</svg>
