<svg width="24" height="24" viewBox="0 0 24 24" fill="none" xmlns="http://www.w3.org/2000/svg">
<path d="M20.2569 7.33026C20.7328 6.85453 21.0002 6.20926 21.0002 5.53639C21.0003 4.86352 20.7331 4.21818 20.2574 3.74233C19.7817 3.26648 19.1364 2.99911 18.4635 2.99902C17.7906 2.99894 17.1453 3.26615 16.6695 3.74188L4.65778 15.7563C4.44881 15.9646 4.29427 16.2211 4.20777 16.5033L3.01884 20.4202C2.99558 20.498 2.99382 20.5807 3.01376 20.6594C3.03369 20.7382 3.07457 20.8101 3.13206 20.8675C3.18955 20.9249 3.26151 20.9656 3.34029 20.9854C3.41908 21.0052 3.50176 21.0034 3.57955 20.98L7.49734 19.7919C7.7792 19.7062 8.03571 19.5526 8.24436 19.3446L20.2569 7.33026Z" stroke="#242424" stroke-width="1.5" stroke-linecap="round" stroke-linejoin="round"/>
<path d="M14.7002 5.7002L18.3003 9.30028" stroke="#242424" stroke-width="1.5" stroke-linecap="round" stroke-linejoin="round"/>
</svg>
