<svg width="14" height="14" viewBox="0 0 14 14" fill="none" xmlns="http://www.w3.org/2000/svg">
<path d="M7 3.5V7L9.33333 8.16667" stroke="#0071AF" stroke-width="1.16667" stroke-linecap="round" stroke-linejoin="round"/>
<path d="M9.33358 12.3429C8.28508 12.801 7.12503 12.9405 5.99781 12.7443C4.87058 12.548 3.82596 12.0246 2.99396 11.2391C2.16196 10.4537 1.57932 9.44092 1.31855 8.32685C1.05779 7.21278 1.13041 6.04662 1.52739 4.97351C1.92437 3.9004 2.62817 2.96773 3.55119 2.29158C4.47422 1.61543 5.57571 1.22566 6.71857 1.17078C7.86144 1.1159 8.99521 1.39833 9.97878 1.98292C10.9623 2.56751 11.7523 3.42845 12.2503 4.45858" stroke="#0071AF" stroke-width="1.16667" stroke-linecap="round" stroke-linejoin="round"/>
<path d="M11.667 6.70801V10.208" stroke="#0071AF" stroke-width="1.16667" stroke-linecap="round" stroke-linejoin="round"/>
<path d="M11.667 12.542H11.6737" stroke="#0071AF" stroke-width="1.16667" stroke-linecap="round" stroke-linejoin="round"/>
</svg>
