<svg width="14" height="22" viewBox="0 0 14 22" fill="none" xmlns="http://www.w3.org/2000/svg">
<path d="M1.66869 12.9995C1.54258 13.0001 1.41894 12.9471 1.31212 12.8465C1.20531 12.7459 1.11972 12.6019 1.06528 12.4313C1.01085 12.2606 0.989806 12.0703 1.0046 11.8824C1.0194 11.6945 1.06943 11.5168 1.14888 11.3699L7.74638 1.17256C7.79587 1.08686 7.86331 1.02895 7.93763 1.00833C8.01195 0.987717 8.08874 1.00562 8.15538 1.05909C8.22203 1.11257 8.27457 1.19845 8.3044 1.30263C8.33422 1.40682 8.33954 1.52312 8.3195 1.63244L7.03999 7.65087C7.00226 7.80236 6.98958 7.96531 7.00306 8.12576C7.01653 8.2862 7.05575 8.43935 7.11735 8.57206C7.17895 8.70477 7.26108 8.81308 7.35672 8.88771C7.45235 8.96234 7.55862 9.00105 7.66641 9.00052H12.3313C12.4574 8.99988 12.5811 9.05292 12.6879 9.1535C12.7947 9.25408 12.8803 9.39806 12.9347 9.56872C12.9892 9.73937 13.0102 9.92969 12.9954 10.1176C12.9806 10.3055 12.9306 10.4832 12.8511 10.6301L6.25362 20.8274C6.20413 20.9131 6.13669 20.971 6.06237 20.9917C5.98805 21.0123 5.91126 20.9944 5.84462 20.9409C5.77797 20.8874 5.72543 20.8015 5.6956 20.6974C5.66578 20.5932 5.66046 20.4769 5.6805 20.3676L6.96001 14.3491C6.99774 14.1976 7.01042 14.0347 6.99694 13.8742C6.98347 13.7138 6.94425 13.5607 6.88265 13.4279C6.82105 13.2952 6.73892 13.1869 6.64328 13.1123C6.54765 13.0377 6.44138 12.999 6.33359 12.9995H1.66869Z" stroke="#242424" stroke-width="1.5" stroke-linecap="round" stroke-linejoin="round"/>
</svg>
