<svg width="33" height="33" viewBox="0 0 33 33" fill="none" xmlns="http://www.w3.org/2000/svg">
<path d="M12.2087 19.8333C13.0927 19.8333 13.9406 19.4821 14.5657 18.857C15.1908 18.2319 15.542 17.3841 15.542 16.5C15.542 14.66 14.8753 13.8333 14.2087 12.5C12.7793 9.64267 13.91 7.09467 16.8753 4.5C17.542 7.83333 19.542 11.0333 22.2087 13.1667C24.8753 15.3 26.2087 17.8333 26.2087 20.5C26.2087 21.7257 25.9672 22.9393 25.4982 24.0717C25.0292 25.2041 24.3417 26.233 23.475 27.0997C22.6083 27.9663 21.5794 28.6538 20.447 29.1229C19.3147 29.5919 18.101 29.8333 16.8753 29.8333C15.6497 29.8333 14.436 29.5919 13.3036 29.1229C12.1712 28.6538 11.1423 27.9663 10.2757 27.0997C9.40898 26.233 8.72149 25.2041 8.25245 24.0717C7.78341 22.9393 7.54199 21.7257 7.54199 20.5C7.54199 18.9627 8.11933 17.4413 8.87533 16.5C8.87533 17.3841 9.22651 18.2319 9.85164 18.857C10.4768 19.4821 11.3246 19.8333 12.2087 19.8333Z" stroke="url(#paint0_linear_1869_10736)" stroke-width="1.5" stroke-linecap="round" stroke-linejoin="round"/>
<defs>
<linearGradient id="paint0_linear_1869_10736" x1="16.8753" y1="4.5" x2="16.8753" y2="29.8333" gradientUnits="userSpaceOnUse">
<stop stop-color="#FF7F38"/>
<stop offset="0.49" stop-color="#FFBA08"/>
<stop offset="1" stop-color="#FFA500"/>
</linearGradient>
</defs>
</svg>
