<svg width="8" height="12" viewBox="0 0 8 12" fill="none" xmlns="http://www.w3.org/2000/svg">
<path d="M1.9322 12L1.84068 11.9186C1.80508 11.8729 1.78983 11.8119 1.78983 11.7356C1.78983 11.6695 1.79492 11.6186 1.8 11.5932C1.81525 11.5322 1.95763 11.1153 2.22712 10.3373C2.49661 9.55932 2.7661 8.80169 3.03051 8.05424L3.42712 6.93559H0.355932C0.198305 6.93559 0.0966101 6.86949 0.0406779 6.74237C0.0152542 6.69661 0 6.64576 0 6.58983C0 6.50339 0.0355932 6.41186 0.101695 6.32542C0.61017 5.74068 1.32203 4.93729 2.2322 3.91017C3.14237 2.88305 3.91525 2.01356 4.55085 1.29661C5.18644 0.579661 5.51695 0.20339 5.55254 0.162712C5.61356 0.0559322 5.7 0 5.80678 0H5.89831L5.98983 0.0915254C6.03051 0.137288 6.05085 0.20339 6.05085 0.284746C6.05085 0.289831 6.05085 0.305085 6.04576 0.325424C6.04068 0.345763 6.04068 0.361017 6.04068 0.366102C6.02034 0.442373 5.75085 1.20508 5.23729 2.65932C4.72373 4.11356 4.45932 4.8661 4.44407 4.91186L7.49492 4.90169C7.65763 4.90169 7.76441 4.95763 7.82034 5.07458C7.84068 5.11525 7.85085 5.16102 7.85085 5.20678C7.85085 5.28814 7.82542 5.36441 7.76949 5.44068C7.76441 5.44068 7.31186 5.96441 6.41186 7.01695C5.51186 8.06949 4.60678 9.12712 3.69661 10.1949C2.78644 11.2627 2.31356 11.8119 2.28814 11.8475C2.20678 11.9492 2.12034 12 2.02373 12H1.9322Z" fill="white"/>
</svg>
