<svg width="33" height="33" viewBox="0 0 33 33" fill="none" xmlns="http://www.w3.org/2000/svg">
<path d="M6.62467 22.5004C4.62467 24.1804 3.95801 29.1671 3.95801 29.1671C3.95801 29.1671 8.94467 28.5004 10.6247 26.5004C11.5713 25.3804 11.558 23.6604 10.5047 22.6204C9.98642 22.1258 9.30373 21.8399 8.58764 21.8178C7.87155 21.7956 7.17251 22.0387 6.62467 22.5004Z" stroke="url(#paint0_linear_1869_10726)" stroke-width="1.5" stroke-linecap="round" stroke-linejoin="round"/>
<path d="M16.625 20.4997L12.625 16.4997C13.3345 14.6589 14.2279 12.8944 15.2917 11.233C16.8452 8.749 19.0085 6.70374 21.5757 5.2918C24.1428 3.87986 27.0286 3.14817 29.9583 3.16635C29.9583 6.79301 28.9183 13.1663 21.9583 17.833C20.2742 18.898 18.4875 19.7913 16.625 20.4997Z" stroke="url(#paint1_linear_1869_10726)" stroke-width="1.5" stroke-linecap="round" stroke-linejoin="round"/>
<path d="M12.6247 16.4997H5.95801C5.95801 16.4997 6.69134 12.4597 8.62467 11.1664C10.7847 9.72637 15.2913 11.1664 15.2913 11.1664" stroke="url(#paint2_linear_1869_10726)" stroke-width="1.5" stroke-linecap="round" stroke-linejoin="round"/>
<path d="M16.625 20.4997V27.1663C16.625 27.1663 20.665 26.433 21.9583 24.4997C23.3983 22.3397 21.9583 17.833 21.9583 17.833" stroke="url(#paint3_linear_1869_10726)" stroke-width="1.5" stroke-linecap="round" stroke-linejoin="round"/>
<defs>
<linearGradient id="paint0_linear_1869_10726" x1="7.63676" y1="21.8164" x2="7.63676" y2="29.1671" gradientUnits="userSpaceOnUse">
<stop stop-color="#FF7F38"/>
<stop offset="0.49" stop-color="#FFBA08"/>
<stop offset="1" stop-color="#FFA500"/>
</linearGradient>
<linearGradient id="paint1_linear_1869_10726" x1="21.2917" y1="3.16602" x2="21.2917" y2="20.4997" gradientUnits="userSpaceOnUse">
<stop stop-color="#FF7F38"/>
<stop offset="0.49" stop-color="#FFBA08"/>
<stop offset="1" stop-color="#FFA500"/>
</linearGradient>
<linearGradient id="paint2_linear_1869_10726" x1="10.6247" y1="10.5264" x2="10.6247" y2="16.4997" gradientUnits="userSpaceOnUse">
<stop stop-color="#FF7F38"/>
<stop offset="0.49" stop-color="#FFBA08"/>
<stop offset="1" stop-color="#FFA500"/>
</linearGradient>
<linearGradient id="paint3_linear_1869_10726" x1="19.6117" y1="17.833" x2="19.6117" y2="27.1663" gradientUnits="userSpaceOnUse">
<stop stop-color="#FF7F38"/>
<stop offset="0.49" stop-color="#FFBA08"/>
<stop offset="1" stop-color="#FFA500"/>
</linearGradient>
</defs>
</svg>
