<svg width="32" height="32" viewBox="0 0 32 32" fill="none" xmlns="http://www.w3.org/2000/svg">
<path d="M19.5998 8.4003C19.3555 8.64954 19.2187 8.98463 19.2187 9.33363C19.2187 9.68264 19.3555 10.0177 19.5998 10.267L21.7331 12.4003C21.9824 12.6446 22.3175 12.7814 22.6665 12.7814C23.0155 12.7814 23.3506 12.6446 23.5998 12.4003L28.6265 7.37363C29.2969 8.85522 29.4999 10.5059 29.2084 12.1058C28.9169 13.7057 28.1448 15.1788 26.9948 16.3287C25.8449 17.4786 24.3719 18.2507 22.772 18.5422C21.1721 18.8337 19.5214 18.6307 18.0398 17.9603L8.82647 27.1736C8.29604 27.7041 7.57662 28.0021 6.82647 28.0021C6.07633 28.0021 5.35691 27.7041 4.82647 27.1736C4.29604 26.6432 3.99805 25.9238 3.99805 25.1736C3.99805 24.4235 4.29604 23.7041 4.82647 23.1736L14.0398 13.9603C13.3694 12.4787 13.1664 10.828 13.4579 9.2281C13.7494 7.62822 14.5215 6.15517 15.6714 5.00526C16.8213 3.85535 18.2944 3.08319 19.8943 2.79169C21.4942 2.50019 23.1449 2.70318 24.6265 3.37363L19.6131 8.38697L19.5998 8.4003Z" stroke="url(#paint0_linear_4753_12804)" stroke-width="1.5" stroke-linecap="round" stroke-linejoin="round"/>
<defs>
<linearGradient id="paint0_linear_4753_12804" x1="16.668" y1="2.66211" x2="16.668" y2="28.0021" gradientUnits="userSpaceOnUse">
<stop stop-color="#FF7F38"/>
<stop offset="0.49" stop-color="#FFBA08"/>
<stop offset="1" stop-color="#FFA500"/>
</linearGradient>
</defs>
</svg>
