<svg width="24" height="24" viewBox="0 0 24 24" fill="none" xmlns="http://www.w3.org/2000/svg">
<path d="M2.06153 12.3481C1.97819 12.1236 1.97819 11.8766 2.06153 11.6521C2.87323 9.68397 4.25104 8.00116 6.0203 6.81701C7.78955 5.63287 9.87057 5.00073 11.9995 5.00073C14.1285 5.00073 16.2095 5.63287 17.9788 6.81701C19.748 8.00116 21.1258 9.68397 21.9375 11.6521C22.0209 11.8766 22.0209 12.1236 21.9375 12.3481C21.1258 14.3163 19.748 15.9991 17.9788 17.1832C16.2095 18.3674 14.1285 18.9995 11.9995 18.9995C9.87057 18.9995 7.78955 18.3674 6.0203 17.1832C4.25104 15.9991 2.87323 14.3163 2.06153 12.3481Z" stroke="#242424" stroke-width="1.5" stroke-linecap="round" stroke-linejoin="round"/>
<path d="M12 15C13.6569 15 15 13.6569 15 12C15 10.3431 13.6569 9 12 9C10.3431 9 9 10.3431 9 12C9 13.6569 10.3431 15 12 15Z" stroke="#242424" stroke-width="1.5" stroke-linecap="round" stroke-linejoin="round"/>
</svg>
