<svg width="33" height="33" viewBox="0 0 33 33" fill="none" xmlns="http://www.w3.org/2000/svg">
<path d="M15.0417 19.1663H17.7083C18.4156 19.1663 19.0939 18.8854 19.594 18.3853C20.094 17.8852 20.375 17.2069 20.375 16.4997C20.375 15.7924 20.094 15.1142 19.594 14.6141C19.0939 14.114 18.4156 13.833 17.7083 13.833H13.7083C12.9083 13.833 12.2417 14.0997 11.8417 14.633L4.375 21.833" stroke="url(#paint0_linear_1869_10716)" stroke-width="1.5" stroke-linecap="round" stroke-linejoin="round"/>
<path d="M9.70801 27.1664L11.8413 25.2997C12.2413 24.7664 12.908 24.4997 13.708 24.4997H19.0413C20.508 24.4997 21.8413 23.9664 22.7747 22.8997L28.908 17.033C29.4225 16.5468 29.7228 15.8761 29.7428 15.1685C29.7628 14.4608 29.5009 13.7742 29.0147 13.2597C28.5284 12.7452 27.8577 12.4449 27.1501 12.4249C26.4425 12.4049 25.7559 12.6668 25.2413 13.153L19.6413 18.353" stroke="url(#paint1_linear_1869_10716)" stroke-width="1.5" stroke-linecap="round" stroke-linejoin="round"/>
<path d="M3.04199 20.5L11.042 28.5" stroke="url(#paint2_linear_1869_10716)" stroke-width="1.5" stroke-linecap="round" stroke-linejoin="round"/>
<path d="M26.3745 11.8333C27.3079 10.9 28.3745 9.7 28.3745 8.23334C28.4677 7.41857 28.2831 6.59621 27.8505 5.89952C27.4179 5.20283 26.7627 4.67263 25.9911 4.39486C25.2195 4.11708 24.3767 4.108 23.5993 4.36909C22.8219 4.63017 22.1554 5.14613 21.7079 5.83333C21.2319 5.19944 20.5653 4.73484 19.8058 4.50771C19.0464 4.28059 18.2341 4.30292 17.4883 4.57142C16.7424 4.83992 16.1023 5.34045 15.6619 5.99953C15.2215 6.65861 15.0039 7.44152 15.0412 8.23334C15.0412 9.83334 16.1079 10.9 17.0412 11.9667L21.7079 16.5L26.3745 11.8333Z" stroke="url(#paint3_linear_1869_10716)" stroke-width="1.5" stroke-linecap="round" stroke-linejoin="round"/>
<defs>
<linearGradient id="paint0_linear_1869_10716" x1="12.375" y1="13.833" x2="12.375" y2="21.833" gradientUnits="userSpaceOnUse">
<stop stop-color="#FF7F38"/>
<stop offset="0.49" stop-color="#FFBA08"/>
<stop offset="1" stop-color="#FFA500"/>
</linearGradient>
<linearGradient id="paint1_linear_1869_10716" x1="19.7259" y1="12.4238" x2="19.7259" y2="27.1664" gradientUnits="userSpaceOnUse">
<stop stop-color="#FF7F38"/>
<stop offset="0.49" stop-color="#FFBA08"/>
<stop offset="1" stop-color="#FFA500"/>
</linearGradient>
<linearGradient id="paint2_linear_1869_10716" x1="7.04199" y1="20.5" x2="7.04199" y2="28.5" gradientUnits="userSpaceOnUse">
<stop stop-color="#FF7F38"/>
<stop offset="0.49" stop-color="#FFBA08"/>
<stop offset="1" stop-color="#FFA500"/>
</linearGradient>
<linearGradient id="paint3_linear_1869_10716" x1="21.7176" y1="4.17969" x2="21.7176" y2="16.5" gradientUnits="userSpaceOnUse">
<stop stop-color="#FF7F38"/>
<stop offset="0.49" stop-color="#FFBA08"/>
<stop offset="1" stop-color="#FFA500"/>
</linearGradient>
</defs>
</svg>
