<svg width="25" height="24" viewBox="0 0 25 24" fill="none" xmlns="http://www.w3.org/2000/svg">
<path d="M15.5334 6.30001C15.3501 6.48694 15.2475 6.73826 15.2475 7.00001C15.2475 7.26176 15.3501 7.51308 15.5334 7.70001L17.1334 9.30001C17.3203 9.48324 17.5716 9.58587 17.8334 9.58587C18.0951 9.58587 18.3464 9.48324 18.5334 9.30001L22.3034 5.53001C22.8062 6.6412 22.9584 7.87924 22.7398 9.07916C22.5212 10.2791 21.9421 11.3839 21.0796 12.2463C20.2172 13.1087 19.1124 13.6878 17.9125 13.9065C16.7126 14.1251 15.4745 13.9728 14.3634 13.47L7.45335 20.38C7.05553 20.7778 6.51596 21.0013 5.95335 21.0013C5.39074 21.0013 4.85118 20.7778 4.45335 20.38C4.05553 19.9822 3.83203 19.4426 3.83203 18.88C3.83203 18.3174 4.05553 17.7778 4.45335 17.38L11.3634 10.47C10.8605 9.35882 10.7083 8.12078 10.9269 6.92087C11.1455 5.72095 11.7246 4.61617 12.5871 3.75373C13.4495 2.8913 14.5543 2.31218 15.7542 2.09355C16.9541 1.87493 18.1922 2.02718 19.3034 2.53001L15.5434 6.29001L15.5334 6.30001Z" stroke="#646464" stroke-width="1.5" stroke-linecap="round" stroke-linejoin="round"/>
</svg>
