<svg width="24" height="24" viewBox="0 0 24 24" fill="none" xmlns="http://www.w3.org/2000/svg">
<rect x="0.5" y="0.5" width="23" height="23" rx="3.5" stroke="#00426D"/>
<path d="M15.5998 9.6C16.5939 9.6 17.3998 8.79411 17.3998 7.8C17.3998 6.80589 16.5939 6 15.5998 6C14.6057 6 13.7998 6.80589 13.7998 7.8C13.7998 8.79411 14.6057 9.6 15.5998 9.6Z" stroke="#00426D" stroke-width="1.2" stroke-linecap="round" stroke-linejoin="round"/>
<path d="M8.39961 13.8012C9.39372 13.8012 10.1996 12.9953 10.1996 12.0012C10.1996 11.0071 9.39372 10.2012 8.39961 10.2012C7.4055 10.2012 6.59961 11.0071 6.59961 12.0012C6.59961 12.9953 7.4055 13.8012 8.39961 13.8012Z" stroke="#00426D" stroke-width="1.2" stroke-linecap="round" stroke-linejoin="round"/>
<path d="M15.5998 18.0004C16.5939 18.0004 17.3998 17.1945 17.3998 16.2004C17.3998 15.2063 16.5939 14.4004 15.5998 14.4004C14.6057 14.4004 13.7998 15.2063 13.7998 16.2004C13.7998 17.1945 14.6057 18.0004 15.5998 18.0004Z" stroke="#00426D" stroke-width="1.2" stroke-linecap="round" stroke-linejoin="round"/>
<path d="M9.95605 12.9062L14.0541 15.2942" stroke="#00426D" stroke-width="1.2" stroke-linecap="round" stroke-linejoin="round"/>
<path d="M14.0481 8.70703L9.95605 11.095" stroke="#00426D" stroke-width="1.2" stroke-linecap="round" stroke-linejoin="round"/>
</svg>
