<svg width="25" height="24" viewBox="0 0 25 24" fill="none" xmlns="http://www.w3.org/2000/svg">
<path d="M21.5 8.00001L19.5 10L18 6.30001C17.8585 5.92135 17.6057 5.59443 17.2747 5.36236C16.9437 5.13029 16.5502 5.00396 16.146 5.00001H8.9C8.4925 4.99065 8.09188 5.10602 7.75177 5.33067C7.41166 5.55533 7.14832 5.87853 6.997 6.25701L5.5 10L3.5 8.00001" stroke="#646464" stroke-width="1.5" stroke-linecap="round" stroke-linejoin="round"/>
<path d="M7.5 14H7.51" stroke="#646464" stroke-width="1.5" stroke-linecap="round" stroke-linejoin="round"/>
<path d="M17.5 14H17.51" stroke="#646464" stroke-width="1.5" stroke-linecap="round" stroke-linejoin="round"/>
<path d="M19.5 10H5.5C4.39543 10 3.5 10.8954 3.5 12V16C3.5 17.1046 4.39543 18 5.5 18H19.5C20.6046 18 21.5 17.1046 21.5 16V12C21.5 10.8954 20.6046 10 19.5 10Z" stroke="#646464" stroke-width="1.5" stroke-linecap="round" stroke-linejoin="round"/>
<path d="M5.5 18V20" stroke="#646464" stroke-width="1.5" stroke-linecap="round" stroke-linejoin="round"/>
<path d="M19.5 18V20" stroke="#646464" stroke-width="1.5" stroke-linecap="round" stroke-linejoin="round"/>
</svg>
