<svg width="24" height="24" viewBox="0 0 24 24" fill="none" xmlns="http://www.w3.org/2000/svg">
<rect x="0.5" y="0.5" width="23" height="23" rx="3.5" stroke="#083556"/>
<path fill-rule="evenodd" clip-rule="evenodd" d="M12 18.125C15.3827 18.125 18.125 15.3827 18.125 12C18.125 8.61726 15.3827 5.875 12 5.875C8.61726 5.875 5.875 8.61726 5.875 12C5.875 13.0985 6.16419 14.1295 6.67058 15.0209L5.875 18.125L9.07525 17.3829C9.94435 17.8561 10.9408 18.125 12 18.125ZM12 17.1827C14.8623 17.1827 17.1827 14.8623 17.1827 12C17.1827 9.13768 14.8623 6.81731 12 6.81731C9.13768 6.81731 6.81731 9.13768 6.81731 12C6.81731 13.1052 7.16322 14.1295 7.75268 14.9707L7.28846 16.7115L9.05997 16.2687C9.89535 16.8451 10.9083 17.1827 12 17.1827Z" fill="#00426D"/>
<path d="M10.4688 9.15586C10.3231 8.86336 10.0997 8.88926 9.87405 8.88926C9.47071 8.88926 8.8418 9.37238 8.8418 10.2715C8.8418 11.0084 9.16651 11.8151 10.2607 13.0217C11.3166 14.1862 12.7041 14.7886 13.856 14.7681C15.0078 14.7476 15.2448 13.7564 15.2448 13.4217C15.2448 13.2733 15.1527 13.1993 15.0893 13.1792C14.6968 12.9908 13.9728 12.6398 13.8081 12.5738C13.6434 12.5079 13.5574 12.5971 13.5039 12.6456C13.3545 12.788 13.0584 13.2075 12.957 13.3019C12.8556 13.3962 12.7045 13.3485 12.6416 13.3128C12.4101 13.2199 11.7825 12.9408 11.2823 12.4558C10.6636 11.8561 10.6273 11.6497 10.5107 11.4661C10.4175 11.3191 10.4859 11.229 10.52 11.1896C10.6533 11.0357 10.8374 10.7983 10.9199 10.6803C11.0025 10.5623 10.9369 10.3831 10.8976 10.2715C10.7285 9.79161 10.5853 9.38987 10.4688 9.15586Z" fill="#00426D"/>
</svg>
