<svg width="20" height="20" viewBox="0 0 20 20" fill="none" xmlns="http://www.w3.org/2000/svg">
<path d="M16.6666 13.3333V5.83329C16.6666 5.39127 16.491 4.96734 16.1785 4.65478C15.8659 4.34222 15.442 4.16663 15 4.16663H4.99998C4.55795 4.16663 4.13403 4.34222 3.82147 4.65478C3.5089 4.96734 3.33331 5.39127 3.33331 5.83329V13.3333M16.6666 13.3333H3.33331M16.6666 13.3333L17.7333 15.4583C17.7976 15.5858 17.828 15.7276 17.8216 15.8703C17.8153 16.0129 17.7725 16.1515 17.6972 16.2728C17.6219 16.3941 17.5167 16.494 17.3917 16.563C17.2667 16.6319 17.1261 16.6676 16.9833 16.6666H3.01664C2.87388 16.6676 2.73326 16.6319 2.60826 16.563C2.48326 16.494 2.37808 16.3941 2.30279 16.2728C2.2275 16.1515 2.18464 16.0129 2.17831 15.8703C2.17198 15.7276 2.2024 15.5858 2.26664 15.4583L3.33331 13.3333" stroke="#FF7F38" stroke-width="1.5" stroke-linecap="round" stroke-linejoin="round"/>
</svg>
