<svg width="18" height="19" viewBox="0 0 18 19" fill="none" xmlns="http://www.w3.org/2000/svg">
<path d="M6.75 14.47L7.5 11.38H3.1275C2.89464 11.38 2.66497 11.3258 2.45668 11.2216C2.2484 11.1175 2.06722 10.9663 1.9275 10.78C1.78778 10.5937 1.69335 10.3774 1.6517 10.1483C1.61004 9.91922 1.6223 9.68356 1.6875 9.46001L3.435 3.46001C3.52588 3.14843 3.71536 2.87474 3.975 2.68C4.23465 2.48527 4.55045 2.38 4.875 2.38H15C15.3978 2.38 15.7794 2.53804 16.0607 2.81934C16.342 3.10065 16.5 3.48218 16.5 3.88001V9.88001C16.5 10.2778 16.342 10.6594 16.0607 10.9407C15.7794 11.222 15.3978 11.38 15 11.38H12.93C12.6509 11.3802 12.3775 11.4581 12.1403 11.6052C11.9031 11.7523 11.7117 11.9626 11.5875 12.2125L9 17.38C8.64632 17.3756 8.2982 17.2914 7.98165 17.1336C7.6651 16.9757 7.38831 16.7484 7.17195 16.4686C6.95559 16.1888 6.80527 15.8637 6.7322 15.5176C6.65913 15.1715 6.66522 14.8134 6.75 14.47Z" stroke="#00426D" stroke-linecap="round" stroke-linejoin="round"/>
<path d="M12.75 11.38V2.38" stroke="#00426D" stroke-linecap="round" stroke-linejoin="round"/>
</svg>
