<svg width="14" height="15" viewBox="0 0 14 15" fill="none" xmlns="http://www.w3.org/2000/svg">
<g clip-path="url(#clip0_6745_8734)">
<path d="M5.25004 11.45L5.83337 9.04663H2.43254C2.25142 9.04663 2.07278 9.00446 1.91079 8.92346C1.74879 8.84246 1.60787 8.72486 1.4992 8.57996C1.39053 8.43507 1.31709 8.26686 1.28469 8.08866C1.25229 7.91047 1.26182 7.72717 1.31254 7.5533L2.6717 2.88663C2.74238 2.6443 2.88976 2.43142 3.0917 2.27996C3.29365 2.12851 3.53927 2.04663 3.7917 2.04663H11.6667C11.9761 2.04663 12.2729 2.16955 12.4917 2.38834C12.7105 2.60713 12.8334 2.90388 12.8334 3.2133V7.87996C12.8334 8.18938 12.7105 8.48613 12.4917 8.70492C12.2729 8.92371 11.9761 9.04663 11.6667 9.04663H10.0567C9.83965 9.04675 9.62694 9.10741 9.44248 9.22179C9.25802 9.33618 9.10912 9.49976 9.01254 9.69413L7.00004 13.7133C6.72495 13.7099 6.45419 13.6444 6.20798 13.5216C5.96178 13.3989 5.74649 13.2221 5.57822 13.0044C5.40994 12.7868 5.29302 12.5339 5.23619 12.2648C5.17936 11.9956 5.18409 11.7171 5.25004 11.45Z" fill="#00426D" stroke="#00426D" stroke-width="0.875" stroke-linecap="round" stroke-linejoin="round"/>
<path d="M9.91675 9.04663V2.04663" stroke="white" stroke-width="0.875" stroke-linecap="round" stroke-linejoin="round"/>
</g>
<defs>
<clipPath id="clip0_6745_8734">
<rect width="14" height="14" fill="white" transform="translate(0 0.880005)"/>
</clipPath>
</defs>
</svg>
