<svg width="56" height="56" viewBox="0 0 56 56" fill="none" xmlns="http://www.w3.org/2000/svg">
<rect x="4" y="4" width="48" height="48" rx="24" fill="#EDFAFF"/>
<rect x="4" y="4" width="48" height="48" rx="24" stroke="#E8F2FE" stroke-width="8"/>
<path d="M23.9 36C25.8086 36.9791 28.0041 37.2443 30.0909 36.7478C32.1777 36.2514 34.0186 35.0259 35.2818 33.2922C36.545 31.5586 37.1474 29.4308 36.9806 27.2922C36.8137 25.1537 35.8886 23.145 34.3718 21.6282C32.855 20.1115 30.8464 19.1863 28.7078 19.0195C26.5693 18.8526 24.4415 19.4551 22.7078 20.7183C20.9742 21.9815 19.7487 23.8224 19.2522 25.9092C18.7558 27.996 19.0209 30.1915 20 32.1L18 38L23.9 36Z" stroke="#00426D" stroke-width="2" stroke-linecap="round" stroke-linejoin="round"/>
<path d="M24 28H24.01" stroke="#00426D" stroke-width="1.5" stroke-linecap="round" stroke-linejoin="round"/>
<path d="M28 28H28.01" stroke="#00426D" stroke-width="1.5" stroke-linecap="round" stroke-linejoin="round"/>
<path d="M32 28H32.01" stroke="#00426D" stroke-width="1.5" stroke-linecap="round" stroke-linejoin="round"/>
</svg>
