<svg width="25" height="25" viewBox="0 0 25 25" fill="none" xmlns="http://www.w3.org/2000/svg">
<path d="M12.5 22.875C18.0228 22.875 22.5 18.3978 22.5 12.875C22.5 7.35215 18.0228 2.875 12.5 2.875C6.97715 2.875 2.5 7.35215 2.5 12.875C2.5 18.3978 6.97715 22.875 12.5 22.875Z" stroke="#242424" stroke-width="1.5" stroke-linecap="round" stroke-linejoin="round"/>
<path d="M12.4 7.57495C12.4 7.57495 9.40002 8.87495 7.40002 11.175C7.40002 11.175 7.40002 14.775 9.30002 17.075C9.30002 17.075 12.4 17.775 15.5 17.075C15.5 17.075 17.4 14.775 17.4 11.175C17.4 11.275 15.4 8.87495 12.4 7.57495Z" stroke="#242424" stroke-width="1.5" stroke-linecap="round" stroke-linejoin="round"/>
<path d="M12.4 7.575V2.875" stroke="#242424" stroke-width="1.5" stroke-linecap="round" stroke-linejoin="round"/>
<path d="M17.4 11.275C17.4 11.275 20.4 9.87505 21.9 9.67505" stroke="#242424" stroke-width="1.5" stroke-linecap="round" stroke-linejoin="round"/>
<path d="M15.5 17.175C15.5 17.175 17.4 19.875 18.4 20.875" stroke="#242424" stroke-width="1.5" stroke-linecap="round" stroke-linejoin="round"/>
<path d="M9.3 17.175C9.3 17.175 7.4 19.875 6.5 20.875" stroke="#242424" stroke-width="1.5" stroke-linecap="round" stroke-linejoin="round"/>
<path d="M3.09998 9.57495C4.49998 9.87495 7.49998 11.275 7.49998 11.275" stroke="#242424" stroke-width="1.5" stroke-linecap="round" stroke-linejoin="round"/>
</svg>
